<svg data-name="Layer 1" xmlns="http://www.w3.org/2000/svg" width="32" height="32"><defs><clipPath id="a"><path fill="none" d="M0 0h32v32H0z"/></clipPath></defs><g clip-path="url(#a)" fill-rule="evenodd"><path d="M19.2 23.7c0 .2 0 .3-.1.4l-.5-.3v-.6l.8-.5c-.1.4-.1.7-.2 1" fill="#588fcb"/><path d="M18.2 26.6l-.2.3h-.1c0 .1-.1.2-.2.3l-.2.3-1.2.8-1.1-.3.5-1-.3-1.3v-1l.2-.8-1-.3-.7.7-1.2-.7.3-1.8.7-1v-1.1l.8-.7-.6-1.2-.6.9-.8-1.9h1.2l-.5-1.6h-1.3l-.4-1.2-.9-.5-.9.2-.9.3 1 .7-1 1.1.6.6v1.1L8 16.7v1.5l.7-.8 1.3 1.9H8.4l-1.1 1.3-.3-.4H5.9l-.5 1 .7.6.5.6.5.6 1.6.6.2 1.1.9.2.7.9-.8.9-.7.3v.6l-.7.6-.8.3-.5.7v.8c0-.1-.2-.2-.5-.3s-.1-.2-.2-.4a1.6 1.6 0 0 1-.1-.4l-.3-1.4.7-.5.2-1.2-.6-.4-.6-1 .6-.4.2-1.1h-.3l-.5-1.2-1-.9.4-.7-.5-.9.4-2 1.3-.6 1.1-.9v-.8l-.3-.6 1.2-.4 1.3-1.2-.2-.2h2.5l.6.2h.2l.4.2h.1l.6.2h.1l.4.2h.1l.5.3.5.3h.1l.4.3h.1l.8.7h.1l.3.4h.1l.4.4.3.4h.1a.8.8 0 0 0 .2.4l.3.5.2.4c0 .1.1.1.1.2l.2.5-1.2 1.4-.5-1.1-1-.3-1.4.4-.2.9.8.8 1-.9 1.1 1.2h.8l.8-.6.2.7v.7l-1.2.7v1.2l.9.5a16.7 16.7 0 0 1-.8 2" fill="#129d49"/><path fill="#588fcb" d="M13.3 19.3l.3-.4.1-.2.1.2-.5.4zm5.9.8l-.3.3-.7.5h-.1l1-1.2a1.1 1.1 0 0 1 .1.5m-2 .2l-.3-.4-.3-.4.4.2.2.6zm-.7-.8l-.3.3-.7.6-.3-.2.1-.4 1-.4.2.1zm-15.7.5A9.2 9.2 0 0 1 3.6 15a9.4 9.4 0 0 1 5.2-2.5l-.9.9-1 .4-.7.2.4.5.4.5v.4l-.9.8-1.3.6h-.3v.2l-.4 2H4v.2l.3.7-.2.5v.3l.2.2.9.8.5 1.3v.3h.1v.4l-.5.3-.4.2.3.4.6 1h.1l.4.3-.2.7-.5.4-.2.2v.3l.3 1.5c.3.8.5 1.2.7 1.1l.3.3.8.6A9.5 9.5 0 0 1 2 26.9a9.4 9.4 0 0 1-1.2-6.8"/><path d="M8.2 31.2h-.6v-2l.3-.4.6-.3h.2l.7-.5h.1v-.6l.5-.2h.2l.8-.9.3-.3-.3-.3-.7-.9v-.2h-1v-1h-.4L7.4 23 7 22l-.5-.6h-.1L6 21l.2-.4h.5l.3.3.3.4.4-.4.9-1h2.2l-.5-.7-.6-.9v-.5l.2-1.1v-.3h-.2l-.2-.3.6-.8.3-.3-.4-.3-.2-.2h.7l.6.3.3 1v.3h1.3l.2.7h-1.2l.3.6.8 1.9.3.7v1.1l-.5.8h-.1l-.4 1.8v.4h.2l1.2.7.3.2.3-.3.5-.5h.3v1.3h.1l.2 1.1-.4.9-.3.5.5.2 1.2.3h.2a9.8 9.8 0 0 1-6.4 2.9l-1.8-.2" fill="#588fcb"/><path d="M8.2 31.2h-.6v-2l.3-.4.6-.3h.2l.7-.5h.1v-.5l.5-.3h.2l.8-.9.2-.3-.2-.3-.7-.9v-.2h-1v-1h-.4L7.4 23 7 22l-.5-.6h-.1L6 21l.2-.4h.5l.3.3.3.4.4-.4.9-1h2.2l-.5-.7-.7-.9v-.5l.2-1.1v-.3h-.1l-.2-.3.6-.8.3-.3-.4-.3-.2-.2h.7l.6.4.3.9v.3h1.3l.2.7h-1.2l.3.6.8 1.9.3.7v1.1l-.5.8h-.1l-.4 1.8v.4h.2l1.2.7.3.2.3-.3.5-.5h.3v1.3l.3 1.1-.4.9-.3.5.5.2 1.2.3h.2a9.8 9.8 0 0 1-6.4 2.9l-1.8-.2M.8 20.1A9.2 9.2 0 0 1 3.6 15a9.4 9.4 0 0 1 5.2-2.5l-.9.9-1 .4-.7.2.4.5.3.4v.4l-.9.8-1.3.6h-.2v.2l-.4 2H4v.2l.3.7-.2.5v.3l.2.2.9.8.5 1.4v.3h.1v.4l-.5.3-.4.2.3.4.6 1h.1l.4.3-.2.7-.5.4-.2.2v.3l.3 1.5c.2.8.5 1.2.7 1.1l.3.3.8.6A9.5 9.5 0 0 1 2 26.9a9.4 9.4 0 0 1-1.2-6.8m15.7-.5l-.3.3-.7.6-.3-.2v-.4l1-.3h.2m.7.8l-.3-.4-.3-.4.4.2.2.6m2-.3l-.3.3-.6.5h-.1l.9-1.2a1.1 1.1 0 0 1 .1.5m-5.9-.8l.3-.4-.5.4m4.9 7.3l-.2.3h-.1c0 .1-.1.2-.2.3l-.2.3-1.2.8-.8-.4.5-1-.3-1.3v-1l.2-.8-1-.3-.7.7-1.2-.7.3-1.8.7-1v-1.1l.8-.7-.6-1.2-.6.9-.8-1.9h1.2l-.5-1.6h-1.3l-.4-1.2-.9-.5-.9.2-.9.3 1 .7-1 1.1.6.6v1.1L8 16.7v1.5l.7-.8 1.3 1.9H8.4l-1.1 1.3-.3-.4H5.9l-.5 1 .7.6.5.6.5.6 1.6.6.2 1.1h.9l.7 1-.8.9-.7.3v.6l-.7.6-.8.3-.5.7v.9c0-.1-.2-.2-.5-.3s-.1-.2-.2-.4a1.6 1.6 0 0 1-.1-.4l-.3-1.4.7-.5.2-1.2-.6-.4-.7-1 .7-.4.2-1.1h-.3l-.5-1.3-1-.8.3-.7-.4-.9.4-2 1.3-.6 1.1-.9v-.8l-.3-.6 1.2-.4 1.3-1.2-.2-.2h2.5l.6.2h.2l.4.2h.1l.6.2h.1l.4.2h.1l.5.3.5.3h.1l.4.3h.1l.8.7h.1l.3.4h.1c.1.1.2.3.4.4l.3.4h.1a.8.8 0 0 0 .2.4l.3.5.2.4c0 .1.1.1.1.2l.2.5-1.2 1.4-.5-1.1-1-.3-1.4.4-.2.9.8.8 1-.9 1.1 1.2h.8l.8-.7.2.8v.7l-1.2.7v1.2l.9.5a16.7 16.7 0 0 1-.8 2m1-2.9c0 .2 0 .3-.1.4l-.5-.3v-.6l.8-.5c-.1.4-.1.7-.2 1M11.9 12l-1.9-.2a10.2 10.2 0 0 0-6.4 2.3A10.1 10.1 0 0 0 .2 20a9.8 9.8 0 0 0 1.5 7.5 9.7 9.7 0 0 0 6.4 4.3l1.9.2a9.9 9.9 0 0 0 9.8-8.1 10 10 0 0 0-1.5-7.6 10.4 10.4 0 0 0-6.4-4.3" fill="#010101"/><path fill="#010101" d="M17.4 17.7l-.9-.8-1.1.3.4.7 1.6-.2zM7.1 19.2l.7.2-.6-.9-.1.7zm9.9 4.9l.7.6-.6-1.2v.6"/><path d="M15 .6h.3a2.3 2.3 0 0 1 1.6 1.8 7.4 7.4 0 0 1-.1 3.6c-.7 2.7-1.9 4.1-3.4 4.3H13a2.4 2.4 0 0 1-1.5-1.8 7.7 7.7 0 0 1 0-3.7c.8-2.6 1.9-4 3.5-4.2" fill="#588fcb"/><path d="M16.8 6.1c-.7 2.7-1.9 4.1-3.4 4.3H13a2.2 2.2 0 0 1-1.5-1.8 7.3 7.3 0 0 1 0-3.6C12.3 2.2 13.4.8 15 .6h.3a2.3 2.3 0 0 1 1.6 1.8 7.4 7.4 0 0 1-.1 3.6M15.5.1H15c-1.9.2-3.3 1.8-4.1 4.7a9.4 9.4 0 0 0 0 4.1 2.7 2.7 0 0 0 2 2.1h.5c1.9-.2 3.2-1.8 4-4.7a7.1 7.1 0 0 0 0-4.1C17 1 16.4.3 15.5.1M3.2.8l-.9.2A3.1 3.1 0 0 0 .7 3.5a8.7 8.7 0 0 0 .7 4c1.2 2.5 2.7 3.8 4.4 3.9a1.6 1.6 0 0 0 1-.2 3 3 0 0 0 1.5-2.4 8.5 8.5 0 0 0-.7-4C6.4 2.3 4.9 1 3.2.8m0 .6C4.6 1.6 5.9 2.7 7 5a7 7 0 0 1 .7 3.6 2.5 2.5 0 0 1-1.2 2.1h-.7c-1.4 0-2.7-1.2-3.8-3.5a6.7 6.7 0 0 1-.7-3.5 2.3 2.3 0 0 1 1.2-2.1l.7-.2" fill="#010101"/><path d="M3.2 1.4C4.6 1.6 5.9 2.7 7 5a6.8 6.8 0 0 1 .7 3.5 2.6 2.6 0 0 1-1.2 2.2h-.6Q3.7 10.6 2 7.2a7.8 7.8 0 0 1-.7-3.5 2.3 2.3 0 0 1 1.2-2.1l.7-.2" fill="#588fcb"/><path d="M24.7 6a6.4 6.4 0 0 0-4.4 2.2 7.7 7.7 0 0 0-2.2 3.3 3.1 3.1 0 0 0 .5 3 2.5 2.5 0 0 0 1.9.7 7.4 7.4 0 0 0 4.4-2.2A6.7 6.7 0 0 0 27 9.7a2.8 2.8 0 0 0-.4-3 2.5 2.5 0 0 0-1.9-.7m0 .6a2 2 0 0 1 1.4.5 2.1 2.1 0 0 1 .3 2.4 6.9 6.9 0 0 1-1.9 3.1 6.3 6.3 0 0 1-4 2A2 2 0 0 1 19 14a2.4 2.4 0 0 1-.3-2.4 7.5 7.5 0 0 1 2-3 6.1 6.1 0 0 1 4-2" fill="#010101"/><path d="M24.7 6.6a2 2 0 0 1 1.4.5 2.2 2.2 0 0 1 .4 2.4 8.2 8.2 0 0 1-2 3.1 6.9 6.9 0 0 1-4 2A2 2 0 0 1 19 14a2.5 2.5 0 0 1-.3-2.4 7.5 7.5 0 0 1 2-3 6.1 6.1 0 0 1 4-2" fill="#588fcb"/><path d="M26.5 22.3h-.1a6.8 6.8 0 0 1-3.4-.8c-1-.5-1.5-1.1-1.5-1.9s.5-1.4 1.5-2a6.8 6.8 0 0 1 3.4-.8h.1a6.8 6.8 0 0 1 3.4.8 2.5 2.5 0 0 1 1.5 2c0 .8-.5 1.4-1.5 1.9a6.8 6.8 0 0 1-3.4.8m0-6.1h-.1a7.5 7.5 0 0 0-3.9 1 2.8 2.8 0 0 0-1.6 2.4 2.8 2.8 0 0 0 1.6 2.4 8.6 8.6 0 0 0 3.9 1h.1a8.6 8.6 0 0 0 3.9-1 3.1 3.1 0 0 0 1.6-2.4 2.8 2.8 0 0 0-1.6-2.4 6.9 6.9 0 0 0-3.9-1" fill="#010101"/><path d="M26.5 22.3h-.1a5.9 5.9 0 0 1-3.4-.8c-1-.5-1.5-1.1-1.5-1.9s.5-1.4 1.5-2a6.8 6.8 0 0 1 3.4-.8h.1a6.8 6.8 0 0 1 3.4.8 2.3 2.3 0 0 1 1.5 2c0 .8-.5 1.4-1.5 1.9a6.8 6.8 0 0 1-3.4.8" fill="#588fcb"/></g></svg>