<svg data-name="Layer 1" xmlns="http://www.w3.org/2000/svg" width="530" height="120"><text transform="translate(147.6 102.5)" font-size="34" fill="#e6fcf5" font-family="Pacifico-Regular, Pacifico" style="isolation:isolate"><tspan letter-spacing="-.02em">R</tspan><tspan x="29.2" y="0">escu</tspan><tspan x="85.3" y="0" letter-spacing=".14em">e</tspan><tspan x="103.5" y="0" letter-spacing="0em">.</tspan><tspan x="112.2" y="0" letter-spacing=".1em">.</tspan><tspan x="124.3" y="0" letter-spacing=".08em">L</tspan><tspan x="149.9" y="0" letter-spacing=".01em">o</tspan><tspan x="165.6" y="0">v</tspan><tspan x="180.9" y="0" letter-spacing=".14em">e</tspan><tspan x="199" y="0">.</tspan><tspan x="207.7" y="0" letter-spacing=".01em">.</tspan><tspan x="216.8" y="0" letter-spacing="-.02em">R</tspan><tspan x="246.1" y="0" letter-spacing=".02em">e</tspan><tspan x="260.1" y="0">p</tspan><tspan x="276.4" y="0" letter-spacing="0em">e</tspan><tspan x="289.6" y="0" letter-spacing="0em">a</tspan><tspan x="305.6" y="0" letter-spacing=".15em">t</tspan><tspan x="324.1" y="0">..</tspan></text><text transform="translate(107.1 57.2)" font-size="66" fill="#fff0f6" font-family="Comfortaa-Bold, Comfortaa" font-weight="700" style="isolation:isolate">P<tspan x="41.1" y="0" letter-spacing="-.04em">r</tspan><tspan x="70.6" y="0" letter-spacing="0em">o</tspan><tspan x="115.1" y="0" letter-spacing="-.04em">j</tspan><tspan x="131.4" y="0" letter-spacing="-.02em">e</tspan><tspan x="171.1" y="0">ct </tspan><tspan x="256.5" y="0" letter-spacing="-.02em">P</tspan><tspan x="296.3" y="0" letter-spacing="-.03em">a</tspan><tspan x="338.9" y="0">wz</tspan></text><g fill-rule="evenodd"><path d="M72.1 88.1l-.3 1.2-2-1 .2-2.4 2.6-1.5c-.1 1.2-.3 2.4-.5 3.7" fill="#588fcb"/><path d="M68.3 98.2l-.7 1.4h-.2l-.7 1.1a.3.3 0 0 1-.1.2l-.8 1-4.3 2.7-4.1-1.2 2-3.8-1.2-4.7-.4-3.4.6-3.1-3.6-1.1-2.6 2.6-4.4-2.5 1.4-6.7 2.4-3.5v-3.6l3-2.8-2.2-4.5-2.2 3.4-2.9-6.6 4.3-.3-1.7-5.8h-4.6l-1.2-4.1-3.4-1.9-3.2.6-3.4 1.2 3.5 2.6-3.4 4 2.2 2.1-.6 3.9-4.9-2.9-.5 5.6 2.6-3 5.3 6.9-1.9.3-3.9.3-3.8 4.1-1.3-1.6h-4l-1.8 3.6 2.8 1.9 1.7 2.2 1.8 2.2 5.9 2.4.5 3.7 3.5.7 2.7 3.5-3 3.2-2.6 1.2-.4 2.2-2.5 1.8h-.3l-2.8 1.1-1.6 2.5.4 3.4a6.9 6.9 0 0 0-1.9-1.2 3.1 3.1 0 0 1-.9-1.6c-.2-.8-.4-1.3-.4-1.4l-1.1-5.1 2.5-1.8.8-4.1-2.2-1.7-2.2-3.6 2.3-1.4.8-3.8-1-.2-1.9-4.4-3.6-3.3 1.2-2.4-1.7-3.3 1.4-7.1 4.8-2.2 4-3.5.6-2.8-1.7-2 4.4-1.5 4.6-4.5-.5-.7h2.5a37.7 37.7 0 0 1 6.6.6l2.1.5.6.2 1.6.5.5.2 1.9.7.4.2 1.6.7.5.3 1.5.8.3.2 1.8 1.1.4.3 1.2 1 .5.3a26.8 26.8 0 0 1 3 2.8c.1.1.3.2.4.4l1.1 1.2.3.3a10.1 10.1 0 0 0 1.3 1.6c0 .1.1.2.1.3l1 1.4.3.5.9 1.5c0 .1.1.2.1.3a16.2 16.2 0 0 1 1 1.8v.4a10.1 10.1 0 0 1 .7 1.5c.1.2.1.4.2.5l.7 1.9-4.3 5.2-1.7-4.1-3.8-1.2-5 1.8-.8 3.2 3.1 2.7 3.6-3.3 3.9 4.3 3.1-.4 2.8-2.1.7 2.8v2.3l-4.3 2.6-.4 4.3 3.4 1.8a33.3 33.3 0 0 1-3.1 7.2" fill="#129d49"/><path d="M50.7 72l.8-1.4.6-.9.4.7-1.8 1.6m21.4 2.9l-1.1 1-2.5 1.9h-.6l.3-.4 3.5-4.3c.1.6.3 1.2.4 1.7m-7.3 1l-1.3-1.4-1.1-1.2 1.5.5.9 2.1m-2.5-2.7l-1.2 1.1-2.5 2.3-1.1-1 .4-1.4 3.5-1.2.9.2M4.9 74.8a34.3 34.3 0 0 1 10.3-18.6A35 35 0 0 1 34 47.4l.2.3-3.3 3.2-3.9 1.4-2.3.7 1.5 1.9 1.2 1.4-.3 1.5-3.4 2.9-4.6 2.1-.8.4-.2.8-1.4 7.1v.6l.3.5 1.3 2.6-.8 1.8-.5 1 .9.9 3.3 3 1.8 4 .3.8h.2l-.3 1.4-1.7 1-1.5 1 .9 1.4 2.3 3.6v.3h.3l1.3 1.1-.4 2.4-2 1.4-.9.7.3 1.1 1.1 5c.8 3.1 1.7 4.5 2.5 4.3a4.9 4.9 0 0 1 1.2.8l2.8 2.4c-8.8-2.6-15.5-7.6-20-14.9a34 34 0 0 1-4.5-24.5" fill="#588fcb"/><path d="M31.8 115l-2-.4-.4-4-.3-2.9.9-1.4 2.4-1h.7l2.4-1.9.5-.4v-.6l.3-1.4 1.8-.8h.3l.3-.3 2.9-3.2 1-1-.9-1.2-2.7-3.4-.4-.5-.6-.2-2.3-.4-.3-2.5-.2-1-.8-.3-5.4-2.7-1.6-1.9-1.7-2.1v-.2l-.3-.2-1.5-1 .6-1.4h2.2l.9 1 1.2 1.3 1.2-1.2 3.3-3.6 3.2-.3h.1l1.9-.2 2.9-.4-1.8-2.3-2.4-3.3.3-2 .5-4v-.8l-.6-.6-1-1 2.3-2.8 1.3-1.3-1.5-1.1-1-.7h.3l2.6-.5 2.2 1.1 1 3.4.4 1.2h4.6l.7 2.5h-4.6l1 2.3 2.9 6.7 1.2 2.8v3.6l-2 3.5-.2.2v.4l-1.3 6.6-.3 1.2 1 .6 4.4 2.6 1.1.6.9-.9 1.9-1.9 1.1.4-.3 1.5v.5l.4 3.5 1.1 4-1.7 3.3-1 1.8 2 .6 4.1 1.2.7.2a34.5 34.5 0 0 1-23.2 9.1 31.1 31.1 0 0 1-6.7-.7" fill="#588fcb"/><path d="M31.8 115l-2-.4-.4-4-.3-2.8.9-1.5 2.4-1h.7l2.4-1.9.5-.4v-.6l.3-1.3 1.8-.9h.3l.2-.3 3-3.2.9-1-.8-1.2-2.7-3.4-.4-.5-.6-.2-2.3-.4-.3-2.5-.2-1-.9-.3-5.3-2.7-1.6-1.9-1.7-2.1v-.2l-.3-.2-1.5-1 .6-1.4h2.2l.9 1 1.2 1.4 1.2-1.3 3.3-3.6 3.2-.2 2-.2 2.9-.4-1.8-2.4-2.4-3.3.3-2 .5-3.9v-.9l-.6-.6-1-1 2.3-2.8 1.3-1.3-1.5-1.1-.9-.7h.3l2.6-.5 2.1 1.3 1 3.3.4 1.2h4.6l.7 2.5h-2.2l-2.4.2 1 2.2 2.9 6.7 1.1 2.8v3.7L47.8 80l-.2.2v.4l-1.3 6.7-.3 1.1 1 .7 4.4 2.5 1.1.6.9-.9 1.9-1.9 1.1.4-.3 1.5v.5l.4 3.5 1.1 4.1-1.7 3.2-1 1.8 1.9.6 4.2 1.2.7.2a34.5 34.5 0 0 1-23.2 9.1 31.1 31.1 0 0 1-6.7-.7m-27-40a34.4 34.4 0 0 1 29.1-27.3l.3.3-3.3 3.1-3.9 1.4-2.3.8 1.5 1.8 1.1 1.4-.3 1.5-3.3 2.9-4.6 2.1-.8.4-.2.8-1.4 7.1v.6l.3.5 1.3 2.6-.8 1.8-.5 1.1.9.8 3.3 3 1.7 4 .4.9h.2l-.3 1.5-1.7 1-1.5.9.9 1.4 2.1 3.6.2.3.2.2 1.4 1-.4 2.4-2 1.4-.9.7.3 1.1 1.1 5c.8 3 1.6 4.4 2.5 4.2l1.2.9 2.7 2.3c-8.7-2.6-15.4-7.5-19.9-14.9S3.3 83.9 4.8 74.8m57.5-1.6l-1.2 1-2.5 2.3-1.1-1 .4-1.4 3.5-1.2.9.3m2.6 2.6l-1.4-1.5-1.1-1.1 1.5.5 1 2.1m7.2-.8l-1.1.9-2.4 1.9h-.7l.3-.4 3.5-4.3c.1.6.3 1.2.4 1.8M50.7 72l.8-1.4.6-.9.4.7-1.8 1.6m17.6 26.2l-.8 1.3v.2l-.7 1.1a.3.3 0 0 1-.1.2l-.8 1-4.3 2.7-4.1-1.2 2-3.9-1.2-4.6-.4-3.4.6-3.1-3.6-1.1-2.6 2.6-4.4-2.5 1.4-6.7 2.3-3.5v-3.7l3-2.8-2.2-4.5-2.2 3.4-3-6.7 4.3-.2-1.6-5.8h-4.7l-1.1-4-3.4-2-3.2.6-3.4 1.2 3.5 2.6-3.5 4 2.3 2.1-.6 3.9-4.9-2.9-.5 5.6 2.6-3 5.3 6.9-1.9.3-3.9.3-3.8 4.1-1.3-1.6h-4l-1.8 3.6 2.8 1.9 1.7 2.2 1.8 2.2 5.9 2.4.5 3.7 3.5.7 2.7 3.5-3 3.2-2.6 1.2-.5 2.2-2.4 1.8h-.3l-2.8 1.1-1.6 2.5.4 3.4a6.9 6.9 0 0 0-1.9-1.2 3.1 3.1 0 0 1-.9-1.6c-.2-.8-.4-1.3-.4-1.4l-1.1-5.1 2.5-1.8.8-4.1-2.2-1.7-2.3-3.6 2.4-1.4.8-3.9h-1l-1.9-4.4-3.6-3.3 1.1-2.5-1.6-3.2 1.4-7.1 4.8-2.2 4-3.5.6-2.8-1.7-2 4.3-1.5 4.7-4.5-.5-.7h2.4a38.8 38.8 0 0 1 6.7.6l2.1.5.6.2 1.6.5h.5l1.9.8h.4l1.6.8.5.3 1.5.8.3.2 1.8 1.1.4.3 1.2 1 .5.3a26.8 26.8 0 0 1 3 2.8c.1.1.3.2.4.4l1.1 1.2.3.3 1.2 1.8c.1.1.2.2.2.3l1 1.4.3.5.9 1.5c0 .1.1.2.1.3a16.2 16.2 0 0 1 1 1.8v.4a10.1 10.1 0 0 1 .7 1.5l.2.5.7 1.9-4.3 5.2-1.7-4.1-3.8-1.2-5 1.8-.8 3.2 3 2.7 3.7-3.3 3.9 4.3 3.1-.4 2.8-2.2.7 2.8v2.3l-4.3 2.6-.4 4.3 3.3 1.8a28.8 28.8 0 0 1-3 7.2m3.8-10.1l-.3 1.2-2-1 .2-2.4 2.6-1.5c-.1 1.2-.3 2.4-.5 3.7M45.5 45.6a33.5 33.5 0 0 0-7.1-.7 36.4 36.4 0 0 0-23.1 8.4A36.1 36.1 0 0 0 2.6 74.4c-1.7 10.2.1 19.3 5.6 27.4s13.1 13.2 23.2 15.5a55.1 55.1 0 0 0 7.1.7 36.9 36.9 0 0 0 35.8-29.5c1.7-10.2-.1-19.3-5.5-27.4S55.6 47.9 45.5 45.6" fill="#010101"/><path d="M65.4 66l-3.3-2.6-4 1.1 1.6 2.5 5.7-1m-37.6 5.6l2.7.6-2.2-3-.5 2.4m36.1 17.7a30.8 30.8 0 0 1 2.5 2.4l-2-4.6-.5 2.2" fill="#010101"/><path d="M56.5 4.3h1.4c2.7.8 4.6 3.1 5.6 6.8s1 8.1-.1 13.1c-2.8 9.5-7 14.7-12.6 15.3h-1.3c-2.8-.8-4.6-3.1-5.7-6.8a26.5 26.5 0 0 1 .2-13.1C46.7 10.1 50.9 5 56.5 4.3" fill="#588fcb"/><path d="M63.4 24.3q-4.2 14.4-12.6 15.3h-1.3c-2.8-.8-4.7-3.1-5.7-6.8a26.5 26.5 0 0 1 .2-13.2C46.7 10.1 50.9 5 56.5 4.3a3.4 3.4 0 0 1 1.4.2c2.7.7 4.6 3 5.6 6.7s1 8.1-.1 13.1m-5-22a5.8 5.8 0 0 0-1.9-.3Q46.3 3.2 41.8 19.1c-1.3 5.7-1.3 10.6 0 14.8s3.7 6.8 7.1 7.8l1.9.2c6.8-.7 11.8-6.4 14.8-17.1 1.3-5.7 1.2-10.6-.1-14.8s-3.7-6.8-7.1-7.7M13.5 5a7.8 7.8 0 0 0-3.3.7c-3.1 1.5-5 4.5-5.6 8.9s.3 9.2 2.6 14.6c4.4 9 9.7 13.8 16.1 14.2a9.7 9.7 0 0 0 3.4-.6c3.1-1.6 5-4.5 5.5-8.9s-.3-9.3-2.6-14.6C25.3 10.2 19.9 5.5 13.5 5m0 2.3q8.1.6 14.1 12.9A27.2 27.2 0 0 1 30.1 33c-.4 3.9-1.8 6.4-4.4 7.7a6 6 0 0 1-2.4.5c-5.3-.4-10-4.7-14-12.9a27.6 27.6 0 0 1-2.5-12.9c.4-3.8 1.8-6.4 4.4-7.7a5.9 5.9 0 0 1 2.3-.4" fill="#010101"/><path d="M13.6 7.2c5.3.5 10 4.8 14 12.9A27.8 27.8 0 0 1 30.1 33c-.4 3.9-1.8 6.4-4.4 7.7a5.9 5.9 0 0 1-2.3.5q-8.1-.7-14.1-12.9a27.6 27.6 0 0 1-2.5-12.9c.4-3.9 1.8-6.4 4.4-7.7a6 6 0 0 1 2.4-.5" fill="#588fcb"/><path d="M92.2 23.7c-5.5.2-10.9 2.8-16.3 7.9a28.9 28.9 0 0 0-7.8 11.9c-1.3 4.7-.8 8.3 1.7 11a9.3 9.3 0 0 0 6.8 2.6c5.4-.2 10.8-2.8 16.3-7.9a28.6 28.6 0 0 0 7.7-11.9c1.4-4.7.8-8.4-1.7-11a8.9 8.9 0 0 0-6.7-2.6m0 2.3a6.5 6.5 0 0 1 5.1 1.9c1.9 2.1 2.3 5 1.1 8.7a26.8 26.8 0 0 1-7.1 11q-7.6 7-14.7 7.2a6.9 6.9 0 0 1-5.2-1.9c-1.8-2.1-2.2-5-1.1-8.7a26.8 26.8 0 0 1 7.1-11c5.2-4.8 10.1-7.2 14.8-7.2" fill="#010101"/><path d="M92.2 25.9a7.3 7.3 0 0 1 5.1 1.9c1.9 2.1 2.3 5.1 1.2 8.8a27.2 27.2 0 0 1-7.2 10.9c-5.1 4.8-10 7.2-14.7 7.3a6.9 6.9 0 0 1-5.2-1.9c-1.8-2.1-2.2-5.1-1.1-8.8s3.5-7.3 7.1-10.9c5.2-4.8 10.1-7.2 14.8-7.3" fill="#588fcb"/><path d="M98.5 83h-.1a26.8 26.8 0 0 1-12.7-3c-3.4-1.8-5.1-4.2-5.3-7s1.9-5.2 5.3-7.1 7.6-2.8 12.7-2.9h.1c5.1.1 9.3 1 12.7 2.9s5.1 4.2 5.3 7-1.9 5.2-5.3 7.1a26.8 26.8 0 0 1-12.7 3m0-22.3h-.1q-8.7.1-14.4 3.6c-3.8 2.3-5.7 5.2-5.8 8.7s2.1 6.4 5.8 8.7 8.6 3.4 14.4 3.5h.1c5.8-.1 10.6-1.3 14.3-3.6s5.8-5.2 5.9-8.7-2.1-6.4-5.9-8.6-8.5-3.5-14.3-3.6" fill="#010101"/><path d="M98.5 83h-.1a28 28 0 0 1-12.7-2.9c-3.4-1.9-5.1-4.3-5.3-7.1s1.9-5.2 5.3-7.1 7.6-2.8 12.7-2.9h.1c5.1.1 9.3 1 12.7 2.9s5.1 4.2 5.3 7-1.9 5.2-5.3 7.1a26.8 26.8 0 0 1-12.7 3" fill="#588fcb"/></g></svg>