<svg id="Layer_1" data-name="Layer 1" xmlns="http://www.w3.org/2000/svg" width="530" height="120" viewBox="0 0 530 120">
  <title>convert_brand_530x120</title>
  <g id="slogan" style="isolation: isolate">
    <path d="M181.7,95.4c.2.2.2.6.2,1.1a3.3,3.3,0,0,1-.6,2.1,14.9,14.9,0,0,1-3.3,3,7.2,7.2,0,0,1-4,1.1,5.9,5.9,0,0,1-3.7-1.2,12,12,0,0,1-3-4.1L165.6,94a7.5,7.5,0,0,0-1.3-1.6,2.5,2.5,0,0,0-1.5-.5c-.1.4-.4,1.9-.8,4.4a15,15,0,0,1-.4,2.1,5.6,5.6,0,0,1-1.3,3.2,4.2,4.2,0,0,1-3.1,1.1,6.2,6.2,0,0,1-4-1.3,8.3,8.3,0,0,1-2.7-3.8,13.3,13.3,0,0,1-1-5.4,23.3,23.3,0,0,1,2-9.9,13.8,13.8,0,0,1,5.6-6.3,15,15,0,0,1,8.2-2.2,12.9,12.9,0,0,1,5.5,1,6.4,6.4,0,0,1,3.3,2.7,7.1,7.1,0,0,1,1.1,3.9,8.1,8.1,0,0,1-.9,3.7,9.1,9.1,0,0,1-2.7,3.2,12,12,0,0,1-4.4,2.1,5.5,5.5,0,0,1,2.5,1.4,12.2,12.2,0,0,1,1.8,2.9,8.2,8.2,0,0,0,1.9,3,3,3,0,0,0,2.1,1,3.7,3.7,0,0,0,2.1-.8,19.1,19.1,0,0,0,2.5-2.5,1,1,0,0,1,.9-.4A.8.8,0,0,1,181.7,95.4Zm-23.6-3.6a2.2,2.2,0,0,1-1.6-.5,1.9,1.9,0,0,1-.4-1.2,1.4,1.4,0,0,1,.5-1.3,1.3,1.3,0,0,1,1.2-.5h.8c.4-2.2.7-4.1,1.1-5.8a2.6,2.6,0,0,1,2.8-2.2c1.3,0,2,.6,2,1.8a4.3,4.3,0,0,1-.1.5l-1,5.7a10.1,10.1,0,0,0,3.4-.9,6,6,0,0,0,3.3-5.3,4.1,4.1,0,0,0-1.5-3.4,6.7,6.7,0,0,0-4.3-1.2,10.3,10.3,0,0,0-5.8,1.6,10.7,10.7,0,0,0-3.9,4.9,20.7,20.7,0,0,0-1.4,7.9,20.1,20.1,0,0,0,.4,3.8,7,7,0,0,0,1.1,2.3c.5.5.9.8,1.3.8a1,1,0,0,0,.7-.4,3.9,3.9,0,0,0,.4-1.5Z" fill="#e6fcf5"/>
    <path d="M194.4,95.4a2.7,2.7,0,0,1,.2,1.1,3.3,3.3,0,0,1-.6,2.1,13.2,13.2,0,0,1-3.6,2.8,9.2,9.2,0,0,1-4.9,1.3,7.4,7.4,0,0,1-5.5-1.9,6.9,6.9,0,0,1-2-5.3,9.2,9.2,0,0,1,1-4.4,7.1,7.1,0,0,1,2.7-3.2,7,7,0,0,1,4-1.2,4.1,4.1,0,0,1,3.1,1.2A4,4,0,0,1,190,91a5.3,5.3,0,0,1-1.7,4.1,11.7,11.7,0,0,1-5.6,2.6c.5,1.1,1.6,1.6,3.2,1.6a7.8,7.8,0,0,0,3.5-1.1,9.9,9.9,0,0,0,3.3-2.8,1.3,1.3,0,0,1,1-.4A.8.8,0,0,1,194.4,95.4ZM183,91.5a6.5,6.5,0,0,0-.9,3.5h0a8.6,8.6,0,0,0,3.2-1.4,3.1,3.1,0,0,0,1.1-2.2,1.8,1.8,0,0,0-.3-1.1,1.8,1.8,0,0,0-1-.4A2.5,2.5,0,0,0,183,91.5Z" fill="#e6fcf5"/>
    <path d="M195.5,102.6a2.4,2.4,0,0,1-1-1.8,2.1,2.1,0,0,1,.7-1.5,2.4,2.4,0,0,1,1.9-.7H199a2.9,2.9,0,0,0-.4-1.6,3.8,3.8,0,0,0-.9-1.5,7.3,7.3,0,0,0-1-1.3,23.7,23.7,0,0,1-2.1,3.3,26.2,26.2,0,0,1-2.2,2.5,1.9,1.9,0,0,1-1.3.6,1,1,0,0,1-.9-.4,1.2,1.2,0,0,1-.3-.9,2,2,0,0,1,.4-1.3l.5-.5c1.2-1.6,2.2-2.8,2.8-3.8l1.4-2.7,1.5-3.4a2.6,2.6,0,0,1,2.7-1.5l1.3.2a.7.7,0,0,1,.4.5,2.5,2.5,0,0,1-.2.7l-.3.9a4.9,4.9,0,0,0-.6,2,2.7,2.7,0,0,0,.3,1.2,9.2,9.2,0,0,0,1.1,1.5l1.7,2.4a5.4,5.4,0,0,1,.5,2.2v1a11.6,11.6,0,0,0,3.9-3.5,1,1,0,0,1,.9-.4.8.8,0,0,1,.7.4c.2.2.2.6.2,1.1a3.7,3.7,0,0,1-.6,2.1,9.5,9.5,0,0,1-3.3,2.9,8.6,8.6,0,0,1-3.8.8,4.7,4.7,0,0,1-3.2,1.2A3.7,3.7,0,0,1,195.5,102.6Z" fill="#e6fcf5"/>
    <path d="M207.7,100.8a6.9,6.9,0,0,1-1.9-5,10.6,10.6,0,0,1,1.1-4.8,9.8,9.8,0,0,1,2.8-3.2,7.2,7.2,0,0,1,3.7-1.1,4,4,0,0,1,2.9,1.1,3.9,3.9,0,0,1,1,2.8,4.9,4.9,0,0,1-.6,2.5,1.9,1.9,0,0,1-1.6.9,1.8,1.8,0,0,1-1.1-.3,1.2,1.2,0,0,1-.4-.8,1.3,1.3,0,0,1,.1-.6c0-.2.1-.3.1-.4a3.6,3.6,0,0,0,.2-1,1.1,1.1,0,0,0-.9-.9,2.1,2.1,0,0,0-1.4.7,4,4,0,0,0-1.1,1.9,7.5,7.5,0,0,0-.4,2.6c0,2.7,1.1,4,3.4,4a5.6,5.6,0,0,0,3-1,11.5,11.5,0,0,0,3.2-2.8,1.1,1.1,0,0,1,.9-.4.8.8,0,0,1,.7.4c.2.2.2.6.2,1.1a3.7,3.7,0,0,1-.6,2.1,11,11,0,0,1-3.8,3,10.2,10.2,0,0,1-4.3,1.1A6.8,6.8,0,0,1,207.7,100.8Z" fill="#e6fcf5"/>
    <path d="M219.9,101.3a5.6,5.6,0,0,1-1-3.5,33.8,33.8,0,0,1,.3-4.7,30.3,30.3,0,0,1,1.2-4.5,2.7,2.7,0,0,1,.9-1.5,3.4,3.4,0,0,1,1.9-.4l1.1.2a.9.9,0,0,1,.3.7c0,.2-.2.8-.4,1.9s-.4,1.6-.5,2.3a25.9,25.9,0,0,0-.7,4.7,2.5,2.5,0,0,0,.1,1,.7.7,0,0,0,.6.3c.3,0,.8-.3,1.3-1a17.2,17.2,0,0,0,1.6-3.1,50.5,50.5,0,0,0,1.7-5.1,2.1,2.1,0,0,1,2.5-1.9l1.1.2c.2.1.3.3.3.7a31.9,31.9,0,0,1-.9,4.6,39.3,39.3,0,0,0-.9,5.4,1.5,1.5,0,0,0,.3,1,.8.8,0,0,0,.7.4,2.6,2.6,0,0,0,1.6-.9,24.7,24.7,0,0,0,2.5-2.7,1.2,1.2,0,0,1,.9-.4.8.8,0,0,1,.7.4,1.6,1.6,0,0,1,.3,1.1,3.3,3.3,0,0,1-.7,2.1,17.4,17.4,0,0,1-3.1,3,7.4,7.4,0,0,1-3.9,1.1,2.7,2.7,0,0,1-2.4-1.3,6.8,6.8,0,0,1-.7-3.5,8.1,8.1,0,0,1-1.8,3.6,3.3,3.3,0,0,1-2.4,1.2A2.9,2.9,0,0,1,219.9,101.3Z" fill="#e6fcf5"/>
    <path d="M250.5,95.4a2.7,2.7,0,0,1,.2,1.1,3.3,3.3,0,0,1-.6,2.1,13.2,13.2,0,0,1-3.6,2.8,9.2,9.2,0,0,1-4.9,1.3,7.4,7.4,0,0,1-5.5-1.9,6.9,6.9,0,0,1-2-5.3,9.2,9.2,0,0,1,1-4.4,7.1,7.1,0,0,1,2.7-3.2,7,7,0,0,1,4-1.2,4.1,4.1,0,0,1,3.1,1.2,4,4,0,0,1,1.2,3.1,5.3,5.3,0,0,1-1.7,4.1,11.7,11.7,0,0,1-5.7,2.6,3.4,3.4,0,0,0,3.3,1.6,7.8,7.8,0,0,0,3.5-1.1,9.9,9.9,0,0,0,3.3-2.8,1.3,1.3,0,0,1,1-.4A.8.8,0,0,1,250.5,95.4Zm-11.4-3.9a6.5,6.5,0,0,0-.9,3.5h0a8.6,8.6,0,0,0,3.2-1.4,3.1,3.1,0,0,0,1.1-2.2,1.8,1.8,0,0,0-.3-1.1,1.8,1.8,0,0,0-1-.4A2.4,2.4,0,0,0,239.1,91.5Z" fill="#e6fcf5"/>
    <path d="M252.8,101.9a3.3,3.3,0,0,1-.8-2.2,3.1,3.1,0,0,1,3.3-3.3,3.2,3.2,0,0,1,2.3.7,2.9,2.9,0,0,1,.8,2.2,3.7,3.7,0,0,1-.9,2.5,3.2,3.2,0,0,1-2.4.9A3.2,3.2,0,0,1,252.8,101.9Z" fill="#e6fcf5"/>
    <path d="M261.5,101.9a3.2,3.2,0,0,1-.7-2.2,3.6,3.6,0,0,1,.8-2.4,3.3,3.3,0,0,1,2.5-.9,2.9,2.9,0,0,1,2.2.7,2.6,2.6,0,0,1,.8,2.2,3.7,3.7,0,0,1-.9,2.5,3.2,3.2,0,0,1-2.4.9A3.4,3.4,0,0,1,261.5,101.9Z" fill="#e6fcf5"/>
    <path d="M299,95.4a2.7,2.7,0,0,1,.2,1.1,3.3,3.3,0,0,1-.6,2.1,12.9,12.9,0,0,1-3.7,3.2,9.4,9.4,0,0,1-4.3.9,11.5,11.5,0,0,1-3.3-.4l-3.6-1.4L280,99.5a5.5,5.5,0,0,1-5.2,3.2,5,5,0,0,1-3.1-.9,2.7,2.7,0,0,1-1.1-2.2,3.3,3.3,0,0,1,1.6-2.8,7.5,7.5,0,0,1,4.2-1.1h.5l.6-9.9a15,15,0,0,1,1.2-5.6,11.3,11.3,0,0,1,2.8-3.7,13.1,13.1,0,0,1,3.6-2.1,11.6,11.6,0,0,1,4.2-.7c2.5,0,4.4.6,5.7,1.9a6.7,6.7,0,0,1,2,5,6.2,6.2,0,0,1-.8,3.3,2.3,2.3,0,0,1-2.1,1.3,2.5,2.5,0,0,1-1.5-.5,1.7,1.7,0,0,1-.5-1.3,5.9,5.9,0,0,1,.1-1.1,5.2,5.2,0,0,0,.2-1.7,3.1,3.1,0,0,0-.8-2.3,3.7,3.7,0,0,0-2.5-.8,5.9,5.9,0,0,0-4.7,2,12.1,12.1,0,0,0-2,6.1l-.8,7.7a15.9,15.9,0,0,1-.5,2.8l5.5,1.2,2.9.7a6.2,6.2,0,0,0,1.8.2,8.6,8.6,0,0,0,3.4-.6,10.5,10.5,0,0,0,2.7-2.2,1,1,0,0,1,.9-.4A.8.8,0,0,1,299,95.4Z" fill="#e6fcf5"/>
    <path d="M317.2,92.5a2.1,2.1,0,0,1,.3,1.2c0,1.1-.4,1.7-1,1.9a16.3,16.3,0,0,1-4.5.8,8.5,8.5,0,0,1-2.6,4.6,6.3,6.3,0,0,1-4.3,1.7,6,6,0,0,1-3.5-1,6.3,6.3,0,0,1-2.2-2.6,8.4,8.4,0,0,1-.7-3.5,9.5,9.5,0,0,1,1-4.6,7.1,7.1,0,0,1,2.7-3.2,6.5,6.5,0,0,1,3.8-1.1,5.6,5.6,0,0,1,4.2,1.7,7.7,7.7,0,0,1,1.9,4.4,15.4,15.4,0,0,0,3.8-.6h.4A.7.7,0,0,1,317.2,92.5Zm-9.9,5.7a4.4,4.4,0,0,0,1-2.5,4.9,4.9,0,0,1-1.6-1.9,6.9,6.9,0,0,1-.5-2.4,3.7,3.7,0,0,1,.1-1.1h-.2a2.7,2.7,0,0,0-2.3,1.3,6.3,6.3,0,0,0-.9,3.7,4.4,4.4,0,0,0,.8,2.8,2,2,0,0,0,1.7,1A2.6,2.6,0,0,0,307.3,98.2Z" fill="#e6fcf5"/>
    <path d="M332,92.2a1,1,0,0,1,.8.3,1.2,1.2,0,0,1,.3.9,2.9,2.9,0,0,1-.4,1.7,2,2,0,0,1-1.2.8,9.7,9.7,0,0,1-3.4.6,8.7,8.7,0,0,1-2.8-.5,31.5,31.5,0,0,1-2.2,3.3,14.1,14.1,0,0,1-2.3,2.7,3.7,3.7,0,0,1-2.3.7,2.5,2.5,0,0,1-2.1-1.1,6.8,6.8,0,0,1-1.1-3.4c-.2-3.2-.4-6-.4-8.3V88.7a2.2,2.2,0,0,1,.7-1.6,2.5,2.5,0,0,1,1.7-.4,2.3,2.3,0,0,1,1.3.3,1.8,1.8,0,0,1,.4,1.4c0,2.6.2,6,.5,10.1,1.4-2,2.4-3.6,3.1-4.8a4.4,4.4,0,0,1-.6-2.3,4.6,4.6,0,0,1,.6-2.3,4.9,4.9,0,0,1,1.4-1.8,3.2,3.2,0,0,1,2-.6,2.1,2.1,0,0,1,1.6.7,2.8,2.8,0,0,1,.6,2,10.2,10.2,0,0,1-.8,3.5l3.4-.5.9-.2Z" fill="#e6fcf5"/>
    <path d="M346,95.4a1.6,1.6,0,0,1,.3,1.1,3.3,3.3,0,0,1-.7,2.1,11.3,11.3,0,0,1-3.5,2.8,9.8,9.8,0,0,1-5,1.3,7.5,7.5,0,0,1-5.5-1.9,7.2,7.2,0,0,1-2-5.3,10.5,10.5,0,0,1,1-4.4,8,8,0,0,1,2.8-3.2,6.5,6.5,0,0,1,3.9-1.2,4.4,4.4,0,0,1,3.2,1.2,4,4,0,0,1,1.2,3.1,5.7,5.7,0,0,1-1.7,4.1,11.7,11.7,0,0,1-5.7,2.6,3.2,3.2,0,0,0,3.2,1.6,7.8,7.8,0,0,0,3.5-1.1,11.3,11.3,0,0,0,3.4-2.8,1.2,1.2,0,0,1,.9-.4A.8.8,0,0,1,346,95.4Zm-11.4-3.9a6.5,6.5,0,0,0-.9,3.5h0a7.9,7.9,0,0,0,3.2-1.4,2.9,2.9,0,0,0,1.2-2.2,1.8,1.8,0,0,0-.4-1.1,1.5,1.5,0,0,0-1-.4A2.5,2.5,0,0,0,334.6,91.5Z" fill="#e6fcf5"/>
    <path d="M348.3,101.9a3.2,3.2,0,0,1-.7-2.2,3.6,3.6,0,0,1,.8-2.4,3.3,3.3,0,0,1,2.5-.9,2.6,2.6,0,0,1,3,2.9,3.7,3.7,0,0,1-.9,2.5,3.2,3.2,0,0,1-2.4.9A3.4,3.4,0,0,1,348.3,101.9Z" fill="#e6fcf5"/>
    <path d="M357.1,101.9a3.3,3.3,0,0,1-.8-2.2,3.1,3.1,0,0,1,3.3-3.3,3.2,3.2,0,0,1,2.3.7,2.9,2.9,0,0,1,.7,2.2,4.1,4.1,0,0,1-.8,2.5,3.3,3.3,0,0,1-2.5.9A2.9,2.9,0,0,1,357.1,101.9Z" fill="#e6fcf5"/>
    <path d="M398.5,95.4c.2.2.2.6.2,1.1a3.3,3.3,0,0,1-.6,2.1,14.9,14.9,0,0,1-3.3,3,7.1,7.1,0,0,1-3.9,1.1,6,6,0,0,1-3.8-1.2,10.8,10.8,0,0,1-2.9-4.1L382.4,94a7.5,7.5,0,0,0-1.3-1.6,2.5,2.5,0,0,0-1.5-.5c-.1.4-.4,1.9-.8,4.4s-.3,1.9-.3,2.1a6.3,6.3,0,0,1-1.4,3.2,4.2,4.2,0,0,1-3.1,1.1,6.2,6.2,0,0,1-4-1.3,8.3,8.3,0,0,1-2.7-3.8,13.3,13.3,0,0,1-1-5.4,23.3,23.3,0,0,1,2-9.9,13.8,13.8,0,0,1,5.6-6.3,15.1,15.1,0,0,1,8.3-2.2,12.4,12.4,0,0,1,5.4,1,6.4,6.4,0,0,1,3.3,2.7,7.1,7.1,0,0,1,1.1,3.9,8.1,8.1,0,0,1-.9,3.7,9.1,9.1,0,0,1-2.7,3.2,12,12,0,0,1-4.4,2.1,5.5,5.5,0,0,1,2.5,1.4,12.2,12.2,0,0,1,1.8,2.9,8.2,8.2,0,0,0,1.9,3,3,3,0,0,0,2.1,1,3.7,3.7,0,0,0,2.1-.8,14.5,14.5,0,0,0,2.5-2.5,1.2,1.2,0,0,1,.9-.4A.8.8,0,0,1,398.5,95.4Zm-23.6-3.6a2.2,2.2,0,0,1-1.6-.5,1.9,1.9,0,0,1-.4-1.2,1.7,1.7,0,0,1,.5-1.3,1.6,1.6,0,0,1,1.2-.5h.9c.3-2.2.7-4.1,1-5.8a2.6,2.6,0,0,1,2.8-2.2c1.3,0,2,.6,2,1.8a.7.7,0,0,1-.1.5l-1,5.7a9.5,9.5,0,0,0,3.4-.9,6,6,0,0,0,3.3-5.3,4.1,4.1,0,0,0-1.5-3.4,6.7,6.7,0,0,0-4.3-1.2,10.3,10.3,0,0,0-5.8,1.6,10.7,10.7,0,0,0-3.9,4.9,20.7,20.7,0,0,0-1.4,7.9,14,14,0,0,0,.5,3.8,7.1,7.1,0,0,0,1,2.3c.5.5.9.8,1.3.8a1,1,0,0,0,.7-.4,6.4,6.4,0,0,0,.5-1.5Z" fill="#e6fcf5"/>
    <path d="M411.2,95.4a2.7,2.7,0,0,1,.2,1.1,3.3,3.3,0,0,1-.6,2.1,11.9,11.9,0,0,1-3.6,2.8,9.2,9.2,0,0,1-4.9,1.3,7.4,7.4,0,0,1-5.5-1.9,7.2,7.2,0,0,1-2-5.3,9.2,9.2,0,0,1,1-4.4,7.7,7.7,0,0,1,2.7-3.2,7,7,0,0,1,4-1.2,4.4,4.4,0,0,1,3.2,1.2,4.3,4.3,0,0,1,1.1,3.1,5.6,5.6,0,0,1-1.6,4.1,12.6,12.6,0,0,1-5.7,2.6c.5,1.1,1.6,1.6,3.2,1.6a7.8,7.8,0,0,0,3.5-1.1,11.3,11.3,0,0,0,3.4-2.8,1,1,0,0,1,.9-.4A.8.8,0,0,1,411.2,95.4Zm-11.4-3.9a6.5,6.5,0,0,0-.9,3.5h0a7.9,7.9,0,0,0,3.2-1.4,2.8,2.8,0,0,0,1.1-2.2,1.8,1.8,0,0,0-.3-1.1,1.8,1.8,0,0,0-1-.4A2.5,2.5,0,0,0,399.8,91.5Z" fill="#e6fcf5"/>
    <path d="M428.2,95.4a1.6,1.6,0,0,1,.3,1.1,3.3,3.3,0,0,1-.7,2.1,17.4,17.4,0,0,1-3.1,3,7.1,7.1,0,0,1-3.9,1.1,3.6,3.6,0,0,1-2.9-1.3,6.8,6.8,0,0,1-4,1.3,44.2,44.2,0,0,1-2,11c-1.1,2.9-2.6,4.4-4.6,4.4a3.1,3.1,0,0,1-2.7-1.4,6.2,6.2,0,0,1-.9-3.6,25.3,25.3,0,0,1,1.5-7.8,53.6,53.6,0,0,1,4.7-9.8V88.6a1.6,1.6,0,0,1,.7-1.5,3.7,3.7,0,0,1,2.1-.6,1.3,1.3,0,0,1,1,.3,1.4,1.4,0,0,1,.4,1.1v1.3a8,8,0,0,1,2.2-2,4.3,4.3,0,0,1,2.2-.6,3.6,3.6,0,0,1,3.1,1.6,6.2,6.2,0,0,1,1.2,4,10.7,10.7,0,0,1-.6,3.5,10.2,10.2,0,0,1-1.6,3.1l1.2.2a3.7,3.7,0,0,0,2.2-.8,26,26,0,0,0,2.6-2.8,1.2,1.2,0,0,1,.9-.4A.8.8,0,0,1,428.2,95.4Zm-19.1,15.3a79.1,79.1,0,0,0,.8-9.9,39.2,39.2,0,0,0-2.3,6.5,19.5,19.5,0,0,0-.9,5.2,4,4,0,0,0,.3,1.7.6.6,0,0,0,.6.5C408.2,114.7,408.7,113.4,409.1,110.7Zm7.2-12.6a7.3,7.3,0,0,0,1.7-2.7,8.8,8.8,0,0,0,.6-3.3,3,3,0,0,0-.4-1.5,1.3,1.3,0,0,0-1.1-.5c-.8,0-1.8.8-3,2.5V97a14.9,14.9,0,0,1-.1,2.4A3.9,3.9,0,0,0,416.3,98.1Z" fill="#e6fcf5"/>
    <path d="M441.6,95.4a2.7,2.7,0,0,1,.2,1.1,3.3,3.3,0,0,1-.6,2.1,11.9,11.9,0,0,1-3.6,2.8,9.2,9.2,0,0,1-4.9,1.3,7.4,7.4,0,0,1-5.5-1.9,7.2,7.2,0,0,1-2-5.3,9.2,9.2,0,0,1,1-4.4,7.7,7.7,0,0,1,2.7-3.2,7,7,0,0,1,4-1.2,4.1,4.1,0,0,1,4.3,4.3,5.6,5.6,0,0,1-1.6,4.1,12.6,12.6,0,0,1-5.7,2.6c.5,1.1,1.6,1.6,3.2,1.6a7.8,7.8,0,0,0,3.5-1.1,11.3,11.3,0,0,0,3.4-2.8,1,1,0,0,1,.9-.4A.8.8,0,0,1,441.6,95.4Zm-11.4-3.9a6.5,6.5,0,0,0-.9,3.5h0a7.9,7.9,0,0,0,3.2-1.4,3.1,3.1,0,0,0,1.1-2.2,1.8,1.8,0,0,0-.3-1.1,1.8,1.8,0,0,0-1-.4A2.5,2.5,0,0,0,430.2,91.5Z" fill="#e6fcf5"/>
    <path d="M439.7,101.2a6.3,6.3,0,0,1-1.2-4,10.8,10.8,0,0,1,4.6-9.1,7.3,7.3,0,0,1,4.4-1.5,1.3,1.3,0,0,1,1,.3,2.3,2.3,0,0,1,.4,1.1l1.5-.2c1.1,0,1.7.4,1.7,1.2a33.5,33.5,0,0,1-.5,3.4,36.3,36.3,0,0,0-.8,5.4,1.2,1.2,0,0,0,.3.9.6.6,0,0,0,.6.3,2.6,2.6,0,0,0,1.6-.9,24.7,24.7,0,0,0,2.5-2.7,1,1,0,0,1,.9-.4.8.8,0,0,1,.7.4c.2.2.2.6.2,1.1a3.3,3.3,0,0,1-.6,2.1,16.4,16.4,0,0,1-3,2.9,4.8,4.8,0,0,1-3,1.2,3.1,3.1,0,0,1-2.1-.8,6,6,0,0,1-1.4-2,4.9,4.9,0,0,1-4.4,2.8A4.3,4.3,0,0,1,439.7,101.2Zm6-2.8a5.3,5.3,0,0,0,1-2.4l1.3-6.2a4,4,0,0,0-2.7,1.1,6.9,6.9,0,0,0-1.9,2.7,8.6,8.6,0,0,0-.7,3.6,3.4,3.4,0,0,0,.4,1.6,1.7,1.7,0,0,0,1.2.5A1.7,1.7,0,0,0,445.7,98.4Z" fill="#e6fcf5"/>
    <path d="M470.7,95.4a1.6,1.6,0,0,1,.3,1.1,3.3,3.3,0,0,1-.6,2.1,17.9,17.9,0,0,1-3.2,3,7.7,7.7,0,0,1-4,1.1c-4.6,0-7-3.2-7-9.8,0-.9.1-2,.1-3H455a1.8,1.8,0,0,1-1.4-.4,1.6,1.6,0,0,1-.3-1.1c0-1.3.5-1.9,1.5-1.9h2a29.1,29.1,0,0,1,1.7-6.9,16.3,16.3,0,0,1,2.9-4.9,4.8,4.8,0,0,1,3.6-1.8,2.7,2.7,0,0,1,2.3,1.2,6.3,6.3,0,0,1,.8,3.2c0,3.5-1.5,6.5-4.4,9.2h3.8c.3,0,.6,0,.7.2a1.1,1.1,0,0,1,.3.9c0,1.5-1.3,2.3-3.9,2.3h-4.1c-.1,1.2-.1,2-.1,2.7,0,2.3.3,4,.9,4.9a2.7,2.7,0,0,0,2.6,1.5,4.1,4.1,0,0,0,2.6-.9,23.1,23.1,0,0,0,2.6-2.7,1.2,1.2,0,0,1,.9-.4A.7.7,0,0,1,470.7,95.4Zm-7.7-18a10.9,10.9,0,0,0-1.2,3.5c-.4,1.5-.7,3.2-1,5a9.7,9.7,0,0,0,3-3.8,9.4,9.4,0,0,0,1-4c0-1.3-.2-2-.7-2S463.4,76.5,463,77.4Z" fill="#e6fcf5"/>
    <path d="M473.4,101.9a3.2,3.2,0,0,1-.7-2.2,3.6,3.6,0,0,1,.8-2.4,3.3,3.3,0,0,1,2.5-.9,2.6,2.6,0,0,1,3,2.9,3.7,3.7,0,0,1-.9,2.5,3.2,3.2,0,0,1-2.4.9A3.2,3.2,0,0,1,473.4,101.9Z" fill="#e6fcf5"/>
    <path d="M482.2,101.9a3.3,3.3,0,0,1-.8-2.2,3.2,3.2,0,0,1,.9-2.4,3.1,3.1,0,0,1,2.4-.9,3.3,3.3,0,0,1,2.3.7,2.9,2.9,0,0,1,.7,2.2,3.7,3.7,0,0,1-.9,2.5,3.1,3.1,0,0,1-2.4.9A2.9,2.9,0,0,1,482.2,101.9Z" fill="#e6fcf5"/>
  </g>
  <g id="title" style="isolation: isolate">
    <path d="M119.6,56.2a3,3,0,0,1-2.5,1,3.3,3.3,0,0,1-2.4-1,3,3,0,0,1-1-2.4V9.1a3.3,3.3,0,0,1,1-2.5,3.6,3.6,0,0,1,2.4-.9h13.2a17.2,17.2,0,0,1,8.8,2.2,14.5,14.5,0,0,1,6,6,18.6,18.6,0,0,1,2.1,8.9,17.4,17.4,0,0,1-2.1,8.6,14.6,14.6,0,0,1-6,5.8,18.2,18.2,0,0,1-8.8,2.1h-9.7V53.8A3,3,0,0,1,119.6,56.2Zm18.1-26.1a9.5,9.5,0,0,0,2.9-7.3,10.4,10.4,0,0,0-2.9-7.7,9.5,9.5,0,0,0-7.4-3.1h-9.7V33h9.7A9.7,9.7,0,0,0,137.7,30.1Z" fill="#fff0f6"/>
    <path d="M177.3,21.8c1.4.7,2,1.6,2,2.6s0,.6-.1.7a2.4,2.4,0,0,1-2.6,2.1h-1a27,27,0,0,0-4.3-.5,12,12,0,0,0-7.6,2.2,6.7,6.7,0,0,0-2.9,5.9V53.9a3.3,3.3,0,0,1-.9,2.5,2.9,2.9,0,0,1-2.4.8,3.3,3.3,0,0,1-2.5-.8,3.6,3.6,0,0,1-.8-2.5V24.4A3.6,3.6,0,0,1,155,22a3.3,3.3,0,0,1,2.5-.9q3.3,0,3.3,3.3v1.3a11.8,11.8,0,0,1,4.9-3.6,14.4,14.4,0,0,1,6.2-1.4A11.5,11.5,0,0,1,177.3,21.8Z" fill="#fff0f6"/>
    <path d="M209.3,23.2a16.9,16.9,0,0,1,6.5,6.5,19.9,19.9,0,0,1,2.3,9.5,18.8,18.8,0,0,1-2.3,9.5,17.4,17.4,0,0,1-6.4,6.5,19.5,19.5,0,0,1-9.4,2.3,19.9,19.9,0,0,1-9.5-2.3,17.4,17.4,0,0,1-6.4-6.5,18.8,18.8,0,0,1-2.3-9.5,18.8,18.8,0,0,1,2.3-9.5,16.7,16.7,0,0,1,6.4-6.5,19.9,19.9,0,0,1,9.5-2.3A19.1,19.1,0,0,1,209.3,23.2Zm-15.4,5.2a11.9,11.9,0,0,0-4.2,4.4,13.4,13.4,0,0,0-1.5,6.4,13.4,13.4,0,0,0,1.5,6.4,12.7,12.7,0,0,0,4.2,4.4A12.2,12.2,0,0,0,206,50a11.1,11.1,0,0,0,4.2-4.4,13.4,13.4,0,0,0,1.5-6.4,13.4,13.4,0,0,0-1.5-6.4,10.5,10.5,0,0,0-4.2-4.4,12.2,12.2,0,0,0-12.1,0Z" fill="#fff0f6"/>
    <path d="M232.6,65.2a14.1,14.1,0,0,1-5.6,5.5,16.5,16.5,0,0,1-8.1,2,3.1,3.1,0,0,1-2.4-1,3.7,3.7,0,0,1,0-4.8,3.5,3.5,0,0,1,2.4-1,8.9,8.9,0,0,0,6.4-2.4,8.6,8.6,0,0,0,2.5-6.4V24.5a3,3,0,0,1,1-2.4,3.4,3.4,0,0,1,4.8,0,3.3,3.3,0,0,1,1,2.4V57.1A16.8,16.8,0,0,1,232.6,65.2Zm1.7-57.4a4.6,4.6,0,0,1,0,6.2,4.4,4.4,0,0,1-7.5-3.1,4.4,4.4,0,0,1,7.5-3.1Z" fill="#fff0f6"/>
    <path d="M276,40.7a2.9,2.9,0,0,1-2.2.8H248.7a11.8,11.8,0,0,0,4.2,7.5,13,13,0,0,0,8.5,2.8,12.2,12.2,0,0,0,4.1-.7,13.4,13.4,0,0,0,3.6-1.8,3.2,3.2,0,0,1,2.2-.7,2.9,2.9,0,0,1,1.9.6,3.1,3.1,0,0,1,1.2,2.3,2.5,2.5,0,0,1-1,2,19.7,19.7,0,0,1-5.6,2.9,21.5,21.5,0,0,1-6.4,1.1,20.7,20.7,0,0,1-9.7-2.3,18.2,18.2,0,0,1-6.7-6.5,18.9,18.9,0,0,1-2.4-9.5,19.9,19.9,0,0,1,2.3-9.5,17.1,17.1,0,0,1,6.3-6.5,18.7,18.7,0,0,1,9.2-2.3,16.7,16.7,0,0,1,8.8,2.2,14.5,14.5,0,0,1,5.7,6.3,20.8,20.8,0,0,1,2,9.2A2.6,2.6,0,0,1,276,40.7ZM252.6,29.2a11.5,11.5,0,0,0-3.8,7h22a11.5,11.5,0,0,0-3.3-7,9.7,9.7,0,0,0-7.1-2.7A11.2,11.2,0,0,0,252.6,29.2Z" fill="#fff0f6"/>
    <path d="M313.1,26.8a2.8,2.8,0,0,1,.7,1.7,3,3,0,0,1-1.5,2.5,2.4,2.4,0,0,1-1.5.4,3.4,3.4,0,0,1-2.6-1.2,12.7,12.7,0,0,0-3.6-2.6,12.3,12.3,0,0,0-4.4-.8,10.7,10.7,0,0,0-8.3,3.4,12.9,12.9,0,0,0-3.2,9,13.4,13.4,0,0,0,1.5,6.4,11.1,11.1,0,0,0,4.2,4.4,12.3,12.3,0,0,0,6.1,1.6,10.4,10.4,0,0,0,7.2-2.4,4.5,4.5,0,0,1,2.5-.9,2.7,2.7,0,0,1,1.7.6,3.3,3.3,0,0,1,1.3,2.4,2.7,2.7,0,0,1-.8,1.8,17.2,17.2,0,0,1-11.9,4.4,18.5,18.5,0,0,1-9.4-2.4,16.9,16.9,0,0,1-6.5-6.5,19.8,19.8,0,0,1-2.3-9.4,18.8,18.8,0,0,1,2.3-9.5,17.1,17.1,0,0,1,6.3-6.5,18.9,18.9,0,0,1,9.3-2.3A16.1,16.1,0,0,1,313.1,26.8Z" fill="#fff0f6"/>
    <path d="M341.2,51.6a3.6,3.6,0,0,1,.8,2.3,3,3,0,0,1-1.1,2.4,4.1,4.1,0,0,1-2.8.9h-1.2a11.1,11.1,0,0,1-5.9-1.6,12.4,12.4,0,0,1-4.2-4.6,14.3,14.3,0,0,1-1.5-6.6V28.1h-3a3,3,0,0,1-2.3-.8,2.7,2.7,0,0,1-.8-1.9,3.3,3.3,0,0,1,.8-2.2,3.3,3.3,0,0,1,2.3-.7h3V12.9a3.2,3.2,0,0,1,.9-2.3,3.4,3.4,0,0,1,4.8,0,3.2,3.2,0,0,1,.9,2.3v9.6h5.6a3.5,3.5,0,0,1,2.3.7,3.3,3.3,0,0,1,.8,2.2,2.7,2.7,0,0,1-.8,1.9,3.1,3.1,0,0,1-2.3.8h-5.6V44.4a6.8,6.8,0,0,0,1.5,4.5,4.4,4.4,0,0,0,3.5,1.7h2.3A2.5,2.5,0,0,1,341.2,51.6Z" fill="#fff0f6"/>
    <path d="M376.2,56.2a3.5,3.5,0,0,1-6-2.4V9.1a3.7,3.7,0,0,1,1-2.5,3.7,3.7,0,0,1,2.5-.9h13.2a16.8,16.8,0,0,1,8.7,2.2,14.5,14.5,0,0,1,6,6,17.5,17.5,0,0,1,2.2,8.9,16.4,16.4,0,0,1-2.2,8.6,14.6,14.6,0,0,1-6,5.8,17.8,17.8,0,0,1-8.7,2.1h-9.8V53.8A3.2,3.2,0,0,1,376.2,56.2Zm18.1-26.1a9.9,9.9,0,0,0,2.9-7.3,10.8,10.8,0,0,0-2.9-7.7,9.7,9.7,0,0,0-7.4-3.1h-9.8V33h9.8A9.9,9.9,0,0,0,394.3,30.1Z" fill="#fff0f6"/>
    <path d="M435,23.3a17.9,17.9,0,0,1,6.5,6.6,18.4,18.4,0,0,1,2.4,9.3V53.9a3.4,3.4,0,0,1-3.4,3.4,3.2,3.2,0,0,1-3.3-3.4V51.5a16.3,16.3,0,0,1-12.8,6,16.2,16.2,0,0,1-8.6-2.4,15.7,15.7,0,0,1-6-6.5,19.8,19.8,0,0,1-2.3-9.4,18.4,18.4,0,0,1,2.4-9.3,17.4,17.4,0,0,1,6.6-6.6,19,19,0,0,1,18.5,0Zm-3.3,26.6a10.5,10.5,0,0,0,4.2-4.4,12.8,12.8,0,0,0,1.5-6.3,13.3,13.3,0,0,0-1.5-6.3,11.4,11.4,0,0,0-4.2-4.5,10.9,10.9,0,0,0-5.9-1.6,11.2,11.2,0,0,0-6,1.6,11.4,11.4,0,0,0-4.2,4.5,12.3,12.3,0,0,0-1.6,6.3,11.8,11.8,0,0,0,1.6,6.3,10.5,10.5,0,0,0,4.2,4.4,11.3,11.3,0,0,0,6,1.7A11,11,0,0,0,431.7,49.9Z" fill="#fff0f6"/>
    <path d="M492.4,21.9a2.7,2.7,0,0,1,.7,1.9,4.5,4.5,0,0,1-.4,2L483,55.1a2.9,2.9,0,0,1-1.2,1.5,3.3,3.3,0,0,1-1.9.6,3.4,3.4,0,0,1-2-.6,2.9,2.9,0,0,1-1.2-1.5l-6.5-24-6.8,24a2.9,2.9,0,0,1-1.2,1.5,3.3,3.3,0,0,1-1.9.6,3.6,3.6,0,0,1-2-.6,2.9,2.9,0,0,1-1.2-1.5l-9.8-29.3a11.1,11.1,0,0,1-.2-1.9c0-1.8.9-2.8,2.7-2.8a2.9,2.9,0,0,1,2.1.8,4.5,4.5,0,0,1,1.4,2.3l7.1,22.2,6.7-22.8a4.4,4.4,0,0,1,1.2-1.8,3.5,3.5,0,0,1,2.1-.7,3.3,3.3,0,0,1,2.1.7,3.6,3.6,0,0,1,1.2,1.8l5.9,23.3,7.3-22.7c.6-2.1,1.7-3.1,3.4-3.1A2.9,2.9,0,0,1,492.4,21.9Z" fill="#fff0f6"/>
    <path d="M527.1,54.1a2.8,2.8,0,0,1-3.1,3.1H501.5c-2.1,0-3.1-1-3.1-3.1a4.3,4.3,0,0,1,.5-2.1l18.7-24.7H500.8c-2.1,0-3.1-1-3.1-3.1a2.8,2.8,0,0,1,3.1-3.1h22.5a2.8,2.8,0,0,1,3.1,3.1,3.3,3.3,0,0,1-.6,2.1L507.2,51H524A2.8,2.8,0,0,1,527.1,54.1Z" fill="#fff0f6"/>
  </g>
  <g id="pawz_icon">
    <path d="M72.1,88.1l-.3,1.2-2-1,.2-2.4,2.6-1.5c-.1,1.2-.3,2.4-.5,3.7" fill="#588fcb" fill-rule="evenodd"/>
    <path d="M68.3,98.2l-.7,1.4h-.2l-.7,1.1a.3.3,0,0,1-.1.2l-.8,1h0l-4.3,2.7-4.1-1.2,2-3.8-1.2-4.7-.4-3.4.6-3.1-3.6-1.1-2.6,2.6-4.4-2.5,1.4-6.7,2.4-3.5V73.6l3-2.8-2.2-4.5-2.2,3.4-2.9-6.6,4.3-.3L49.9,57H45.3l-1.2-4.1L40.7,51l-3.2.6-3.4,1.2,3.5,2.6-3.4,4,2.2,2.1-.6,3.9-4.9-2.9-.5,5.6,2.6-3L38.3,72l-1.9.3-3.9.3-3.8,4.1-1.3-1.6h-4l-1.8,3.6,2.8,1.9,1.7,2.2,1.8,2.2,5.9,2.4.5,3.7,3.5.7,2.7,3.5-3,3.2-2.6,1.2-.4,2.2L32,103.7h-.3l-2.8,1.1-1.6,2.5.4,3.4a6.9,6.9,0,0,0-1.9-1.2,3.1,3.1,0,0,1-.9-1.6c-.2-.8-.4-1.3-.4-1.4l-1.1-5.1,2.5-1.8.8-4.1-2.2-1.7-2.2-3.6,2.3-1.4.8-3.8-1-.2-1.9-4.4-3.6-3.3,1.2-2.4-1.7-3.3,1.4-7.1,4.8-2.2,4-3.5.6-2.8-1.7-2,4.4-1.5,4.6-4.5-.5-.7h2.5a37.7,37.7,0,0,1,6.6.6l2.1.5.6.2,1.6.5.5.2,1.9.7.4.2,1.6.7.5.3,1.5.8.3.2,1.8,1.1.4.3,1.2,1,.5.3a26.8,26.8,0,0,1,3,2.8c.1.1.3.2.4.4l1.1,1.2.3.3a10.1,10.1,0,0,0,1.3,1.6c0,.1.1.2.1.3l1,1.4.3.5.9,1.5c0,.1.1.2.1.3a16.2,16.2,0,0,1,1,1.8v.4a10.1,10.1,0,0,1,.7,1.5c.1.2.1.4.2.5l.7,1.9-4.3,5.2-1.7-4.1-3.8-1.2-5,1.8-.8,3.2,3.1,2.7,3.6-3.3,3.9,4.3,3.1-.4L72,77.2l.7,2.8h0v2.3l-4.3,2.6L68,89.2,71.4,91a33.3,33.3,0,0,1-3.1,7.2" fill="#129d49" fill-rule="evenodd"/>
    <path d="M50.7,72l.8-1.4.6-.9.4.7L50.7,72" fill="#588fcb" fill-rule="evenodd"/>
    <path d="M72.1,74.9l-1.1,1-2.5,1.9h-.6l.3-.4,3.5-4.3c.1.6.3,1.2.4,1.7" fill="#588fcb" fill-rule="evenodd"/>
    <path d="M64.8,75.8l-1.3-1.4-1.1-1.2,1.5.5.9,2.1" fill="#588fcb" fill-rule="evenodd"/>
    <path d="M62.3,73.1l-1.2,1.1-2.5,2.3-1.1-1,.4-1.4,3.5-1.2.9.2" fill="#588fcb" fill-rule="evenodd"/>
    <path d="M4.9,74.8A34.3,34.3,0,0,1,15.2,56.2,35,35,0,0,1,34,47.4l.2.3-3.3,3.2L27,52.3l-2.3.7,1.5,1.9,1.2,1.4-.3,1.5-3.4,2.9-4.6,2.1-.8.4-.2.8-1.4,7.1v.6l.3.5,1.3,2.6-.8,1.8-.5,1,.9.9,3.3,3,1.8,4,.3.8h.2l-.3,1.4-1.7,1-1.5,1,.9,1.4,2.3,3.6v.3h.3l1.3,1.1-.4,2.4-2,1.4-.9.7.3,1.1,1.1,5h0c.8,3.1,1.7,4.5,2.5,4.3a4.9,4.9,0,0,1,1.2.8l2.8,2.4c-8.8-2.6-15.5-7.6-20-14.9A34,34,0,0,1,4.9,74.8" fill="#588fcb" fill-rule="evenodd"/>
    <path d="M31.8,115l-2-.4-.4-4-.3-2.9.9-1.4,2.4-1h.7l2.4-1.9.5-.4v-.6l.3-1.4,1.8-.8h.3l.3-.3,2.9-3.2,1-1-.9-1.2-2.7-3.4-.4-.5-.6-.2-2.3-.4-.3-2.5-.2-1-.8-.3L29,83.5l-1.6-1.9-1.7-2.1v-.2l-.3-.2-1.5-1,.6-1.4h2.2l.9,1,1.2,1.3L30,77.8l3.3-3.6,3.2-.3h.1l1.9-.2,2.9-.4L39.6,71l-2.4-3.3.3-2,.5-4v-.8l-.6-.6-1-1,2.3-2.8,1.3-1.3-1.5-1.1-1-.7h.3l2.6-.5L42.6,54l1,3.4.4,1.2h4.6l.7,2.5H44.7l1,2.3,2.9,6.7,1.2,2.8v3.6L47.8,80l-.2.2v.4l-1.3,6.6L46,88.4l1,.6,4.4,2.6,1.1.6.9-.9,1.9-1.9,1.1.4-.3,1.5v.5l.4,3.5h0l1.1,4-1.7,3.3-1,1.8,2,.6,4.1,1.2.7.2a34.5,34.5,0,0,1-23.2,9.1,31.1,31.1,0,0,1-6.7-.7" fill="#588fcb" fill-rule="evenodd"/>
    <path d="M31.8,115l-2-.4-.4-4-.3-2.8.9-1.5,2.4-1h.7l2.4-1.9.5-.4v-.6l.3-1.3,1.8-.9h.3l.2-.3,3-3.2.9-1-.8-1.2-2.7-3.4-.4-.5-.6-.2-2.3-.4-.3-2.5-.2-1-.9-.3L29,83.5l-1.6-1.9-1.7-2.1v-.2l-.3-.2-1.5-1,.6-1.4h2.2l.9,1,1.2,1.4L30,77.8l3.3-3.6,3.2-.2h0l2-.2,2.9-.4L39.6,71l-2.4-3.3.3-2,.5-3.9v-.9l-.6-.6-1-1,2.3-2.8L40,55.2l-1.5-1.1-.9-.7h.3l2.6-.5,2.1,1.3,1,3.3.4,1.2h4.6l.7,2.5H47.1l-2.4.2,1,2.2,2.9,6.7,1.1,2.8v3.7L47.8,80l-.2.2v.4l-1.3,6.7L46,88.4l1,.7,4.4,2.5,1.1.6.9-.9,1.9-1.9,1.1.4-.3,1.5v.5l.4,3.5h0l1.1,4.1-1.7,3.2-1,1.8,1.9.6,4.2,1.2.7.2a34.5,34.5,0,0,1-23.2,9.1,31.1,31.1,0,0,1-6.7-.7M4.8,74.8A34.4,34.4,0,0,1,33.9,47.5l.3.3-3.3,3.1L27,52.3l-2.3.8,1.5,1.8,1.1,1.4L27,57.8l-3.3,2.9-4.6,2.1-.8.4-.2.8-1.4,7.1v.6l.3.5,1.3,2.6-.8,1.8-.5,1.1.9.8,3.3,3,1.7,4,.4.9h.2l-.3,1.5-1.7,1-1.5.9.9,1.4L23,94.8l.2.3.2.2,1.4,1-.4,2.4-2,1.4-.9.7.3,1.1,1.1,5h0c.8,3,1.6,4.4,2.5,4.2l1.2.9,2.7,2.3c-8.7-2.6-15.4-7.5-19.9-14.9S3.3,83.9,4.8,74.8m57.5-1.6-1.2,1-2.5,2.3-1.1-1,.4-1.4,3.5-1.2.9.3m2.6,2.6-1.4-1.5-1.1-1.1,1.5.5,1,2.1m7.2-.8-1.1.9-2.4,1.9h-.7l.3-.4,3.5-4.3c.1.6.3,1.2.4,1.8M50.7,72l.8-1.4.6-.9.4.7L50.7,72M68.3,98.2l-.8,1.3v.2l-.7,1.1a.3.3,0,0,1-.1.2l-.8,1h0l-4.3,2.7-4.1-1.2,2-3.9-1.2-4.6-.4-3.4.6-3.1-3.6-1.1-2.6,2.6-4.4-2.5,1.4-6.7,2.3-3.5V73.6l3-2.8-2.2-4.5-2.2,3.4L47.2,63l4.3-.2L49.9,57H45.2l-1.1-4L40.7,51l-3.2.6-3.4,1.2,3.5,2.6-3.5,4,2.3,2.1-.6,3.9-4.9-2.9-.5,5.6,2.6-3L38.3,72l-1.9.3-3.9.3-3.8,4.1-1.3-1.6h-4l-1.8,3.6,2.8,1.9,1.7,2.2,1.8,2.2,5.9,2.4.5,3.7,3.5.7,2.7,3.5-3,3.2-2.6,1.2-.5,2.2L32,103.7h-.3l-2.8,1.1-1.6,2.5.4,3.4a6.9,6.9,0,0,0-1.9-1.2,3.1,3.1,0,0,1-.9-1.6c-.2-.8-.4-1.3-.4-1.4l-1.1-5.1,2.5-1.8.8-4.1-2.2-1.7-2.3-3.6,2.4-1.4.8-3.9h-1l-1.9-4.4-3.6-3.3L20,74.7l-1.6-3.2,1.4-7.1,4.8-2.2,4-3.5.6-2.8-1.7-2,4.3-1.5,4.7-4.5-.5-.7h2.4a38.8,38.8,0,0,1,6.7.6l2.1.5.6.2,1.6.5h.5l1.9.8h.4l1.6.8.5.3,1.5.8.3.2,1.8,1.1.4.3,1.2,1,.5.3a26.8,26.8,0,0,1,3,2.8c.1.1.3.2.4.4l1.1,1.2.3.3L66,61.1c.1.1.2.2.2.3l1,1.4.3.5.9,1.5c0,.1.1.2.1.3a16.2,16.2,0,0,1,1,1.8v.4a10.1,10.1,0,0,1,.7,1.5l.2.5.7,1.9-4.3,5.2-1.7-4.1-3.8-1.2-5,1.8-.8,3.2,3,2.7,3.7-3.3,3.9,4.3,3.1-.4L72,77.2l.7,2.8h0v2.3l-4.3,2.6L68,89.2,71.3,91a28.8,28.8,0,0,1-3,7.2m3.8-10.1-.3,1.2-2-1,.2-2.4,2.6-1.5c-.1,1.2-.3,2.4-.5,3.7M45.5,45.6a33.5,33.5,0,0,0-7.1-.7,36.4,36.4,0,0,0-23.1,8.4A36.1,36.1,0,0,0,2.6,74.4c-1.7,10.2.1,19.3,5.6,27.4S21.3,115,31.4,117.3a55.1,55.1,0,0,0,7.1.7A36.9,36.9,0,0,0,74.3,88.5c1.7-10.2-.1-19.3-5.5-27.4S55.6,47.9,45.5,45.6" fill="#010101" fill-rule="evenodd"/>
    <path d="M65.4,66l-3.3-2.6-4,1.1L59.7,67l5.7-1" fill="#010101" fill-rule="evenodd"/>
    <path d="M27.8,71.6l2.7.6-2.2-3-.5,2.4" fill="#010101" fill-rule="evenodd"/>
    <path d="M63.9,89.3a30.8,30.8,0,0,1,2.5,2.4l-2-4.6-.5,2.2" fill="#010101" fill-rule="evenodd"/>
    <path d="M56.5,4.3h1.4c2.7.8,4.6,3.1,5.6,6.8s1,8.1-.1,13.1c-2.8,9.5-7,14.7-12.6,15.3H49.5c-2.8-.8-4.6-3.1-5.7-6.8A26.5,26.5,0,0,1,44,19.6C46.7,10.1,50.9,5,56.5,4.3" fill="#588fcb" fill-rule="evenodd"/>
    <path d="M63.4,24.3Q59.2,38.7,50.8,39.6H49.5c-2.8-.8-4.7-3.1-5.7-6.8A26.5,26.5,0,0,1,44,19.6C46.7,10.1,50.9,5,56.5,4.3a3.4,3.4,0,0,1,1.4.2c2.7.7,4.6,3,5.6,6.7s1,8.1-.1,13.1m-5-22A5.8,5.8,0,0,0,56.5,2Q46.3,3.2,41.8,19.1c-1.3,5.7-1.3,10.6,0,14.8s3.7,6.8,7.1,7.8l1.9.2c6.8-.7,11.8-6.4,14.8-17.1,1.3-5.7,1.2-10.6-.1-14.8s-3.7-6.8-7.1-7.7" fill="#010101" fill-rule="evenodd"/>
    <path d="M13.5,5a7.8,7.8,0,0,0-3.3.7c-3.1,1.5-5,4.5-5.6,8.9s.3,9.2,2.6,14.6c4.4,9,9.7,13.8,16.1,14.2a9.7,9.7,0,0,0,3.4-.6c3.1-1.6,5-4.5,5.5-8.9s-.3-9.3-2.6-14.6C25.3,10.2,19.9,5.5,13.5,5m0,2.3q8.1.6,14.1,12.9A27.2,27.2,0,0,1,30.1,33c-.4,3.9-1.8,6.4-4.4,7.7a6,6,0,0,1-2.4.5c-5.3-.4-10-4.7-14-12.9A27.6,27.6,0,0,1,6.8,15.4c.4-3.8,1.8-6.4,4.4-7.7a5.9,5.9,0,0,1,2.3-.4" fill="#010101" fill-rule="evenodd"/>
    <path d="M13.6,7.2c5.3.5,10,4.8,14,12.9A27.8,27.8,0,0,1,30.1,33c-.4,3.9-1.8,6.4-4.4,7.7a5.9,5.9,0,0,1-2.3.5q-8.1-.7-14.1-12.9A27.6,27.6,0,0,1,6.8,15.4c.4-3.9,1.8-6.4,4.4-7.7a6,6,0,0,1,2.4-.5" fill="#588fcb" fill-rule="evenodd"/>
    <path d="M92.2,23.7c-5.5.2-10.9,2.8-16.3,7.9a28.9,28.9,0,0,0-7.8,11.9c-1.3,4.7-.8,8.3,1.7,11a9.3,9.3,0,0,0,6.8,2.6c5.4-.2,10.8-2.8,16.3-7.9a28.6,28.6,0,0,0,7.7-11.9c1.4-4.7.8-8.4-1.7-11a8.9,8.9,0,0,0-6.7-2.6m0,2.3a6.5,6.5,0,0,1,5.1,1.9c1.9,2.1,2.3,5,1.1,8.7a26.8,26.8,0,0,1-7.1,11q-7.6,7-14.7,7.2a6.9,6.9,0,0,1-5.2-1.9c-1.8-2.1-2.2-5-1.1-8.7a26.8,26.8,0,0,1,7.1-11C82.6,28.4,87.5,26,92.2,26" fill="#010101" fill-rule="evenodd"/>
    <path d="M92.2,25.9a7.3,7.3,0,0,1,5.1,1.9c1.9,2.1,2.3,5.1,1.2,8.8a27.2,27.2,0,0,1-7.2,10.9c-5.1,4.8-10,7.2-14.7,7.3a6.9,6.9,0,0,1-5.2-1.9c-1.8-2.1-2.2-5.1-1.1-8.8s3.5-7.3,7.1-10.9c5.2-4.8,10.1-7.2,14.8-7.3" fill="#588fcb" fill-rule="evenodd"/>
    <path d="M98.5,83h-.1a26.8,26.8,0,0,1-12.7-3c-3.4-1.8-5.1-4.2-5.3-7s1.9-5.2,5.3-7.1,7.6-2.8,12.7-2.9h.1c5.1.1,9.3,1,12.7,2.9s5.1,4.2,5.3,7-1.9,5.2-5.3,7.1a26.8,26.8,0,0,1-12.7,3m0-22.3h-.1q-8.7.1-14.4,3.6c-3.8,2.3-5.7,5.2-5.8,8.7s2.1,6.4,5.8,8.7,8.6,3.4,14.4,3.5h.1c5.8-.1,10.6-1.3,14.3-3.6s5.8-5.2,5.9-8.7-2.1-6.4-5.9-8.6-8.5-3.5-14.3-3.6" fill="#010101" fill-rule="evenodd"/>
    <path d="M98.5,83h-.1a28,28,0,0,1-12.7-2.9c-3.4-1.9-5.1-4.3-5.3-7.1s1.9-5.2,5.3-7.1,7.6-2.8,12.7-2.9h.1c5.1.1,9.3,1,12.7,2.9s5.1,4.2,5.3,7-1.9,5.2-5.3,7.1a26.8,26.8,0,0,1-12.7,3" fill="#588fcb" fill-rule="evenodd"/>
  </g>
</svg>
