<svg version="1.1" id="Layer_1" xmlns="http://www.w3.org/2000/svg" height="170" width="530"><style>.st0,.st2{fill-rule:evenodd;clip-rule:evenodd;fill:#588fcb}.st2{fill:#010101}.st3{fill:#fff}.st4{font-family:&apos;Comfortaa-Bold&apos;}.st5{font-size:77.7323px}.st6{letter-spacing:-2.5}.st7{letter-spacing:-1.3}.st8{font-family:&apos;Pacifico-Regular&apos;}.st9{font-size:38.0788px}.st10{letter-spacing:4.9}</style><g id="surface2"><path class="st0" d="M94.8 121c-.1.5-.3 1-.4 1.6l-2.6-1.3.3-3.1 3.4-2c-.2 1.6-.4 3.2-.7 4.8"/><path d="M90 134c-.4.5-.7 1.1-1 1.7-.1 0-.1.1-.1.2-.3.4-.7.9-.9 1.4l-.2.3c-.4.4-.7.8-.9 1.3h-.1l-5.4 3.5-5.3-1.6 2.5-4.9L77 130l-.5-4.4.8-3.9-4.6-1.4-3.4 3.4-5.5-3.3 1.7-8.5 3.1-4.5-.2-5 3.9-3.5-2.9-5.7-2.7 4.3-3.8-8.5 5.5-.3-2.2-7.5h-5.8L58.8 76l-4.2-2.4-4.2.8-4.3 1.5 4.4 3.4-4.3 5.1 2.8 2.7-.8 5-6.2-3.8-.6 7.1 3.3-3.8 6.8 8.8-2.4.4-5 .4-4.8 5.2-1.8-2-5.1-.2-2.3 4.7 3.6 2.4 2.2 2.7 2.4 2.9 7.5 3.1.7 4.7 4.4.9 3.5 4.4-3.8 4.1-3.4 1.5-.6 2.8-3.1 2.4h-.4l-3.8 1.5-2 3.1.5 4.4c-.7-.6-1.5-1.1-2.3-1.5-.6-.5-1-1.2-1.1-2-.2-.6-.4-1.2-.6-1.9l-1.4-6.5 3.2-2.3 1-5.3-2.8-2.2-2.9-4.6 3.1-1.9.9-4.9-1.3-.3-2.3-5.6-4.6-4.1 1.4-3.2-2.1-3.9 1.8-9 6.3-2.8 5.1-4.4.7-3.7-2.1-2.5 5.5-2 6-5.8-.7-.8h3.2c2.8 0 5.7.3 8.4.8l2.7.6.8.3 2.1.6.7.3 2.4.9.5.2 2.1.9.7.4 2 1 .4.3 2.2 1.4.5.4 1.7 1.2.6.5c1.3 1.1 2.6 2.3 3.8 3.6l.5.5 1.4 1.6.4.5 1.7 2c0 .1.1.3.2.4l1.3 1.9.4.6 1.1 2c0 .1.1.2.2.3l1.1 2.3.3.6.8 2c.1.2.1.4.2.6l.9 2.5-5.5 6.6-2.2-5.2-4.8-1.5-6.5 2.2-1 4 3.9 3.5 4.6-4.2 5.1 5.5 3.9-.6 3.5-2.8.8 3.6c.1 1 .1 2.1.1 3l-5.5 3.3-.6 5.6L94 125c-1.1 3-2.3 6.1-4 9" fill-rule="evenodd" clip-rule="evenodd" fill="#129d49"/><path class="st0" d="M67.3 100.4l1.1-1.8.8-1.1.5.8-2.4 2.1m27.5 3.7l-1.4 1.2-3.1 2.4h-.9l.5-.5 4.5-5.4c.1.7.2 1.5.4 2.3m-9.3 1.1l-1.7-1.9-1.4-1.5 2 .7 1.1 2.7m-3.2-3.4l-1.5 1.4-3.2 2.9-1.4-1.3.5-1.7 4.6-1.6 1 .3m-73.6 2.1c2.1-9.7 6.5-17.5 13.3-23.7C28.6 74 37 70 46 68.9l.4.4-4.2 4.1-5.1 1.7-2.9 1 1.9 2.4 1.5 1.8-.4 1.9-4.3 3.8-5.9 2.6-1 .5-.2 1.1-1.8 9.1-.2.8.4.7 1.7 3.3-1 2.2-.7 1.4 1.1 1.1 4.2 3.8 2.3 5.2.5 1h.3l-.4 1.9L30 122l-1.9 1.2 1.2 1.8 2.8 4.7.2.3.4.3 1.7 1.3-.6 3.1-2.5 1.9-1.1.8.3 1.3 1.5 6.5c1 3.8 2.1 5.6 3.2 5.4l1.5 1 3.6 3.1c-11.2-3.3-19.8-9.7-25.6-19-6.1-9.5-8.1-20.1-6-31.8"/><path class="st0" d="M43.3 155.5l-2.6-.6-.6-5.2-.4-3.7 1.2-1.9 3-1.1.5-.2h.3l.2-.2 3.1-2.4.7-.5v-.8l.4-1.8 2.3-1 .4-.2.4-.4 3.8-4.1 1.2-1.3-1.1-1.4-3.4-4.5-.6-.7h-.8l-2.9-.7-.5-3.2-.2-1.2-1.1-.5-7-2.9-2.1-2.4-2.2-2.7-.2-.2-.3-.2-2-1.4.8-1.8h2.7l1.2 1.3 1.6 1.8 1.6-1.8 4.2-4.6 4-.4h.2l2.4-.3 3.8-.5-2.2-3.1-3.2-4.1.4-2.7.7-5v-1.1l-.7-.8-1.3-1.3 3.1-3.5 1.5-1.8-1.9-1.4-1.2-.9h.5l3.3-.7 2.8 1.6 1.2 4.4.5 1.5h5.9l.9 3.3h-2.8l-3.1.2 1.2 2.8 3.7 8.6 1.5 3.6v4.7l-2.6 4-.3.3v.5l-1.7 8.5-.3 1.6 1.3.8 5.6 3.3 1.4.8 1.2-1.2 2.4-2.4 1.4.5-.4 2v.7l.5 4.4v.2h.1l1.3 5.3-2.2 4.2-1.2 2.2 2.5.8 5.3 1.6.8.2c-10 9.8-24.2 13.8-37.9 11.1"/><path class="st2" d="M43.3 155.5c-.9-.1-1.8-.3-2.6-.6l-.6-5.1-.4-3.7 1.2-2 3-1.1.4-.2h.3l.3-.2 3.1-2.3.6-.6.2-.8.4-1.8 2.3-1 .4-.2.3-.4 3.8-4 1.2-1.4-1.1-1.4-3.5-4.5-.5-.7h-.8l-3-.6-.4-3.3-.2-1.2-1.2-.5-6.9-2.8-2.1-2.5-2.2-2.7-.2-.2-.3-.2-2-1.4.8-1.8h2.7l1.1 1.3 1.6 1.8 1.7-1.8 4.2-4.6 4-.3h.1l2.5-.3 3.8-.5-2.2-3.2-3.2-4.1.4-2.7.7-5v-1.1l-.7-.8-1.3-1.3 3.1-3.5 1.5-1.8-1.9-1.4-1.2-.9h.5l3.3-.7 2.8 1.7 1.2 4.3.5 1.5h5.9l.8 3.3h-2.7l-3.1.2 1.2 2.9 3.7 8.5 1.5 3.6v4.8l-2.6 3.9-.3.4v.4l-1.7 8.6-.3 1.5 1.3.8 5.6 3.3 1.4.8 1.2-1.2 2.4-2.4 1.4.5-.4 2v.7l.5 4.4v.2l1.4 5.2-2.2 4.1-1.2 2.5 2.5.8 5.3 1.6.8.2c-10 9.7-24.2 13.7-37.9 11M8.7 103.9C12.3 85.5 27.3 71.4 46 69l.3.4-4.1 4-5.1 1.8-2.9.9 1.9 2.4 1.4 1.8-.4 1.9-4.2 3.8-5.9 2.7-1 .5-.2 1-1.9 9.1v.8l.4.7 1.6 3.3-1.1 2.2-.6 1.5 1.1 1 4.2 3.8 2.2 5.2.5 1h.3l-.4 1.9-2.2 1.3-1.9 1.1 1.1 1.9 2.9 4.6.2.4.3.2 1.8 1.4-.6 3-2.5 1.9-1.1.8.3 1.3 1.4 6.6h.1c1 3.8 2.1 5.6 3.2 5.4l1.5 1.1 3.6 3c-11.3-3.3-19.8-9.7-25.6-19.1s-8-20-5.9-31.7m73.6-2l-1.5 1.3-3.2 2.9-1.4-1.2.5-1.8 4.6-1.6 1 .4m3.2 3.3l-1.7-1.9-1.4-1.5 2 .7 1.1 2.7m9.3-1l-1.4 1.1-3.1 2.4-.9.2.5-.6 4.5-5.4c.1.8.2 1.6.4 2.3m-27.5-3.8l1.1-1.8.8-1.1.5.8-2.4 2.1M89.9 134l-.9 1.6v.2l-.9 1.5-.2.3c-.3.4-.7.8-.9 1.2v.2l-5.4 3.5-5.3-1.6 2.5-5L77 130l-.5-4.4.8-3.9-4.6-1.4-3.4 3.4-5.5-3.3 1.7-8.5 3-4.6v-4.9l3.9-3.5-2.9-5.7-2.7 4.3-3.8-8.7 5.4-.2-2.1-7.5h-6L58.9 76l-4.2-2.5-4.2.8-4.4 1.6 4.5 3.4-4.4 5.1 2.9 2.7-.8 5-6.3-3.8-.6 7.1 3.3-3.9 6.8 8.9-2.4.4-5 .4-4.8 5.2-1.8-2-5.2-.2-2.2 4.7 3.6 2.4 2.2 2.7 2.4 2.9 7.5 3.1.7 4.7 4.4.8 3.5 4.5-3.8 4.1-3.4 1.5-.6 2.8-3 2.4h-.4l-3.8 1.5-2 3.1.5 4.4c-.7-.6-1.5-1.1-2.3-1.5-.6-.5-1-1.2-1.1-2-.2-.6-.4-1.2-.6-1.9l-1.4-6.6 3.2-2.3.9-5.2-2.8-2.2-2.8-4.6 3.1-1.9.9-5-1.3-.2-2.4-5.5-4.5-4.1 1.4-3.3-2.2-3.8 1.8-9.1 6.3-2.8 5.1-4.4.7-3.7-2.1-2.6 5.5-1.9 6-5.8-.7-.8h3.1c2.9 0 5.7.3 8.5.8l2.7.7.8.2 2.1.7.7.2 2.4 1 .5.2 2.1.9.7.4 2 1 .4.3c.8.4 1.5.9 2.2 1.4l.5.4L79 78l.6.5c1.3 1.1 2.6 2.3 3.8 3.6l.5.5 1.4 1.6.4.4 1.6 2.1.3.4c.5.6.9 1.2 1.2 1.9l.4.6 1.2 2c0 .1.1.2.2.3l1.1 2.3.3.6.8 2c.1.2.1.4.2.6l.9 2.5-5.5 6.6-2.2-5.2-4.9-1.5-6.4 2.2-1 4 3.8 3.5 4.7-4.2 5.1 5.5 3.9-.6 3.5-2.8.8 3.6v3l-5.4 3.3-.6 5.6 4.3 2.2c-1 2.9-2.4 6-4.1 8.9m4.9-13c-.1.5-.3 1-.4 1.6l-2.6-1.4.3-3 3.4-2c-.2 1.6-.4 3.2-.7 4.8m-34-54.5c-3-.6-6-.8-9.1-.8-11.4.2-21.3 3.8-29.6 10.7-8.4 6.8-14.1 16.4-16.2 27-2.3 13.1.1 24.8 7 35.2 6.9 10.4 16.9 17 29.8 19.9 3 .6 6 .8 9.1.8 10.8 0 21.3-3.8 29.6-10.7 8.4-6.8 13.8-15.9 16.2-27.1 2.3-13-.1-24.7-7-35.1-6.9-10.4-16.9-17-29.8-19.9"/><path class="st2" d="M86.3 92.7l-4.2-3.3-5.2 1.4 2.1 3.1 7.3-1.2m-48.2 7.2l3.5.7-2.8-3.8-.7 3.1m46.3 22.6l3.2 3.1-2.6-5.9-.6 2.8"/><path class="st0" d="M74.9 13.6l1.7.2c3.5 1 5.9 3.9 7.2 8.7s1.2 10.4-.2 16.8C80.1 51.4 74.8 58 67.5 58.9c-.6 0-1.1-.1-1.7-.3-3.5-.9-5.9-3.8-7.2-8.6s-1.3-10.4.2-16.8c3.5-12.2 8.9-18.7 16.1-19.6"/><path class="st2" d="M83.7 39.2C80.1 51.5 74.8 58 67.6 58.9l-1.7-.2c-3.6-1-5.9-3.9-7.2-8.7-1.3-4.8-1.3-10.4.2-16.8C62.4 21 67.7 14.4 75 13.6c.6-.1 1.1 0 1.7.2 3.5.9 5.9 3.8 7.2 8.6 1.3 4.8 1.2 10.5-.2 16.8M77.3 11c-.8-.2-1.6-.3-2.3-.3-8.9 1-15.2 8.3-19 21.9-1.7 7.3-1.7 13.6.1 19s4.7 8.7 9.1 9.9c.8.2 1.6.3 2.3.3 8.7-1 15.1-8.2 18.9-21.9C88 32.7 88 26.3 86.3 21c-1.6-5.4-4.7-8.8-9-10m-57.5 3.5c-1.5 0-2.9.3-4.2.9-4.1 2-6.5 5.7-7.2 11.3-.8 5.6.4 11.9 3.4 18.8C17.3 57 24.2 63.1 32.4 63.8c1.5 0 2.9-.3 4.2-.9 4-2 6.4-5.7 7.1-11.3s-.4-11.9-3.3-18.8C34.9 21.2 28 15.2 19.8 14.5m0 2.9c6.9.6 12.9 6.1 18 16.6 2.5 6 3.6 11.4 3.2 16.4-.4 5-2.3 8.2-5.5 9.8-1 .4-2 .7-3.1.7-6.9-.6-12.9-6.1-18-16.6-2.6-6-3.7-11.4-3.2-16.4s2.2-8.2 5.5-9.8c1-.5 2-.7 3.1-.7"/><path class="st0" d="M19.8 17.4c6.8.6 12.8 6.1 18 16.5 2.5 6.1 3.7 11.5 3.2 16.5s-2.3 8.2-5.5 9.8c-1 .4-2 .6-3.1.7-6.9-.6-12.9-6.1-18-16.6-2.5-6-3.7-11.5-3.2-16.4s2.2-8.2 5.5-9.9c1-.4 2.1-.6 3.1-.6"/><path class="st2" d="M120.6 38.5c-7 .2-14 3.6-20.9 10.1-5 4.8-8.2 9.8-9.9 15.3-1.7 5.4-1 10.6 2.2 14.1 2.3 2.2 5.5 3.4 8.7 3.3 6.9-.2 13.9-3.6 20.8-10.1 4.9-4.8 8.3-9.8 9.9-15.3s1-10.6-2.2-14.1c-2.3-2.2-5.4-3.4-8.6-3.3m0 2.9c2.4-.2 4.8.7 6.6 2.4 2.4 2.7 2.9 6.5 1.4 11.2-1.5 4.7-4.5 9.5-9.1 14.1-6.6 6.1-12.9 9.2-18.8 9.3-2.5.2-4.9-.7-6.7-2.4-2.4-2.7-2.9-6.5-1.4-11.2s4.4-9.5 9.1-14.1c6.5-6.1 12.9-9.2 18.9-9.3"/><path class="st0" d="M120.6 41.3c2.4-.1 4.8.8 6.6 2.4 2.4 2.7 2.9 6.5 1.5 11.2s-4.6 9.5-9.2 14.1c-6.6 6.1-12.9 9.2-18.8 9.3-2.5.1-4.9-.8-6.7-2.4-2.4-2.7-2.9-6.4-1.4-11.3 1.4-4.7 4.4-9.4 9.1-14 6.5-6 12.9-9.1 18.9-9.3"/><path class="st2" d="M128.7 114.4c-6.7-.1-12.1-1.4-16.4-3.8-4.3-2.3-6.6-5.4-6.7-9-.2-3.6 2.4-6.7 6.7-9.1 4.3-2.4 9.8-3.7 16.3-3.8h.1c6.4.1 11.9 1.3 16.3 3.7 4.3 2.4 6.6 5.4 6.8 9.1s-2.4 6.7-6.8 9c-4.3 2.4-9.9 3.8-16.3 3.9m0-28.5c-7.6.1-13.7 1.6-18.6 4.6-4.9 3-7.3 6.7-7.5 11.2-.2 4.5 2.7 8.2 7.5 11.1s11 4.4 18.5 4.6h.1c7.4-.2 13.6-1.7 18.4-4.6 4.8-2.9 7.3-6.7 7.5-11.2s-2.6-8.2-7.5-11.2-11-4.4-18.4-4.5"/><path class="st0" d="M128.7 114.4c-6.7-.1-12.1-1.3-16.4-3.8-4.3-2.4-6.6-5.4-6.7-9-.2-3.6 2.4-6.7 6.7-9.1 4.3-2.4 9.8-3.7 16.3-3.8h.1c6.6.1 12 1.3 16.3 3.8 4.3 2.4 6.6 5.3 6.8 9s-2.4 6.7-6.8 9.1c-4.3 2.5-9.8 3.7-16.3 3.8"/></g><text transform="matrix(.7992 0 0 1 132.278 72.02)" class="st3 st4 st5">P</text><text transform="matrix(.7992 0 0 1 170.92 72.02)" class="st3 st4 st5 st6">r</text><text transform="matrix(.7992 0 0 1 198.627 72.02)" class="st3 st4 st5">o</text><text transform="matrix(.7992 0 0 1 240.624 72.02)" class="st3 st4 st5 st6">j</text><text transform="matrix(.7992 0 0 1 255.905 72.02)" class="st3 st4 st5 st7">e</text><text transform="matrix(.7992 0 0 1 293.304 72.02)" class="st3 st4 st5">ct</text><text transform="matrix(.7992 0 0 1 373.694 72.02)" class="st3 st4 st5 st7">P</text><text transform="matrix(.7992 0 0 1 411.218 72.02)" class="st3 st4 st5 st7">a</text><text transform="matrix(.7992 0 0 1 451.226 72.02)" class="st3 st4 st5">wz</text><text transform="matrix(1.0169 0 0 1 153.541 137.798)" class="st3 st8 st9">R</text><text transform="matrix(1.0169 0 0 1 186.887 137.798)" class="st3 st8 st9">escu</text><text transform="matrix(1.0169 0 0 1 250.78 137.798)" class="st3 st8 st9 st10">e</text><text transform="matrix(1.0169 0 0 1 271.325 137.798)" class="st3 st8 st9">.</text><text transform="matrix(1.0169 0 0 1 291.547 137.798)" class="st3 st8 st9" letter-spacing="3">L</text><text transform="matrix(1.0169 0 0 1 320.698 137.798)" class="st3 st8 st9">o</text><text transform="matrix(1.0169 0 0 1 338.554 137.798)" class="st3 st8 st9">v</text><text transform="matrix(1.0169 0 0 1 355.98 137.798)" class="st3 st8 st9 st10">e</text><text transform="matrix(1.0169 0 0 1 376.633 137.798)" class="st3 st8 st9">.</text><text transform="matrix(1.0169 0 0 1 396.854 137.798)" class="st3 st8 st9">R</text><text transform="matrix(1.0169 0 0 1 430.093 137.798)" class="st3 st8 st9">e</text><text transform="matrix(1.0169 0 0 1 446.12 137.798)" class="st3 st8 st9">p</text><text transform="matrix(1.0169 0 0 1 464.728 137.798)" class="st3 st8 st9">e</text><text transform="matrix(1.0169 0 0 1 479.788 137.798)" class="st3 st8 st9">a</text><text transform="matrix(1.0169 0 0 1 497.967 137.798)" class="st3 st8 st9 st10">t</text><text transform="matrix(1.0169 0 0 1 519.05 137.798)" class="st3 st8 st9">.</text></svg>