<svg xmlns="http://www.w3.org/2000/svg" viewBox="0 0 37 106">
  <title>scrollinline</title>
  <g id="marks">
    <g id="mark_cp4">
      <path d="M30.5,92.5c-.17-2.88-.24-5.75-.37-8.62l-.2-8.63c-.14-5.75-.16-11.5-.18-17.25s0-11.5.17-17.25l.21-8.63c.13-2.87.2-5.74.37-8.62.17,2.88.24,5.75.37,8.62l.21,8.63c.13,5.75.15,11.5.17,17.25s0,11.5-.18,17.25l-.2,8.63C30.74,86.75,30.67,89.62,30.5,92.5Z" style="fill: #005394"/>
    </g>
    <g id="mark_cp3">
      <path d="M24.5,101.5c-.17-2.88-.24-5.75-.37-8.62l-.2-8.63c-.14-5.75-.16-11.5-.18-17.25s0-11.5.17-17.25l.21-8.63c.13-2.87.2-5.74.37-8.62.17,2.88.24,5.75.37,8.62l.21,8.63c.13,5.75.15,11.5.17,17.25s0,11.5-.18,17.25l-.2,8.63C24.74,95.75,24.67,98.62,24.5,101.5Z" style="fill: #005394"/>
    </g>
    <g id="mark_cp2">
      <path d="M12.5,101.5c-.17-2.88-.24-5.75-.37-8.62l-.2-8.63c-.14-5.75-.16-11.5-.18-17.25s0-11.5.17-17.25l.21-8.63c.13-2.87.2-5.74.37-8.62.17,2.88.24,5.75.37,8.62l.21,8.63c.13,5.75.15,11.5.17,17.25s0,11.5-.18,17.25l-.2,8.63C12.74,95.75,12.67,98.62,12.5,101.5Z" style="fill: #005394"/>
    </g>
    <g id="mark_cp1">
      <path d="M6.5,92.5c-.17-2.88-.24-5.75-.37-8.62l-.2-8.63C5.79,69.5,5.77,63.75,5.75,58s0-11.5.17-17.25l.21-8.63c.13-2.87.2-5.74.37-8.62.17,2.88.24,5.75.37,8.62l.21,8.63c.13,5.75.15,11.5.17,17.25s0,11.5-.18,17.25l-.2,8.63C6.74,86.75,6.67,89.62,6.5,92.5Z" style="fill: #005394"/>
    </g>
  </g>
  <g id="paw">
    <path id="paw_cp_bottom" d="M28.88,78.16c.81-3.71-3.21-4.51-5-4a31.3,31.3,0,0,1-5.39.56,31.3,31.3,0,0,1-5.4-.56c-1.77-.49-5.8.32-5,4s4.35,3.54,5.32,8.54,5.08,4.67,5.08,4.67,4.1.32,5.07-4.67,4.5-4.84,5.3-8.54M22.23,91.69c2.18-.63,4.59,1.1,5.38,3.85s-.33,5.49-2.51,6.12-4.59-1.09-5.38-3.84.33-5.5,2.51-6.13m9,1c-2.1.85-4.68-.6-5.77-3.25s-.25-5.5,1.85-6.36,4.68.6,5.76,3.25.26,5.5-1.84,6.36m-16.5-1c2.18.63,3.3,3.38,2.51,6.13s-3.21,4.47-5.38,3.84-3.31-3.37-2.51-6.12,3.2-4.48,5.38-3.85m-5.12-8.6c2.11.86,2.93,3.71,1.85,6.36s-3.67,4.1-5.77,3.25S2.81,89,3.89,86.34s3.66-4.1,5.76-3.25" style="fill: #005394"/>
    <path id="paw_cp_top" d="M28.88,9.16c.81-3.71-3.21-4.51-5-4a31.3,31.3,0,0,1-5.39.56,31.3,31.3,0,0,1-5.4-.56c-1.77-.49-5.8.32-5,4s4.35,3.54,5.32,8.54,5.08,4.67,5.08,4.67,4.1.32,5.07-4.67,4.5-4.84,5.3-8.54M22.23,22.69c2.18-.63,4.59,1.1,5.38,3.85S27.28,32,25.1,32.66s-4.59-1.09-5.38-3.84.33-5.5,2.51-6.13m9,1c-2.1.85-4.68-.6-5.77-3.25s-.25-5.5,1.85-6.36,4.68.6,5.76,3.25.26,5.5-1.84,6.36m-16.5-1c2.18.63,3.3,3.38,2.51,6.13s-3.21,4.47-5.38,3.84-3.31-3.37-2.51-6.12,3.2-4.48,5.38-3.85m-5.12-8.6c2.11.86,2.93,3.71,1.85,6.36s-3.67,4.1-5.77,3.25S2.81,20,3.89,17.34s3.66-4.1,5.76-3.25" style="fill: #005394"/>
  </g>
  <g id="outline">
    <path id="outline_cp" d="M20.5,2A14.52,14.52,0,0,1,35,16.5v73A14.52,14.52,0,0,1,20.5,104h-4A14.52,14.52,0,0,1,2,89.5v-73A14.52,14.52,0,0,1,16.5,2h4m0-2h-4A16.5,16.5,0,0,0,0,16.5v73A16.5,16.5,0,0,0,16.5,106h4A16.5,16.5,0,0,0,37,89.5v-73A16.5,16.5,0,0,0,20.5,0m0,2A14.52,14.52,0,0,1,35,16.5v73A14.52,14.52,0,0,1,20.5,104h-4A14.52,14.52,0,0,1,2,89.5v-73A14.52,14.52,0,0,1,16.5,2h4m0-2h-4A16.5,16.5,0,0,0,0,16.5v73A16.5,16.5,0,0,0,16.5,106h4A16.5,16.5,0,0,0,37,89.5v-73A16.5,16.5,0,0,0,20.5,0m0,2A14.52,14.52,0,0,1,35,16.5v73A14.52,14.52,0,0,1,20.5,104h-4A14.52,14.52,0,0,1,2,89.5v-73A14.52,14.52,0,0,1,16.5,2h4m0-2h-4A16.5,16.5,0,0,0,0,16.5v73A16.5,16.5,0,0,0,16.5,106h4A16.5,16.5,0,0,0,37,89.5v-73A16.5,16.5,0,0,0,20.5,0m0,2A14.52,14.52,0,0,1,35,16.5v73A14.52,14.52,0,0,1,20.5,104h-4A14.52,14.52,0,0,1,2,89.5v-73A14.52,14.52,0,0,1,16.5,2h4m0-2h-4A16.5,16.5,0,0,0,0,16.5v73A16.5,16.5,0,0,0,16.5,106h4A16.5,16.5,0,0,0,37,89.5v-73A16.5,16.5,0,0,0,20.5,0m0,2A14.52,14.52,0,0,1,35,16.5v73A14.52,14.52,0,0,1,20.5,104h-4A14.52,14.52,0,0,1,2,89.5v-73A14.52,14.52,0,0,1,16.5,2h4m0-2h-4A16.5,16.5,0,0,0,0,16.5v73A16.5,16.5,0,0,0,16.5,106h4A16.5,16.5,0,0,0,37,89.5v-73A16.5,16.5,0,0,0,20.5,0m0,2A14.52,14.52,0,0,1,35,16.5v73A14.52,14.52,0,0,1,20.5,104h-4A14.52,14.52,0,0,1,2,89.5v-73A14.52,14.52,0,0,1,16.5,2h4m0-2h-4A16.5,16.5,0,0,0,0,16.5v73A16.5,16.5,0,0,0,16.5,106h4A16.5,16.5,0,0,0,37,89.5v-73A16.5,16.5,0,0,0,20.5,0m0,2A14.52,14.52,0,0,1,35,16.5v73A14.52,14.52,0,0,1,20.5,104h-4A14.52,14.52,0,0,1,2,89.5v-73A14.52,14.52,0,0,1,16.5,2h4m0-2h-4A16.5,16.5,0,0,0,0,16.5v73A16.5,16.5,0,0,0,16.5,106h4A16.5,16.5,0,0,0,37,89.5v-73A16.5,16.5,0,0,0,20.5,0m0,2A14.52,14.52,0,0,1,35,16.5v73A14.52,14.52,0,0,1,20.5,104h-4A14.52,14.52,0,0,1,2,89.5v-73A14.52,14.52,0,0,1,16.5,2h4m0-2h-4A16.5,16.5,0,0,0,0,16.5v73A16.5,16.5,0,0,0,16.5,106h4A16.5,16.5,0,0,0,37,89.5v-73A16.5,16.5,0,0,0,20.5,0m0,2A14.52,14.52,0,0,1,35,16.5v73A14.52,14.52,0,0,1,20.5,104h-4A14.52,14.52,0,0,1,2,89.5v-73A14.52,14.52,0,0,1,16.5,2h4m0-2h-4A16.5,16.5,0,0,0,0,16.5v73A16.5,16.5,0,0,0,16.5,106h4A16.5,16.5,0,0,0,37,89.5v-73A16.5,16.5,0,0,0,20.5,0m0,2A14.52,14.52,0,0,1,35,16.5v73A14.52,14.52,0,0,1,20.5,104h-4A14.52,14.52,0,0,1,2,89.5v-73A14.52,14.52,0,0,1,16.5,2h4m0-2h-4A16.5,16.5,0,0,0,0,16.5v73A16.5,16.5,0,0,0,16.5,106h4A16.5,16.5,0,0,0,37,89.5v-73A16.5,16.5,0,0,0,20.5,0m0,2A14.52,14.52,0,0,1,35,16.5v73A14.52,14.52,0,0,1,20.5,104h-4A14.52,14.52,0,0,1,2,89.5v-73A14.52,14.52,0,0,1,16.5,2h4m0-2h-4A16.5,16.5,0,0,0,0,16.5v73A16.5,16.5,0,0,0,16.5,106h4A16.5,16.5,0,0,0,37,89.5v-73A16.5,16.5,0,0,0,20.5,0m0,2A14.52,14.52,0,0,1,35,16.5v73A14.52,14.52,0,0,1,20.5,104h-4A14.52,14.52,0,0,1,2,89.5v-73A14.52,14.52,0,0,1,16.5,2h4m0-2h-4A16.5,16.5,0,0,0,0,16.5v73A16.5,16.5,0,0,0,16.5,106h4A16.5,16.5,0,0,0,37,89.5v-73A16.5,16.5,0,0,0,20.5,0m0,2A14.52,14.52,0,0,1,35,16.5v73A14.52,14.52,0,0,1,20.5,104h-4A14.52,14.52,0,0,1,2,89.5v-73A14.52,14.52,0,0,1,16.5,2h4m0-2h-4A16.5,16.5,0,0,0,0,16.5v73A16.5,16.5,0,0,0,16.5,106h4A16.5,16.5,0,0,0,37,89.5v-73A16.5,16.5,0,0,0,20.5,0m0,2A14.52,14.52,0,0,1,35,16.5v73A14.52,14.52,0,0,1,20.5,104h-4A14.52,14.52,0,0,1,2,89.5v-73A14.52,14.52,0,0,1,16.5,2h4m0-2h-4A16.5,16.5,0,0,0,0,16.5v73A16.5,16.5,0,0,0,16.5,106h4A16.5,16.5,0,0,0,37,89.5v-73A16.5,16.5,0,0,0,20.5,0m0,2A14.52,14.52,0,0,1,35,16.5v73A14.52,14.52,0,0,1,20.5,104h-4A14.52,14.52,0,0,1,2,89.5v-73A14.52,14.52,0,0,1,16.5,2h4m0-2h-4A16.5,16.5,0,0,0,0,16.5v73A16.5,16.5,0,0,0,16.5,106h4A16.5,16.5,0,0,0,37,89.5v-73A16.5,16.5,0,0,0,20.5,0m0,2A14.52,14.52,0,0,1,35,16.5v73A14.52,14.52,0,0,1,20.5,104h-4A14.52,14.52,0,0,1,2,89.5v-73A14.52,14.52,0,0,1,16.5,2h4m0-2h-4A16.5,16.5,0,0,0,0,16.5v73A16.5,16.5,0,0,0,16.5,106h4A16.5,16.5,0,0,0,37,89.5v-73A16.5,16.5,0,0,0,20.5,0" style="fill: #005394"/>
  </g>
</svg>
