<svg version="1.1" id="el_mkOlEmVEb" xmlns="http://www.w3.org/2000/svg" xmlns:xlink="http://www.w3.org/1999/xlink" x="0px" y="0px" viewBox="0 0 37 106" style="enable-background:new 0 0 37 106;" xml:space="preserve">
  <style>
    @-webkit-keyframes el_mciF1SgA_a_4iSLVSnE8_Animation {
      0% {
        -webkit-transform: translate(18.49996280670166px, 101.5px) scale(1, 0) translate(-18.49996280670166px, -101.5px);
        transform: translate(18.49996280670166px, 101.5px) scale(1, 0) translate(-18.49996280670166px, -101.5px);
      }
      66.67% {
        -webkit-transform: translate(18.49996280670166px, 101.5px) scale(1, 1) translate(-18.49996280670166px, -101.5px);
        transform: translate(18.49996280670166px, 101.5px) scale(1, 1) translate(-18.49996280670166px, -101.5px);
      }
      100% {
        -webkit-transform: translate(18.49996280670166px, 101.5px) scale(1, 1) translate(-18.49996280670166px, -101.5px);
        transform: translate(18.49996280670166px, 101.5px) scale(1, 1) translate(-18.49996280670166px, -101.5px);
      }
    }
  
    @keyframes el_mciF1SgA_a_4iSLVSnE8_Animation {
      0% {
        -webkit-transform: translate(18.49996280670166px, 101.5px) scale(1, 0) translate(-18.49996280670166px, -101.5px);
        transform: translate(18.49996280670166px, 101.5px) scale(1, 0) translate(-18.49996280670166px, -101.5px);
      }
      66.67% {
        -webkit-transform: translate(18.49996280670166px, 101.5px) scale(1, 1) translate(-18.49996280670166px, -101.5px);
        transform: translate(18.49996280670166px, 101.5px) scale(1, 1) translate(-18.49996280670166px, -101.5px);
      }
      100% {
        -webkit-transform: translate(18.49996280670166px, 101.5px) scale(1, 1) translate(-18.49996280670166px, -101.5px);
        transform: translate(18.49996280670166px, 101.5px) scale(1, 1) translate(-18.49996280670166px, -101.5px);
      }
    }
    
    @-webkit-keyframes el_kVCDgMrRIi_w-SNcQdJq_Animation {
      0% {
        -webkit-transform: translate(18.47564959526062px, 87.90561294555664px) translate(-18.47564959526062px, -87.90561294555664px) translate(0px, 0px);
        transform: translate(18.47564959526062px, 87.90561294555664px) translate(-18.47564959526062px, -87.90561294555664px) translate(0px, 0px);
      }
      66.67% {
        -webkit-transform: translate(18.47564959526062px, 87.90561294555664px) translate(-18.47564959526062px, -87.90561294555664px) translate(0px, -67px);
        transform: translate(18.47564959526062px, 87.90561294555664px) translate(-18.47564959526062px, -87.90561294555664px) translate(0px, -67px);
      }
      100% {
        -webkit-transform: translate(18.47564959526062px, 87.90561294555664px) translate(-18.47564959526062px, -87.90561294555664px) translate(0px, -67px);
        transform: translate(18.47564959526062px, 87.90561294555664px) translate(-18.47564959526062px, -87.90561294555664px) translate(0px, -67px);
      }
    }

    @keyframes el_kVCDgMrRIi_w-SNcQdJq_Animation {
      0% {
        -webkit-transform: translate(18.47564959526062px, 87.90561294555664px) translate(-18.47564959526062px, -87.90561294555664px) translate(0px, 0px);
        transform: translate(18.47564959526062px, 87.90561294555664px) translate(-18.47564959526062px, -87.90561294555664px) translate(0px, 0px);
      }
      66.67% {
        -webkit-transform: translate(18.47564959526062px, 87.90561294555664px) translate(-18.47564959526062px, -87.90561294555664px) translate(0px, -67px);
        transform: translate(18.47564959526062px, 87.90561294555664px) translate(-18.47564959526062px, -87.90561294555664px) translate(0px, -67px);
      }
      100% {
        -webkit-transform: translate(18.47564959526062px, 87.90561294555664px) translate(-18.47564959526062px, -87.90561294555664px) translate(0px, -67px);
        transform: translate(18.47564959526062px, 87.90561294555664px) translate(-18.47564959526062px, -87.90561294555664px) translate(0px, -67px);
      }
    }

    #el_mkOlEmVEb * {
      -webkit-animation-duration: 1.5s;
      animation-duration: 1.5s;
      -webkit-animation-iteration-count: infinite;
      animation-iteration-count: infinite;
      -webkit-animation-timing-function: cubic-bezier(0, 0, 1, 1);
      animation-timing-function: cubic-bezier(0, 0, 1, 1);
    }
    #el_4CQN7sLVGR {
      fill: #005394;
    }
    #el_IZUV7KO0QW {
      fill: #005394;
    }
    #el_M5Z1vqcwz_ {
      fill: #005394;
    }
    #el_7SZ9r1IFWj {
      fill: #005394;
    }
    #el_5tBKomfS8f {
      fill: #005394;
    }
    #el_6epdXDAMi1 {
      fill: #005394;
    }
    #el_kVCDgMrRIi_w-SNcQdJq {
      -webkit-animation-name: el_kVCDgMrRIi_w-SNcQdJq_Animation;
      animation-name: el_kVCDgMrRIi_w-SNcQdJq_Animation;
      -webkit-transform: translate(18.47564959526062px, 87.90561294555664px) translate(-18.47564959526062px, -87.90561294555664px) translate(0px, 0px);
      transform: translate(18.47564959526062px, 87.90561294555664px) translate(-18.47564959526062px, -87.90561294555664px) translate(0px, 0px);
      -webkit-animation-timing-function: cubic-bezier(0.42, 0, 0.58, 1);
      animation-timing-function: cubic-bezier(0.42, 0, 0.58, 1);
    }
    #el_mciF1SgA_a_4iSLVSnE8 {
      -webkit-animation-name: el_mciF1SgA_a_4iSLVSnE8_Animation;
      animation-name: el_mciF1SgA_a_4iSLVSnE8_Animation;
      -webkit-transform: translate(18.49996280670166px, 101.5px) scale(1, 0) translate(-18.49996280670166px, -101.5px);
      transform: translate(18.49996280670166px, 101.5px) scale(1, 0) translate(-18.49996280670166px, -101.5px);
      -webkit-animation-timing-function: cubic-bezier(0.42, 0, 0.58, 1);
      animation-timing-function: cubic-bezier(0.42, 0, 0.58, 1);
    }
  </style>

<title>scroll_test</title>
<g id="el_mciF1SgA_a_4iSLVSnE8" data-animator-group="true" data-animator-type="2"><g id="el_mciF1SgA_a">
	<g id="el_gGn3-JqTuw">
		<path d="M30.5,92.5c-0.17-2.88-0.24-5.75-0.37-8.62l-0.2-8.63c-0.14-5.75-0.16-11.5-0.18-17.25s0-11.5,0.17-17.25&#xA;&#9;&#9;&#9;l0.21-8.63c0.13-2.87,0.2-5.74,0.37-8.62c0.17,2.88,0.24,5.75,0.37,8.62l0.21,8.63c0.13,5.75,0.15,11.5,0.17,17.25&#xA;&#9;&#9;&#9;s0,11.5-0.18,17.25l-0.2,8.63C30.74,86.75,30.67,89.62,30.5,92.5z" id="el_4CQN7sLVGR"/>
	</g>
	<g id="el_flRgbYlo-D">
		<path d="M24.5,101.5c-0.17-2.88-0.24-5.75-0.37-8.62l-0.2-8.63c-0.14-5.75-0.16-11.5-0.18-17.25s0-11.5,0.17-17.25&#xA;&#9;&#9;&#9;l0.21-8.63c0.13-2.87,0.2-5.74,0.37-8.62c0.17,2.88,0.24,5.75,0.37,8.62l0.21,8.63c0.13,5.75,0.15,11.5,0.17,17.25&#xA;&#9;&#9;&#9;s0,11.5-0.18,17.25l-0.2,8.63C24.74,95.75,24.67,98.62,24.5,101.5z" id="el_IZUV7KO0QW"/>
	</g>
	<g id="el_O-tYnKm-3G">
		<path d="M12.5,101.5c-0.17-2.88-0.24-5.75-0.37-8.62l-0.2-8.63c-0.14-5.75-0.16-11.5-0.18-17.25s0-11.5,0.17-17.25&#xA;&#9;&#9;&#9;l0.21-8.63c0.13-2.87,0.2-5.74,0.37-8.62c0.17,2.88,0.24,5.75,0.37,8.62l0.21,8.63c0.13,5.75,0.15,11.5,0.17,17.25&#xA;&#9;&#9;&#9;s0,11.5-0.18,17.25l-0.2,8.63C12.74,95.75,12.67,98.62,12.5,101.5z" id="el_M5Z1vqcwz_"/>
	</g>
	<g id="el_AwHdpvdR8B">
		<path d="M6.5,92.5c-0.17-2.88-0.24-5.75-0.37-8.62l-0.2-8.63C5.79,69.5,5.77,63.75,5.75,58s0-11.5,0.17-17.25&#xA;&#9;&#9;&#9;l0.21-8.63c0.13-2.87,0.2-5.74,0.37-8.62c0.17,2.88,0.24,5.75,0.37,8.62l0.21,8.63C7.21,46.5,7.23,52.25,7.25,58&#xA;&#9;&#9;&#9;s0,11.5-0.18,17.25l-0.2,8.63C6.74,86.75,6.67,89.62,6.5,92.5z" id="el_7SZ9r1IFWj"/>
	</g>
</g></g>
<g id="el_kVCDgMrRIi_w-SNcQdJq" data-animator-group="true" data-animator-type="0"><g id="el_kVCDgMrRIi">
	<path id="el_5tBKomfS8f" d="M28.88,78.16c0.81-3.71-3.21-4.51-5-4c-1.78,0.34-3.58,0.53-5.39,0.56&#xA;&#9;&#9;c-1.81-0.03-3.62-0.22-5.4-0.56c-1.77-0.49-5.8,0.32-5,4s4.35,3.54,5.32,8.54s5.08,4.67,5.08,4.67s4.1,0.32,5.07-4.67&#xA;&#9;&#9;s4.5-4.84,5.3-8.54 M22.23,91.69c2.18-0.63,4.59,1.1,5.38,3.85s-0.33,5.49-2.51,6.12s-4.59-1.09-5.38-3.84S20.05,92.32,22.23,91.69&#xA;&#9;&#9; M31.23,92.69c-2.1,0.85-4.68-0.6-5.77-3.25s-0.25-5.5,1.85-6.36s4.68,0.6,5.76,3.25S33.33,91.83,31.23,92.69 M14.73,91.69&#xA;&#9;&#9;c2.18,0.63,3.3,3.38,2.51,6.13s-3.21,4.47-5.38,3.84s-3.31-3.37-2.51-6.12S12.55,91.06,14.73,91.69 M9.61,83.09&#xA;&#9;&#9;c2.11,0.86,2.93,3.71,1.85,6.36s-3.67,4.1-5.77,3.25s-2.88-3.7-1.8-6.36s3.66-4.1,5.76-3.25"/>
</g></g>
<g id="el_RGATymzoW1">
	<path id="el_6epdXDAMi1" d="M20.5,2c8,0.01,14.49,6.5,14.5,14.5v73c-0.01,8-6.5,14.49-14.5,14.5h-4&#xA;&#9;&#9;c-8-0.01-14.49-6.5-14.5-14.5v-73C2.01,8.5,8.5,2.01,16.5,2H20.5 M20.5,0h-4C7.39,0,0,7.39,0,16.5v73C0,98.61,7.39,106,16.5,106h4&#xA;&#9;&#9;c9.11,0,16.5-7.39,16.5-16.5v-73C37,7.39,29.61,0,20.5,0"/>
</g>
</svg>
