<svg xmlns="http://www.w3.org/2000/svg" width="24" height="24" viewBox="0 0 28.47 31.22">
  <title>dark_purple_blue_paw</title>
  <path id="paw-2" data-name="paw" d="M28.1,22.9c1.6,3.4-1.8,5.1-3.5,5.1a22.6,22.6,0,0,0-4.9.7A26.1,26.1,0,0,0,15,30.6c-1.5.9-5.3,1.1-5.6-2.7s3-4.5,2.6-9.6,3.3-5.8,3.3-5.8,3.6-1.3,5.8,3.3,5.3,3.6,7,7.1M26.4,8.1c-5.2-.8-6,9.8-1,10.3s5.9-9.5,1-10.3m-7.8,3.2c5.1.2,4.9-10.4-.1-10.4s-4.9,10.2.1,10.4m-6.7,1.8c4.2-2.7-.7-11.7-5.2-9s.8,11.7,5.2,9M9.5,22.7c3.9-3.2-1.8-11.5-6-8.4s2,11.6,6,8.4" fill="#25274d" stroke="#2e9cca" stroke-miterlimit="10"/>
</svg>
