<svg xmlns="http://www.w3.org/2000/svg" xmlns:xlink="http://www.w3.org/1999/xlink" viewBox="0 0 1920 6097">
  <defs>
    <style>
      .cls-1 {
        fill: none;
      }

      .cls-2 {
        clip-path: url(#clip-landing_page);
      }

      .cls-3 {
        opacity: 0.3;
      }

      .cls-11, .cls-4, .cls-5 {
        fill: #00357c;
      }

      .cls-4 {
        font-size: 20px;
      }

      .cls-4, .cls-5 {
        font-family: Montserrat-Medium, Montserrat;
        font-weight: 500;
      }

      .cls-12, .cls-5 {
        font-size: 40px;
      }

      .cls-6 {
        opacity: 0.995;
        fill: url(#radial-gradient);
      }

      .cls-7 {
        clip-path: url(#clip-path);
      }

      .cls-8 {
        fill: #588fcb;
      }

      .cls-10, .cls-8, .cls-9 {
        fill-rule: evenodd;
      }

      .cls-9 {
        fill: #129d49;
      }

      .cls-10 {
        fill: #010101;
      }

      .cls-11 {
        font-size: 60px;
        font-family: Comfortaa-Bold, Comfortaa;
        font-weight: 700;
        opacity: 0.779;
      }

      .cls-12 {
        fill: #2d608b;
        font-family: Pacifico-Regular, Pacifico;
        opacity: 0.997;
      }

      .cls-13 {
        clip-path: url(#clip-path-3);
      }

      .cls-14, .cls-17 {
        fill: #fff;
      }

      .cls-14 {
        stroke: #707070;
      }

      .cls-15 {
        fill: url(#radial-gradient-2);
      }

      .cls-16 {
        stroke: none;
      }

      .cls-18 {
        filter: url(#menu_bar_fill_gradient);
      }

      .cls-19 {
        filter: url(#Path_21);
      }
    </style>
    <radialGradient id="radial-gradient" cx="0.007" cy="0" r="4.319" gradientTransform="matrix(0.316, -0.192, 0.007, 0.114, 0.005, 0.001)" gradientUnits="objectBoundingBox">
      <stop offset="0" stop-color="#eb95fa"/>
      <stop offset="1" stop-color="#64bcfc"/>
    </radialGradient>
    <filter id="Path_21" x="-9" y="-6" width="824.21" height="277.432" filterUnits="userSpaceOnUse">
      <feOffset dy="3" input="SourceAlpha"/>
      <feGaussianBlur stdDeviation="3" result="blur"/>
      <feFlood flood-opacity="0.161"/>
      <feComposite operator="in" in2="blur"/>
      <feComposite in="SourceGraphic"/>
    </filter>
    <clipPath id="clip-path">
      <rect id="Rectangle_15" data-name="Rectangle 15" class="cls-1" width="159.51" height="158.45" transform="translate(-1)"/>
    </clipPath>
    <clipPath id="clip-path-3">
      <rect class="cls-1" width="1674" height="505"/>
    </clipPath>
    <radialGradient id="radial-gradient-2" cx="1" cy="0" r="11.428" gradientTransform="matrix(0.061, 0.389, -0.004, 0.142, 0.939, -0.389)" xlink:href="#radial-gradient"/>
    <filter id="menu_bar_fill_gradient" x="818" y="26" width="1079" height="88" filterUnits="userSpaceOnUse">
      <feOffset dy="3" input="SourceAlpha"/>
      <feGaussianBlur stdDeviation="3" result="blur-2"/>
      <feFlood flood-opacity="0.161"/>
      <feComposite operator="in" in2="blur-2"/>
      <feComposite in="SourceGraphic"/>
    </filter>
    <clipPath id="clip-landing_page">
      <rect width="1920" height="6097"/>
    </clipPath>
  </defs>
  <g id="landing_page" class="cls-2">
    <rect class="cls-17" width="1920" height="6097"/>
    <g id="background" transform="translate(1)">
      <image id="street_paws_background" class="cls-3" width="1920" height="1080" transform="translate(-1 0)" xlink:href="../../../Dropbox%20(Personal)/Websites/ProjectPawzStuff/ProjectPawzWebsite/images/background/street_paws_background.jpg"/>
    </g>
    <g id="About">
      <text id="Project_Pawz_is_working_to_reduce_the_number_of_animals_euthanized_at_local_shelters_in_metro_Atlanta._We_work_closely_with_animal_control_officers_to_save_adoptable_dogs_that_are_often_moments_away_from_being_put_to_sleep._Often_these_dogs_are_sick_and_i" data-name="Project Pawz is working to reduce the number of animals euthanized at local shelters in metro Atlanta. We work closely with animal control officers to save adoptable dogs that are often moments away from being put to sleep. Often, these dogs are sick and i" class="cls-4" transform="translate(390 978)"><tspan x="0" y="19">Project Pawz is working to reduce the number of animals euthanized at local shelters in metro Atlanta. We work </tspan><tspan x="0" y="43">closely with animal control officers to save adoptable dogs that are often moments away from being put to sleep. </tspan><tspan x="0" y="67">Often, these dogs are sick and injured and require rehabilitation. Mostly Mutts provides housing, health care, </tspan><tspan x="0" y="91">training, and physical and emotional care to them until they can be placed in a new home. We hold weekly </tspan><tspan x="0" y="115">adoption events at our facility in downtown Kennesaw to help each dog find their “fur-ever home.”</tspan><tspan x="0" y="139"></tspan><tspan x="0" y="163">Our facility is staffed by dedicated volunteers, working four shifts a day, seven days a week to feed, walk and care </tspan><tspan x="0" y="187" xml:space="preserve">for the animals.  We also have a team of volunteers who staff the front desk from 11am to 4pm Monday through </tspan><tspan x="0" y="211" xml:space="preserve">Saturday.  To help with animal care shifts and to learn about other volunteer opportunities available, please check </tspan><tspan x="0" y="235">out the Get Involved tab on the Main Menu above.</tspan><tspan x="0" y="259"></tspan><tspan x="0" y="283" xml:space="preserve">Many of the animals in our program are cared for in foster homes.  We so appreciate our foster families, and would </tspan><tspan x="0" y="307">love to hear from you if you are interested in fostering. Please click on this link to find out more.</tspan><tspan x="0" y="331"></tspan><tspan x="0" y="355">Since animal overpopulation continues to be a huge problem in our community, promoting spaying and </tspan><tspan x="0" y="379">neutering is another important goal of our organization. All of our dogs are spayed or neutered before they are </tspan><tspan x="0" y="403">adopted out, and we encourage all pet owners to help “stop the littering” by having their pets fixed. Not only does </tspan><tspan x="0" y="427">it result in a healthier, happier pet, but also a healthier, happier community! Click on this link to learn about </tspan><tspan x="0" y="451">affordable spay/neuter options.</tspan><tspan x="0" y="475"></tspan><tspan x="0" y="499">We are involved in our community in many other ways as well, including:</tspan><tspan x="0" y="523"></tspan><tspan x="0" y="547" xml:space="preserve">    Discounted training classes at the facility (check calendar for upcoming classes)</tspan><tspan x="0" y="571" xml:space="preserve">    Organized visits from school classes and scout troops to help educate children about animals and their care</tspan><tspan x="0" y="595" xml:space="preserve">    Dog visits to a nearby retirement home</tspan><tspan x="0" y="619" xml:space="preserve">    A “Read to Dogs” program for children on Wednesday evenings that helps to socialize shy dogs and helps the </tspan><tspan x="0" y="643">children with their reading skills </tspan><tspan x="0" y="667" xml:space="preserve">    Seasonal hikes at Kennesaw Mountain National Park to give the dogs a fun outing and promote the dogs and </tspan><tspan x="0" y="691">our work to other hikers</tspan><tspan x="0" y="715" xml:space="preserve">    We provide high school and college students with internship opportunities, project support and volunteer hours</tspan><tspan x="0" y="739" xml:space="preserve">    Court related community service hours</tspan><tspan x="0" y="763"></tspan><tspan x="0" y="787">In April 2017 Mostly Mutts was awarded a Maddie’s Fund® Innovation Grant to implement a new pre-adoption </tspan><tspan x="0" y="811" xml:space="preserve">training program to help dogs in our program get adopted even faster.  Click here to learn more about this </tspan><tspan x="0" y="835">amazing program!</tspan><tspan x="0" y="859"></tspan><tspan x="0" y="883" xml:space="preserve">Once an animal enters our program, we commit to their care until they find the right forever home.  Sometimes </tspan><tspan x="0" y="907" xml:space="preserve">that can take a long time, as in the case of Ranger, who was found living in a store parking lot in Paulding County.  </tspan><tspan x="0" y="931">He came to us in rough shape, but from the very beginning he showed his loving personality, and quickly became </tspan><tspan x="0" y="955" xml:space="preserve">a Volunteer favorite.  When Ranger finally found the right adopter after almost a year, we hosted a going away </tspan><tspan x="0" y="979">party for him!</tspan><tspan x="0" y="1003"></tspan><tspan x="0" y="1027">Early in 2017 Mostly Mutts completed a rescue mission in a neighboring state, rescuing 21 dogs from a rural </tspan><tspan x="0" y="1051" xml:space="preserve">hoarding situation.  Mobile was one of the dogs rescued.  He suffered from skin infections and hair loss due to fleas </tspan><tspan x="0" y="1075" xml:space="preserve">and poor nutrition.  Just about six weeks later, with proper care and food, he transformed into such an amazingly </tspan><tspan x="0" y="1099" xml:space="preserve">cute fellow.  It didn’t take long for him to find his “happy ever after” home! </tspan><tspan x="0" y="1123"></tspan><tspan x="0" y="1147">Mostly Mutts is a 501(c)(3) non-profit organization, licensed by the Georgia Department of Agriculture, and </tspan><tspan x="0" y="1171">supported by a community of dedicated volunteers. We are privately funded through donations from the </tspan><tspan x="0" y="1195" xml:space="preserve">community, and we thank you for your support!  To find out more about donating or planned giving, please click </tspan><tspan x="0" y="1219">below.</tspan></text>
      <text id="About_Project_Pawz" data-name="About Project Pawz" class="cls-5" transform="translate(707 908)"><tspan x="55.5" y="39">About Project Pawz</tspan></text>
    </g>
    <g id="brand" transform="translate(0.631 1.532)">
      <g id="brand_background">
        <g class="cls-19" transform="matrix(1, 0, 0, 1, -0.63, -1.53)">
          <path id="Path_21-2" data-name="Path 21" class="cls-6" d="M2795.579,254.5c-1.017,98.752-155.2,213.269-446.289,192.808s-359.921,66.624-359.921,66.624V254.5Z" transform="translate(-1989.37 -254.5)"/>
        </g>
      </g>
      <g id="project_pawz_logo2_128x128" transform="translate(-880 -453)">
        <g id="brand_logo" transform="translate(2.369 1.469)">
          <g id="Group_9" data-name="Group 9" class="cls-7" transform="translate(894 466)">
            <g id="Group_8" data-name="Group 8" class="cls-7">
              <path id="Path_42" data-name="Path 42" class="cls-8" d="M94.76,117.6c-.1.56-.22,1.13-.35,1.7l-2.8-1.4.3-3.25,3.55-2.1a45,45,0,0,1-.7,5"/>
              <path id="Path_43" data-name="Path 43" class="cls-9" d="M89.66,131.5q-.55.9-1,1.8a.29.29,0,0,0-.15.2l-1,1.5-.2.3-1,1.4a.94.94,0,0,0-.1.1l-5.8,3.7-5.7-1.7,2.75-5.2-1.65-6.4-.5-4.7.85-4.15-4.9-1.55-3.6,3.6-6-3.45,1.85-9.15,3.25-4.8-.15-5.25L70.81,94l-3.1-6.1-2.95,4.6-4-9.1,5.85-.3-2.25-7.95-6.25-.05-1.65-5.55L52,67l-4.45.85L42.9,69.5,47.61,73,43,78.4l3,2.9-.75,5.35-6.7-4L37.9,90.3l3.55-4.15,7.2,9.45L46,96l-5.25.4L35.56,102l-1.9-2.1-5.4-.2-2.45,5,3.8,2.6,2.3,2.9,2.55,3.1,8,3.3.75,5.05,4.7.95,3.65,4.75-4,4.35L44,133.3l-.6,3-3.3,2.55-.4.15-3.95,1.55L33.61,144l.5,4.7a9.25,9.25,0,0,0-2.55-1.7,3.59,3.59,0,0,1-1.2-2.1,13.371,13.371,0,0,1-.55-2L28.26,136l3.4-2.5,1.1-5.55-3-2.35-3.05-4.9,3.25-2L31,113.5l-1.4-.3-2.55-6-4.9-4.45,1.55-3.4-2.3-4.5,1.9-9.7,6.65-3,5.4-4.7.75-3.9-2.2-2.7,5.9-2.05,6.4-6.2-.7-.85c1.1-.07,2.21-.1,3.35-.1a47.059,47.059,0,0,1,9,.9c1,.2,1.92.42,2.85.65a7,7,0,0,1,.85.25c.7.2,1.41.41,2.15.65a5.369,5.369,0,0,1,.7.25c.9.3,1.78.63,2.65,1a3.33,3.33,0,0,0,.5.25c.73.3,1.45.63,2.15,1,.23.1.48.21.75.35.7.36,1.38.75,2,1.15.16.1.32.18.45.25.8.5,1.58,1,2.35,1.55a2.09,2.09,0,0,1,.55.4,21.4,21.4,0,0,1,1.75,1.3c.23.17.45.31.65.45q2.14,1.8,4.1,3.8c.17.17.33.35.5.55q.8.8,1.5,1.65l.4.5c.6.7,1.18,1.42,1.75,2.15a2.92,2.92,0,0,0,.25.4q.69.94,1.35,1.95a3,3,0,0,0,.4.6c.4.7.8,1.41,1.2,2.15l.2.3c.43.8.85,1.63,1.25,2.5.1.2.18.38.25.55a19.891,19.891,0,0,1,.9,2.1c.1.23.18.45.25.65.33.87.65,1.75,1,2.65l-5.85,7.05L85.41,96l-5.15-1.6-6.85,2.4-1.15,4.4,4.2,3.7,4.9-4.5,5.45,5.95,4.15-.6,3.75-3,.9,3.8a22.783,22.783,0,0,1,0,3.2l-5.9,3.5-.6,6,4.65,2.4a47.32,47.32,0,0,1-4.15,9.9"/>
              <path id="Path_44" data-name="Path 44" class="cls-8" d="M65.51,95.65l1.2-1.9.75-1.2.5.9Z"/>
              <path id="Path_45" data-name="Path 45" class="cls-8" d="M94.81,99.65l-1.55,1.25L90,103.5l-.95.15.45-.55,4.8-5.8c.2.77.38,1.55.55,2.35"/>
              <path id="Path_46" data-name="Path 46" class="cls-8" d="M84.86,100.85l-1.8-2-1.45-1.6,2.05.65Z"/>
              <path id="Path_47" data-name="Path 47" class="cls-8" d="M81.41,97.15l-1.6,1.5-3.4,3.1-1.55-1.4.5-1.8,4.9-1.75Z"/>
              <path id="Path_48" data-name="Path 48" class="cls-8" d="M2.91,99.4a46.86,46.86,0,0,1,39.8-37.35l.35.4-4.5,4.35-5.4,1.85-3.1,1,2.05,2.6,1.55,1.9-.4,2-4.55,4L22.36,83l-1.05.5-.25,1.15-1.9,9.7-.15.8.35.7,1.8,3.5-1.1,2.45-.7,1.5,1.25,1.15,4.5,4,2.4,5.55.45,1.1h.35l-.4,2-2.4,1.4-2,1.25,1.25,1.95,3,5,.2.35.35.25,1.85,1.45L29.51,132l-2.65,2-1.2.9.3,1.45,1.55,6.9v.05q1.7,6.15,3.45,5.8a7.15,7.15,0,0,1,1.6,1.15l3.8,3.25q-18-5.35-27.35-20.4T2.91,99.4"/>
              <path id="Path_49" data-name="Path 49" class="cls-8" d="M39.76,154.45c-.93-.2-1.85-.42-2.75-.65l-.6-5.45-.4-3.9,1.25-2,3.25-1.25L41,141l.3-.1.25-.2,3.25-2.55.7-.5.15-.85.35-1.9,2.5-1.1.45-.2.35-.35,4-4.4,1.35-1.4-1.2-1.55-3.65-4.75-.55-.7-.85-.15-3.1-.65-.5-3.4-.2-1.3-1.2-.5-7.45-3.1-2.2-2.65-2.3-2.85-.2-.25-.3-.2-2.15-1.5.9-1.85,2.95.1,1.25,1.35,1.7,1.9,1.7-1.85,4.5-5,4.35-.35h.15l2.65-.35,4-.5-2.4-3.15-3.44-4.4.4-2.85.75-5.35.15-1.15-.85-.85-1.45-1.35,3.25-3.75L51,72.6l-2-1.5-1.35-.95L48.1,70l3.45-.65,3,1.7L55.9,75.7l.5,1.65h1.7l4.55.1,1,3.45-2.95.15-3.35.15,1.35,3,3.95,9.15,1.65,3.8v.6l.1,4.45-2.85,4.25-.25.35-.1.5-1.8,9.1-.3,1.65,1.4.8,5.95,3.5,1.55.9,1.25-1.3,2.6-2.6,1.55.5L73,122l-.05.35v.35l.55,4.7v.3l1.4,5.5-2.35,4.45-1.3,2.45L74,141l5.7,1.7.85.25a46.88,46.88,0,0,1-31.65,12.4,47.61,47.61,0,0,1-9.15-.9"/>
              <path id="Path_50" data-name="Path 50" class="cls-10" d="M39.76,154.45A25.559,25.559,0,0,1,37,153.8l-.6-5.4-.4-3.9,1.25-2.05,3.25-1.25.4-.2.3-.1.3-.2,3.25-2.5.65-.55.2-.85L46,135l2.5-1.15.45-.15.3-.4,4-4.35,1.3-1.45-1.15-1.55-3.7-4.75-.5-.7-.85-.15-3.15-.6-.45-3.45-.2-1.3-1.25-.5-7.45-3-2.15-2.65-2.3-2.9-.2-.25-.3-.2L28.75,104l.9-1.85,2.95.1,1.2,1.4,1.7,1.9,1.75-1.9,4.5-5,4.35-.3h.05l2.7-.3,4-.5-2.4-3.2-3.4-4.45.4-2.85.8-5.3.15-1.2-.85-.8-1.45-1.4,3.25-3.75,1.65-2-2-1.45-1.3-1,.4-.15,3.5-.65,3,1.75,1.35,4.6.5,1.65,1.7.05H62.7l1,3.45L60.8,81l-3.35.2,1.35,3,3.95,9.1,1.6,3.8v.6l.1,4.5-2.85,4.2-.25.4-.1.45-1.8,9.15-.3,1.6,1.4.85,5.95,3.45,1.55.9,1.25-1.25,2.6-2.6,1.55.45-.4,2.15-.1.35v.35l.5,4.7.05.15v.15L75,133.3l-2.35,4.4-1.35,2.5,2.7.8,5.75,1.7.85.25a46.67,46.67,0,0,1-40.8,11.5m-36.9-55A46.86,46.86,0,0,1,42.66,62.1l.35.4-4.45,4.35-5.4,1.85-3.1,1,2.05,2.55,1.5,1.9-.4,2-4.5,4-6.35,2.9-1.1.5-.2,1.15-1.95,9.7-.11.8.4.75,1.75,3.5-1.1,2.4-.65,1.55,1.25,1.1,4.5,4.1,2.35,5.5.5,1.15h.3l-.4,2-2.35,1.4-2.05,1.2,1.25,2,3.05,4.95.25.35.3.25,1.9,1.45-.65,3.25-2.65,1.95-1.2.9.3,1.45,1.5,7h0q1.65,6.11,3.45,5.8a8.842,8.842,0,0,1,1.6,1.15l3.75,3.25q-17.88-5.3-27.29-20.4T2.86,99.45M81.41,97.2l-1.6,1.45-3.4,3.1-1.55-1.35.5-1.85,4.9-1.7,1.15.35m3.5,3.65-1.85-2L81.61,97.3l2,.65,1.25,2.95m9.9-1.15-1.55,1.2L90,103.55l-1,.15.5-.6,4.8-5.8c.16.8.33,1.6.5,2.4m-29.3-4,1.2-1.9.75-1.2.5.9L65.5,95.7m24.1,35.85c-.34.6-.68,1.18-1,1.75a1.862,1.862,0,0,0-.1.2c-.33.53-.67,1.05-1,1.55l-.2.3c-.33.47-.67.91-1,1.35a1.28,1.28,0,0,1-.1.15l-5.8,3.7-5.7-1.7,2.75-5.25-1.65-6.35-.5-4.7.8-4.15-4.85-1.55-3.6,3.6-6-3.45,1.8-9.15L66.71,103l-.1-5.2,4.2-3.8-3.1-6.1-2.95,4.6-4-9.15,5.8-.25-2.2-7.95-6.3-.1-1.6-5.5L52,67l-4.5.8-4.65,1.7L47.61,73l-4.7,5.4L46,81.3l-.75,5.3L38.5,82.7l-.6,7.65,3.55-4.2,7.2,9.5L46,96l-5.3.4L35.6,102l-1.9-2.1-5.45-.2-2.4,5,3.8,2.6,2.3,2.9,2.55,3.1,8,3.3.7,5.05,4.75.9,3.65,4.75-4.05,4.4-3.6,1.6-.6,3-3.25,2.55-.4.15-3.95,1.55L33.61,144l.5,4.7a9.25,9.25,0,0,0-2.55-1.7,3.59,3.59,0,0,1-1.2-2.1c-.37-1.17-.57-1.83-.6-2l-1.5-7,3.4-2.5,1.05-5.5-3-2.35-3.05-4.9,3.3-2,1-5.3-1.35-.25-2.6-6-4.85-4.4,1.5-3.45L21.41,94.9l1.9-9.7,6.65-3,5.4-4.7.75-3.9-2.2-2.75,5.85-2,6.4-6.2-.7-.85c1.13-.07,2.25-.1,3.35-.1a48.88,48.88,0,0,1,9,.85c1,.2,2,.43,2.9.7l.8.2,2.2.7.7.2c.9.33,1.78.68,2.65,1.05l.5.2,2.15,1,.75.4c.67.36,1.35.75,2,1.15.13.06.28.15.45.25.76.46,1.55,1,2.35,1.5.16.13.35.26.55.4.6.43,1.18.88,1.75,1.35a5.86,5.86,0,0,1,.6.45,51.789,51.789,0,0,1,4.15,3.8c.17.17.33.35.5.55q.75.8,1.5,1.65a4.55,4.55,0,0,1,.4.45c.6.73,1.16,1.47,1.7,2.2l.25.35a23.422,23.422,0,0,1,1.35,2l.4.6c.43.7.85,1.4,1.25,2.1a3.628,3.628,0,0,1,.2.35c.43.8.85,1.63,1.25,2.5a3.07,3.07,0,0,1,.25.55,19.89,19.89,0,0,1,.9,2.1,3.82,3.82,0,0,1,.25.65c.33.87.65,1.75,1,2.65l-5.85,7.05L85.36,96l-5.15-1.6-6.8,2.4-1.15,4.4,4.15,3.7,5-4.5,5.45,5.95,4.15-.6,3.75-3,.9,3.85v3.2l-5.85,3.5-.6,6,4.6,2.4a44.58,44.58,0,0,1-4.15,9.9m5.15-13.9c-.1.56-.24,1.13-.4,1.7l-2.75-1.45.3-3.2,3.55-2.1a45,45,0,0,1-.7,5m-36.3-58A50,50,0,0,0-.14,98.85q-3.55,20.9,7.55,37.45t31.75,21.2a56.922,56.922,0,0,0,9.7.95,50.07,50.07,0,0,0,49-40.3q3.56-20.85-7.55-37.4t-31.8-21.2"/>
              <path id="Path_51" data-name="Path 51" class="cls-10" d="M85.66,87.4l-4.5-3.5-5.5,1.5,2.25,3.35Z"/>
              <path id="Path_52" data-name="Path 52" class="cls-10" d="M34.31,95.15l3.65.7-3-4.1Z"/>
              <path id="Path_53" data-name="Path 53" class="cls-10" d="M83.66,119.25l3.4,3.25-2.8-6.3-.6,3"/>
              <path id="Path_54" data-name="Path 54" class="cls-8" d="M73.56,3.05a8.13,8.13,0,0,1,1.85.2q5.59,1.65,7.7,9.3t-.2,17.85q-5.65,19.6-17.2,21a6.77,6.77,0,0,1-1.85-.25q-5.55-1.6-7.7-9.25t.2-17.9Q62,4.44,73.56,3.05"/>
              <path id="Path_55" data-name="Path 55" class="cls-10" d="M82.91,30.45q-5.66,19.61-17.2,21a8.74,8.74,0,0,1-1.85-.2q-5.59-1.61-7.7-9.3t.2-17.85Q62,4.45,73.56,3.1a6,6,0,0,1,1.85.2q5.55,1.59,7.7,9.25t-.2,17.9M76.11.3A10.91,10.91,0,0,0,73.56,0q-14,1.55-20.2,23.35-2.65,11.59.1,20.25t9.7,10.6a10.85,10.85,0,0,0,2.55.3q14-1.56,20.2-23.35,2.59-11.65-.1-20.25T76.11.3"/>
              <path id="Path_56" data-name="Path 56" class="cls-10" d="M14.76,4.05a10.69,10.69,0,0,0-4.5,1q-6.5,3.1-7.65,12.1t3.55,20q8.9,18.49,22,19.5a11.18,11.18,0,0,0,4.55-1q6.45-3.15,7.6-12.15T36.76,23.55Q27.91,5,14.76,4.05m0,3.1Q25.76,8,34,24.8q4.09,9.6,3.4,17.55t-5.9,10.5a7.38,7.38,0,0,1-3.3.65Q17.21,52.65,9,35.85,4.89,26.25,5.6,18.3t6-10.5a8.2,8.2,0,0,1,3.25-.65"/>
              <path id="Path_57" data-name="Path 57" class="cls-8" d="M14.81,7.1Q25.76,8,34,24.75q4.1,9.64,3.4,17.55T31.46,52.8a7.76,7.76,0,0,1-3.25.7q-11-.9-19.2-17.65Q4.9,26.19,5.61,18.3t5.9-10.55a8.48,8.48,0,0,1,3.3-.65"/>
              <path id="Path_58" data-name="Path 58" class="cls-10" d="M122.26,29.6q-11.15.34-22.3,10.8Q92.1,48.05,89.41,56.7q-2.8,9.55,2.25,15a12.72,12.72,0,0,0,9.3,3.55q11.1-.34,22.25-10.8,7.85-7.65,10.55-16.3,2.81-9.55-2.25-15a12.56,12.56,0,0,0-9.25-3.55m0,3.1a9.34,9.34,0,0,1,7,2.6q3.85,4.35,1.5,12t-9.7,15Q110.51,72,101,72.15a9.38,9.38,0,0,1-7-2.6Q90.06,65.2,92.36,57.6t9.75-15q10.55-9.75,20.15-9.9"/>
              <path id="Path_59" data-name="Path 59" class="cls-8" d="M122.26,32.65a9.66,9.66,0,0,1,7,2.6q3.85,4.35,1.55,12t-9.75,15Q110.51,72,101,72.15a9.53,9.53,0,0,1-7-2.65q-3.85-4.35-1.55-12t9.75-14.95q10.55-9.75,20.15-10"/>
              <path id="Path_60" data-name="Path 60" class="cls-10" d="M130.86,110.6h-.1q-10.45-.15-17.35-4c-4.64-2.53-7-5.74-7.2-9.6.17-3.87,2.56-7.1,7.2-9.7s10.4-3.9,17.4-4a.07.07,0,0,1,.1,0q10.4.15,17.35,4t7.2,9.65q-.26,5.8-7.2,9.65t-17.4,4m0-30.4h-.1q-12,.19-19.7,4.9t-8,11.9q.3,7.2,8,11.85t19.65,4.85h.1q12-.2,19.65-4.9t8-11.9q-.25-7.2-8-11.85t-19.6-4.85"/>
              <path id="Path_61" data-name="Path 61" class="cls-8" d="M130.86,110.6a.07.07,0,0,1-.1,0q-10.39-.15-17.35-3.95T106.21,97c.17-3.87,2.56-7.09,7.2-9.65s10.43-3.95,17.4-4h.1q10.46.15,17.35,4t7.2,9.6q-.26,5.8-7.2,9.7t-17.4,4"/>
            </g>
          </g>
        </g>
      </g>
      <g id="title_words">
        <text id="Project_Pawz" data-name="Project Pawz" class="cls-11" transform="translate(190 25)"><tspan x="0" y="53">Project Pawz</tspan></text>
      </g>
      <g id="motto_words">
        <text id="Rescue._Love._Repeat." data-name="Rescue. Love. Repeat." class="cls-12" transform="translate(190 72)"><tspan x="0" y="52">Rescue. Love. Repeat.</tspan></text>
      </g>
    </g>
    <g id="Repeat_Grid_2" data-name="Repeat Grid 2" class="cls-13" transform="translate(123 307)">
      <g transform="translate(-52 -307)">
        <g id="Rectangle_17" data-name="Rectangle 17" class="cls-14" transform="translate(52 307)">
          <rect class="cls-16" width="418" height="429"/>
          <rect class="cls-1" x="0.5" y="0.5" width="417" height="428"/>
        </g>
      </g>
      <g transform="translate(366 -307)">
        <g id="Rectangle_17-2" data-name="Rectangle 17" class="cls-14" transform="translate(52 307)">
          <rect class="cls-16" width="418" height="429"/>
          <rect class="cls-1" x="0.5" y="0.5" width="417" height="428"/>
        </g>
      </g>
      <g transform="translate(784 -307)">
        <g id="Rectangle_17-3" data-name="Rectangle 17" class="cls-14" transform="translate(52 307)">
          <rect class="cls-16" width="418" height="429"/>
          <rect class="cls-1" x="0.5" y="0.5" width="417" height="428"/>
        </g>
      </g>
      <g transform="translate(1202 -307)">
        <g id="Rectangle_17-4" data-name="Rectangle 17" class="cls-14" transform="translate(52 307)">
          <rect class="cls-16" width="418" height="429"/>
          <rect class="cls-1" x="0.5" y="0.5" width="417" height="428"/>
        </g>
      </g>
      <g transform="translate(1620 -307)">
        <g id="Rectangle_17-5" data-name="Rectangle 17" class="cls-14" transform="translate(52 307)">
          <rect class="cls-16" width="418" height="429"/>
          <rect class="cls-1" x="0.5" y="0.5" width="417" height="428"/>
        </g>
      </g>
    </g>
    <g id="menu_bar_large" transform="translate(16 -16)">
      <g id="menu_bar_background">
        <g class="cls-18" transform="matrix(1, 0, 0, 1, -16, 16)">
          <rect id="menu_bar_fill_gradient-2" data-name="menu_bar_fill_gradient" class="cls-15" width="1061" height="70" rx="32" transform="translate(827 32)"/>
        </g>
      </g>
      <g id="home_menu" transform="translate(-75 -18)">
        <text id="Home" class="cls-5" transform="translate(917 76)"><tspan x="0" y="39">Home</tspan></text>
      </g>
      <g id="works_menu" transform="translate(-68 -18)">
        <text id="Works" class="cls-5" transform="translate(1094 76)"><tspan x="0" y="39">Works</tspan></text>
      </g>
      <g id="participate_menu" transform="translate(-61 -18)">
        <text id="Participate" class="cls-5" transform="translate(1270 76)"><tspan x="0" y="39">Participate</tspan></text>
      </g>
      <g id="learn_menu" transform="translate(6 0)">
        <text id="Learn" class="cls-5" transform="translate(1481 58)"><tspan x="0" y="39">Learn</tspan></text>
      </g>
      <g id="donate_menu" transform="translate(123 -17)">
        <text id="Dontate_" data-name="Dontate!" class="cls-5" transform="translate(1541 76)"><tspan x="0" y="39">Dontate!</tspan></text>
      </g>
    </g>
  </g>
</svg>
