<svg version="1.1" id="Layer_1" xmlns="http://www.w3.org/2000/svg" height="170" width="530" viewBox="0 0 530 170">
<style type="text/css">
	.st0{fill-rule:evenodd;clip-rule:evenodd;fill:#588FCB;}
	.st1{fill-rule:evenodd;clip-rule:evenodd;fill:#129D49;}
	.st2{fill-rule:evenodd;clip-rule:evenodd;fill:#010101;}
	.st3{fill:#FFFFFF;}
	.st4{font-family:'Comfortaa-Bold';}
	.st5{font-size:77.7323px;}
	.st6{letter-spacing:-2.5;}
	.st7{letter-spacing:-1.3;}
	.st8{font-family:'Pacifico-Regular';}
	.st9{font-size:38.0788px;}
	.st10{letter-spacing:4.9;}
	.st11{letter-spacing:3;}
</style>
<title>brand_530x170</title>
<g id="surface2">
	<path class="st0" d="M94.8,121c-0.1,0.5-0.3,1-0.4,1.6l-2.6-1.3l0.3-3.1l3.4-2C95.3,117.8,95.1,119.4,94.8,121"/>
	<path class="st1" d="M90,134c-0.4,0.5-0.7,1.1-1,1.7c-0.1,0-0.1,0.1-0.1,0.2c-0.3,0.4-0.7,0.9-0.9,1.4l-0.2,0.3
		c-0.4,0.4-0.7,0.8-0.9,1.3h-0.1l-5.4,3.5l-5.3-1.6l2.5-4.9L77,130l-0.5-4.4l0.8-3.9l-4.6-1.4l-3.4,3.4l-5.5-3.3l1.7-8.5l3.1-4.5
		l-0.2-5l3.9-3.5l-2.9-5.7l-2.7,4.3l-3.8-8.5l5.5-0.3l-2.2-7.5h-5.8l-1.6-5.2l-4.2-2.4l-4.2,0.8l-4.3,1.5l4.4,3.4l-4.3,5.1l2.8,2.7
		l-0.8,5L42,88.3l-0.6,7.1l3.3-3.8l6.8,8.8l-2.4,0.4l-5,0.4l-4.8,5.2l-1.8-2l-5.1-0.2l-2.3,4.7l3.6,2.4l2.2,2.7l2.4,2.9l7.5,3.1
		l0.7,4.7l4.4,0.9l3.5,4.4l-3.8,4.1l-3.4,1.5l-0.6,2.8l-3.1,2.4h-0.4l-3.8,1.5l-2,3.1l0.5,4.4c-0.7-0.6-1.5-1.1-2.3-1.5
		c-0.6-0.5-1-1.2-1.1-2c-0.2-0.6-0.4-1.2-0.6-1.9l-1.4-6.5l3.2-2.3l1-5.3l-2.8-2.2l-2.9-4.6l3.1-1.9l0.9-4.9l-1.3-0.3l-2.3-5.6
		l-4.6-4.1l1.4-3.2L26,99.6l1.8-9l6.3-2.8l5.1-4.4l0.7-3.7l-2.1-2.5l5.5-2l6-5.8l-0.7-0.8h3.2c2.8,0,5.7,0.3,8.4,0.8l2.7,0.6
		l0.8,0.3l2.1,0.6l0.7,0.3l2.4,0.9l0.5,0.2l2.1,0.9l0.7,0.4l2,1l0.4,0.3l2.2,1.4l0.5,0.4l1.7,1.2l0.6,0.5c1.3,1.1,2.6,2.3,3.8,3.6
		l0.5,0.5l1.4,1.6l0.4,0.5l1.7,2c0,0.1,0.1,0.3,0.2,0.4l1.3,1.9l0.4,0.6l1.1,2c0,0.1,0.1,0.2,0.2,0.3l1.1,2.3l0.3,0.6l0.8,2
		c0.1,0.2,0.1,0.4,0.2,0.6l0.9,2.5l-5.5,6.6l-2.2-5.2l-4.8-1.5l-6.5,2.2l-1,4l3.9,3.5l4.6-4.2l5.1,5.5l3.9-0.6l3.5-2.8l0.8,3.6l0,0
		c0.1,1,0.1,2.1,0.1,3l-5.5,3.3l-0.6,5.6l4.3,2.2C92.9,128,91.7,131.1,90,134"/>
	<path class="st0" d="M67.3,100.4l1.1-1.8l0.8-1.1l0.5,0.8L67.3,100.4"/>
	<path class="st0" d="M94.8,104.1l-1.4,1.2l-3.1,2.4h-0.9l0.5-0.5l4.5-5.4C94.5,102.5,94.6,103.3,94.8,104.1"/>
	<path class="st0" d="M85.5,105.2l-1.7-1.9l-1.4-1.5l2,0.7L85.5,105.2"/>
	<path class="st0" d="M82.3,101.8l-1.5,1.4l-3.2,2.9l-1.4-1.3l0.5-1.7l4.6-1.6L82.3,101.8"/>
	<path class="st0" d="M8.7,103.9c2.1-9.7,6.5-17.5,13.3-23.7C28.6,74,37,70,46,68.9l0.4,0.4l-4.2,4.1l-5.1,1.7l-2.9,1l1.9,2.4
		l1.5,1.8l-0.4,1.9l-4.3,3.8l-5.9,2.6l-1,0.5l-0.2,1.1l-1.8,9.1l-0.2,0.8l0.4,0.7l1.7,3.3l-1,2.2l-0.7,1.4l1.1,1.1l4.2,3.8l2.3,5.2
		l0.5,1h0.3l-0.4,1.9l-2.2,1.3l-1.9,1.2l1.2,1.8l2.8,4.7l0.2,0.3l0.4,0.3l1.7,1.3l-0.6,3.1l-2.5,1.9l-1.1,0.8l0.3,1.3l1.5,6.5l0,0
		c1,3.8,2.1,5.6,3.2,5.4l1.5,1l3.6,3.1c-11.2-3.3-19.8-9.7-25.6-19C8.6,126.2,6.6,115.6,8.7,103.9"/>
	<path class="st0" d="M43.3,155.5l-2.6-0.6l-0.6-5.2l-0.4-3.7l1.2-1.9l3-1.1l0.5-0.2h0.3l0.2-0.2l3.1-2.4l0.7-0.5v-0.8l0.4-1.8
		l2.3-1l0.4-0.2l0.4-0.4l3.8-4.1l1.2-1.3l-1.1-1.4l-3.4-4.5l-0.6-0.7h-0.8l-2.9-0.7l-0.5-3.2l-0.2-1.2l-1.1-0.5l-7-2.9l-2.1-2.4
		l-2.2-2.7l-0.2-0.2l-0.3-0.2l-2-1.4l0.8-1.8h2.7l1.2,1.3l1.6,1.8l1.6-1.8l4.2-4.6l4-0.4h0.2l2.4-0.3l3.8-0.5l-2.2-3.1l-3.2-4.1
		l0.4-2.7l0.7-5v-1.1l-0.7-0.8l-1.3-1.3l3.1-3.5l1.5-1.8l-1.9-1.4l-1.2-0.9H51l3.3-0.7l2.8,1.6l1.2,4.4l0.5,1.5h5.9l0.9,3.3h-2.8
		l-3.1,0.2l1.2,2.8l3.7,8.6l1.5,3.6v4.7l-2.6,4l-0.3,0.3v0.5l-1.7,8.5l-0.3,1.6l1.3,0.8l5.6,3.3l1.4,0.8l1.2-1.2l2.4-2.4l1.4,0.5
		l-0.4,2v0.7l0.5,4.4v0.2h0.1l1.3,5.3l-2.2,4.2l-1.2,2.2l2.5,0.8l5.3,1.6l0.8,0.2C71.2,154.2,57,158.2,43.3,155.5"/>
	<path class="st2" d="M43.3,155.5c-0.9-0.1-1.8-0.3-2.6-0.6l-0.6-5.1l-0.4-3.7l1.2-2l3-1.1l0.4-0.2h0.3l0.3-0.2l3.1-2.3l0.6-0.6
		l0.2-0.8l0.4-1.8l2.3-1l0.4-0.2l0.3-0.4l3.8-4l1.2-1.4l-1.1-1.4l-3.5-4.5l-0.5-0.7h-0.8l-3-0.6l-0.4-3.3l-0.2-1.2l-1.2-0.5
		l-6.9-2.8l-2.1-2.5l-2.2-2.7l-0.2-0.2l-0.3-0.2l-2-1.4l0.8-1.8h2.7l1.1,1.3l1.6,1.8l1.7-1.8l4.2-4.6l4-0.3h0.1l2.5-0.3l3.8-0.5
		l-2.2-3.2l-3.2-4.1l0.4-2.7l0.7-5v-1.1l-0.7-0.8l-1.3-1.3l3.1-3.5l1.5-1.8l-1.9-1.4l-1.2-0.9H51l3.3-0.7l2.8,1.7l1.2,4.3l0.5,1.5
		h5.9l0.8,3.3h-2.7l-3.1,0.2l1.2,2.9l3.7,8.5l1.5,3.6v4.8l-2.6,3.9l-0.3,0.4v0.4l-1.7,8.6l-0.3,1.5l1.3,0.8l5.6,3.3l1.4,0.8l1.2-1.2
		l2.4-2.4l1.4,0.5l-0.4,2v0.7l0.5,4.4v0.2l0,0l1.4,5.2l-2.2,4.1l-1.2,2.5l2.5,0.8l5.3,1.6l0.8,0.2C71.2,154.2,57,158.2,43.3,155.5
		 M8.7,103.9C12.3,85.5,27.3,71.4,46,69l0.3,0.4l-4.1,4l-5.1,1.8l-2.9,0.9l1.9,2.4l1.4,1.8l-0.4,1.9l-4.2,3.8l-5.9,2.7l-1,0.5
		l-0.2,1l-1.9,9.1v0.8l0.4,0.7l1.6,3.3l-1.1,2.2l-0.6,1.5l1.1,1l4.2,3.8l2.2,5.2l0.5,1h0.3l-0.4,1.9l-2.2,1.3l-1.9,1.1l1.1,1.9
		l2.9,4.6l0.2,0.4l0.3,0.2l1.8,1.4l-0.6,3l-2.5,1.9l-1.1,0.8l0.3,1.3l1.4,6.6h0.1c1,3.8,2.1,5.6,3.2,5.4l1.5,1.1l3.6,3
		c-11.3-3.3-19.8-9.7-25.6-19.1S6.6,115.6,8.7,103.9 M82.3,101.9l-1.5,1.3l-3.2,2.9l-1.4-1.2l0.5-1.8l4.6-1.6L82.3,101.9
		 M85.5,105.2l-1.7-1.9l-1.4-1.5l2,0.7L85.5,105.2 M94.8,104.2l-1.4,1.1l-3.1,2.4l-0.9,0.2l0.5-0.6l4.5-5.4
		C94.5,102.7,94.6,103.5,94.8,104.2 M67.3,100.4l1.1-1.8l0.8-1.1l0.5,0.8L67.3,100.4 M89.9,134l-0.9,1.6v0.2l-0.9,1.5l-0.2,0.3
		c-0.3,0.4-0.7,0.8-0.9,1.2v0.2l-5.4,3.5l-5.3-1.6l2.5-5L77,130l-0.5-4.4l0.8-3.9l-4.6-1.4l-3.4,3.4l-5.5-3.3l1.7-8.5l3-4.6v-4.9
		l3.9-3.5l-2.9-5.7l-2.7,4.3L63,88.8l5.4-0.2l-2.1-7.5h-6L58.9,76l-4.2-2.5l-4.2,0.8l-4.4,1.6l4.5,3.4l-4.4,5.1l2.9,2.7l-0.8,5
		L42,88.3l-0.6,7.1l3.3-3.9l6.8,8.9l-2.4,0.4l-5,0.4l-4.8,5.2l-1.8-2l-5.2-0.2l-2.2,4.7l3.6,2.4l2.2,2.7l2.4,2.9l7.5,3.1l0.7,4.7
		l4.4,0.8l3.5,4.5l-3.8,4.1l-3.4,1.5l-0.6,2.8l-3,2.4h-0.4l-3.8,1.5l-2,3.1l0.5,4.4c-0.7-0.6-1.5-1.1-2.3-1.5c-0.6-0.5-1-1.2-1.1-2
		c-0.2-0.6-0.4-1.2-0.6-1.9l-1.4-6.6l3.2-2.3l0.9-5.2l-2.8-2.2l-2.8-4.6l3.1-1.9l0.9-5l-1.3-0.2l-2.4-5.5l-4.5-4.1l1.4-3.3L26,99.7
		l1.8-9.1l6.3-2.8l5.1-4.4l0.7-3.7l-2.1-2.6l5.5-1.9l6-5.8l-0.7-0.8h3.1c2.9,0,5.7,0.3,8.5,0.8l2.7,0.7l0.8,0.2l2.1,0.7l0.7,0.2
		l2.4,1l0.5,0.2l2.1,0.9l0.7,0.4l2,1l0.4,0.3c0.8,0.4,1.5,0.9,2.2,1.4l0.5,0.4l1.7,1.2l0.6,0.5c1.3,1.1,2.6,2.3,3.8,3.6l0.5,0.5
		l1.4,1.6l0.4,0.4l1.6,2.1l0.3,0.4c0.5,0.6,0.9,1.2,1.2,1.9l0.4,0.6l1.2,2c0,0.1,0.1,0.2,0.2,0.3l1.1,2.3l0.3,0.6l0.8,2
		c0.1,0.2,0.1,0.4,0.2,0.6l0.9,2.5l-5.5,6.6l-2.2-5.2l-4.9-1.5l-6.4,2.2l-1,4l3.8,3.5l4.7-4.2l5.1,5.5l3.9-0.6l3.5-2.8l0.8,3.6l0,0
		v3l-5.4,3.3l-0.6,5.6l4.3,2.2C93,128,91.6,131.1,89.9,134 M94.8,121c-0.1,0.5-0.3,1-0.4,1.6l-2.6-1.4l0.3-3l3.4-2
		C95.3,117.8,95.1,119.4,94.8,121 M60.8,66.5c-3-0.6-6-0.8-9.1-0.8c-11.4,0.2-21.3,3.8-29.6,10.7c-8.4,6.8-14.1,16.4-16.2,27
		c-2.3,13.1,0.1,24.8,7,35.2c6.9,10.4,16.9,17,29.8,19.9c3,0.6,6,0.8,9.1,0.8c10.8,0,21.3-3.8,29.6-10.7
		c8.4-6.8,13.8-15.9,16.2-27.1c2.3-13-0.1-24.7-7-35.1C83.7,76,73.7,69.4,60.8,66.5"/>
	<path class="st2" d="M86.3,92.7l-4.2-3.3l-5.2,1.4l2.1,3.1L86.3,92.7"/>
	<path class="st2" d="M38.1,99.9l3.5,0.7l-2.8-3.8L38.1,99.9"/>
	<path class="st2" d="M84.4,122.5l3.2,3.1l-2.6-5.9L84.4,122.5"/>
	<path class="st0" d="M74.9,13.6l1.7,0.2c3.5,1,5.9,3.9,7.2,8.7s1.2,10.4-0.2,16.8C80.1,51.4,74.8,58,67.5,58.9
		c-0.6,0-1.1-0.1-1.7-0.3c-3.5-0.9-5.9-3.8-7.2-8.6s-1.3-10.4,0.2-16.8C62.3,21,67.7,14.5,74.9,13.6"/>
	<path class="st2" d="M83.7,39.2c-3.6,12.3-8.9,18.8-16.1,19.7l-1.7-0.2c-3.6-1-5.9-3.9-7.2-8.7c-1.3-4.8-1.3-10.4,0.2-16.8
		c3.5-12.2,8.8-18.8,16.1-19.6c0.6-0.1,1.1,0,1.7,0.2c3.5,0.9,5.9,3.8,7.2,8.6C85.2,27.2,85.1,32.9,83.7,39.2 M77.3,11
		c-0.8-0.2-1.6-0.3-2.3-0.3C66.1,11.7,59.8,19,56,32.6c-1.7,7.3-1.7,13.6,0.1,19c1.8,5.4,4.7,8.7,9.1,9.9c0.8,0.2,1.6,0.3,2.3,0.3
		c8.7-1,15.1-8.2,18.9-21.9c1.6-7.2,1.6-13.6-0.1-18.9C84.7,15.6,81.6,12.2,77.3,11"/>
	<path class="st2" d="M19.8,14.5c-1.5,0-2.9,0.3-4.2,0.9c-4.1,2-6.5,5.7-7.2,11.3c-0.8,5.6,0.4,11.9,3.4,18.8
		c5.5,11.5,12.4,17.6,20.6,18.3c1.5,0,2.9-0.3,4.2-0.9c4-2,6.4-5.7,7.1-11.3s-0.4-11.9-3.3-18.8C34.9,21.2,28,15.2,19.8,14.5
		 M19.8,17.4c6.9,0.6,12.9,6.1,18,16.6c2.5,6,3.6,11.4,3.2,16.4c-0.4,5-2.3,8.2-5.5,9.8c-1,0.4-2,0.7-3.1,0.7
		c-6.9-0.6-12.9-6.1-18-16.6c-2.6-6-3.7-11.4-3.2-16.4s2.2-8.2,5.5-9.8C17.7,17.6,18.7,17.4,19.8,17.4"/>
	<path class="st0" d="M19.8,17.4c6.8,0.6,12.8,6.1,18,16.5c2.5,6.1,3.7,11.5,3.2,16.5s-2.3,8.2-5.5,9.8c-1,0.4-2,0.6-3.1,0.7
		c-6.9-0.6-12.9-6.1-18-16.6c-2.5-6-3.7-11.5-3.2-16.4s2.2-8.2,5.5-9.9C17.7,17.6,18.8,17.4,19.8,17.4"/>
	<path class="st2" d="M120.6,38.5c-7,0.2-14,3.6-20.9,10.1c-5,4.8-8.2,9.8-9.9,15.3c-1.7,5.4-1,10.6,2.2,14.1
		c2.3,2.2,5.5,3.4,8.7,3.3c6.9-0.2,13.9-3.6,20.8-10.1c4.9-4.8,8.3-9.8,9.9-15.3s1-10.6-2.2-14.1C126.9,39.6,123.8,38.4,120.6,38.5
		 M120.6,41.4c2.4-0.2,4.8,0.7,6.6,2.4c2.4,2.7,2.9,6.5,1.4,11.2c-1.5,4.7-4.5,9.5-9.1,14.1c-6.6,6.1-12.9,9.2-18.8,9.3
		c-2.5,0.2-4.9-0.7-6.7-2.4c-2.4-2.7-2.9-6.5-1.4-11.2s4.4-9.5,9.1-14.1C108.2,44.6,114.6,41.5,120.6,41.4"/>
	<path class="st0" d="M120.6,41.3c2.4-0.1,4.8,0.8,6.6,2.4c2.4,2.7,2.9,6.5,1.5,11.2s-4.6,9.5-9.2,14.1c-6.6,6.1-12.9,9.2-18.8,9.3
		c-2.5,0.1-4.9-0.8-6.7-2.4c-2.4-2.7-2.9-6.4-1.4-11.3c1.4-4.7,4.4-9.4,9.1-14C108.2,44.6,114.6,41.5,120.6,41.3"/>
	<path class="st2" d="M128.7,114.4L128.7,114.4c-6.7-0.1-12.1-1.4-16.4-3.8c-4.3-2.3-6.6-5.4-6.7-9c-0.2-3.6,2.4-6.7,6.7-9.1
		c4.3-2.4,9.8-3.7,16.3-3.8h0.1c6.4,0.1,11.9,1.3,16.3,3.7c4.3,2.4,6.6,5.4,6.8,9.1s-2.4,6.7-6.8,9
		C140.7,112.9,135.1,114.3,128.7,114.4 M128.7,85.9L128.7,85.9c-7.6,0.1-13.7,1.6-18.6,4.6c-4.9,3-7.3,6.7-7.5,11.2
		c-0.2,4.5,2.7,8.2,7.5,11.1s11,4.4,18.5,4.6h0.1c7.4-0.2,13.6-1.7,18.4-4.6c4.8-2.9,7.3-6.7,7.5-11.2s-2.6-8.2-7.5-11.2
		S136.1,86,128.7,85.9"/>
	<path class="st0" d="M128.7,114.4L128.7,114.4c-6.7-0.1-12.1-1.3-16.4-3.8c-4.3-2.4-6.6-5.4-6.7-9c-0.2-3.6,2.4-6.7,6.7-9.1
		c4.3-2.4,9.8-3.7,16.3-3.8h0.1c6.6,0.1,12,1.3,16.3,3.8c4.3,2.4,6.6,5.3,6.8,9s-2.4,6.7-6.8,9.1
		C140.7,113.1,135.2,114.3,128.7,114.4"/>
</g>
<text transform="matrix(0.7992 0 0 1 132.2783 72.0205)" class="st3 st4 st5">P</text>
<text transform="matrix(0.7992 0 0 1 170.9199 72.0205)" class="st3 st4 st5 st6">r</text>
<text transform="matrix(0.7992 0 0 1 198.627 72.0205)" class="st3 st4 st5">o</text>
<text transform="matrix(0.7992 0 0 1 240.624 72.0205)" class="st3 st4 st5 st6">j</text>
<text transform="matrix(0.7992 0 0 1 255.9053 72.0205)" class="st3 st4 st5 st7">e</text>
<text transform="matrix(0.7992 0 0 1 293.3037 72.0205)" class="st3 st4 st5">ct </text>
<text transform="matrix(0.7992 0 0 1 373.6943 72.0205)" class="st3 st4 st5 st7">P</text>
<text transform="matrix(0.7992 0 0 1 411.2178 72.0205)" class="st3 st4 st5 st7">a</text>
<text transform="matrix(0.7992 0 0 1 451.2256 72.0205)" class="st3 st4 st5">wz</text>
<text transform="matrix(1.0169 0 0 1 153.541 137.7979)" class="st3 st8 st9">R</text>
<text transform="matrix(1.0169 0 0 1 186.8867 137.7979)" class="st3 st8 st9">escu</text>
<text transform="matrix(1.0169 0 0 1 250.7803 137.7979)" class="st3 st8 st9 st10">e</text>
<text transform="matrix(1.0169 0 0 1 271.3252 137.7979)" class="st3 st8 st9">. </text>
<text transform="matrix(1.0169 0 0 1 291.5469 137.7979)" class="st3 st8 st9 st11">L</text>
<text transform="matrix(1.0169 0 0 1 320.6982 137.7979)" class="st3 st8 st9">o</text>
<text transform="matrix(1.0169 0 0 1 338.5537 137.7979)" class="st3 st8 st9">v</text>
<text transform="matrix(1.0169 0 0 1 355.9795 137.7979)" class="st3 st8 st9 st10">e</text>
<text transform="matrix(1.0169 0 0 1 376.6328 137.7979)" class="st3 st8 st9">. </text>
<text transform="matrix(1.0169 0 0 1 396.8545 137.7979)" class="st3 st8 st9">R</text>
<text transform="matrix(1.0169 0 0 1 430.0928 137.7979)" class="st3 st8 st9">e</text>
<text transform="matrix(1.0169 0 0 1 446.1201 137.7979)" class="st3 st8 st9">p</text>
<text transform="matrix(1.0169 0 0 1 464.7285 137.7979)" class="st3 st8 st9">e</text>
<text transform="matrix(1.0169 0 0 1 479.7881 137.7979)" class="st3 st8 st9">a</text>
<text transform="matrix(1.0169 0 0 1 497.9668 137.7979)" class="st3 st8 st9 st10">t</text>
<text transform="matrix(1.0169 0 0 1 519.0498 137.7979)" class="st3 st8 st9">.</text>
</svg>
