<svg xmlns="http://www.w3.org/2000/svg" width="28.6" height="31.2"><g data-name="Layer 2"><path data-name="paw" d="M26.4 22.5c1.7 3.4-1.7 5.1-3.4 5.1a22.8 22.8 0 0 0-5 .7 29.5 29.5 0 0 0-4.7 1.9c-1.5.9-5.3 1.1-5.5-2.7s2.9-4.5 2.5-9.6 3.3-5.8 3.3-5.8 3.6-1.3 5.8 3.3 5.3 3.7 7 7.1M24.7 7.7c-5.1-.8-6 9.8-1 10.3s6-9.5 1-10.3m-7.8 3.2c5.2.2 5-10.4 0-10.4s-5 10.2 0 10.4m-6.7 1.8c4.2-2.7-.7-11.6-5.2-9s.8 11.7 5.2 9m-2.3 9.6c3.9-3.2-1.8-11.5-6.1-8.4s2 11.7 6.1 8.4" stroke="#fff" stroke-miterlimit="10"/></g></svg>