<svg xmlns="http://www.w3.org/2000/svg" xmlns:xlink="http://www.w3.org/1999/xlink" viewBox="0 0 30.17 27.79">
  <defs>
    <style>
      .cls-1 {
        fill: none;
      }

      .cls-2 {
        clip-path: url(#clip-path);
      }

      .cls-3 {
        fill: #005394;
      }
    </style>
    <clipPath id="clip-path" transform="translate(0 0)">
      <rect class="cls-1" width="30.17" height="27.79"/>
    </clipPath>
  </defs>
  <title>Asset 1</title>
  <g id="Layer_2" data-name="Layer 2">
    <g id="paws">
      <g id="loader">
        <g class="cls-2">
          <g class="cls-2">
            <path class="cls-3" d="M25.47,4.16c.81-3.71-3.22-4.51-5-4a31.21,31.21,0,0,1-5.39.56A31.38,31.38,0,0,1,9.69.13c-1.77-.49-5.8.32-5,4S9.05,7.7,10,12.7s5.08,4.67,5.08,4.67,4.09.32,5.06-4.67,4.51-4.84,5.31-8.54M18.81,17.7c2.18-.63,4.59,1.09,5.39,3.84s-.33,5.49-2.51,6.12-4.59-1.09-5.39-3.84.33-5.49,2.51-6.12m9,1c-2.1.86-4.68-.6-5.76-3.25s-.26-5.5,1.84-6.36,4.68.6,5.76,3.25.26,5.5-1.84,6.36m-16.49-1c2.18.63,3.3,3.37,2.51,6.12s-3.21,4.47-5.39,3.84S5.18,24.29,6,21.54s3.2-4.47,5.39-3.84M6.24,9.09c2.1.86,2.92,3.71,1.84,6.36S4.42,19.56,2.32,18.7-.61,15,.48,12.34s3.66-4.1,5.76-3.25" transform="translate(0 0)"/>
          </g>
        </g>
      </g>
    </g>
  </g>
</svg>
