<!-- Generator: Adobe Illustrator 23.0.1, SVG Export Plug-In  -->
<svg version="1.1" xmlns="http://www.w3.org/2000/svg" xmlns:xlink="http://www.w3.org/1999/xlink" x="0px" y="0px" width="37px"
	 height="106px" viewBox="0 0 37 106" style="enable-background:new 0 0 37 106;" xml:space="preserve">
<style type="text/css">
	.st0{fill:#005394;}
	.st1{fill:#333333;}
	.st2{fill:none;}
	.st3{fill:#2069A2;}
	.st4{fill:#FFFFFF;}
</style>
<defs>
</defs>
<g id="outline_x5F_middle_1_">
	<path class="st0" d="M20.5,2C28.5,2,35,8.5,35,16.5v73c0,8-6.5,14.5-14.5,14.5h-4C8.5,104,2,97.5,2,89.5v-73C2,8.5,8.5,2,16.5,2
		H20.5 M20.5,0h-4C7.4,0,0,7.4,0,16.5v73C0,98.6,7.4,106,16.5,106h4c9.1,0,16.5-7.4,16.5-16.5v-73C37,7.4,29.6,0,20.5,0L20.5,0z"/>
</g>
<g id="scratch_x5F_middle_1_">
	<path class="st1" d="M6.5,18v73.4 M12.5,26.6V100 M24.5,26.6V100 M30.5,18v73.4"/>
	<g>
		<path class="st2" d="M6.5,18v73.4 M12.5,26.6V100 M24.5,26.6V100 M30.5,18v73.4"/>
		<g>
			<g>
				<g>
					<path class="st3" d="M29.8,91.4c0.1,0,0.3,0,0.2-0.1l-0.3-0.1L29.8,91.4z"/>
					<path class="st3" d="M30.4,90.7c-0.2-0.1-0.4-0.3-0.7-0.2c0.3,0.1,0.2,0.2,0.6,0.3c0,0.1-0.1,0.2-0.2,0.2
						c0.1,0-0.1,0.2,0.1,0.2c0.3-0.1,0.3-0.3,0.1-0.5C30.3,90.7,30.4,90.7,30.4,90.7z"/>
					<path class="st3" d="M31,80.3L31,80.3C30.9,80.3,31,80.3,31,80.3z"/>
					<path class="st3" d="M31.1,73.8C31.2,73.9,31.2,73.9,31.1,73.8C31.2,73.9,31.2,73.8,31.1,73.8z"/>
					<path class="st3" d="M31.5,72.7C31.5,72.8,31.5,72.8,31.5,72.7C31.5,72.8,31.5,72.8,31.5,72.7z"/>
					<path class="st3" d="M31,80.3l0.1-0.2C31,80.1,31,80.2,31,80.3z"/>
					<path class="st3" d="M29.6,89.3C29.7,89.3,29.7,89.3,29.6,89.3C29.7,89.3,29.7,89.3,29.6,89.3C29.7,89.3,29.7,89.3,29.6,89.3z"
						/>
					<path class="st3" d="M31.2,83.1L31.2,83.1c0,0.1,0.1,0.1,0.1,0.1L31.2,83.1z"/>
					<path class="st3" d="M31.3,85.3c0,0-0.3-0.1-0.4-0.1c0.1,0,0.2,0.1,0.2,0.1C31.1,85.3,31.2,85.3,31.3,85.3z"/>
					<path class="st3" d="M30.8,88.8L30.8,88.8C30.8,88.8,30.8,88.8,30.8,88.8z"/>
					<path class="st3" d="M31.3,81.6c0,0,0.1,0,0.1,0C31.4,81.6,31.3,81.6,31.3,81.6z"/>
					<path class="st3" d="M29.2,20.5C29.2,20.5,29.2,20.5,29.2,20.5C29.2,20.5,29.2,20.5,29.2,20.5z"/>
					<path class="st3" d="M30.6,18L30.6,18c0.1,0,0.1,0,0.2,0L30.6,18z"/>
					<path class="st3" d="M31.9,70.7C31.9,70.7,31.9,70.7,31.9,70.7C31.9,70.8,31.9,70.8,31.9,70.7z"/>
					<path class="st3" d="M31.7,52.2c-0.3,0.2-0.3-0.3-0.6,0C31.2,52.2,31.5,52.5,31.7,52.2z"/>
					<path class="st3" d="M29.7,89.2C29.7,89.2,29.7,89.2,29.7,89.2C29.7,89.2,29.7,89.2,29.7,89.2z"/>
					<path class="st3" d="M31.1,52.2C31.1,52.2,31.1,52.2,31.1,52.2L31.1,52.2C31,52.2,31.1,52.2,31.1,52.2z"/>
					<path class="st3" d="M31.7,66.1c0,0-0.1,0-0.1,0C31.6,66.1,31.6,66.1,31.7,66.1z"/>
					<path class="st3" d="M31.3,69.5L31.3,69.5C31.3,69.5,31.3,69.5,31.3,69.5z"/>
					<path class="st3" d="M31.3,64.3c0,0,0.1-0.1,0-0.1c0,0,0,0,0,0C31.3,64.2,31.3,64.2,31.3,64.3z"/>
					<path class="st3" d="M31.3,62.4C31.3,62.4,31.3,62.4,31.3,62.4C31.3,62.5,31.3,62.5,31.3,62.4L31.3,62.4z"/>
					<path class="st3" d="M29.3,26.2c0.1,0,0.2-0.1,0.3-0.1C29.4,26.2,29.3,25.9,29.3,26.2z"/>
					<path class="st3" d="M29.8,89.3c-0.1,0-0.1,0-0.1-0.1c0,0,0,0,0,0.1C29.7,89.3,29.8,89.3,29.8,89.3z"/>
					<path class="st3" d="M29.1,64.2l0-0.3C29.1,64,29.1,64.1,29.1,64.2z"/>
					<path class="st3" d="M29.4,39.6L29.4,39.6C29.3,39.6,29.3,39.6,29.4,39.6z"/>
					<path class="st3" d="M29.1,63c0.1-0.1,0.2-0.1,0.2-0.2c0,0,0,0-0.1,0L29.1,63z"/>
					<path class="st3" d="M29.6,26.1C29.6,26.1,29.6,26.1,29.6,26.1C29.6,26.1,29.6,26.1,29.6,26.1z"/>
					<path class="st3" d="M28.9,24.2c0,0.3,0.4,0.1,0.6,0.2c0.1,0.3-0.3,0.2-0.5,0.3c0.1,0.2,0.4,0.4,0.4,0.5c-0.1,0-0.1,0-0.2,0
						c0.3,0.2,0,0.7,0.4,0.9c0,0-0.1,0-0.1,0c0.2,0,0.4,0,0.5,0c0,0.1,0.2,0.2,0,0.3c0-0.1-0.1-0.1-0.2-0.1l0.1,0.1
						c-0.3,0.1-0.1-0.2-0.4-0.2c0.1,0.3,0.4,0.6,0.3,0.8c-0.3,0-0.1-0.5-0.4-0.2l0.1-0.3c-0.5,0.2,0-0.2-0.5,0
						c-0.1,0.4,0.2,0.5,0.1,0.9c0.2,0.1,0.3,0,0.5,0.1c0.3,0.6-0.9,0.5-0.4,0.9c0.2,0.1,0.7,0.2,0.4,0.5l-0.4-0.1
						c0,0.4,0.6,0.2,0.3,0.6c-0.2-0.1-0.1-0.3-0.2-0.2c-0.3,0.3,0.2,0.2,0.2,0.4l-0.3,0c0.1,0.4,0.3,0.9,0.4,1.3
						c-0.1,0-0.2-0.1-0.3,0c0.2,0.6,0,1.2-0.2,1.8l0.3,0.2c0,0-0.1,0.1-0.2,0c-0.1,0.2,0.2,0,0.3,0.1c0,0.1-0.2,0.2-0.3,0.1
						c0.2,0.4,0.5,1.1,0.2,1.5l-0.1-0.1c-0.1,0.3,0.6,0.4,0.3,0.7l-0.1-0.1c-0.1,0.7,0.1,1.4-0.3,2c0.4,0.1-0.2,0.7,0.4,0.7
						c-0.3,0.4-0.4,0.3-0.6,0.8c0,0.1,0.4,0.2,0.4,0.4l-0.3,0l0.3,0.2l-0.4,0.1l0.1,0.2c0-0.1,0.1-0.1,0.2-0.1
						c0.1,0.3-0.2,0.7-0.4,0.7l0.3,0.6c-0.1,0-0.2-0.1-0.2-0.2c0.3,0.3-0.3,0.1,0,0.4c0.1,0,0.2,0,0.2,0c-0.2,0.2-0.2,0.5-0.1,0.8
						l-0.2,0c-0.1,0.5,0.1,1,0.1,1.5c0.1-0.2,0.5-0.1,0.5,0l-0.3,0.1c0.2,0.1,0.1-0.2,0.4,0c0,0.2-0.4,0.1-0.5,0l0.1,0.2
						c-0.1,0-0.1,0-0.3-0.1c0.2,0.1-0.3,0.4,0,0.6L29,44c0,0.5,0.1,0.8,0.1,1.2c0.3,0,0.2,0.2,0.4,0.3c-0.1,0.3-0.3,0.7-0.3,1
						c0.1,0.3,0.2,0.1,0.4,0.2c-0.3,0-0.2,0.4-0.4,0.2c0,0.5,0.1,0.6,0.3,1.2c0.1-0.1,0.2-0.1,0.2-0.1c0,0.1-0.1,0.2-0.2,0.2l0,0
						c0.4,0.6-0.7,1.5-0.2,2l0,0l0.3,0.5c0,0.2-0.2-0.1-0.4,0c0.4,0.6-0.1,0.9,0.2,1.4c-0.8,0.4,0.1,1.3-0.4,1.8l0.2,0
						c0.2,0.1-0.1,0.2-0.1,0.2c0.1,0,0.2-0.1,0.3-0.1c0.2,1.1-0.3,2.2-0.4,3.4c0,0.4,0.9,0.2,0.5,0.7L29,58.1c0.4,0.8,0,1.7,0.3,2.5
						c-0.1,0-0.2,0-0.2-0.1c-0.2,0.2,0,0.6,0.2,0.6c0,0.1-0.2,0-0.3,0.1c-0.1,0.2,0.3,0.4,0.1,0.5c0,0-0.1,0-0.1-0.1
						c0.1,0.1,0,0.5,0.2,0.4c-0.1,0.3,0.1,0.6,0,0.8c0.3,0.2-0.1,0.5,0.3,0.6c-0.5,0-0.4,0.5-0.2,0.7c-0.1-0.1-0.1,0.2-0.3,0.1
						c0,0.2,0.1,0.4,0.3,0.4c-0.5,0.4,0.4,0.8-0.3,1c0.2,0.6,0.4,1.2,0.5,1.8c-0.5,0,0-0.6-0.5-0.6c0.2,0.6,0.6,0.9,0.5,1.4
						c-0.1,0.1-0.2-0.1-0.3-0.1c0.2,0.6,0,1.1,0.2,1.6c0,0-0.1-0.1-0.1-0.1c0,0.1-0.1,0.2,0.1,0.2l-0.1-0.1c0.3-0.2,0.6,0.4,0.8,0.4
						c-0.6-0.2-0.1,0.5-0.9,0.2c0,0.1,0.1,0.1,0.3,0.1c0,0.1-0.1,0.1-0.3,0c0.1,0.3,0.3,0.2,0.3,0.5c-0.1,0-0.1-0.1-0.3-0.1
						c0.2,0.2,0.4,0.3,0.3,0.6c-0.1,0-0.1,0-0.1-0.1c0,0.5,0.5,0.8,0.3,1.3c-0.4-0.1-0.1,0.2-0.5,0.2l0.1,0.3l0.2-0.1
						c0,0.2,0.3,0.4,0.1,0.6l-0.2-0.2l0.1,0.4l0.1-0.2c0.2,0.2,0.5,0,0.4,0.3c0-0.1,0,0.2-0.2,0.4c0,0,0,0,0,0
						c0.1,0.1,0.2,0.2,0.2,0.4c-0.1,0-0.4,0-0.5,0c0.3,0.1,0.1,0.6,0.4,0.7c-0.1,0-0.3-0.1-0.3,0l0.3,0.1c-0.1,0.1-0.1,0.1-0.3,0.1
						c0,0.3,0.5-0.1,0.3,0.3c0,0-0.1,0-0.1-0.1c-0.1,0.4,0.2,0.8,0,1.1c-0.4,0.1-0.1-0.3-0.4-0.2c0.1,0.5,0.5,1.1,0.4,1.6l0-0.1
						c0.5,0.1-0.3,0.4,0,0.6c0-0.1-0.3-0.1-0.2-0.1c-0.1,0.3,0.1,0.7,0.3,1.2L29.9,80c-0.1,0.2-0.1,0.5-0.1,0.8
						c0.1,0.1,0.1,0.2,0.3,0.1c-0.8,0.7,0.4,1.3-0.2,1.9c0-0.1-0.1-0.2-0.1-0.1l0.1,0.5c0.2,0,0.1-0.1,0.3-0.2
						c0.1,0.1,0.2,0.2,0.2,0.3c-0.2-0.2-0.4,0-0.5,0.1c0.1,0,0.1,0,0.2,0c-0.4,0.3,0.5,0,0.2,0.4l-0.1,0c0.1,0.1,0.2,0.3,0.2,0.4
						c-0.3,0.1-0.1-0.1-0.3-0.2c0,0.2,0.5,0.4,0.2,0.6c-0.1-0.1-0.1-0.2-0.1-0.3c-0.3,0.2-0.2,0.2-0.3,0.4l0,0l-0.1,0.3l0.1-0.1
						c0.7,0.3,0.1,0.5,0.6,0.9c-0.4-0.3-0.2-0.1-0.6-0.1c-0.1,0.1-0.2,0.2-0.3,0.2c0.2,0.2-0.2,0.3,0.2,0.5c-0.1,0,0,0.2-0.3,0.1
						c0.1,0.2,0.2-0.1,0.3,0c0.3,0.3-0.4,0.8,0.1,1.2c0.2,0.4,0.5,0.5,0.7,0.9c-0.2,0.1-0.4-0.1-0.4-0.1c-0.1,0.2-0.1,0.4,0,0.6
						c-0.1,0-0.2,0-0.3,0.1c0,0.2,0.4,0.1,0.2,0.3c-0.1,0-0.3-0.1-0.4-0.2c0.1,0.2,0.3,0.4,0.4,0.6c-0.2,0.1-0.3-0.1-0.4-0.2
						c0.1,0.2,0.2,0.6,0.4,0.6l0.1-0.1c0,0.1-0.2,0-0.3,0c-0.2-0.2,0.1-0.3,0.2-0.3l0.1,0.1c0.6-0.1-0.1-0.5-0.1-0.8l0.4,0.1
						l-0.3-0.3c0.1-0.1,0.3-0.1,0.4,0c0.2-0.2-0.1-0.2,0.1-0.3c0,0,0.1,0,0.1,0l-0.1-0.2c0.1,0,0.3,0,0.2,0.1c0.2-0.3-0.3-0.6,0-0.7
						l0,0c-0.1-0.5-0.3,0-0.7-0.4l0.8-0.2l-0.3,0c0,0,0-0.1,0.2-0.1c-0.2-0.2-0.1,0-0.3-0.1c0.3-0.2-0.1-0.7,0.4-0.7
						c-0.2-0.1-0.2,0.2-0.3,0c0.5-0.1-0.1-0.3,0.2-0.5c0.3,0.1,0.1,0.3,0.4,0.1c-0.5-0.1,0.1-0.4,0-0.6c-0.4,0-0.2-0.4-0.3-0.7
						c0.1,0,0.2-0.6,0.3-0.9l0.1,0c-0.4-0.1-0.3-0.3-0.4-0.6c0.2,0,0.3,0,0.4,0.2l0-0.2c-0.1,0-0.2-0.1-0.2-0.2l0.3,0.1
						c0-0.3-0.3-0.5-0.1-0.9c-0.3,0-0.7,0.3-0.9-0.1c0.1,0,0.4,0,0.4,0.1c0,0-0.1-0.1-0.1-0.2l0.2,0.1c0.1-0.2-0.2-0.1-0.2-0.2
						c0.2,0,0.1-0.1,0.3-0.1c0,0-0.1,0.1,0,0.2c0-0.1,0.2-0.3,0.3-0.4c-0.1,0-0.3,0-0.3-0.1c0-0.3,0.2-0.1,0.3-0.2
						c-0.1-0.1,0-0.2-0.3-0.2c0-0.1,0.1-0.1,0.2-0.1c-0.1-0.1,0-0.6-0.4-0.5l0,0c0,0,0,0,0,0c0,0,0,0,0,0v0c-0.3-0.5,0.2-0.9,0-1.4
						l0.1,0c-0.1-0.3-0.1-0.6-0.3-0.8c0-0.1,0.2-0.2,0.3-0.2c-0.1-0.2-0.2-0.2,0-0.5c0.2,0.2,0.2-0.1,0.1,0.2c0.1-0.3,0.2-0.3,0-0.6
						c0.3,0.1,0.3-0.2,0.2-0.3L31.2,77c0-0.1,0-0.3,0-0.4l0.3,0.1c0.4-0.5-0.7-1,0-1.4c-0.2-0.1-0.2,0.3-0.4,0.2
						c0-0.3,0.5-0.5,0.5-0.6c0.2-0.3-0.5-0.3-0.4-0.7c-0.1,0-0.4,0.1-0.5-0.2c0-0.3,0.5-0.3,0.6-0.2c0,0.1,0,0.1-0.1,0.1
						c0,0.1,0.1,0.2,0.2,0.1l-0.1,0c0.1-0.1,0.1-0.5,0.3-0.4c-0.1-0.2-0.2-0.1-0.3,0.1c0.2-0.3,0-0.5,0.1-0.8
						c-0.1,0.1-0.2,0.1-0.2,0c0.1-0.5-0.2-0.2-0.3-0.5c0.2-0.2,0.4,0.1,0.3-0.3c0.1-0.2,0.3,0,0.4,0c-0.2-0.3,0.2-0.6,0.2-0.7
						l0.1,0.2c-0.1-0.1-0.1-0.2-0.1-0.3l-0.2,0.1c0-0.1,0-0.2,0.1-0.2c-0.2-0.1-0.4,0.1-0.6-0.1c0.1-0.1-0.1-0.4,0.2-0.4
						c-0.1,0.4,0.3,0,0.4,0.3c0-0.1,0-0.1,0-0.2c0,0,0.1,0,0.1,0c0.3-0.4-0.4-0.2-0.3-0.6c0.2,0,0.3-0.1,0.3-0.2
						c0,0.2-0.3,0.1-0.4-0.1c0.1-0.2-0.1-0.3-0.1-0.4l-0.1,0.1c-0.2-0.1-0.2-0.2-0.2-0.3c0.1,0,0.1,0.2,0.2,0.1
						c-0.3-0.2,0.3-0.4,0.1-0.7c0.1-0.1,0.3,0,0.4-0.1c-0.2-0.3,0.2-0.3,0.1-0.6c-0.2,0.1-0.2,0.1-0.4-0.1l0.2,0.5L31.2,68
						c0,0.2,0.1,0.3,0.1,0.4c-0.2-0.2-0.1-0.1-0.3-0.1c0.4-0.2-0.2-0.4,0-0.7l0.6,0c0.3-0.4-0.3-0.7-0.2-1.1l-0.1,0.2
						c-0.2-0.1,0-0.3-0.1-0.5c0.2,0,0.3-0.1,0.4-0.2c-0.1,0,0-0.4-0.4-0.4l0.3-0.2c0.1-0.4-0.6-0.4-0.5-0.8c0.2,0.1,0.4-0.1,0.5,0.2
						c0-0.1,0-0.2-0.1-0.2c0.1-0.1-0.3-0.3-0.1-0.5C31.2,64.1,31,64.1,31,64c0,0,0.1,0,0.1,0c-0.1,0-0.1-0.2-0.4-0.1
						c0.6-0.4,0-1.1,0.5-1.4c-0.1-0.3-0.1-0.6-0.1-0.9c0.1,0,0.1,0,0.1,0c0.2-0.3-0.6-0.2-0.4-0.6c0.3-0.2,0.2,0.2,0.3,0.1
						c0.6-0.1-0.1-0.5,0.3-0.7l0,0.1c0.2-0.2-0.2-0.5-0.2-0.8c0,0,0.1,0,0.1,0c-0.3-0.2-0.4-0.7-0.5-1c0.3,0.1,0.1,0.1,0.4,0.1
						c0-0.1-0.4,0-0.5-0.2c0.1-0.1,0.3-0.3,0.5-0.3l0,0.3c0.4-0.1,0-0.3,0-0.5l0.2,0c-0.1-0.4-0.4-0.4-0.4-0.9l-0.1,0
						c-0.4-0.2,0.2-0.2-0.1-0.4l0.4-0.1c-0.1-0.2-0.4-0.6-0.5-0.8c0.3,0.2,0.4,0.5,0.6,0.7c0-0.2,0-0.5-0.2-0.6
						c0,0.1,0.1,0.1,0.1,0.2c-0.3-0.2-0.5-0.4-0.5-0.8c0.8,0.1,0.2-0.8,0.8-1c-0.3-0.6,0.1-1.1,0.1-1.7c-0.6,0.2,0-0.2-0.6-0.1
						c0-0.2,0-0.2,0-0.2l0.4-0.5c0.2-0.1,0.1,0.1,0.3,0.1c0-0.3,0.3-0.1,0.4-0.4c-0.2,0-0.3-0.1-0.2-0.3l-0.3,0.3
						c-0.3-0.5,0.5-0.4,0.2-0.9l0.2,0.1c-0.1-0.2,0-0.9-0.5-1.1c0.1,0,0.2-0.1,0.3,0c0.1-0.6-0.5-1.3-0.2-1.7l0.1,0
						c0-0.1-0.3-0.2-0.1-0.3c0.1,0,0.1,0,0.2,0c-0.1-0.1-0.3-0.3-0.2-0.4l0.2,0.1c0.2-0.6-0.4-0.9-0.5-1.3c0.4,0,0.6-0.4,0.7-0.7
						l0.1,0c0.1-0.6-0.4-1.1-0.5-1.7c0.5-0.4,0.2-1.3,0.5-1.9c-0.1,0.1-0.3,0-0.4-0.1c0.1-0.1-0.3-0.4,0.1-0.4l0,0
						c0.4-0.1,0.3-0.4,0.3-0.6l-0.5,0c0.8-0.6-0.3-1.5,0.4-1.9c-0.1-0.1-0.1-0.3-0.3-0.5l0.3,0c0.1-0.4,0.1-0.6,0-1.1l0.2,0.1
						c0-0.3-0.8-0.3-0.8-0.6l0.4-0.1c0-0.5,0.4-1,0-1.4c0.1,0,0.2,0,0.2,0.1c0-0.2,0.3-0.9-0.3-0.8c0.4,0,0-0.5-0.1-0.8l0.3,0
						c-0.4-0.2-0.5-0.2-0.6-0.5c0-0.1,0.2-0.1,0.2,0c0.1-0.2-0.3-0.2-0.1-0.5l0.2,0.1c0-0.2-0.1-0.2-0.3-0.4
						c-0.1-0.2,0.1-0.5,0.3-0.5c-0.2,0-0.4-0.2-0.3-0.3c0.1,0,0.2,0,0.2,0.1c0.2-0.4-0.3-0.6-0.1-0.9c0.1,0,0.1,0,0.2,0
						c0,0.3,0,0.6,0,0.6c0.3,0,0.3-0.3,0.7-0.1c-0.2-0.2-0.6-0.6-0.5-0.8c0,0,0,0,0.1,0l0,0c0-0.1,0-0.1,0-0.2
						c0-0.1,0.1-0.1,0.1-0.2c0.2,0,0.1-0.3,0.1-0.4c-0.3,0-0.2-0.2-0.5,0c0,0,0,0,0,0.1c0,0,0,0,0,0.1c0,0,0,0,0,0
						c0,0.1,0,0.2,0,0.3c-0.1-0.1-0.3-0.2-0.1-0.4c-0.2-0.1-0.4-0.1-0.5-0.2c0.4-0.2,0.6-0.5,0.8-0.6c-0.2-0.4-0.1-1-0.6-1.2
						c-0.1-0.1,0.2-0.1,0.2-0.2c0.1,0.1,0,0.1,0.1,0.2c-0.1-0.2-0.1-0.7-0.4-0.7c0.2-0.3,0.3,0.2,0.3-0.2l0.1,0.1
						c0.6-0.8-0.9-1.3-0.2-2.1c0,0.1-0.1,0.1-0.1,0.1c0.3-1-0.3-2,0.2-3c0.1-0.3-0.1-0.3-0.3-0.5l0.3-0.1l-0.3-0.3
						c-0.3-0.4,0.7-0.7,0.3-1.2l-0.2,0.1c0-0.2-0.1-0.6,0.1-0.6c0,0-0.2-0.1-0.1-0.1l0.2,0l-0.3-0.5c0.1-0.4,0.6,0.1,0.7-0.5
						c-0.1-0.2-0.5-0.5-0.6-0.5c0,0.1-0.1,0.2-0.3,0.2L30.6,18c-0.5,0-0.9-0.2-1.3,0.3l0.3,0.3l-0.2,0.1l0-0.3
						c-0.2,0.1,0,0.2,0.1,0.3c-0.1,0-0.2,0.1-0.2,0.1l0.4,0.3c-0.2,0-0.4-0.1-0.5,0.1c0.2,0.1,0.4-0.1,0.5,0.1
						c-0.2,0.1-0.4,0.1-0.2,0.3c-0.1,0-0.2,0-0.2-0.1c0.1,0.2,0.1,0.4,0.3,0.5c-0.3,0.2,0.1,0.5-0.4,0.5c0.1,0,0.3,0.3,0.4,0.4
						c-0.5-0.3,0,0.5-0.6,0.5c0.5,0.2,0.2,0.7,0.5,1c0,0-0.1-0.1-0.1-0.1c0,0.2-0.2,0.2-0.3,0.4c0.4,0,0.5,0.3,0.7,0.5
						c-0.4,0.2-0.5-0.1-0.8-0.1c0.3,0,0.3,0.4,0.6,0.3c-0.2,0.2-0.1,0.2-0.4,0.2c0.5,0,0.1,0.2,0.4,0.3c-0.2,0.3-0.5,0.1-0.3,0.3
						C29.1,24.4,28.9,24.2,28.9,24.2z M29.8,30.8C29.7,30.8,29.7,30.8,29.8,30.8c0-0.1,0-0.1,0-0.1C29.7,30.7,29.7,30.7,29.8,30.8z
						 M29.8,31.3c0-0.1,0-0.2,0-0.2c0.1,0,0.2,0,0.2,0.1C29.9,31.1,29.8,31.3,29.8,31.3z M31.7,30.2c0,0.1,0,0.1-0.1,0.1
						c0,0,0-0.1,0-0.2c0,0,0,0,0,0C31.6,30.1,31.7,30.1,31.7,30.2z"/>
					<path class="st3" d="M31.3,30C31.3,30,31.3,30,31.3,30C31.3,30,31.3,30,31.3,30C31.3,30,31.3,30,31.3,30
						C31.3,30,31.3,30,31.3,30z"/>
					<path class="st3" d="M30.9,80.4L30.9,80.4C30.9,80.4,30.9,80.4,30.9,80.4C30.9,80.4,30.9,80.4,30.9,80.4z"/>
					<polygon class="st3" points="29.2,39 29.3,39 29.2,39 					"/>
					<path class="st3" d="M30,83.4C29.9,83.4,29.9,83.4,30,83.4C29.9,83.5,29.9,83.5,30,83.4z"/>
					<path class="st3" d="M29.9,84.8l-0.1,0.2C29.8,84.9,29.9,84.8,29.9,84.8z"/>
					<path class="st3" d="M29.8,85.8c0,0,0.1,0,0.1,0c0,0,0,0,0,0L29.8,85.8z"/>
					<path class="st3" d="M29.4,69.6C29.4,69.6,29.4,69.6,29.4,69.6C29.4,69.5,29.4,69.5,29.4,69.6z"/>
					<path class="st3" d="M30.1,74.4c-0.1-0.1-0.1-0.1-0.1-0.2C29.9,74.3,29.9,74.4,30.1,74.4z"/>
					<path class="st3" d="M29.1,64.2C29.1,64.2,29.1,64.2,29.1,64.2C29.1,64.2,29.1,64.2,29.1,64.2L29.1,64.2z"/>
					<path class="st3" d="M29.9,74c-0.1,0.1,0,0.2,0,0.2C30,74.2,30,74.1,29.9,74z"/>
					<path class="st3" d="M29.6,90.2L29.6,90.2C29.6,90.2,29.6,90.2,29.6,90.2L29.6,90.2z"/>
					<path class="st3" d="M29.7,90.2L29.7,90.2C29.7,90.3,29.7,90.2,29.7,90.2z"/>
					<path class="st3" d="M29.8,90.4l-0.1-0.1C29.7,90.3,29.7,90.4,29.8,90.4z"/>
					<path class="st3" d="M29.8,88.8l-0.1,0C29.7,88.8,29.7,88.8,29.8,88.8z"/>
					<path class="st3" d="M29.7,88.4c0,0.1-0.2,0.2-0.2,0.4l0.1,0C29.5,88.7,29.9,88.5,29.7,88.4z"/>
					<path class="st3" d="M31,86.7l-0.1,0.3c0.1-0.1,0.3-0.1,0.3,0C31.5,86.6,30.9,87.2,31,86.7z"/>
					<path class="st3" d="M31.1,85.6c0.1,0.2,0.2,0,0.2,0C31.3,85.5,31.2,85.5,31.1,85.6z"/>
					<path class="st3" d="M31.1,78l0.3,0C31.4,77.8,31.3,78,31.1,78z"/>
					<polygon class="st3" points="29.8,76.5 29.7,76.6 29.9,76.7 					"/>
					<polygon class="st3" points="31.6,75.6 31.7,75.7 31.6,75.5 					"/>
					<path class="st3" d="M31.6,62.7l-0.3,0C31.3,62.9,31.6,62.9,31.6,62.7z"/>
					<path class="st3" d="M31.2,57.2c0.2-0.1,0.3-0.2,0.1-0.3C31.3,57,31.2,57.1,31.2,57.2z"/>
					<polygon class="st3" points="31.7,40.5 31.8,40.6 31.8,40.4 					"/>
				</g>
			</g>
		</g>
		<g>
			<g>
				<g>
					<path class="st3" d="M23.8,100c0.1,0,0.3,0,0.2-0.1l-0.3-0.1L23.8,100z"/>
					<path class="st3" d="M24.4,99.3c-0.2-0.1-0.4-0.3-0.7-0.2c0.3,0.1,0.2,0.2,0.6,0.3c0,0.1-0.1,0.2-0.2,0.2
						c0.1,0-0.1,0.2,0.1,0.2c0.3-0.1,0.3-0.3,0.1-0.5C24.3,99.2,24.4,99.3,24.4,99.3z"/>
					<path class="st3" d="M25,88.9L25,88.9C24.9,88.9,25,88.9,25,88.9z"/>
					<path class="st3" d="M25.1,82.4C25.2,82.5,25.2,82.5,25.1,82.4C25.2,82.4,25.2,82.4,25.1,82.4z"/>
					<path class="st3" d="M25.5,81.3C25.5,81.3,25.5,81.4,25.5,81.3C25.5,81.4,25.5,81.3,25.5,81.3z"/>
					<path class="st3" d="M25,88.9l0.1-0.2C25,88.7,25,88.8,25,88.9z"/>
					<path class="st3" d="M23.6,97.8C23.7,97.9,23.7,97.9,23.6,97.8C23.7,97.9,23.7,97.9,23.6,97.8C23.7,97.9,23.7,97.9,23.6,97.8z"
						/>
					<path class="st3" d="M25.2,91.7L25.2,91.7c0,0.1,0.1,0.1,0.1,0.1L25.2,91.7z"/>
					<path class="st3" d="M25.3,93.9c0,0-0.3-0.1-0.4-0.1c0.1,0,0.2,0.1,0.2,0.1C25.1,93.9,25.2,93.9,25.3,93.9z"/>
					<path class="st3" d="M24.8,97.4L24.8,97.4C24.8,97.4,24.8,97.4,24.8,97.4z"/>
					<path class="st3" d="M25.3,90.2c0,0,0.1,0,0.1,0C25.4,90.1,25.3,90.1,25.3,90.2z"/>
					<path class="st3" d="M23.2,29.1C23.2,29.1,23.2,29.1,23.2,29.1C23.2,29.1,23.2,29.1,23.2,29.1z"/>
					<path class="st3" d="M24.6,26.6L24.6,26.6c0.1,0,0.1,0,0.2,0L24.6,26.6z"/>
					<path class="st3" d="M25.9,79.3C25.9,79.3,25.9,79.3,25.9,79.3C25.9,79.4,25.9,79.3,25.9,79.3z"/>
					<path class="st3" d="M25.7,60.8c-0.3,0.2-0.3-0.3-0.6,0C25.2,60.7,25.5,61.1,25.7,60.8z"/>
					<path class="st3" d="M23.7,97.8C23.7,97.8,23.7,97.7,23.7,97.8C23.7,97.7,23.7,97.8,23.7,97.8z"/>
					<path class="st3" d="M25.1,60.8C25.1,60.8,25.1,60.8,25.1,60.8L25.1,60.8C25,60.8,25.1,60.8,25.1,60.8z"/>
					<path class="st3" d="M25.7,74.7c0,0-0.1,0-0.1,0C25.6,74.7,25.6,74.7,25.7,74.7z"/>
					<path class="st3" d="M25.3,78.1L25.3,78.1C25.3,78.1,25.3,78.1,25.3,78.1z"/>
					<path class="st3" d="M25.3,72.9c0,0,0.1-0.1,0-0.1c0,0,0,0,0,0C25.3,72.8,25.3,72.8,25.3,72.9z"/>
					<path class="st3" d="M25.3,71C25.3,71,25.3,71,25.3,71C25.3,71,25.3,71.1,25.3,71L25.3,71z"/>
					<path class="st3" d="M23.3,34.8c0.1,0,0.2-0.1,0.3-0.1C23.4,34.7,23.3,34.5,23.3,34.8z"/>
					<path class="st3" d="M23.8,97.8c-0.1,0-0.1,0-0.1-0.1c0,0,0,0,0,0.1C23.7,97.9,23.8,97.9,23.8,97.8z"/>
					<path class="st3" d="M23.1,72.8l0-0.3C23.1,72.6,23.1,72.7,23.1,72.8z"/>
					<path class="st3" d="M23.4,48.2L23.4,48.2C23.3,48.2,23.3,48.2,23.4,48.2z"/>
					<path class="st3" d="M23.1,71.6c0.1-0.1,0.2-0.1,0.2-0.2c0,0,0,0-0.1,0L23.1,71.6z"/>
					<path class="st3" d="M23.6,34.7C23.6,34.7,23.6,34.7,23.6,34.7C23.6,34.7,23.6,34.7,23.6,34.7z"/>
					<path class="st3" d="M22.9,32.8c0,0.3,0.4,0.1,0.6,0.2c0.1,0.3-0.3,0.2-0.5,0.3c0.1,0.2,0.4,0.4,0.4,0.5c-0.1,0-0.1,0-0.2,0
						c0.3,0.2,0,0.7,0.4,0.9c0,0-0.1,0-0.1,0c0.2,0,0.4,0,0.5,0c0,0.1,0.2,0.2,0,0.3c0-0.1-0.1-0.1-0.2-0.1L24,35
						c-0.3,0.1-0.1-0.2-0.4-0.2c0.1,0.3,0.4,0.6,0.3,0.8c-0.3,0-0.1-0.5-0.4-0.2l0.1-0.3c-0.5,0.2,0-0.2-0.5,0
						c-0.1,0.4,0.2,0.5,0.1,0.9c0.2,0.1,0.3,0,0.5,0.1c0.3,0.6-0.9,0.5-0.4,0.9c0.2,0.1,0.7,0.2,0.4,0.5l-0.4-0.1
						c0,0.4,0.6,0.2,0.3,0.6c-0.2-0.1-0.1-0.3-0.2-0.2c-0.3,0.3,0.2,0.2,0.2,0.4l-0.3,0c0.1,0.4,0.3,0.9,0.4,1.3
						c-0.1,0-0.2-0.1-0.3,0c0.2,0.6,0,1.2-0.2,1.8l0.3,0.2c0,0-0.1,0.1-0.2,0c-0.1,0.2,0.2,0,0.3,0.1c0,0.1-0.2,0.2-0.3,0.1
						c0.2,0.4,0.5,1.1,0.2,1.5l-0.1-0.1c-0.1,0.3,0.6,0.4,0.3,0.7l-0.1-0.1c-0.1,0.7,0.1,1.4-0.3,2c0.4,0.1-0.2,0.7,0.4,0.7
						c-0.3,0.4-0.4,0.3-0.6,0.8c0,0.1,0.4,0.2,0.4,0.4l-0.3,0l0.3,0.2L23.2,48l0.1,0.2c0-0.1,0.1-0.1,0.2-0.1
						c0.1,0.3-0.2,0.7-0.4,0.7l0.3,0.6c-0.1,0-0.2-0.1-0.2-0.2c0.3,0.3-0.3,0.1,0,0.4c0.1,0,0.2,0,0.2,0c-0.2,0.2-0.2,0.5-0.1,0.8
						l-0.2,0c-0.1,0.5,0.1,1,0.1,1.5c0.1-0.2,0.5-0.1,0.5,0l-0.3,0.1c0.2,0.1,0.1-0.2,0.4,0c0,0.2-0.4,0.1-0.5,0l0.1,0.2
						c-0.1,0-0.1,0-0.3-0.1c0.2,0.1-0.3,0.4,0,0.6l-0.1,0c0,0.5,0.1,0.8,0.1,1.2c0.3,0,0.2,0.2,0.4,0.3c-0.1,0.3-0.3,0.7-0.3,1
						c0.1,0.3,0.2,0.1,0.4,0.2c-0.3,0-0.2,0.4-0.4,0.2c0,0.5,0.1,0.6,0.3,1.2c0.1-0.1,0.2-0.1,0.2-0.1c0,0.1-0.1,0.2-0.2,0.2l0,0
						c0.4,0.6-0.7,1.5-0.2,2l0,0l0.3,0.5c0,0.2-0.2-0.1-0.4,0c0.4,0.6-0.1,0.9,0.2,1.4c-0.8,0.4,0.1,1.3-0.4,1.8l0.2,0
						c0.2,0.1-0.1,0.2-0.1,0.2c0.1,0,0.2-0.1,0.3-0.1c0.2,1.1-0.3,2.2-0.4,3.4c0,0.4,0.9,0.2,0.5,0.7L23,66.7c0.4,0.8,0,1.7,0.3,2.5
						c-0.1,0-0.2,0-0.2-0.1c-0.2,0.2,0,0.6,0.2,0.6c0,0.1-0.2,0-0.3,0.1c-0.1,0.2,0.3,0.4,0.1,0.5c0,0-0.1,0-0.1-0.1
						c0.1,0.1,0,0.5,0.2,0.4c-0.1,0.3,0.1,0.6,0,0.8c0.3,0.2-0.1,0.5,0.3,0.6c-0.5,0-0.4,0.5-0.2,0.7c-0.1-0.1-0.1,0.2-0.3,0.1
						c0,0.2,0.1,0.4,0.3,0.4c-0.5,0.4,0.4,0.8-0.3,1c0.2,0.6,0.4,1.2,0.5,1.8c-0.5,0,0-0.6-0.5-0.6c0.2,0.6,0.6,0.9,0.5,1.4
						c-0.1,0.1-0.2-0.1-0.3-0.1c0.2,0.6,0,1.1,0.2,1.6c0,0-0.1-0.1-0.1-0.1c0,0.1-0.1,0.2,0.1,0.2l-0.1-0.1c0.3-0.2,0.6,0.4,0.8,0.4
						c-0.6-0.2-0.1,0.5-0.9,0.2c0,0.1,0.1,0.1,0.3,0.1c0,0.1-0.1,0.1-0.3,0c0.1,0.3,0.3,0.2,0.3,0.5c-0.1,0-0.1-0.1-0.3-0.1
						c0.2,0.2,0.4,0.3,0.3,0.6c-0.1,0-0.1,0-0.1-0.1c0,0.5,0.5,0.8,0.3,1.3c-0.4-0.1-0.1,0.2-0.5,0.2l0.1,0.3l0.2-0.1
						c0,0.2,0.3,0.4,0.1,0.6l-0.2-0.2l0.1,0.4l0.1-0.2c0.2,0.2,0.5,0,0.4,0.3c0-0.1,0,0.2-0.2,0.4c0,0,0,0,0,0
						c0.1,0.1,0.2,0.2,0.2,0.4c-0.1,0-0.4,0-0.5,0c0.3,0.1,0.1,0.6,0.4,0.7c-0.1,0-0.3-0.1-0.3,0l0.3,0.1c-0.1,0.1-0.1,0.1-0.3,0.1
						c0,0.3,0.5-0.1,0.3,0.3c0,0-0.1,0-0.1-0.1c-0.1,0.4,0.2,0.8,0,1.1c-0.4,0.1-0.1-0.3-0.4-0.2c0.1,0.5,0.5,1.1,0.4,1.6l0-0.1
						c0.5,0.1-0.3,0.4,0,0.6c0-0.1-0.3-0.1-0.2-0.1c-0.1,0.3,0.1,0.7,0.3,1.2l-0.1-0.1c-0.1,0.2-0.1,0.5-0.1,0.8
						c0.1,0.1,0.1,0.2,0.3,0.1c-0.8,0.7,0.4,1.3-0.2,1.9c0-0.1-0.1-0.2-0.1-0.1l0.1,0.5c0.2,0,0.1-0.1,0.3-0.2
						c0.1,0.1,0.2,0.2,0.2,0.3c-0.2-0.2-0.4,0-0.5,0.1c0.1,0,0.1,0,0.2,0c-0.4,0.3,0.5,0,0.2,0.4l-0.1,0c0.1,0.1,0.2,0.3,0.2,0.4
						c-0.3,0.1-0.1-0.1-0.3-0.2c0,0.2,0.5,0.4,0.2,0.6c-0.1-0.1-0.1-0.2-0.1-0.3c-0.3,0.2-0.2,0.2-0.3,0.4l0,0l-0.1,0.3l0.1-0.1
						c0.7,0.3,0.1,0.5,0.6,0.9c-0.4-0.3-0.2-0.1-0.6-0.1c-0.1,0.1-0.2,0.2-0.3,0.2c0.2,0.2-0.2,0.3,0.2,0.5c-0.1,0,0,0.2-0.3,0.1
						c0.1,0.2,0.2-0.1,0.3,0c0.3,0.3-0.4,0.8,0.1,1.2c0.2,0.4,0.5,0.5,0.7,0.9c-0.2,0.1-0.4-0.1-0.4-0.1c-0.1,0.2-0.1,0.4,0,0.6
						c-0.1,0-0.2,0-0.3,0.1c0,0.2,0.4,0.1,0.2,0.3c-0.1,0-0.3-0.1-0.4-0.2c0.1,0.2,0.3,0.4,0.4,0.6c-0.2,0.1-0.3-0.1-0.4-0.2
						c0.1,0.2,0.2,0.6,0.4,0.6l0.1-0.1c0,0.1-0.2,0-0.3,0c-0.2-0.2,0.1-0.3,0.2-0.3l0.1,0.1c0.6-0.1-0.1-0.5-0.1-0.8l0.4,0.1
						l-0.3-0.3c0.1-0.1,0.3-0.1,0.4,0c0.2-0.2-0.1-0.2,0.1-0.3c0,0,0.1,0,0.1,0l-0.1-0.2c0.1,0,0.3,0,0.2,0.1c0.2-0.3-0.3-0.6,0-0.7
						l0,0c-0.1-0.5-0.3,0-0.7-0.4L25,96l-0.3,0c0,0,0-0.1,0.2-0.1c-0.2-0.2-0.1,0-0.3-0.1c0.3-0.2-0.1-0.7,0.4-0.7
						c-0.2-0.1-0.2,0.2-0.3,0c0.5-0.1-0.1-0.3,0.2-0.5c0.3,0.1,0.1,0.3,0.4,0.1c-0.5-0.1,0.1-0.4,0-0.6c-0.4,0-0.2-0.4-0.3-0.7
						c0.1,0,0.2-0.6,0.3-0.9l0.1,0c-0.4-0.1-0.3-0.3-0.4-0.6c0.2,0,0.3,0,0.4,0.2l0-0.2c-0.1,0-0.2-0.1-0.2-0.2l0.3,0.1
						c0-0.3-0.3-0.5-0.1-0.9c-0.3,0-0.7,0.3-0.9-0.1c0.1,0,0.4,0,0.4,0.1c0,0-0.1-0.1-0.1-0.2l0.2,0.1c0.1-0.2-0.2-0.1-0.2-0.2
						c0.2,0,0.1-0.1,0.3-0.1c0,0-0.1,0.1,0,0.2c0-0.1,0.2-0.3,0.3-0.4c-0.1,0-0.3,0-0.3-0.1c0-0.3,0.2-0.1,0.3-0.2
						c-0.1-0.1,0-0.2-0.3-0.2c0-0.1,0.1-0.1,0.2-0.1c-0.1-0.1,0-0.6-0.4-0.5l0,0c0,0,0,0,0,0c0,0,0,0,0,0v0c-0.3-0.5,0.2-0.9,0-1.4
						l0.1,0c-0.1-0.3-0.1-0.6-0.3-0.8c0-0.1,0.2-0.2,0.3-0.2c-0.1-0.2-0.2-0.2,0-0.5c0.2,0.2,0.2-0.1,0.1,0.2c0.1-0.3,0.2-0.3,0-0.6
						c0.3,0.1,0.3-0.2,0.2-0.3l-0.2,0.2c0-0.1,0-0.3,0-0.4l0.3,0.1c0.4-0.5-0.7-1,0-1.4c-0.2-0.1-0.2,0.3-0.4,0.2
						c0-0.3,0.5-0.5,0.5-0.6c0.2-0.3-0.5-0.3-0.4-0.7c-0.1,0-0.4,0.1-0.5-0.2c0-0.3,0.5-0.3,0.6-0.2c0,0.1,0,0.1-0.1,0.1
						c0,0.1,0.1,0.2,0.2,0.1l-0.1,0c0.1-0.1,0.1-0.5,0.3-0.4c-0.1-0.2-0.2-0.1-0.3,0.1c0.2-0.3,0-0.5,0.1-0.8
						c-0.1,0.1-0.2,0.1-0.2,0c0.1-0.5-0.2-0.2-0.3-0.5c0.2-0.2,0.4,0.1,0.3-0.3c0.1-0.2,0.3,0,0.4,0c-0.2-0.3,0.2-0.6,0.2-0.7
						l0.1,0.2c-0.1-0.1-0.1-0.2-0.1-0.3l-0.2,0.1c0-0.1,0-0.2,0.1-0.2c-0.2-0.1-0.4,0.1-0.6-0.1c0.1-0.1-0.1-0.4,0.2-0.4
						c-0.1,0.4,0.3,0,0.4,0.3c0-0.1,0-0.1,0-0.2c0,0,0.1,0,0.1,0c0.3-0.4-0.4-0.2-0.3-0.6c0.2,0,0.3-0.1,0.3-0.2
						c0,0.2-0.3,0.1-0.4-0.1c0.1-0.2-0.1-0.3-0.1-0.4l-0.1,0.1c-0.2-0.1-0.2-0.2-0.2-0.3c0.1,0,0.1,0.2,0.2,0.1
						c-0.3-0.2,0.3-0.4,0.1-0.7c0.1-0.1,0.3,0,0.4-0.1c-0.2-0.3,0.2-0.3,0.1-0.6c-0.2,0.1-0.2,0.1-0.4-0.1l0.2,0.5l-0.3-0.3
						c0,0.2,0.1,0.3,0.1,0.4c-0.2-0.2-0.1-0.1-0.3-0.1c0.4-0.2-0.2-0.4,0-0.7l0.6,0c0.3-0.4-0.3-0.7-0.2-1.1l-0.1,0.2
						c-0.2-0.1,0-0.3-0.1-0.5c0.2,0,0.3-0.1,0.4-0.2c-0.1,0,0-0.4-0.4-0.4l0.3-0.2c0.1-0.4-0.6-0.4-0.5-0.8c0.2,0.1,0.4-0.1,0.5,0.2
						c0-0.1,0-0.2-0.1-0.2c0.1-0.1-0.3-0.3-0.1-0.5c-0.1-0.1-0.3-0.1-0.3-0.2c0,0,0.1,0,0.1,0c-0.1,0-0.1-0.2-0.4-0.1
						c0.6-0.4,0-1.1,0.5-1.4c-0.1-0.3-0.1-0.6-0.1-0.9c0.1,0,0.1,0,0.1,0c0.2-0.3-0.6-0.2-0.4-0.6c0.3-0.2,0.2,0.2,0.3,0.1
						c0.6-0.1-0.1-0.5,0.3-0.7l0,0.1c0.2-0.2-0.2-0.5-0.2-0.8c0,0,0.1,0,0.1,0c-0.3-0.2-0.4-0.7-0.5-1c0.3,0.1,0.1,0.1,0.4,0.1
						c0-0.1-0.4,0-0.5-0.2c0.1-0.1,0.3-0.3,0.5-0.3l0,0.3c0.4-0.1,0-0.3,0-0.5l0.2,0c-0.1-0.4-0.4-0.4-0.4-0.9l-0.1,0
						c-0.4-0.2,0.2-0.2-0.1-0.4l0.4-0.1c-0.1-0.2-0.4-0.6-0.5-0.8c0.3,0.2,0.4,0.5,0.6,0.7c0-0.2,0-0.5-0.2-0.6
						c0,0.1,0.1,0.1,0.1,0.2c-0.3-0.2-0.5-0.4-0.5-0.8c0.8,0.1,0.2-0.8,0.8-1c-0.3-0.6,0.1-1.1,0.1-1.7c-0.6,0.2,0-0.2-0.6-0.1
						c0-0.2,0-0.2,0-0.2l0.4-0.5c0.2-0.1,0.1,0.1,0.3,0.1c0-0.3,0.3-0.1,0.4-0.4c-0.2,0-0.3-0.1-0.2-0.3l-0.3,0.3
						c-0.3-0.5,0.5-0.4,0.2-0.9l0.2,0.1c-0.1-0.2,0-0.9-0.5-1.1c0.1,0,0.2-0.1,0.3,0c0.1-0.6-0.5-1.3-0.2-1.7l0.1,0
						c0-0.1-0.3-0.2-0.1-0.3c0.1,0,0.1,0,0.2,0c-0.1-0.1-0.3-0.3-0.2-0.4l0.2,0.1c0.2-0.6-0.4-0.9-0.5-1.3c0.4,0,0.6-0.4,0.7-0.7
						l0.1,0c0.1-0.6-0.4-1.1-0.5-1.7c0.5-0.4,0.2-1.3,0.5-1.9c-0.1,0.1-0.3,0-0.4-0.1c0.1-0.1-0.3-0.4,0.1-0.4l0,0
						c0.4-0.1,0.3-0.4,0.3-0.6l-0.5,0c0.8-0.6-0.3-1.5,0.4-1.9c-0.1-0.1-0.1-0.3-0.3-0.5l0.3,0c0.1-0.4,0.1-0.6,0-1.1l0.2,0.1
						c0-0.3-0.8-0.3-0.8-0.6l0.4-0.1c0-0.5,0.4-1,0-1.4c0.1,0,0.2,0,0.2,0.1c0-0.2,0.3-0.9-0.3-0.8c0.4,0,0-0.5-0.1-0.8l0.3,0
						c-0.4-0.2-0.5-0.2-0.6-0.5c0-0.1,0.2-0.1,0.2,0c0.1-0.2-0.3-0.2-0.1-0.5l0.2,0.1c0-0.2-0.1-0.2-0.3-0.4
						c-0.1-0.2,0.1-0.5,0.3-0.5c-0.2,0-0.4-0.2-0.3-0.3c0.1,0,0.2,0,0.2,0.1c0.2-0.4-0.3-0.6-0.1-0.9c0.1,0,0.1,0,0.2,0
						c0,0.3,0,0.6,0,0.6c0.3,0,0.3-0.3,0.7-0.1c-0.2-0.2-0.6-0.6-0.5-0.8c0,0,0,0,0.1,0l0,0c0-0.1,0-0.1,0-0.2
						c0-0.1,0.1-0.1,0.1-0.2c0.2,0,0.1-0.3,0.1-0.4c-0.3,0-0.2-0.2-0.5,0c0,0,0,0,0,0.1c0,0,0,0,0,0.1c0,0,0,0,0,0
						c0,0.1,0,0.2,0,0.3c-0.1-0.1-0.3-0.2-0.1-0.4c-0.2-0.1-0.4-0.1-0.5-0.2c0.4-0.2,0.6-0.5,0.8-0.6c-0.2-0.4-0.1-1-0.6-1.2
						c-0.1-0.1,0.2-0.1,0.2-0.2c0.1,0.1,0,0.1,0.1,0.2c-0.1-0.2-0.1-0.7-0.4-0.7c0.2-0.3,0.3,0.2,0.3-0.2l0.1,0.1
						c0.6-0.8-0.9-1.3-0.2-2.1c0,0.1-0.1,0.1-0.1,0.1c0.3-1-0.3-2,0.2-3c0.1-0.3-0.1-0.3-0.3-0.5l0.3-0.1l-0.3-0.3
						c-0.3-0.4,0.7-0.7,0.3-1.2l-0.2,0.1c0-0.2-0.1-0.6,0.1-0.6c0,0-0.2-0.1-0.1-0.1l0.2,0l-0.3-0.5c0.1-0.4,0.6,0.1,0.7-0.5
						c-0.1-0.2-0.5-0.5-0.6-0.5c0,0.1-0.1,0.2-0.3,0.2l-0.1-0.2c-0.5,0-0.9-0.2-1.3,0.3l0.3,0.3l-0.2,0.1l0-0.3
						c-0.2,0.1,0,0.2,0.1,0.3c-0.1,0-0.2,0.1-0.2,0.1l0.4,0.3c-0.2,0-0.4-0.1-0.5,0.1c0.2,0.1,0.4-0.1,0.5,0.1
						c-0.2,0.1-0.4,0.1-0.2,0.3c-0.1,0-0.2,0-0.2-0.1c0.1,0.2,0.1,0.4,0.3,0.5c-0.3,0.2,0.1,0.5-0.4,0.5c0.1,0,0.3,0.3,0.4,0.4
						c-0.5-0.3,0,0.5-0.6,0.5c0.5,0.2,0.2,0.7,0.5,1c0,0-0.1-0.1-0.1-0.1c0,0.2-0.2,0.2-0.3,0.4c0.4,0,0.5,0.3,0.7,0.5
						c-0.4,0.2-0.5-0.1-0.8-0.1c0.3,0,0.3,0.4,0.6,0.3c-0.2,0.2-0.1,0.2-0.4,0.2c0.5,0,0.1,0.2,0.4,0.3c-0.2,0.3-0.5,0.1-0.3,0.3
						C23.1,33,22.9,32.8,22.9,32.8z M23.8,39.4C23.7,39.4,23.7,39.4,23.8,39.4c0-0.1,0-0.1,0-0.1C23.7,39.3,23.7,39.3,23.8,39.4z
						 M23.8,39.9c0-0.1,0-0.2,0-0.2c0.1,0,0.2,0,0.2,0.1C23.9,39.7,23.8,39.8,23.8,39.9z M25.7,38.7c0,0.1,0,0.1-0.1,0.1
						c0,0,0-0.1,0-0.2c0,0,0,0,0,0C25.6,38.7,25.7,38.7,25.7,38.7z"/>
					<path class="st3" d="M25.3,38.6C25.3,38.6,25.3,38.6,25.3,38.6C25.3,38.6,25.3,38.6,25.3,38.6C25.3,38.6,25.3,38.6,25.3,38.6
						C25.3,38.6,25.3,38.6,25.3,38.6z"/>
					<path class="st3" d="M24.9,89L24.9,89C24.9,88.9,24.9,89,24.9,89C24.9,89,24.9,89,24.9,89z"/>
					<polygon class="st3" points="23.2,47.6 23.3,47.6 23.2,47.5 					"/>
					<path class="st3" d="M24,92C23.9,92,23.9,92,24,92C23.9,92,23.9,92,24,92z"/>
					<path class="st3" d="M23.9,93.3l-0.1,0.2C23.8,93.4,23.9,93.4,23.9,93.3z"/>
					<path class="st3" d="M23.8,94.3c0,0,0.1,0,0.1,0c0,0,0,0,0,0L23.8,94.3z"/>
					<path class="st3" d="M23.4,78.2C23.4,78.2,23.4,78.2,23.4,78.2C23.4,78.1,23.4,78.1,23.4,78.2z"/>
					<path class="st3" d="M24.1,83c-0.1-0.1-0.1-0.1-0.1-0.2C23.9,82.9,23.9,83,24.1,83z"/>
					<path class="st3" d="M23.1,72.8C23.1,72.8,23.1,72.8,23.1,72.8C23.1,72.8,23.1,72.8,23.1,72.8L23.1,72.8z"/>
					<path class="st3" d="M23.9,82.6c-0.1,0.1,0,0.2,0,0.2C24,82.8,24,82.7,23.9,82.6z"/>
					<path class="st3" d="M23.6,98.8L23.6,98.8C23.6,98.8,23.6,98.8,23.6,98.8L23.6,98.8z"/>
					<path class="st3" d="M23.7,98.8L23.7,98.8C23.7,98.8,23.7,98.8,23.7,98.8z"/>
					<path class="st3" d="M23.8,99l-0.1-0.1C23.7,98.9,23.7,99,23.8,99z"/>
					<path class="st3" d="M23.8,97.4l-0.1,0C23.7,97.4,23.7,97.4,23.8,97.4z"/>
					<path class="st3" d="M23.7,97c0,0.1-0.2,0.2-0.2,0.4l0.1,0C23.5,97.3,23.9,97.1,23.7,97z"/>
					<path class="st3" d="M25,95.3l-0.1,0.3c0.1-0.1,0.3-0.1,0.3,0C25.5,95.2,24.9,95.7,25,95.3z"/>
					<path class="st3" d="M25.1,94.2c0.1,0.2,0.2,0,0.2,0C25.3,94.1,25.2,94.1,25.1,94.2z"/>
					<path class="st3" d="M25.1,86.6l0.3,0C25.4,86.4,25.3,86.6,25.1,86.6z"/>
					<polygon class="st3" points="23.8,85.1 23.7,85.2 23.9,85.3 					"/>
					<polygon class="st3" points="25.6,84.2 25.7,84.3 25.6,84 					"/>
					<path class="st3" d="M25.6,71.3l-0.3,0C25.3,71.5,25.6,71.5,25.6,71.3z"/>
					<path class="st3" d="M25.2,65.8c0.2-0.1,0.3-0.2,0.1-0.3C25.3,65.6,25.2,65.7,25.2,65.8z"/>
					<polygon class="st3" points="25.7,49.1 25.8,49.2 25.8,49 					"/>
				</g>
			</g>
		</g>
		<g>
			<g>
				<g>
					<path class="st3" d="M11.8,100c0.1,0,0.3,0,0.2-0.1l-0.3-0.1L11.8,100z"/>
					<path class="st3" d="M12.4,99.3c-0.2-0.1-0.4-0.3-0.7-0.2c0.3,0.1,0.2,0.2,0.6,0.3c0,0.1-0.1,0.2-0.2,0.2
						c0.1,0-0.1,0.2,0.1,0.2c0.3-0.1,0.3-0.3,0.1-0.5C12.3,99.2,12.4,99.3,12.4,99.3z"/>
					<path class="st3" d="M13,88.9L13,88.9C12.9,88.9,13,88.9,13,88.9z"/>
					<path class="st3" d="M13.1,82.4C13.2,82.5,13.2,82.5,13.1,82.4C13.2,82.4,13.2,82.4,13.1,82.4z"/>
					<path class="st3" d="M13.5,81.3C13.5,81.3,13.5,81.4,13.5,81.3C13.5,81.4,13.5,81.3,13.5,81.3z"/>
					<path class="st3" d="M13,88.9l0.1-0.2C13,88.7,13,88.8,13,88.9z"/>
					<path class="st3" d="M11.6,97.8C11.7,97.9,11.7,97.9,11.6,97.8C11.7,97.9,11.7,97.9,11.6,97.8C11.7,97.9,11.7,97.9,11.6,97.8z"
						/>
					<path class="st3" d="M13.2,91.7L13.2,91.7c0,0.1,0.1,0.1,0.1,0.1L13.2,91.7z"/>
					<path class="st3" d="M13.3,93.9c0,0-0.3-0.1-0.4-0.1c0.1,0,0.2,0.1,0.2,0.1C13.1,93.9,13.2,93.9,13.3,93.9z"/>
					<path class="st3" d="M12.8,97.4L12.8,97.4C12.8,97.4,12.8,97.4,12.8,97.4z"/>
					<path class="st3" d="M13.3,90.2c0,0,0.1,0,0.1,0C13.4,90.1,13.3,90.1,13.3,90.2z"/>
					<path class="st3" d="M11.2,29.1C11.2,29.1,11.2,29.1,11.2,29.1C11.2,29.1,11.2,29.1,11.2,29.1z"/>
					<path class="st3" d="M12.6,26.6L12.6,26.6c0.1,0,0.1,0,0.2,0L12.6,26.6z"/>
					<path class="st3" d="M13.9,79.3C13.9,79.3,13.9,79.3,13.9,79.3C13.9,79.4,13.9,79.3,13.9,79.3z"/>
					<path class="st3" d="M13.7,60.8c-0.3,0.2-0.3-0.3-0.6,0C13.2,60.7,13.5,61.1,13.7,60.8z"/>
					<path class="st3" d="M11.7,97.8C11.7,97.8,11.7,97.7,11.7,97.8C11.7,97.7,11.7,97.8,11.7,97.8z"/>
					<path class="st3" d="M13.1,60.8C13.1,60.8,13.1,60.8,13.1,60.8L13.1,60.8C13,60.8,13.1,60.8,13.1,60.8z"/>
					<path class="st3" d="M13.7,74.7c0,0-0.1,0-0.1,0C13.6,74.7,13.6,74.7,13.7,74.7z"/>
					<path class="st3" d="M13.3,78.1L13.3,78.1C13.3,78.1,13.3,78.1,13.3,78.1z"/>
					<path class="st3" d="M13.3,72.9c0,0,0.1-0.1,0-0.1c0,0,0,0,0,0C13.3,72.8,13.3,72.8,13.3,72.9z"/>
					<path class="st3" d="M13.3,71C13.3,71,13.3,71,13.3,71C13.3,71,13.3,71.1,13.3,71L13.3,71z"/>
					<path class="st3" d="M11.3,34.8c0.1,0,0.2-0.1,0.3-0.1C11.4,34.7,11.3,34.5,11.3,34.8z"/>
					<path class="st3" d="M11.8,97.8c-0.1,0-0.1,0-0.1-0.1c0,0,0,0,0,0.1C11.7,97.9,11.8,97.9,11.8,97.8z"/>
					<path class="st3" d="M11.1,72.8l0-0.3C11.1,72.6,11.1,72.7,11.1,72.8z"/>
					<path class="st3" d="M11.4,48.2L11.4,48.2C11.3,48.2,11.3,48.2,11.4,48.2z"/>
					<path class="st3" d="M11.1,71.6c0.1-0.1,0.2-0.1,0.2-0.2c0,0,0,0-0.1,0L11.1,71.6z"/>
					<path class="st3" d="M11.6,34.7C11.6,34.7,11.6,34.7,11.6,34.7C11.6,34.7,11.6,34.7,11.6,34.7z"/>
					<path class="st3" d="M10.9,32.8c0,0.3,0.4,0.1,0.6,0.2c0.1,0.3-0.3,0.2-0.5,0.3c0.1,0.2,0.4,0.4,0.4,0.5c-0.1,0-0.1,0-0.2,0
						c0.3,0.2,0,0.7,0.4,0.9c0,0-0.1,0-0.1,0c0.2,0,0.4,0,0.5,0c0,0.1,0.2,0.2,0,0.3c0-0.1-0.1-0.1-0.2-0.1L12,35
						c-0.3,0.1-0.1-0.2-0.4-0.2c0.1,0.3,0.4,0.6,0.3,0.8c-0.3,0-0.1-0.5-0.4-0.2l0.1-0.3c-0.5,0.2,0-0.2-0.5,0
						c-0.1,0.4,0.2,0.5,0.1,0.9c0.2,0.1,0.3,0,0.5,0.1c0.3,0.6-0.9,0.5-0.4,0.9c0.2,0.1,0.7,0.2,0.4,0.5l-0.4-0.1
						c0,0.4,0.6,0.2,0.3,0.6c-0.2-0.1-0.1-0.3-0.2-0.2c-0.3,0.3,0.2,0.2,0.2,0.4l-0.3,0c0.1,0.4,0.3,0.9,0.4,1.3
						c-0.1,0-0.2-0.1-0.3,0c0.2,0.6,0,1.2-0.2,1.8l0.3,0.2c0,0-0.1,0.1-0.2,0c-0.1,0.2,0.2,0,0.3,0.1c0,0.1-0.2,0.2-0.3,0.1
						c0.2,0.4,0.5,1.1,0.2,1.5l-0.1-0.1c-0.1,0.3,0.6,0.4,0.3,0.7l-0.1-0.1c-0.1,0.7,0.1,1.4-0.3,2c0.4,0.1-0.2,0.7,0.4,0.7
						c-0.3,0.4-0.4,0.3-0.6,0.8c0,0.1,0.4,0.2,0.4,0.4l-0.3,0l0.3,0.2L11.2,48l0.1,0.2c0-0.1,0.1-0.1,0.2-0.1
						c0.1,0.3-0.2,0.7-0.4,0.7l0.3,0.6c-0.1,0-0.2-0.1-0.2-0.2c0.3,0.3-0.3,0.1,0,0.4c0.1,0,0.2,0,0.2,0c-0.2,0.2-0.2,0.5-0.1,0.8
						l-0.2,0c-0.1,0.5,0.1,1,0.1,1.5c0.1-0.2,0.5-0.1,0.5,0l-0.3,0.1c0.2,0.1,0.1-0.2,0.4,0c0,0.2-0.4,0.1-0.5,0l0.1,0.2
						c-0.1,0-0.1,0-0.3-0.1c0.2,0.1-0.3,0.4,0,0.6l-0.1,0c0,0.5,0.1,0.8,0.1,1.2c0.3,0,0.2,0.2,0.4,0.3c-0.1,0.3-0.3,0.7-0.3,1
						c0.1,0.3,0.2,0.1,0.4,0.2c-0.3,0-0.2,0.4-0.4,0.2c0,0.5,0.1,0.6,0.3,1.2c0.1-0.1,0.2-0.1,0.2-0.1c0,0.1-0.1,0.2-0.2,0.2l0,0
						c0.4,0.6-0.7,1.5-0.2,2l0,0l0.3,0.5c0,0.2-0.2-0.1-0.4,0c0.4,0.6-0.1,0.9,0.2,1.4c-0.8,0.4,0.1,1.3-0.4,1.8l0.2,0
						c0.2,0.1-0.1,0.2-0.1,0.2c0.1,0,0.2-0.1,0.3-0.1c0.2,1.1-0.3,2.2-0.4,3.4c0,0.4,0.9,0.2,0.5,0.7L11,66.7c0.4,0.8,0,1.7,0.3,2.5
						c-0.1,0-0.2,0-0.2-0.1c-0.2,0.2,0,0.6,0.2,0.6c0,0.1-0.2,0-0.3,0.1c-0.1,0.2,0.3,0.4,0.1,0.5c0,0-0.1,0-0.1-0.1
						c0.1,0.1,0,0.5,0.2,0.4c-0.1,0.3,0.1,0.6,0,0.8c0.3,0.2-0.1,0.5,0.3,0.6c-0.5,0-0.4,0.5-0.2,0.7c-0.1-0.1-0.1,0.2-0.3,0.1
						c0,0.2,0.1,0.4,0.3,0.4c-0.5,0.4,0.4,0.8-0.3,1c0.2,0.6,0.4,1.2,0.5,1.8c-0.5,0,0-0.6-0.5-0.6c0.2,0.6,0.6,0.9,0.5,1.4
						c-0.1,0.1-0.2-0.1-0.3-0.1c0.2,0.6,0,1.1,0.2,1.6c0,0-0.1-0.1-0.1-0.1c0,0.1-0.1,0.2,0.1,0.2l-0.1-0.1c0.3-0.2,0.6,0.4,0.8,0.4
						c-0.6-0.2-0.1,0.5-0.9,0.2c0,0.1,0.1,0.1,0.3,0.1c0,0.1-0.1,0.1-0.3,0c0.1,0.3,0.3,0.2,0.3,0.5c-0.1,0-0.1-0.1-0.3-0.1
						c0.2,0.2,0.4,0.3,0.3,0.6c-0.1,0-0.1,0-0.1-0.1c0,0.5,0.5,0.8,0.3,1.3c-0.4-0.1-0.1,0.2-0.5,0.2l0.1,0.3l0.2-0.1
						c0,0.2,0.3,0.4,0.1,0.6l-0.2-0.2l0.1,0.4l0.1-0.2c0.2,0.2,0.5,0,0.4,0.3c0-0.1,0,0.2-0.2,0.4c0,0,0,0,0,0
						c0.1,0.1,0.2,0.2,0.2,0.4c-0.1,0-0.4,0-0.5,0c0.3,0.1,0.1,0.6,0.4,0.7c-0.1,0-0.3-0.1-0.3,0l0.3,0.1c-0.1,0.1-0.1,0.1-0.3,0.1
						c0,0.3,0.5-0.1,0.3,0.3c0,0-0.1,0-0.1-0.1c-0.1,0.4,0.2,0.8,0,1.1c-0.4,0.1-0.1-0.3-0.4-0.2c0.1,0.5,0.5,1.1,0.4,1.6l0-0.1
						c0.5,0.1-0.3,0.4,0,0.6c0-0.1-0.3-0.1-0.2-0.1c-0.1,0.3,0.1,0.7,0.3,1.2l-0.1-0.1c-0.1,0.2-0.1,0.5-0.1,0.8
						c0.1,0.1,0.1,0.2,0.3,0.1c-0.8,0.7,0.4,1.3-0.2,1.9c0-0.1-0.1-0.2-0.1-0.1l0.1,0.5c0.2,0,0.1-0.1,0.3-0.2
						c0.1,0.1,0.2,0.2,0.2,0.3c-0.2-0.2-0.4,0-0.5,0.1c0.1,0,0.1,0,0.2,0c-0.4,0.3,0.5,0,0.2,0.4l-0.1,0c0.1,0.1,0.2,0.3,0.2,0.4
						c-0.3,0.1-0.1-0.1-0.3-0.2c0,0.2,0.5,0.4,0.2,0.6c-0.1-0.1-0.1-0.2-0.1-0.3c-0.3,0.2-0.2,0.2-0.3,0.4l0,0l-0.1,0.3l0.1-0.1
						c0.7,0.3,0.1,0.5,0.6,0.9c-0.4-0.3-0.2-0.1-0.6-0.1c-0.1,0.1-0.2,0.2-0.3,0.2c0.2,0.2-0.2,0.3,0.2,0.5c-0.1,0,0,0.2-0.3,0.1
						c0.1,0.2,0.2-0.1,0.3,0c0.3,0.3-0.4,0.8,0.1,1.2c0.2,0.4,0.5,0.5,0.7,0.9c-0.2,0.1-0.4-0.1-0.4-0.1c-0.1,0.2-0.1,0.4,0,0.6
						c-0.1,0-0.2,0-0.3,0.1c0,0.2,0.4,0.1,0.2,0.3c-0.1,0-0.3-0.1-0.4-0.2c0.1,0.2,0.3,0.4,0.4,0.6c-0.2,0.1-0.3-0.1-0.4-0.2
						c0.1,0.2,0.2,0.6,0.4,0.6l0.1-0.1c0,0.1-0.2,0-0.3,0c-0.2-0.2,0.1-0.3,0.2-0.3l0.1,0.1c0.6-0.1-0.1-0.5-0.1-0.8l0.4,0.1
						l-0.3-0.3c0.1-0.1,0.3-0.1,0.4,0c0.2-0.2-0.1-0.2,0.1-0.3c0,0,0.1,0,0.1,0l-0.1-0.2c0.1,0,0.3,0,0.2,0.1c0.2-0.3-0.3-0.6,0-0.7
						l0,0c-0.1-0.5-0.3,0-0.7-0.4L13,96l-0.3,0c0,0,0-0.1,0.2-0.1c-0.2-0.2-0.1,0-0.3-0.1c0.3-0.2-0.1-0.7,0.4-0.7
						c-0.2-0.1-0.2,0.2-0.3,0c0.5-0.1-0.1-0.3,0.2-0.5c0.3,0.1,0.1,0.3,0.4,0.1c-0.5-0.1,0.1-0.4,0-0.6c-0.4,0-0.2-0.4-0.3-0.7
						c0.1,0,0.2-0.6,0.3-0.9l0.1,0c-0.4-0.1-0.3-0.3-0.4-0.6c0.2,0,0.3,0,0.4,0.2l0-0.2c-0.1,0-0.2-0.1-0.2-0.2l0.3,0.1
						c0-0.3-0.3-0.5-0.1-0.9c-0.3,0-0.7,0.3-0.9-0.1c0.1,0,0.4,0,0.4,0.1c0,0-0.1-0.1-0.1-0.2l0.2,0.1c0.1-0.2-0.2-0.1-0.2-0.2
						c0.2,0,0.1-0.1,0.3-0.1c0,0-0.1,0.1,0,0.2c0-0.1,0.2-0.3,0.3-0.4c-0.1,0-0.3,0-0.3-0.1c0-0.3,0.2-0.1,0.3-0.2
						c-0.1-0.1,0-0.2-0.3-0.2c0-0.1,0.1-0.1,0.2-0.1c-0.1-0.1,0-0.6-0.4-0.5l0,0c0,0,0,0,0,0c0,0,0,0,0,0v0c-0.3-0.5,0.2-0.9,0-1.4
						l0.1,0c-0.1-0.3-0.1-0.6-0.3-0.8c0-0.1,0.2-0.2,0.3-0.2c-0.1-0.2-0.2-0.2,0-0.5c0.2,0.2,0.2-0.1,0.1,0.2c0.1-0.3,0.2-0.3,0-0.6
						c0.3,0.1,0.3-0.2,0.2-0.3l-0.2,0.2c0-0.1,0-0.3,0-0.4l0.3,0.1c0.4-0.5-0.7-1,0-1.4c-0.2-0.1-0.2,0.3-0.4,0.2
						c0-0.3,0.5-0.5,0.5-0.6c0.2-0.3-0.5-0.3-0.4-0.7c-0.1,0-0.4,0.1-0.5-0.2c0-0.3,0.5-0.3,0.6-0.2c0,0.1,0,0.1-0.1,0.1
						c0,0.1,0.1,0.2,0.2,0.1l-0.1,0c0.1-0.1,0.1-0.5,0.3-0.4c-0.1-0.2-0.2-0.1-0.3,0.1c0.2-0.3,0-0.5,0.1-0.8
						c-0.1,0.1-0.2,0.1-0.2,0c0.1-0.5-0.2-0.2-0.3-0.5c0.2-0.2,0.4,0.1,0.3-0.3c0.1-0.2,0.3,0,0.4,0c-0.2-0.3,0.2-0.6,0.2-0.7
						l0.1,0.2c-0.1-0.1-0.1-0.2-0.1-0.3l-0.2,0.1c0-0.1,0-0.2,0.1-0.2c-0.2-0.1-0.4,0.1-0.6-0.1c0.1-0.1-0.1-0.4,0.2-0.4
						c-0.1,0.4,0.3,0,0.4,0.3c0-0.1,0-0.1,0-0.2c0,0,0.1,0,0.1,0c0.3-0.4-0.4-0.2-0.3-0.6c0.2,0,0.3-0.1,0.3-0.2
						c0,0.2-0.3,0.1-0.4-0.1c0.1-0.2-0.1-0.3-0.1-0.4l-0.1,0.1c-0.2-0.1-0.2-0.2-0.2-0.3c0.1,0,0.1,0.2,0.2,0.1
						c-0.3-0.2,0.3-0.4,0.1-0.7c0.1-0.1,0.3,0,0.4-0.1c-0.2-0.3,0.2-0.3,0.1-0.6c-0.2,0.1-0.2,0.1-0.4-0.1l0.2,0.5l-0.3-0.3
						c0,0.2,0.1,0.3,0.1,0.4c-0.2-0.2-0.1-0.1-0.3-0.1c0.4-0.2-0.2-0.4,0-0.7l0.6,0c0.3-0.4-0.3-0.7-0.2-1.1l-0.1,0.2
						c-0.2-0.1,0-0.3-0.1-0.5c0.2,0,0.3-0.1,0.4-0.2c-0.1,0,0-0.4-0.4-0.4l0.3-0.2c0.1-0.4-0.6-0.4-0.5-0.8c0.2,0.1,0.4-0.1,0.5,0.2
						c0-0.1,0-0.2-0.1-0.2c0.1-0.1-0.3-0.3-0.1-0.5c-0.1-0.1-0.3-0.1-0.3-0.2c0,0,0.1,0,0.1,0c-0.1,0-0.1-0.2-0.4-0.1
						c0.6-0.4,0-1.1,0.5-1.4c-0.1-0.3-0.1-0.6-0.1-0.9c0.1,0,0.1,0,0.1,0c0.2-0.3-0.6-0.2-0.4-0.6c0.3-0.2,0.2,0.2,0.3,0.1
						c0.6-0.1-0.1-0.5,0.3-0.7l0,0.1c0.2-0.2-0.2-0.5-0.2-0.8c0,0,0.1,0,0.1,0c-0.3-0.2-0.4-0.7-0.5-1c0.3,0.1,0.1,0.1,0.4,0.1
						c0-0.1-0.4,0-0.5-0.2c0.1-0.1,0.3-0.3,0.5-0.3l0,0.3c0.4-0.1,0-0.3,0-0.5l0.2,0c-0.1-0.4-0.4-0.4-0.4-0.9l-0.1,0
						c-0.4-0.2,0.2-0.2-0.1-0.4l0.4-0.1c-0.1-0.2-0.4-0.6-0.5-0.8c0.3,0.2,0.4,0.5,0.6,0.7c0-0.2,0-0.5-0.2-0.6
						c0,0.1,0.1,0.1,0.1,0.2c-0.3-0.2-0.5-0.4-0.5-0.8c0.8,0.1,0.2-0.8,0.8-1c-0.3-0.6,0.1-1.1,0.1-1.7c-0.6,0.2,0-0.2-0.6-0.1
						c0-0.2,0-0.2,0-0.2l0.4-0.5c0.2-0.1,0.1,0.1,0.3,0.1c0-0.3,0.3-0.1,0.4-0.4c-0.2,0-0.3-0.1-0.2-0.3l-0.3,0.3
						c-0.3-0.5,0.5-0.4,0.2-0.9l0.2,0.1c-0.1-0.2,0-0.9-0.5-1.1c0.1,0,0.2-0.1,0.3,0c0.1-0.6-0.5-1.3-0.2-1.7l0.1,0
						c0-0.1-0.3-0.2-0.1-0.3c0.1,0,0.1,0,0.2,0c-0.1-0.1-0.3-0.3-0.2-0.4l0.2,0.1c0.2-0.6-0.4-0.9-0.5-1.3c0.4,0,0.6-0.4,0.7-0.7
						l0.1,0c0.1-0.6-0.4-1.1-0.5-1.7c0.5-0.4,0.2-1.3,0.5-1.9c-0.1,0.1-0.3,0-0.4-0.1c0.1-0.1-0.3-0.4,0.1-0.4l0,0
						c0.4-0.1,0.3-0.4,0.3-0.6l-0.5,0c0.8-0.6-0.3-1.5,0.4-1.9c-0.1-0.1-0.1-0.3-0.3-0.5l0.3,0c0.1-0.4,0.1-0.6,0-1.1l0.2,0.1
						c0-0.3-0.8-0.3-0.8-0.6l0.4-0.1c0-0.5,0.4-1,0-1.4c0.1,0,0.2,0,0.2,0.1c0-0.2,0.3-0.9-0.3-0.8c0.4,0,0-0.5-0.1-0.8l0.3,0
						c-0.4-0.2-0.5-0.2-0.6-0.5c0-0.1,0.2-0.1,0.2,0c0.1-0.2-0.3-0.2-0.1-0.5l0.2,0.1c0-0.2-0.1-0.2-0.3-0.4
						c-0.1-0.2,0.1-0.5,0.3-0.5c-0.2,0-0.4-0.2-0.3-0.3c0.1,0,0.2,0,0.2,0.1c0.2-0.4-0.3-0.6-0.1-0.9c0.1,0,0.1,0,0.2,0
						c0,0.3,0,0.6,0,0.6c0.3,0,0.3-0.3,0.7-0.1c-0.2-0.2-0.6-0.6-0.5-0.8c0,0,0,0,0.1,0l0,0c0-0.1,0-0.1,0-0.2
						c0-0.1,0.1-0.1,0.1-0.2c0.2,0,0.1-0.3,0.1-0.4c-0.3,0-0.2-0.2-0.5,0c0,0,0,0,0,0.1c0,0,0,0,0,0.1c0,0,0,0,0,0
						c0,0.1,0,0.2,0,0.3c-0.1-0.1-0.3-0.2-0.1-0.4c-0.2-0.1-0.4-0.1-0.5-0.2c0.4-0.2,0.6-0.5,0.8-0.6c-0.2-0.4-0.1-1-0.6-1.2
						c-0.1-0.1,0.2-0.1,0.2-0.2c0.1,0.1,0,0.1,0.1,0.2c-0.1-0.2-0.1-0.7-0.4-0.7c0.2-0.3,0.3,0.2,0.3-0.2l0.1,0.1
						c0.6-0.8-0.9-1.3-0.2-2.1c0,0.1-0.1,0.1-0.1,0.1c0.3-1-0.3-2,0.2-3c0.1-0.3-0.1-0.3-0.3-0.5l0.3-0.1l-0.3-0.3
						c-0.3-0.4,0.7-0.7,0.3-1.2l-0.2,0.1c0-0.2-0.1-0.6,0.1-0.6c0,0-0.2-0.1-0.1-0.1l0.2,0l-0.3-0.5c0.1-0.4,0.6,0.1,0.7-0.5
						c-0.1-0.2-0.5-0.5-0.6-0.5c0,0.1-0.1,0.2-0.3,0.2l-0.1-0.2c-0.5,0-0.9-0.2-1.3,0.3l0.3,0.3l-0.2,0.1l0-0.3
						c-0.2,0.1,0,0.2,0.1,0.3c-0.1,0-0.2,0.1-0.2,0.1l0.4,0.3c-0.2,0-0.4-0.1-0.5,0.1c0.2,0.1,0.4-0.1,0.5,0.1
						c-0.2,0.1-0.4,0.1-0.2,0.3c-0.1,0-0.2,0-0.2-0.1c0.1,0.2,0.1,0.4,0.3,0.5c-0.3,0.2,0.1,0.5-0.4,0.5c0.1,0,0.3,0.3,0.4,0.4
						c-0.5-0.3,0,0.5-0.6,0.5c0.5,0.2,0.2,0.7,0.5,1c0,0-0.1-0.1-0.1-0.1c0,0.2-0.2,0.2-0.3,0.4c0.4,0,0.5,0.3,0.7,0.5
						c-0.4,0.2-0.5-0.1-0.8-0.1c0.3,0,0.3,0.4,0.6,0.3c-0.2,0.2-0.1,0.2-0.4,0.2c0.5,0,0.1,0.2,0.4,0.3c-0.2,0.3-0.5,0.1-0.3,0.3
						C11.1,33,10.9,32.8,10.9,32.8z M11.8,39.4C11.7,39.4,11.7,39.4,11.8,39.4c0-0.1,0-0.1,0-0.1C11.7,39.3,11.7,39.3,11.8,39.4z
						 M11.8,39.9c0-0.1,0-0.2,0-0.2c0.1,0,0.2,0,0.2,0.1C11.9,39.7,11.8,39.8,11.8,39.9z M13.7,38.7c0,0.1,0,0.1-0.1,0.1
						c0,0,0-0.1,0-0.2c0,0,0,0,0,0C13.6,38.7,13.7,38.7,13.7,38.7z"/>
					<path class="st3" d="M13.3,38.6C13.3,38.6,13.3,38.6,13.3,38.6C13.3,38.6,13.3,38.6,13.3,38.6C13.3,38.6,13.3,38.6,13.3,38.6
						C13.3,38.6,13.3,38.6,13.3,38.6z"/>
					<path class="st3" d="M12.9,89L12.9,89C12.9,88.9,12.9,89,12.9,89C12.9,89,12.9,89,12.9,89z"/>
					<polygon class="st3" points="11.2,47.6 11.3,47.6 11.2,47.5 					"/>
					<path class="st3" d="M12,92C11.9,92,11.9,92,12,92C11.9,92,11.9,92,12,92z"/>
					<path class="st3" d="M11.9,93.3l-0.1,0.2C11.8,93.4,11.9,93.4,11.9,93.3z"/>
					<path class="st3" d="M11.8,94.3c0,0,0.1,0,0.1,0c0,0,0,0,0,0L11.8,94.3z"/>
					<path class="st3" d="M11.4,78.2C11.4,78.2,11.4,78.2,11.4,78.2C11.4,78.1,11.4,78.1,11.4,78.2z"/>
					<path class="st3" d="M12.1,83c-0.1-0.1-0.1-0.1-0.1-0.2C11.9,82.9,11.9,83,12.1,83z"/>
					<path class="st3" d="M11.1,72.8C11.1,72.8,11.1,72.8,11.1,72.8C11.1,72.8,11.1,72.8,11.1,72.8L11.1,72.8z"/>
					<path class="st3" d="M11.9,82.6c-0.1,0.1,0,0.2,0,0.2C12,82.8,12,82.7,11.9,82.6z"/>
					<path class="st3" d="M11.6,98.8L11.6,98.8C11.6,98.8,11.6,98.8,11.6,98.8L11.6,98.8z"/>
					<path class="st3" d="M11.7,98.8L11.7,98.8C11.7,98.8,11.7,98.8,11.7,98.8z"/>
					<path class="st3" d="M11.8,99l-0.1-0.1C11.7,98.9,11.7,99,11.8,99z"/>
					<path class="st3" d="M11.8,97.4l-0.1,0C11.7,97.4,11.7,97.4,11.8,97.4z"/>
					<path class="st3" d="M11.7,97c0,0.1-0.2,0.2-0.2,0.4l0.1,0C11.5,97.3,11.9,97.1,11.7,97z"/>
					<path class="st3" d="M13,95.3l-0.1,0.3c0.1-0.1,0.3-0.1,0.3,0C13.5,95.2,12.9,95.7,13,95.3z"/>
					<path class="st3" d="M13.1,94.2c0.1,0.2,0.2,0,0.2,0C13.3,94.1,13.2,94.1,13.1,94.2z"/>
					<path class="st3" d="M13.1,86.6l0.3,0C13.4,86.4,13.3,86.6,13.1,86.6z"/>
					<polygon class="st3" points="11.8,85.1 11.7,85.2 11.9,85.3 					"/>
					<polygon class="st3" points="13.6,84.2 13.7,84.3 13.6,84 					"/>
					<path class="st3" d="M13.6,71.3l-0.3,0C13.3,71.5,13.6,71.5,13.6,71.3z"/>
					<path class="st3" d="M13.2,65.8c0.2-0.1,0.3-0.2,0.1-0.3C13.3,65.6,13.2,65.7,13.2,65.8z"/>
					<polygon class="st3" points="13.7,49.1 13.8,49.2 13.8,49 					"/>
				</g>
			</g>
		</g>
		<g>
			<g>
				<g>
					<path class="st3" d="M5.8,91.4c0.1,0,0.3,0,0.2-0.1l-0.3-0.1L5.8,91.4z"/>
					<path class="st3" d="M6.4,90.7c-0.2-0.1-0.4-0.3-0.7-0.2c0.3,0.1,0.2,0.2,0.6,0.3C6.3,90.9,6.2,91,6,91c0.1,0-0.1,0.2,0.1,0.2
						c0.3-0.1,0.3-0.3,0.1-0.5C6.3,90.7,6.4,90.7,6.4,90.7z"/>
					<path class="st3" d="M7,80.3L7,80.3C6.9,80.3,7,80.3,7,80.3z"/>
					<path class="st3" d="M7.1,73.8C7.2,73.9,7.2,73.9,7.1,73.8C7.2,73.9,7.2,73.8,7.1,73.8z"/>
					<path class="st3" d="M7.5,72.7C7.5,72.8,7.5,72.8,7.5,72.7C7.5,72.8,7.5,72.8,7.5,72.7z"/>
					<path class="st3" d="M7,80.3l0.1-0.2C7,80.1,7,80.2,7,80.3z"/>
					<path class="st3" d="M5.6,89.3C5.7,89.3,5.7,89.3,5.6,89.3C5.7,89.3,5.7,89.3,5.6,89.3C5.7,89.3,5.7,89.3,5.6,89.3z"/>
					<path class="st3" d="M7.2,83.1L7.2,83.1c0,0.1,0.1,0.1,0.1,0.1L7.2,83.1z"/>
					<path class="st3" d="M7.3,85.3c0,0-0.3-0.1-0.4-0.1c0.1,0,0.2,0.1,0.2,0.1C7.1,85.3,7.2,85.3,7.3,85.3z"/>
					<path class="st3" d="M6.8,88.8L6.8,88.8C6.8,88.8,6.8,88.8,6.8,88.8z"/>
					<path class="st3" d="M7.3,81.6c0,0,0.1,0,0.1,0C7.4,81.6,7.3,81.6,7.3,81.6z"/>
					<path class="st3" d="M5.2,20.5C5.2,20.5,5.2,20.5,5.2,20.5C5.2,20.5,5.2,20.5,5.2,20.5z"/>
					<path class="st3" d="M6.6,18L6.6,18c0.1,0,0.1,0,0.2,0L6.6,18z"/>
					<path class="st3" d="M7.9,70.7C7.9,70.7,7.9,70.7,7.9,70.7C7.9,70.8,7.9,70.8,7.9,70.7z"/>
					<path class="st3" d="M7.7,52.2c-0.3,0.2-0.3-0.3-0.6,0C7.2,52.2,7.5,52.5,7.7,52.2z"/>
					<path class="st3" d="M5.7,89.2C5.7,89.2,5.7,89.2,5.7,89.2C5.7,89.2,5.7,89.2,5.7,89.2z"/>
					<path class="st3" d="M7.1,52.2C7.1,52.2,7.1,52.2,7.1,52.2L7.1,52.2C7,52.2,7.1,52.2,7.1,52.2z"/>
					<path class="st3" d="M7.7,66.1c0,0-0.1,0-0.1,0C7.6,66.1,7.6,66.1,7.7,66.1z"/>
					<path class="st3" d="M7.3,69.5L7.3,69.5C7.3,69.5,7.3,69.5,7.3,69.5z"/>
					<path class="st3" d="M7.3,64.3c0,0,0.1-0.1,0-0.1c0,0,0,0,0,0C7.3,64.2,7.3,64.2,7.3,64.3z"/>
					<path class="st3" d="M7.3,62.4C7.3,62.4,7.3,62.4,7.3,62.4C7.3,62.5,7.3,62.5,7.3,62.4L7.3,62.4z"/>
					<path class="st3" d="M5.3,26.2c0.1,0,0.2-0.1,0.3-0.1C5.4,26.2,5.3,25.9,5.3,26.2z"/>
					<path class="st3" d="M5.8,89.3c-0.1,0-0.1,0-0.1-0.1c0,0,0,0,0,0.1C5.7,89.3,5.8,89.3,5.8,89.3z"/>
					<path class="st3" d="M5.1,64.2l0-0.3C5.1,64,5.1,64.1,5.1,64.2z"/>
					<path class="st3" d="M5.4,39.6L5.4,39.6C5.3,39.6,5.3,39.6,5.4,39.6z"/>
					<path class="st3" d="M5.1,63c0.1-0.1,0.2-0.1,0.2-0.2c0,0,0,0-0.1,0L5.1,63z"/>
					<path class="st3" d="M5.6,26.1C5.6,26.1,5.6,26.1,5.6,26.1C5.6,26.1,5.6,26.1,5.6,26.1z"/>
					<path class="st3" d="M4.9,24.2c0,0.3,0.4,0.1,0.6,0.2c0.1,0.3-0.3,0.2-0.5,0.3c0.1,0.2,0.4,0.4,0.4,0.5c-0.1,0-0.1,0-0.2,0
						c0.3,0.2,0,0.7,0.4,0.9c0,0-0.1,0-0.1,0c0.2,0,0.4,0,0.5,0c0,0.1,0.2,0.2,0,0.3c0-0.1-0.1-0.1-0.2-0.1L6,26.4
						c-0.3,0.1-0.1-0.2-0.4-0.2C5.7,26.5,6,26.8,5.9,27c-0.3,0-0.1-0.5-0.4-0.2l0.1-0.3c-0.5,0.2,0-0.2-0.5,0
						c-0.1,0.4,0.2,0.5,0.1,0.9c0.2,0.1,0.3,0,0.5,0.1C6,28,4.8,27.9,5.3,28.3c0.2,0.1,0.7,0.2,0.4,0.5l-0.4-0.1
						c0,0.4,0.6,0.2,0.3,0.6c-0.2-0.1-0.1-0.3-0.2-0.2c-0.3,0.3,0.2,0.2,0.2,0.4l-0.3,0c0.1,0.4,0.3,0.9,0.4,1.3
						c-0.1,0-0.2-0.1-0.3,0c0.2,0.6,0,1.2-0.2,1.8l0.3,0.2c0,0-0.1,0.1-0.2,0c-0.1,0.2,0.2,0,0.3,0.1c0,0.1-0.2,0.2-0.3,0.1
						c0.2,0.4,0.5,1.1,0.2,1.5l-0.1-0.1c-0.1,0.3,0.6,0.4,0.3,0.7l-0.1-0.1c-0.1,0.7,0.1,1.4-0.3,2c0.4,0.1-0.2,0.7,0.4,0.7
						c-0.3,0.4-0.4,0.3-0.6,0.8c0,0.1,0.4,0.2,0.4,0.4l-0.3,0l0.3,0.2l-0.4,0.1l0.1,0.2c0-0.1,0.1-0.1,0.2-0.1
						c0.1,0.3-0.2,0.7-0.4,0.7l0.3,0.6c-0.1,0-0.2-0.1-0.2-0.2c0.3,0.3-0.3,0.1,0,0.4c0.1,0,0.2,0,0.2,0c-0.2,0.2-0.2,0.5-0.1,0.8
						l-0.2,0c-0.1,0.5,0.1,1,0.1,1.5c0.1-0.2,0.5-0.1,0.5,0l-0.3,0.1c0.2,0.1,0.1-0.2,0.4,0c0,0.2-0.4,0.1-0.5,0l0.1,0.2
						c-0.1,0-0.1,0-0.3-0.1c0.2,0.1-0.3,0.4,0,0.6L5,44c0,0.5,0.1,0.8,0.1,1.2c0.3,0,0.2,0.2,0.4,0.3c-0.1,0.3-0.3,0.7-0.3,1
						c0.1,0.3,0.2,0.1,0.4,0.2c-0.3,0-0.2,0.4-0.4,0.2c0,0.5,0.1,0.6,0.3,1.2C5.7,48.1,5.7,48,5.8,48c0,0.1-0.1,0.2-0.2,0.2l0,0
						c0.4,0.6-0.7,1.5-0.2,2l0,0l0.3,0.5c0,0.2-0.2-0.1-0.4,0c0.4,0.6-0.1,0.9,0.2,1.4C4.7,52.5,5.5,53.5,5,54l0.2,0
						c0.2,0.1-0.1,0.2-0.1,0.2c0.1,0,0.2-0.1,0.3-0.1c0.2,1.1-0.3,2.2-0.4,3.4c0,0.4,0.9,0.2,0.5,0.7L5,58.1c0.4,0.8,0,1.7,0.3,2.5
						c-0.1,0-0.2,0-0.2-0.1c-0.2,0.2,0,0.6,0.2,0.6c0,0.1-0.2,0-0.3,0.1c-0.1,0.2,0.3,0.4,0.1,0.5c0,0-0.1,0-0.1-0.1
						c0.1,0.1,0,0.5,0.2,0.4c-0.1,0.3,0.1,0.6,0,0.8c0.3,0.2-0.1,0.5,0.3,0.6c-0.5,0-0.4,0.5-0.2,0.7c-0.1-0.1-0.1,0.2-0.3,0.1
						c0,0.2,0.1,0.4,0.3,0.4c-0.5,0.4,0.4,0.8-0.3,1c0.2,0.6,0.4,1.2,0.5,1.8c-0.5,0,0-0.6-0.5-0.6c0.2,0.6,0.6,0.9,0.5,1.4
						c-0.1,0.1-0.2-0.1-0.3-0.1c0.2,0.6,0,1.1,0.2,1.6c0,0-0.1-0.1-0.1-0.1c0,0.1-0.1,0.2,0.1,0.2l-0.1-0.1c0.3-0.2,0.6,0.4,0.8,0.4
						c-0.6-0.2-0.1,0.5-0.9,0.2c0,0.1,0.1,0.1,0.3,0.1c0,0.1-0.1,0.1-0.3,0c0.1,0.3,0.3,0.2,0.3,0.5C5.6,71,5.6,71,5.5,71
						c0.2,0.2,0.4,0.3,0.3,0.6c-0.1,0-0.1,0-0.1-0.1c0,0.5,0.5,0.8,0.3,1.3c-0.4-0.1-0.1,0.2-0.5,0.2l0.1,0.3l0.2-0.1
						c0,0.2,0.3,0.4,0.1,0.6l-0.2-0.2L5.8,74l0.1-0.2c0.2,0.2,0.5,0,0.4,0.3c0-0.1,0,0.2-0.2,0.4c0,0,0,0,0,0
						c0.1,0.1,0.2,0.2,0.2,0.4c-0.1,0-0.4,0-0.5,0c0.3,0.1,0.1,0.6,0.4,0.7c-0.1,0-0.3-0.1-0.3,0l0.3,0.1C6,75.7,6,75.7,5.8,75.7
						c0,0.3,0.5-0.1,0.3,0.3c0,0-0.1,0-0.1-0.1c-0.1,0.4,0.2,0.8,0,1.1c-0.4,0.1-0.1-0.3-0.4-0.2c0.1,0.5,0.5,1.1,0.4,1.6l0-0.1
						c0.5,0.1-0.3,0.4,0,0.6c0-0.1-0.3-0.1-0.2-0.1c-0.1,0.3,0.1,0.7,0.3,1.2L5.9,80c-0.1,0.2-0.1,0.5-0.1,0.8
						c0.1,0.1,0.1,0.2,0.3,0.1c-0.8,0.7,0.4,1.3-0.2,1.9c0-0.1-0.1-0.2-0.1-0.1l0.1,0.5c0.2,0,0.1-0.1,0.3-0.2
						c0.1,0.1,0.2,0.2,0.2,0.3c-0.2-0.2-0.4,0-0.5,0.1c0.1,0,0.1,0,0.2,0c-0.4,0.3,0.5,0,0.2,0.4l-0.1,0c0.1,0.1,0.2,0.3,0.2,0.4
						c-0.3,0.1-0.1-0.1-0.3-0.2c0,0.2,0.5,0.4,0.2,0.6c-0.1-0.1-0.1-0.2-0.1-0.3c-0.3,0.2-0.2,0.2-0.3,0.4l0,0l-0.1,0.3L5.8,85
						c0.7,0.3,0.1,0.5,0.6,0.9c-0.4-0.3-0.2-0.1-0.6-0.1C5.8,85.9,5.7,86,5.6,86c0.2,0.2-0.2,0.3,0.2,0.5c-0.1,0,0,0.2-0.3,0.1
						c0.1,0.2,0.2-0.1,0.3,0c0.3,0.3-0.4,0.8,0.1,1.2c0.2,0.4,0.5,0.5,0.7,0.9c-0.2,0.1-0.4-0.1-0.4-0.1c-0.1,0.2-0.1,0.4,0,0.6
						c-0.1,0-0.2,0-0.3,0.1c0,0.2,0.4,0.1,0.2,0.3c-0.1,0-0.3-0.1-0.4-0.2c0.1,0.2,0.3,0.4,0.4,0.6c-0.2,0.1-0.3-0.1-0.4-0.2
						c0.1,0.2,0.2,0.6,0.4,0.6l0.1-0.1c0,0.1-0.2,0-0.3,0c-0.2-0.2,0.1-0.3,0.2-0.3l0.1,0.1c0.6-0.1-0.1-0.5-0.1-0.8l0.4,0.1
						l-0.3-0.3c0.1-0.1,0.3-0.1,0.4,0c0.2-0.2-0.1-0.2,0.1-0.3c0,0,0.1,0,0.1,0l-0.1-0.2c0.1,0,0.3,0,0.2,0.1c0.2-0.3-0.3-0.6,0-0.7
						l0,0c-0.1-0.5-0.3,0-0.7-0.4L7,87.4l-0.3,0c0,0,0-0.1,0.2-0.1c-0.2-0.2-0.1,0-0.3-0.1c0.3-0.2-0.1-0.7,0.4-0.7
						c-0.2-0.1-0.2,0.2-0.3,0c0.5-0.1-0.1-0.3,0.2-0.5C7,86,6.8,86.2,7.1,85.9c-0.5-0.1,0.1-0.4,0-0.6c-0.4,0-0.2-0.4-0.3-0.7
						c0.1,0,0.2-0.6,0.3-0.9l0.1,0c-0.4-0.1-0.3-0.3-0.4-0.6c0.2,0,0.3,0,0.4,0.2l0-0.2c-0.1,0-0.2-0.1-0.2-0.2L7.3,83
						c0-0.3-0.3-0.5-0.1-0.9c-0.3,0-0.7,0.3-0.9-0.1c0.1,0,0.4,0,0.4,0.1c0,0-0.1-0.1-0.1-0.2l0.2,0.1C7,81.9,6.7,82,6.7,81.9
						c0.2,0,0.1-0.1,0.3-0.1c0,0-0.1,0.1,0,0.2c0-0.1,0.2-0.3,0.3-0.4c-0.1,0-0.3,0-0.3-0.1c0-0.3,0.2-0.1,0.3-0.2
						c-0.1-0.1,0-0.2-0.3-0.2c0-0.1,0.1-0.1,0.2-0.1c-0.1-0.1,0-0.6-0.4-0.5l0,0c0,0,0,0,0,0c0,0,0,0,0,0v0c-0.3-0.5,0.2-0.9,0-1.4
						L7,79c-0.1-0.3-0.1-0.6-0.3-0.8C6.7,78.1,6.9,78,7,78c-0.1-0.2-0.2-0.2,0-0.5c0.2,0.2,0.2-0.1,0.1,0.2c0.1-0.3,0.2-0.3,0-0.6
						c0.3,0.1,0.3-0.2,0.2-0.3L7.2,77c0-0.1,0-0.3,0-0.4l0.3,0.1c0.4-0.5-0.7-1,0-1.4c-0.2-0.1-0.2,0.3-0.4,0.2
						c0-0.3,0.5-0.5,0.5-0.6c0.2-0.3-0.5-0.3-0.4-0.7c-0.1,0-0.4,0.1-0.5-0.2c0-0.3,0.5-0.3,0.6-0.2c0,0.1,0,0.1-0.1,0.1
						c0,0.1,0.1,0.2,0.2,0.1l-0.1,0c0.1-0.1,0.1-0.5,0.3-0.4c-0.1-0.2-0.2-0.1-0.3,0.1c0.2-0.3,0-0.5,0.1-0.8
						c-0.1,0.1-0.2,0.1-0.2,0c0.1-0.5-0.2-0.2-0.3-0.5c0.2-0.2,0.4,0.1,0.3-0.3c0.1-0.2,0.3,0,0.4,0c-0.2-0.3,0.2-0.6,0.2-0.7
						L8,71.5c-0.1-0.1-0.1-0.2-0.1-0.3l-0.2,0.1c0-0.1,0-0.2,0.1-0.2c-0.2-0.1-0.4,0.1-0.6-0.1c0.1-0.1-0.1-0.4,0.2-0.4
						c-0.1,0.4,0.3,0,0.4,0.3c0-0.1,0-0.1,0-0.2c0,0,0.1,0,0.1,0c0.3-0.4-0.4-0.2-0.3-0.6c0.2,0,0.3-0.1,0.3-0.2
						c0,0.2-0.3,0.1-0.4-0.1c0.1-0.2-0.1-0.3-0.1-0.4l-0.1,0.1c-0.2-0.1-0.2-0.2-0.2-0.3c0.1,0,0.1,0.2,0.2,0.1
						c-0.3-0.2,0.3-0.4,0.1-0.7c0.1-0.1,0.3,0,0.4-0.1C7.5,68.3,8,68.3,7.8,68c-0.2,0.1-0.2,0.1-0.4-0.1l0.2,0.5L7.2,68
						c0,0.2,0.1,0.3,0.1,0.4c-0.2-0.2-0.1-0.1-0.3-0.1c0.4-0.2-0.2-0.4,0-0.7l0.6,0c0.3-0.4-0.3-0.7-0.2-1.1l-0.1,0.2
						c-0.2-0.1,0-0.3-0.1-0.5c0.2,0,0.3-0.1,0.4-0.2c-0.1,0,0-0.4-0.4-0.4l0.3-0.2c0.1-0.4-0.6-0.4-0.5-0.8c0.2,0.1,0.4-0.1,0.5,0.2
						c0-0.1,0-0.2-0.1-0.2c0.1-0.1-0.3-0.3-0.1-0.5C7.2,64.1,7,64.1,7,64c0,0,0.1,0,0.1,0C7,64,7,63.7,6.8,63.9
						c0.6-0.4,0-1.1,0.5-1.4c-0.1-0.3-0.1-0.6-0.1-0.9c0.1,0,0.1,0,0.1,0c0.2-0.3-0.6-0.2-0.4-0.6c0.3-0.2,0.2,0.2,0.3,0.1
						c0.6-0.1-0.1-0.5,0.3-0.7l0,0.1c0.2-0.2-0.2-0.5-0.2-0.8c0,0,0.1,0,0.1,0c-0.3-0.2-0.4-0.7-0.5-1c0.3,0.1,0.1,0.1,0.4,0.1
						c0-0.1-0.4,0-0.5-0.2c0.1-0.1,0.3-0.3,0.5-0.3l0,0.3c0.4-0.1,0-0.3,0-0.5l0.2,0c-0.1-0.4-0.4-0.4-0.4-0.9l-0.1,0
						c-0.4-0.2,0.2-0.2-0.1-0.4l0.4-0.1c-0.1-0.2-0.4-0.6-0.5-0.8c0.3,0.2,0.4,0.5,0.6,0.7c0-0.2,0-0.5-0.2-0.6
						c0,0.1,0.1,0.1,0.1,0.2c-0.3-0.2-0.5-0.4-0.5-0.8c0.8,0.1,0.2-0.8,0.8-1c-0.3-0.6,0.1-1.1,0.1-1.7c-0.6,0.2,0-0.2-0.6-0.1
						c0-0.2,0-0.2,0-0.2l0.4-0.5c0.2-0.1,0.1,0.1,0.3,0.1c0-0.3,0.3-0.1,0.4-0.4c-0.2,0-0.3-0.1-0.2-0.3l-0.3,0.3
						c-0.3-0.5,0.5-0.4,0.2-0.9L8,50.8c-0.1-0.2,0-0.9-0.5-1.1c0.1,0,0.2-0.1,0.3,0c0.1-0.6-0.5-1.3-0.2-1.7l0.1,0
						c0-0.1-0.3-0.2-0.1-0.3c0.1,0,0.1,0,0.2,0c-0.1-0.1-0.3-0.3-0.2-0.4l0.2,0.1c0.2-0.6-0.4-0.9-0.5-1.3c0.4,0,0.6-0.4,0.7-0.7
						l0.1,0c0.1-0.6-0.4-1.1-0.5-1.7c0.5-0.4,0.2-1.3,0.5-1.9c-0.1,0.1-0.3,0-0.4-0.1c0.1-0.1-0.3-0.4,0.1-0.4l0,0
						C8,41.3,7.9,41,7.9,40.8l-0.5,0c0.8-0.6-0.3-1.5,0.4-1.9c-0.1-0.1-0.1-0.3-0.3-0.5l0.3,0c0.1-0.4,0.1-0.6,0-1.1L8,37.5
						c0-0.3-0.8-0.3-0.8-0.6l0.4-0.1c0-0.5,0.4-1,0-1.4c0.1,0,0.2,0,0.2,0.1c0-0.2,0.3-0.9-0.3-0.8c0.4,0,0-0.5-0.1-0.8l0.3,0
						c-0.4-0.2-0.5-0.2-0.6-0.5c0-0.1,0.2-0.1,0.2,0C7.4,33.2,7,33.3,7.1,33l0.2,0.1c0-0.2-0.1-0.2-0.3-0.4
						c-0.1-0.2,0.1-0.5,0.3-0.5c-0.2,0-0.4-0.2-0.3-0.3c0.1,0,0.2,0,0.2,0.1c0.2-0.4-0.3-0.6-0.1-0.9c0.1,0,0.1,0,0.2,0
						c0,0.3,0,0.6,0,0.6c0.3,0,0.3-0.3,0.7-0.1c-0.2-0.2-0.6-0.6-0.5-0.8c0,0,0,0,0.1,0l0,0c0-0.1,0-0.1,0-0.2
						c0-0.1,0.1-0.1,0.1-0.2c0.2,0,0.1-0.3,0.1-0.4c-0.3,0-0.2-0.2-0.5,0c0,0,0,0,0,0.1c0,0,0,0,0,0.1c0,0,0,0,0,0
						c0,0.1,0,0.2,0,0.3c-0.1-0.1-0.3-0.2-0.1-0.4c-0.2-0.1-0.4-0.1-0.5-0.2c0.4-0.2,0.6-0.5,0.8-0.6c-0.2-0.4-0.1-1-0.6-1.2
						c-0.1-0.1,0.2-0.1,0.2-0.2c0.1,0.1,0,0.1,0.1,0.2c-0.1-0.2-0.1-0.7-0.4-0.7c0.2-0.3,0.3,0.2,0.3-0.2l0.1,0.1
						c0.6-0.8-0.9-1.3-0.2-2.1c0,0.1-0.1,0.1-0.1,0.1c0.3-1-0.3-2,0.2-3c0.1-0.3-0.1-0.3-0.3-0.5l0.3-0.1l-0.3-0.3
						c-0.3-0.4,0.7-0.7,0.3-1.2l-0.2,0.1c0-0.2-0.1-0.6,0.1-0.6c0,0-0.2-0.1-0.1-0.1l0.2,0l-0.3-0.5c0.1-0.4,0.6,0.1,0.7-0.5
						C7.4,18.3,7,17.9,6.9,18c0,0.1-0.1,0.2-0.3,0.2L6.6,18c-0.5,0-0.9-0.2-1.3,0.3l0.3,0.3l-0.2,0.1l0-0.3c-0.2,0.1,0,0.2,0.1,0.3
						c-0.1,0-0.2,0.1-0.2,0.1l0.4,0.3c-0.2,0-0.4-0.1-0.5,0.1c0.2,0.1,0.4-0.1,0.5,0.1c-0.2,0.1-0.4,0.1-0.2,0.3
						c-0.1,0-0.2,0-0.2-0.1C5.4,19.7,5.4,20,5.6,20c-0.3,0.2,0.1,0.5-0.4,0.5c0.1,0,0.3,0.3,0.4,0.4c-0.5-0.3,0,0.5-0.6,0.5
						c0.5,0.2,0.2,0.7,0.5,1c0,0-0.1-0.1-0.1-0.1c0,0.2-0.2,0.2-0.3,0.4c0.4,0,0.5,0.3,0.7,0.5C5.5,23.4,5.4,23,5,23.1
						c0.3,0,0.3,0.4,0.6,0.3c-0.2,0.2-0.1,0.2-0.4,0.2c0.5,0,0.1,0.2,0.4,0.3c-0.2,0.3-0.5,0.1-0.3,0.3C5.1,24.4,4.9,24.2,4.9,24.2z
						 M5.8,30.8C5.7,30.8,5.7,30.8,5.8,30.8c0-0.1,0-0.1,0-0.1C5.7,30.7,5.7,30.7,5.8,30.8z M5.8,31.3c0-0.1,0-0.2,0-0.2
						c0.1,0,0.2,0,0.2,0.1C5.9,31.1,5.8,31.3,5.8,31.3z M7.7,30.2c0,0.1,0,0.1-0.1,0.1c0,0,0-0.1,0-0.2c0,0,0,0,0,0
						C7.6,30.1,7.7,30.1,7.7,30.2z"/>
					<path class="st3" d="M7.3,30C7.3,30,7.3,30,7.3,30C7.3,30,7.3,30,7.3,30C7.3,30,7.3,30,7.3,30C7.3,30,7.3,30,7.3,30z"/>
					<path class="st3" d="M6.9,80.4L6.9,80.4C6.9,80.4,6.9,80.4,6.9,80.4C6.9,80.4,6.9,80.4,6.9,80.4z"/>
					<polygon class="st3" points="5.2,39 5.3,39 5.2,39 					"/>
					<path class="st3" d="M6,83.4C5.9,83.4,5.9,83.4,6,83.4C5.9,83.5,5.9,83.5,6,83.4z"/>
					<path class="st3" d="M5.9,84.8l-0.1,0.2C5.8,84.9,5.9,84.8,5.9,84.8z"/>
					<path class="st3" d="M5.8,85.8c0,0,0.1,0,0.1,0c0,0,0,0,0,0L5.8,85.8z"/>
					<path class="st3" d="M5.4,69.6C5.4,69.6,5.4,69.6,5.4,69.6C5.4,69.5,5.4,69.5,5.4,69.6z"/>
					<path class="st3" d="M6.1,74.4C6,74.4,6,74.3,5.9,74.3C5.9,74.3,5.9,74.4,6.1,74.4z"/>
					<path class="st3" d="M5.1,64.2C5.1,64.2,5.1,64.2,5.1,64.2C5.1,64.2,5.1,64.2,5.1,64.2L5.1,64.2z"/>
					<path class="st3" d="M5.9,74c-0.1,0.1,0,0.2,0,0.2C6,74.2,6,74.1,5.9,74z"/>
					<path class="st3" d="M5.6,90.2L5.6,90.2C5.6,90.2,5.6,90.2,5.6,90.2L5.6,90.2z"/>
					<path class="st3" d="M5.7,90.2L5.7,90.2C5.7,90.3,5.7,90.2,5.7,90.2z"/>
					<path class="st3" d="M5.8,90.4l-0.1-0.1C5.7,90.3,5.7,90.4,5.8,90.4z"/>
					<path class="st3" d="M5.8,88.8l-0.1,0C5.7,88.8,5.7,88.8,5.8,88.8z"/>
					<path class="st3" d="M5.7,88.4c0,0.1-0.2,0.2-0.2,0.4l0.1,0C5.5,88.7,5.9,88.5,5.7,88.4z"/>
					<path class="st3" d="M7,86.7l-0.1,0.3c0.1-0.1,0.3-0.1,0.3,0C7.5,86.6,6.9,87.2,7,86.7z"/>
					<path class="st3" d="M7.1,85.6c0.1,0.2,0.2,0,0.2,0C7.3,85.5,7.2,85.5,7.1,85.6z"/>
					<path class="st3" d="M7.1,78l0.3,0C7.4,77.8,7.3,78,7.1,78z"/>
					<polygon class="st3" points="5.8,76.5 5.7,76.6 5.9,76.7 					"/>
					<polygon class="st3" points="7.6,75.6 7.7,75.7 7.6,75.5 					"/>
					<path class="st3" d="M7.6,62.7l-0.3,0C7.3,62.9,7.6,62.9,7.6,62.7z"/>
					<path class="st3" d="M7.2,57.2c0.2-0.1,0.3-0.2,0.1-0.3C7.3,57,7.2,57.1,7.2,57.2z"/>
					<polygon class="st3" points="7.7,40.5 7.8,40.6 7.8,40.4 					"/>
				</g>
			</g>
		</g>
	</g>
</g>
<g id="cover_x5F_middle_1_">
	<path class="st4" d="M18.5,63L18.5,63C11,63,5,57,5,49.5v-34C5,8,11,2,18.5,2h0C26,2,32,8,32,15.5v34C32,57,26,63,18.5,63z"/>
</g>
<path id="paw_x5F_middle_1_" class="st0" d="M28.9,45.2c0.8-3.7-3.2-4.5-5-4c-1.8,0.5-5.4,0.6-5.4,0.6s-3.6-0.1-5.4-0.6
	c-1.8-0.5-5.8,0.3-5,4c0.8,3.7,4.3,3.5,5.3,8.5c1,5,5.1,4.7,5.1,4.7s4.1,0.3,5.1-4.7C24.5,48.7,28.1,48.9,28.9,45.2 M22.2,58.7
	c2.2-0.6,4.6,1.1,5.4,3.8c0.8,2.8-0.3,5.5-2.5,6.1c-2.2,0.6-4.6-1.1-5.4-3.8C18.9,62.1,20,59.3,22.2,58.7 M31.3,59.7
	c-2.1,0.9-4.7-0.6-5.8-3.2c-1.1-2.7-0.3-5.5,1.8-6.4c2.1-0.9,4.7,0.6,5.8,3.2C34.2,56,33.4,58.8,31.3,59.7 M14.8,58.7
	c2.2,0.6,3.3,3.4,2.5,6.1c-0.8,2.8-3.2,4.5-5.4,3.8c-2.2-0.6-3.3-3.4-2.5-6.1C10.2,59.8,12.6,58.1,14.8,58.7 M9.7,50.1
	c2.1,0.9,2.9,3.7,1.8,6.4c-1.1,2.6-3.7,4.1-5.8,3.2c-2.1-0.9-2.9-3.7-1.8-6.4C5,50.7,7.6,49.2,9.7,50.1"/>
</svg>

