<svg xmlns="http://www.w3.org/2000/svg" width="32" height="32" viewBox="0 0 28.47 31.22">
  <title>Asset 1</title>
  <g id="Layer_2" data-name="Layer 2">
    <g id="paw_pointer">
      <path id="palm" d="M26.29,22.47c1.69,3.41-1.71,5.16-3.42,5.12a26.24,26.24,0,0,0-5,.74,26.39,26.39,0,0,0-4.69,1.85c-1.47.9-5.29,1.08-5.53-2.72s3-4.5,2.54-9.59,3.33-5.77,3.33-5.77,3.59-1.3,5.76,3.33,5.3,3.63,7,7" stroke="#fff" stroke-miterlimit="10"/>
      <path id="toe4" d="M24.63,7.75c-2.11-.33-4,1.7-4.32,4.54s1.2,5.42,3.31,5.74,4-1.7,4.32-4.54-1.2-5.41-3.31-5.74" stroke="#fff" stroke-miterlimit="10"/>
      <path id="toe3" d="M16.79,10.89c2.12.09,3.83-2.16,3.82-5S18.89.59,16.77.5s-3.83,2.17-3.83,5,1.73,5.26,3.85,5.35" stroke="#fff" stroke-miterlimit="10"/>
      <path id="toe2" d="M10,12.65c1.92-1.22,2.24-4.38.7-7S6.35,1.75,4.42,3s-2.24,4.38-.7,7S8.06,13.87,10,12.65" fill="#fff" stroke="#000" stroke-miterlimit="10"/>
      <path id="toe1" d="M7.76,22.28c1.66-1.34,1.66-4.3,0-6.62s-4.36-3.12-6-1.78-1.65,4.31,0,6.62,4.35,3.12,6,1.78" stroke="#fff" stroke-miterlimit="10"/>
    </g>
  </g>
</svg>
