<svg xmlns="http://www.w3.org/2000/svg" width="32" height="32" viewBox="0 0 32 32">
  <title>Artboard 1</title>
  <g id="tip">
    <g id="tip_cp">
      <path d="M8.84,7.78,5.51,6.27,4.67,1.94,9.17,4.2Z" fill="#000" stroke="#000" stroke-miterlimit="10" stroke-width="0.5"/>
    </g>
  </g>
  <g id="paw">
    <path id="paw_cp" d="M28.05,22.86C29.74,26.27,26.34,28,24.63,28a26.24,26.24,0,0,0-5,.74A26.39,26.39,0,0,0,15,30.57c-1.46.9-5.28,1.08-5.53-2.72s3-4.49,2.54-9.59,3.34-5.77,3.34-5.77,3.59-1.29,5.76,3.33,5.29,3.63,7,7m-9.5-11.58c2.12.09,3.83-2.16,3.83-5S20.65,1,18.53.89s-3.83,2.17-3.82,5,1.72,5.27,3.84,5.35m7.84-3.14c-2.1-.33-4,1.7-4.31,4.54s1.2,5.42,3.3,5.74,4-1.7,4.32-4.54-1.2-5.41-3.31-5.74M11.87,13.08C13.66,11.94,14,9,12.52,6.52s-4-3.59-5.83-2.45S4.61,8.14,6,10.63s4,3.58,5.83,2.45M9.52,22.67c1.66-1.34,1.66-4.3,0-6.62s-4.35-3.12-6-1.78-1.66,4.31,0,6.63,4.36,3.11,6,1.77"/>
  </g>
</svg>
