<svg xmlns="http://www.w3.org/2000/svg" xmlns:xlink="http://www.w3.org/1999/xlink" viewBox="0 0 37 106" id="el_itNg7nDAGX"><style>@-webkit-keyframes el_bfMLlkt7Hoh_N5sXy0zuP_Animation{0%{-webkit-transform: translate(18.5px, 10.469940185546875px) scale(1, 1) translate(-18.5px, -10.469940185546875px);transform: translate(18.5px, 10.469940185546875px) scale(1, 1) translate(-18.5px, -10.469940185546875px);}50%{-webkit-transform: translate(18.5px, 10.469940185546875px) scale(1, 0.17) translate(-18.5px, -10.469940185546875px);transform: translate(18.5px, 10.469940185546875px) scale(1, 0.17) translate(-18.5px, -10.469940185546875px);}100%{-webkit-transform: translate(18.5px, 10.469940185546875px) scale(1, 0.17) translate(-18.5px, -10.469940185546875px);transform: translate(18.5px, 10.469940185546875px) scale(1, 0.17) translate(-18.5px, -10.469940185546875px);}}@keyframes el_bfMLlkt7Hoh_N5sXy0zuP_Animation{0%{-webkit-transform: translate(18.5px, 10.469940185546875px) scale(1, 1) translate(-18.5px, -10.469940185546875px);transform: translate(18.5px, 10.469940185546875px) scale(1, 1) translate(-18.5px, -10.469940185546875px);}50%{-webkit-transform: translate(18.5px, 10.469940185546875px) scale(1, 0.17) translate(-18.5px, -10.469940185546875px);transform: translate(18.5px, 10.469940185546875px) scale(1, 0.17) translate(-18.5px, -10.469940185546875px);}100%{-webkit-transform: translate(18.5px, 10.469940185546875px) scale(1, 0.17) translate(-18.5px, -10.469940185546875px);transform: translate(18.5px, 10.469940185546875px) scale(1, 0.17) translate(-18.5px, -10.469940185546875px);}}@-webkit-keyframes el_wzoGn5qnFIh_EITkmkqTp_Animation{0%{-webkit-transform: translate(18.459998846054077px, 87.47561264038086px) translate(-18.459998846054077px, -87.47561264038086px) translate(0px, 0px);transform: translate(18.459998846054077px, 87.47561264038086px) translate(-18.459998846054077px, -87.47561264038086px) translate(0px, 0px);}50%{-webkit-transform: translate(18.459998846054077px, 87.47561264038086px) translate(-18.459998846054077px, -87.47561264038086px) translate(0px, -68px);transform: translate(18.459998846054077px, 87.47561264038086px) translate(-18.459998846054077px, -87.47561264038086px) translate(0px, -68px);}100%{-webkit-transform: translate(18.459998846054077px, 87.47561264038086px) translate(-18.459998846054077px, -87.47561264038086px) translate(0px, -68px);transform: translate(18.459998846054077px, 87.47561264038086px) translate(-18.459998846054077px, -87.47561264038086px) translate(0px, -68px);}}@keyframes el_wzoGn5qnFIh_EITkmkqTp_Animation{0%{-webkit-transform: translate(18.459998846054077px, 87.47561264038086px) translate(-18.459998846054077px, -87.47561264038086px) translate(0px, 0px);transform: translate(18.459998846054077px, 87.47561264038086px) translate(-18.459998846054077px, -87.47561264038086px) translate(0px, 0px);}50%{-webkit-transform: translate(18.459998846054077px, 87.47561264038086px) translate(-18.459998846054077px, -87.47561264038086px) translate(0px, -68px);transform: translate(18.459998846054077px, 87.47561264038086px) translate(-18.459998846054077px, -87.47561264038086px) translate(0px, -68px);}100%{-webkit-transform: translate(18.459998846054077px, 87.47561264038086px) translate(-18.459998846054077px, -87.47561264038086px) translate(0px, -68px);transform: translate(18.459998846054077px, 87.47561264038086px) translate(-18.459998846054077px, -87.47561264038086px) translate(0px, -68px);}}#el_itNg7nDAGX *{-webkit-animation-duration: 2s;animation-duration: 2s;-webkit-animation-iteration-count: infinite;animation-iteration-count: infinite;-webkit-animation-timing-function: cubic-bezier(0, 0, 1, 1);animation-timing-function: cubic-bezier(0, 0, 1, 1);}#el_1zUFK7Ry90{-webkit-clip-path: url(#clip-path);clip-path: url(#clip-path);}#el_0znGsNzyqq{fill: #333;}#el_-JmY-kR-jd{-webkit-clip-path: url(#clip-path);clip-path: url(#clip-path);}#el_Lr7vcasis9w{fill: #2069a2;}#el_1mHFjZ64vNw{fill: #2069a2;}#el_WR5BI2XSKEo{fill: #2069a2;}#el_wjTDv4HNEms{fill: #2069a2;}#el_L1RQ-59d-_J{fill: #2069a2;}#el_hUnCnDUg5Um{fill: #2069a2;}#el_vt4AEzz5Ecd{fill: #2069a2;}#el_M4qxikSqHm5{fill: #2069a2;}#el_tHzabmc6CaE{fill: #2069a2;}#el_RqfrjYbMf3Q{fill: #2069a2;}#el_aca41kpeMaL{fill: #2069a2;}#el_X8lK1CaD77o{fill: #2069a2;}#el_Fzi19A8Xe7s{fill: #2069a2;}#el__c4JRS7AGt8{fill: #2069a2;}#el_SpYtNlHJ-Rk{fill: #2069a2;}#el_-OtualQlKrF{fill: #2069a2;}#el_z4ghVqJAjEE{fill: #2069a2;}#el_HLhSq_qN-4a{fill: #2069a2;}#el_vLy-dcRV0BH{fill: #2069a2;}#el_LBC40EBshia{fill: #2069a2;}#el_PYRFfxPbAjK{fill: #2069a2;}#el_SSYi8diL11c{fill: #2069a2;}#el_PDcfSdfbv13{fill: #2069a2;}#el_CLRYzqXKAap{fill: #2069a2;}#el_VnGZY6wYaHf{fill: #2069a2;}#el_WuhxhDBeDNB{fill: #2069a2;}#el_Ebl8GHu75BC{fill: #2069a2;}#el_a2sB8IXRaL5{fill: #2069a2;}#el_GiiQvh0DfQY{fill: #2069a2;}#el_OvbhntTmIG9{fill: #2069a2;}#el_96YP6aMoRSF{fill: #2069a2;}#el_J7Qrky6_AZx{fill: #2069a2;}#el_1pBr5NrTNaL{fill: #2069a2;}#el_AlIskm8tvDf{fill: #2069a2;}#el_oETbp5Yrywm{fill: #2069a2;}#el_jBarKv-E77f{fill: #2069a2;}#el_-QKNdcf_bEV{fill: #2069a2;}#el_ezj3jtXieW4{fill: #2069a2;}#el_Rijf-vW8IyZ{fill: #2069a2;}#el_tyjYyTZUNc8{fill: #2069a2;}#el_zC9yF6R0INb{fill: #2069a2;}#el_4mlglVVrJYW{fill: #2069a2;}#el_VoRU9MRdBt7{fill: #2069a2;}#el_gm29Axc7YOT{fill: #2069a2;}#el_yNyt3nvESlj{fill: #2069a2;}#el_nw7TajdRVn8{fill: #2069a2;}#el_6RSi-WtlVC8{fill: #2069a2;}#el_DEp4MKVkmGr{fill: #2069a2;}#el_N4hwzD5hY2O{fill: #2069a2;}#el_ArcCjO_P4xP{fill: #2069a2;}#el_N2Th_R_VASM{fill: #2069a2;}#el_e4Cfy2lAT71{fill: #2069a2;}#el_ash5nDoeSZP{fill: #2069a2;}#el_GdH0AZj2Kr-{fill: #2069a2;}#el_HWL1gFXPDt-{fill: #2069a2;}#el_YKCA0QmfnZz{fill: #2069a2;}#el_QihX82MWa0b{fill: #2069a2;}#el_DwI-e3NlyKv{fill: #2069a2;}#el_cMOF6cwoqGJ{fill: #2069a2;}#el_EgoxDNdJmno{fill: #2069a2;}#el_R58ENr31-Hs{fill: #2069a2;}#el_fq2YmiBY409{fill: #2069a2;}#el_VfSaQwSmqs2{fill: #2069a2;}#el_z3OYJ-LJCI7{fill: #2069a2;}#el_ALHqDioXXav{fill: #2069a2;}#el_frlUSjxAjt9{fill: #2069a2;}#el_3V18R74GpCt{fill: #2069a2;}#el_9eIqCsoJUN8{fill: #2069a2;}#el_4S3RdarZFAZ{fill: #2069a2;}#el_efm5IzcSVTi{fill: #2069a2;}#el_uq-DYfwMSoC{fill: #2069a2;}#el_iql_5DfQP7V{fill: #2069a2;}#el_Evd0djMCN-u{fill: #2069a2;}#el_v1WHxsWZFGY{fill: #2069a2;}#el_kLuSus8DF-H{fill: #2069a2;}#el_TvwBpr-Q9x3{fill: #2069a2;}#el_my8q78mL4PR{fill: #2069a2;}#el_B6YrjEJg30K{fill: #2069a2;}#el_3-gBNzoXvwO{fill: #2069a2;}#el_cfKxQ_Keljj{fill: #2069a2;}#el__owTPd71ZBz{fill: #2069a2;}#el_i0DLiXmuSzL{fill: #2069a2;}#el_8N4DZs-AI9Q{fill: #2069a2;}#el_IwXqfObzUJy{fill: #2069a2;}#el_as9n4E2srAX{fill: #2069a2;}#el_5ILwHGkqk8D{fill: #2069a2;}#el_XSsHBH5rLAK{fill: #2069a2;}#el_nvat-Updil3{fill: #2069a2;}#el_XOwL7z4siKy{fill: #2069a2;}#el_Vq4oqLSUsYf{fill: #2069a2;}#el_s6X_AG-CdbF{fill: #2069a2;}#el_ZEYOU0vA6vM{fill: #2069a2;}#el_ELJ8i_M3ate{fill: #2069a2;}#el_JTA6OHYK5pT{fill: #2069a2;}#el_m-H6OzLEVI9{fill: #2069a2;}#el_cFaDsBUOdV0{fill: #2069a2;}#el_0MQjemu3kms{fill: #2069a2;}#el_HKicWYai-hS{fill: #2069a2;}#el_k73fbiqs1fD{fill: #2069a2;}#el_J5gOFnaUWEy{fill: #2069a2;}#el_L3YwKLytE7o{fill: #2069a2;}#el_Sb0b3TvVzPH{fill: #2069a2;}#el_Yxpox_G-OxB{fill: #2069a2;}#el_tLk0r1nOeIj{fill: #2069a2;}#el_QH2QURKni55{fill: #2069a2;}#el_Blpiz5fGDIX{fill: #2069a2;}#el_6cqfkW53Co7{fill: #2069a2;}#el_tsfk0ILhvq2{fill: #2069a2;}#el_64fHvniHfDq{fill: #2069a2;}#el_i_QhA8YSBP2{fill: #2069a2;}#el_SF293Q8MPNz{fill: #2069a2;}#el_siWaejY2mIU{fill: #2069a2;}#el_C3tTCcDYE6Z{fill: #2069a2;}#el_fILjkf_DmK6{fill: #2069a2;}#el_RQUuyKI1k2x{fill: #2069a2;}#el_-uPnYLE7VYP{fill: #2069a2;}#el_C-GbottAqug{fill: #2069a2;}#el_FQCca5OR30b{fill: #2069a2;}#el_UE4jnbXL-Yh{fill: #2069a2;}#el_7j08-xl0EzN{fill: #2069a2;}#el_HGUpI1eiwhR{fill: #2069a2;}#el_R53_zriEk82{fill: #2069a2;}#el_X-PjrY_h8eC{fill: #2069a2;}#el_NcD8DPjlRhI{fill: #2069a2;}#el_4Nf36qUD0OP{fill: #2069a2;}#el_vZVDn31-WBr{fill: #2069a2;}#el_kNf31yrUjiu{fill: #2069a2;}#el_z1raBnkUIQL{fill: #2069a2;}#el_8mdkI4S70lP{fill: #2069a2;}#el_QsbR273QopP{fill: #2069a2;}#el_emGbHmneJo8{fill: #2069a2;}#el_YCBS5wCy6_V{fill: #2069a2;}#el_8WtTMcFuXqx{fill: #2069a2;}#el_FHqloX06nWJ{fill: #2069a2;}#el_PDZF9TBbnNL{fill: #2069a2;}#el_2JjpSBS9G4K{fill: #2069a2;}#el_ggfC0H9jy7S{fill: #2069a2;}#el_-UClJwqsn1v{fill: #2069a2;}#el_c4CaSNVrOzd{fill: #2069a2;}#el_J7K_E7ZSrw4{fill: #2069a2;}#el_tFLqgzdXWlE{fill: #2069a2;}#el_60vu0Gpd2J-{fill: #2069a2;}#el_Te_KpDxFve1{fill: #2069a2;}#el_KWjrboace_O{fill: #2069a2;}#el_pZVVp5Mq0JB{fill: #2069a2;}#el_xfCgjVIE1Oh{fill: #2069a2;}#el_QybHsIQeFc0{fill: #2069a2;}#el_KJwAprD7oDj{fill: #2069a2;}#el_XN-EDuqA1mP{fill: #2069a2;}#el_NLXDXXyEJP2{fill: #2069a2;}#el_UaqW3KwslvY{fill: #2069a2;}#el_U0l5vpeNtFZ{fill: #2069a2;}#el_d_Dgkyd3hiv{fill: #2069a2;}#el_-sdxZUGqqjL{fill: #2069a2;}#el_ncAXOHevhS-{fill: #2069a2;}#el_BqCCaEUd2MA{fill: #2069a2;}#el_3xP7s1WEWfr{fill: #2069a2;}#el_0mgaSk920zV{fill: #2069a2;}#el_Tl2BO99MaqO{fill: #2069a2;}#el_tnQpfdUdN-B{fill: #2069a2;}#el_41oURR3UF1p{fill: #2069a2;}#el_gfaOXR0R1Gs{fill: #2069a2;}#el_a_ZCFO286YK{fill: #2069a2;}#el_253954iP_tx{fill: #2069a2;}#el_ekJQjIogt7J{fill: #2069a2;}#el_Fon6QmPzHcL{fill: #2069a2;}#el_sYhAfjAkco6{fill: #2069a2;}#el_sjKdh5dCd_K{fill: #2069a2;}#el_1T1n8JpycRZ{fill: #2069a2;}#el_wgf-b3r6mvn{fill: #2069a2;}#el_aovoFkAZKl2{fill: #2069a2;}#el_yxJQ0Sj4bmi{fill: #2069a2;}#el_8UiYnEn-8wZ{fill: #2069a2;}#el_tkYwKWwMKN3{fill: #2069a2;}#el_XnBCQQt5z-C{fill: #2069a2;}#el_So9rBb7SQN8{fill: #2069a2;}#el_CuracqJEklc{fill: #2069a2;}#el_EEaUgi3ul-J{fill: #2069a2;}#el_R3orYANiCwV{fill: #2069a2;}#el_rPm9a8zj4E5{fill: #2069a2;}#el_oXzCJ21MTCD{fill: #2069a2;}#el_psL91x5RFnL{fill: #2069a2;}#el_EjTakl7OYDX{fill: #2069a2;}#el_Gd2DMtNq_MN{fill: #2069a2;}#el_DGjdS8rFlSV{fill: #2069a2;}#el_H4VQ1jdj6GS{fill: #2069a2;}#el_yy9TmUjW8gt{fill: #2069a2;}#el_7ZvgX9WJ5KN{fill: #2069a2;}#el_vsnnIWHVZiw{fill: #2069a2;}#el_0r1cCeIolEq{fill: #2069a2;}#el_kt7PhmdZ73c{fill: #2069a2;}#el_GpiLrVU8NvV{fill: #2069a2;}#el_ZikKejQBvlg{fill: #2069a2;}#el_rb7n3ICFgfp{fill: #2069a2;}#el_o0zYFYiyAW-{fill: #2069a2;}#el_3OJ4GO0ABQr{fill: #2069a2;}#el_R_rXyqjFOf7{fill: #2069a2;}#el__6IeMVJ1-5M{fill: #2069a2;}#el_FAFcXH7rdSI{fill: #2069a2;}#el_0JWhWDt7WE9{fill: #2069a2;}#el_ml0jFziH2-x{fill: #2069a2;}#el_4YiRau4dhX2{fill: #2069a2;}#el_Jiq6wMvWTAQ{fill: #2069a2;}#el_CRUOlNrvFJA{fill: #2069a2;}#el_wMc1772gYWO{-webkit-clip-path: url(#clip-path-3);clip-path: url(#clip-path-3);}#el_fDHYRvhD9pV{-webkit-clip-path: url(#clip-path-3);clip-path: url(#clip-path-3);}#el_8L5A8FZoDOO{fill: #fff;}#el_S4aEqFgvZQv{-webkit-clip-path: url(#clip-path-5);clip-path: url(#clip-path-5);}#el_QSNY2QUXxJa{-webkit-clip-path: url(#clip-path-5);clip-path: url(#clip-path-5);}#el_nTLMaqSBmiR{fill: #005394;}#el_FxGx_-7z3hg{-webkit-clip-path: url(#clip-path-7);clip-path: url(#clip-path-7);}#el_nEYY0VqvTcI{-webkit-clip-path: url(#clip-path-7);clip-path: url(#clip-path-7);}#el_EAyPHagacWt{fill: #005394;}#el_wzoGn5qnFIh_EITkmkqTp{-webkit-animation-name: el_wzoGn5qnFIh_EITkmkqTp_Animation;animation-name: el_wzoGn5qnFIh_EITkmkqTp_Animation;-webkit-animation-timing-function: cubic-bezier(0.42, 0, 0.58, 1);animation-timing-function: cubic-bezier(0.42, 0, 0.58, 1);}#el_bfMLlkt7Hoh_N5sXy0zuP{-webkit-animation-name: el_bfMLlkt7Hoh_N5sXy0zuP_Animation;animation-name: el_bfMLlkt7Hoh_N5sXy0zuP_Animation;-webkit-animation-timing-function: cubic-bezier(0.42, 0, 0.58, 1);animation-timing-function: cubic-bezier(0.42, 0, 0.58, 1);}</style>
  <defs>
    <clipPath id="clip-path">
      <rect x="4.88" y="18.42" width="27.24" height="82.03" style="fill: none"/>
    </clipPath>
    <clipPath id="clip-path-3">
      <rect x="4" y="10.47" width="29" height="85.53" style="fill: none"/>
    </clipPath>
    <clipPath id="clip-path-5">
      <rect x="3.41" y="73.57" width="30.17" height="27.79" style="fill: none"/>
    </clipPath>
    <clipPath id="clip-path-7">
      <rect width="37" height="106" style="fill: none"/>
    </clipPath>
  </defs>
  <title>scroll</title>
  <g id="el_8r8sEGvZWy">
    <g id="el_Q6HjqWfmva">
      <g id="el_1zUFK7Ry90">
        <path d="M12.5,100.43v0Zm12,0v0Zm-18-8.58v0Zm24,0v0Z" id="el_0znGsNzyqq"/>
        <g id="el_-JmY-kR-jd">
          <path d="M29.84,91.85c.08,0,.28,0,.24-.09l-.33-.08Z" id="el_Lr7vcasis9w"/>
          <path d="M30.45,91.13A.87.87,0,0,0,29.7,91c.32.12.19.15.57.28,0,.11-.11.19-.23.17.08,0-.07.17.13.22.26-.13.27-.31.06-.49a.33.33,0,0,1,.22,0" id="el_1mHFjZ64vNw"/>
          <path d="M31,80.72l0,.07a.09.09,0,0,0,0-.07" id="el_WR5BI2XSKEo"/>
          <path d="M31.15,74.27a.07.07,0,0,0,.07.07s0-.08-.07-.07" id="el_wjTDv4HNEms"/>
          <path d="M31.51,73.17s0,0,0,.06.05,0,0-.06" id="el_L1RQ-59d-_J"/>
          <path d="M31,80.72l.11-.17c-.11,0-.08.09-.11.17" id="el_hUnCnDUg5Um"/>
          <path d="M29.65,89.7a.38.38,0,0,0,.09.09.36.36,0,0,1,0-.09h-.05" id="el_vt4AEzz5Ecd"/>
          <path d="M31.23,83.56v.06l.14,0Z" id="el_M4qxikSqHm5"/>
          <path d="M31.28,85.75s-.27-.07-.39-.09a.32.32,0,0,1,.2.11l.19,0" id="el_tHzabmc6CaE"/>
          <path d="M30.79,89.21l0,.06,0-.06" id="el_RqfrjYbMf3Q"/>
          <path d="M31.29,82l.1,0-.1,0" id="el_aca41kpeMaL"/>
          <path d="M29.18,21h.05s-.05,0-.05,0" id="el_X8lK1CaD77o"/>
          <path d="M30.57,18.43l0,0h.16Z" id="el_Fzi19A8Xe7s"/>
          <path d="M31.87,71.15h0c0,.06,0,0,0,0" id="el__c4JRS7AGt8"/>
          <path d="M31.66,52.65c-.25.21-.32-.34-.6,0,.11,0,.44.29.6,0" id="el_SpYtNlHJ-Rk"/>
          <path d="M29.69,89.64a.28.28,0,0,1,0-.09.13.13,0,0,0,0,.09" id="el_-OtualQlKrF"/>
          <path d="M31.06,52.62h0l0,0,0,0" id="el_z4ghVqJAjEE"/>
          <path d="M31.7,66.51a.33.33,0,0,0-.12,0,.33.33,0,0,0,.12,0" id="el_HLhSq_qN-4a"/>
          <path d="M31.3,70l0-.09a.31.31,0,0,0,0,.09" id="el_vLy-dcRV0BH"/>
          <path d="M31.31,64.71s.06-.06,0-.12l0,0s.06,0,0,.1" id="el_LBC40EBshia"/>
          <path d="M31.3,62.84l-.05,0s0,0,0,.06Z" id="el_PYRFfxPbAjK"/>
          <path d="M29.32,26.64a1,1,0,0,1,.25-.08c-.2,0-.27-.25-.25.08" id="el_SSYi8diL11c"/>
          <path d="M29.81,89.7q-.11,0-.12-.06s0,0,0,.06h.11" id="el_PDcfSdfbv13"/>
          <path d="M29.09,64.64l0-.3a.91.91,0,0,0,0,.3" id="el_CLRYzqXKAap"/>
          <path d="M29.36,40.06l0-.07a.08.08,0,0,0,0,.07" id="el_VnGZY6wYaHf"/>
          <path d="M29.09,63.46a.54.54,0,0,0,.19-.17.15.15,0,0,0-.07,0Z" id="el_WuhxhDBeDNB"/>
          <polyline points="29.57 26.56 29.57 26.56 29.57 26.56" id="el_Ebl8GHu75BC"/>
          <path d="M28.9,24.6c0,.28.37.13.58.19.1.34-.27.16-.46.27.09.22.43.38.42.53s-.08.05-.16,0c.29.22,0,.66.38.92l-.09,0a1.56,1.56,0,0,1,.51,0c0,.12.23.23,0,.28,0-.08-.09-.08-.17-.12l.11.13c-.35.12-.12-.18-.38-.18.12.26.4.56.3.76-.33,0-.11-.46-.41-.2l.13-.31c-.54.24,0-.18-.54,0-.1.41.18.46.08.86.19.09.28,0,.46.06.34.57-.85.45-.4.87.23.11.66.15.43.45l-.38-.1c0,.39.55.23.29.64-.15-.08-.12-.31-.17-.25-.3.26.22.19.22.39l-.34,0c.05.42.3.88.36,1.34-.1,0-.21-.1-.31,0A3,3,0,0,1,29.1,33l.3.21c0,.05-.14.1-.19,0-.11.22.18,0,.3.12s-.17.16-.26.08c.25.39.54,1.11.22,1.51l-.08-.08c-.12.32.6.36.32.65l-.05,0c-.13.69.14,1.45-.3,2,.42.1-.19.68.4.73-.29.39-.4.28-.59.83,0,.15.37.22.43.4h-.31l.32.25-.37.13.08.17a.23.23,0,0,1,.23-.13c.14.26-.21.65-.37.65l.26.64c-.13,0-.17-.12-.25-.21.32.34-.32.07,0,.37.07,0,.18,0,.24,0a.79.79,0,0,0-.11.77l-.21,0c0,.47.1,1,.1,1.52.1-.19.47-.15.5,0l-.33.06c.21.1.13-.16.38,0,0,.2-.38.13-.48,0l.11.24c-.1,0-.15,0-.27-.06.2.1-.33.42,0,.56H29c0,.53.11.77.12,1.2.28,0,.22.17.45.3a3.26,3.26,0,0,0-.29,1c.14.26.24.08.41.2-.26,0-.23.4-.42.2a3.42,3.42,0,0,0,.26,1.16c.1-.06.15-.14.24-.1s-.11.24-.23.22l0,0c.38.64-.75,1.49-.21,2l0,0,.28.53c-.05.25-.19-.14-.35,0,.43.57-.06.91.22,1.38-.76.37,0,1.31-.43,1.81l.18,0c.17.13-.1.15-.14.25.13,0,.16-.14.25-.06.22,1.08-.26,2.24-.42,3.35,0,.41.92.24.5.75l-.33-.15c.39.83,0,1.69.32,2.49-.07,0-.17,0-.17-.13-.24.17,0,.63.18.63,0,.13-.18,0-.28.11s.31.43.07.52c0,0-.08,0-.09-.08s0,.52.24.41c-.13.3.13.58,0,.82.31.16-.15.52.29.57-.45,0-.36.53-.15.72-.14-.07-.14.16-.33.09,0,.22.09.42.32.38-.54.4.44.81-.26,1a10.45,10.45,0,0,1,.52,1.83c-.45,0-.05-.64-.52-.62.18.56.57.88.46,1.42-.06.14-.19-.08-.27-.13.18.56,0,1.07.2,1.56,0,0-.08,0-.12-.1s-.07.22.14.21l-.06-.09c.3-.16.63.38.78.4-.58-.16-.14.49-.89.22a.28.28,0,0,0,.28.13c0,.1-.12.13-.28,0,.11.35.33.23.33.54-.1,0-.14-.06-.26-.1.19.16.39.32.3.59-.06,0-.13,0-.13-.07,0,.46.51.78.33,1.28-.44-.15-.15.17-.52.2l.11.27.18-.11c0,.23.27.44.15.65L29.72,74l.07.44.14-.25c.2.24.48,0,.37.29,0-.06,0,.24-.22.36h0c.12.11.24.23.15.41s-.41,0-.49,0c.31.12.08.55.42.7a.64.64,0,0,0-.32,0l.26.1a.23.23,0,0,1-.28.11c-.05.33.47-.11.27.28,0,0-.06,0-.1-.08-.1.4.16.76,0,1.12-.38.11-.1-.31-.41-.19.07.52.45,1.07.36,1.57l0-.09c.53.07-.26.37,0,.63,0-.07-.29-.09-.24-.07-.08.35.13.7.3,1.22l-.14-.06c-.12.2-.06.53-.13.75.14.07.12.19.32.12-.78.67.41,1.28-.23,1.88,0-.07-.12-.17-.12-.11l.12.51c.23,0,.14-.07.32-.18a.41.41,0,0,1,.24.34c-.15-.23-.37,0-.5.1.07,0,.15,0,.22,0-.41.27.47,0,.19.41l-.12,0c.06.13.22.26.19.41-.27.06-.12-.15-.35-.16,0,.21.51.41.24.6-.07-.09-.07-.22-.15-.31-.31.21-.23.23-.28.38h0l-.14.35.08-.09c.7.25.13.52.58.87-.43-.34-.25-.06-.55-.08-.08.09-.18.22-.26.18.24.17-.19.28.16.51-.09,0,0,.18-.25.14.08.21.17,0,.29,0,.33.32-.4.77.05,1.24.19.41.52.49.69.87-.16.12-.36-.11-.36-.11a.47.47,0,0,0,0,.56c-.08,0-.15,0-.26.06s.35.1.21.31a1.61,1.61,0,0,1-.39-.16c.09.18.27.37.36.56-.17.05-.26-.12-.37-.19.08.22.15.56.42.62l.1-.13c0,.08-.23,0-.28,0-.21-.18.09-.26.19-.27l.06.13c.57-.14-.09-.54-.06-.82l.42.12-.35-.28c.11-.06.34-.1.41,0,.2-.19-.15-.17.08-.34a0,0,0,0,1,.07,0L30.66,89c.09,0,.3,0,.24.08.24-.34-.31-.55,0-.68l0,0c-.14-.48-.31,0-.67-.4l.76-.24-.31,0c0-.05,0-.15.16-.13-.21-.18-.14,0-.33-.07.28-.24-.13-.66.35-.71-.23-.08-.17.23-.34,0,.53-.07-.09-.29.15-.5.28.06.13.27.37.05-.45-.13.1-.42,0-.6-.36,0-.15-.4-.27-.7.12,0,.2-.58.33-.86h.06c-.36-.06-.29-.35-.37-.56.22,0,.31,0,.4.16v-.2a.35.35,0,0,1-.22-.24l.28.05c0-.27-.33-.54-.14-.88-.26,0-.72.27-.89-.09.14,0,.38,0,.43.06s-.11-.11-.05-.17l.23.15c.1-.16-.19-.09-.17-.21.2,0,.14-.09.3-.08s-.09.11,0,.16a.58.58,0,0,1,.3-.37c-.11,0-.26,0-.29-.1,0-.27.24-.09.34-.25-.14-.06,0-.23-.29-.24,0-.08.14-.09.22-.12-.13-.14,0-.65-.35-.49l0,0a0,0,0,0,1,0,0h0c-.3-.45.16-.94,0-1.39H31c-.11-.27-.06-.59-.27-.79,0-.08.18-.18.29-.15-.07-.2-.18-.23,0-.52.17.2.15-.08.13.21.08-.27.24-.33,0-.62.25.1.32-.2.24-.32l-.18.18a1,1,0,0,1,0-.39l.33.07c.41-.55-.69-1,0-1.4-.23-.14-.16.3-.43.17,0-.25.52-.52.52-.59.18-.35-.49-.33-.36-.68-.12,0-.44.08-.55-.18,0-.26.5-.31.59-.15s0,.08-.06.08.09.19.22.09l-.12,0c.12-.13.11-.47.3-.39-.11-.19-.19-.08-.25.06.17-.32,0-.5.12-.84-.07.06-.21.11-.21,0,.15-.48-.22-.21-.27-.54.18-.19.43.07.28-.27.12-.2.31,0,.41,0-.23-.3.15-.56.19-.74l.1.16a.4.4,0,0,1-.06-.25l-.23.09c0-.09,0-.17.14-.17-.16-.09-.4.07-.61-.12.12-.12-.13-.38.18-.42-.1.39.32,0,.37.29a.26.26,0,0,1,0-.24s.06,0,.08,0c.28-.37-.36-.17-.35-.56.18,0,.34-.09.3-.15,0,.15-.3.07-.43-.07.14-.25-.1-.27-.09-.4l-.06.15c-.18-.05-.16-.18-.21-.35.13,0,.09.16.15.09-.31-.19.33-.43.12-.7.12-.12.33,0,.41-.12-.23-.3.24-.33.05-.64-.24.09-.18.1-.41-.12l.17.52-.35-.33c0,.15.15.33.11.42-.19-.16-.13-.14-.33-.07.36-.21-.21-.42,0-.67h.59c.27-.38-.3-.67-.15-1.15l-.11.15c-.23-.06,0-.3-.12-.45.2,0,.27-.09.39-.15-.15,0,0-.36-.38-.4l.26-.22c.1-.39-.56-.45-.5-.82.22.11.36-.06.51.19,0-.13,0-.24-.1-.24.13-.07-.26-.35-.08-.46-.08-.06-.29-.07-.27-.22a.24.24,0,0,1,.09,0c-.09,0-.13-.22-.35-.09.62-.39,0-1.09.49-1.42A5.76,5.76,0,0,1,31.1,62c.06,0,.1,0,.08,0,.18-.34-.57-.21-.36-.6.32-.2.17.21.29.08.65,0-.09-.47.29-.73l0,.06c.22-.2-.25-.49-.2-.82a.16.16,0,0,0,.1,0,1.63,1.63,0,0,1-.53-1c.25.09.13.14.39.08,0-.14-.42,0-.49-.24.14-.09.26-.3.54-.33v.27c.36-.14,0-.34,0-.48h.16c0-.41-.44-.41-.41-.85l-.12,0c-.39-.24.21-.2-.07-.44l.39-.07a3.44,3.44,0,0,1-.45-.84c.29.16.44.5.61.7,0-.16,0-.53-.22-.61,0,.06.13.14.07.2a.86.86,0,0,1-.46-.76c.77.06.2-.81.79-1-.28-.56.12-1.1.08-1.75-.6.23,0-.18-.63-.15,0-.15,0-.2,0-.22l.36-.45c.18-.11.14.14.28.13,0-.33.26-.14.42-.36-.22.05-.31-.11-.23-.3l-.28.26c-.33-.46.51-.39.19-.86l.19.15c-.11-.24,0-.88-.49-1.11.07,0,.24-.1.28,0,.08-.57-.52-1.27-.22-1.71l.15,0c0-.1-.28-.18-.13-.32s.15,0,.16,0-.26-.28-.17-.43l.16.13c.2-.56-.41-.86-.51-1.32.44,0,.59-.44.66-.65h.06c0-.64-.37-1.09-.54-1.69.48-.37.2-1.26.47-1.85-.08.09-.34,0-.39-.13s-.3-.38.1-.36v.05c.4-.11.29-.39.31-.62l-.53,0c.76-.58-.29-1.54.4-1.86-.13-.14-.13-.31-.26-.45h.28a2.51,2.51,0,0,0,0-1.07l.21.1c0-.28-.82-.35-.84-.6l.42-.08c0-.47.37-1,0-1.43.06,0,.18,0,.2.1,0-.23.28-.87-.3-.79.38,0,0-.49-.13-.75l.28,0c-.35-.22-.45-.23-.55-.53,0-.07.22-.06.15,0,.15-.24-.26-.18-.11-.48l.18.11c0-.24-.08-.22-.29-.36s.07-.47.33-.51c-.16,0-.36-.16-.29-.31a.19.19,0,0,1,.18.06c.19-.41-.32-.61,0-.9a.23.23,0,0,0,.17-.05,2.42,2.42,0,0,1,0,.57c.25,0,.3-.26.65-.05-.19-.22-.61-.58-.49-.84l.09,0,0,0a.16.16,0,0,0,0-.16.44.44,0,0,0,.07-.21c.22,0,.12-.31.13-.44-.28,0-.24-.16-.47,0,0,0,0,0,.05.11a.11.11,0,0,0,0,.06h0c0,.09,0,.2,0,.33-.14-.1-.26-.21-.11-.36a4.71,4.71,0,0,1-.45-.19c.39-.18.6-.52.84-.57-.15-.41-.1-1-.63-1.21-.07-.11.15-.13.24-.17s0,.14.12.18c-.14-.23-.06-.68-.43-.74.17-.29.34.17.29-.23l.11.05c.59-.78-.94-1.27-.19-2.14a.23.23,0,0,1-.13.11c.34-1-.31-2,.22-3,.11-.27-.13-.3-.31-.47l.3-.06-.34-.29c-.26-.41.74-.71.25-1.23l-.2.06c0-.18-.12-.59.11-.56,0,0-.21-.06-.1-.13h.16l-.27-.46c.11-.36.62.05.65-.47-.06-.19-.46-.54-.56-.47a.26.26,0,0,1-.26.2l-.08-.17c-.47,0-.94-.17-1.27.26l.28.3-.22.1v-.25c-.22.14,0,.23.1.33a.45.45,0,0,0-.25.13l.45.3c-.19,0-.36-.14-.47.06.21.14.41-.13.55.1-.21.14-.39.1-.2.27A.23.23,0,0,1,29.3,20c.14.15.06.4.3.48-.26.15.07.51-.37.49a.84.84,0,0,1,.37.4c-.53-.25,0,.52-.6.46.47.18.21.67.47,1,0,0-.11-.05-.09-.08,0,.18-.18.24-.27.36.39,0,.48.31.72.47-.37.23-.46-.14-.82-.07.32,0,.32.4.58.32-.23.18-.11.15-.44.24.49,0,.09.17.39.31-.24.25-.46.07-.31.34-.15.14-.33-.11-.33-.11m.85,6.61h0a.93.93,0,0,1,0-.14s0,.07,0,.14m0,.56a1.85,1.85,0,0,0,0-.24c.09,0,.19,0,.19,0s-.12.1-.2.19m1.94-1.18c0,.09,0,.12-.07.13a.49.49,0,0,0,0-.15h0a.42.42,0,0,1,.14,0" id="el_a2sB8IXRaL5"/>
          <path d="M31.34,30.43l0,0-.06.05.09,0v-.05" id="el_GiiQvh0DfQY"/>
          <path d="M30.92,80.8h0l0,0h0" id="el_OvbhntTmIG9"/>
          <polygon points="29.22 39.44 29.29 39.44 29.23 39.39 29.22 39.44" id="el_96YP6aMoRSF"/>
          <path d="M30,83.86l-.07,0a.13.13,0,0,0,.07,0" id="el_J7Qrky6_AZx"/>
          <path d="M29.89,85.18l-.1.19a.7.7,0,0,0,.1-.19" id="el_1pBr5NrTNaL"/>
          <path d="M29.75,86.2l.12,0h0Z" id="el_AlIskm8tvDf"/>
          <path d="M29.42,70a.06.06,0,0,0,0,0c-.06-.09,0,0,0,0" id="el_oETbp5Yrywm"/>
          <path d="M30.08,74.85a1.07,1.07,0,0,1-.14-.16c0,.09,0,.15.14.16" id="el_jBarKv-E77f"/>
          <path d="M29.08,64.67h0v0Z" id="el_-QKNdcf_bEV"/>
          <path d="M30,74.47a.18.18,0,0,0,0,.22.33.33,0,0,0,0-.22" id="el_ezj3jtXieW4"/>
          <path d="M29.62,90.6v.05h.05Z" id="el_Rijf-vW8IyZ"/>
          <path d="M29.66,90.66l0,0s0,0,0,0" id="el_tyjYyTZUNc8"/>
          <path d="M29.76,90.83l-.07-.12s0,.09.07.12" id="el_zC9yF6R0INb"/>
          <path d="M29.75,89.26l-.1,0,.1,0" id="el_4mlglVVrJYW"/>
          <path d="M29.72,88.85c0,.1-.21.24-.15.38h.08c-.15-.06.25-.3.07-.39" id="el_VoRU9MRdBt7"/>
          <path d="M31,87.14l-.08.35c.11-.07.26-.14.28,0,.33-.43-.24.09-.2-.36" id="el_gm29Axc7YOT"/>
          <path d="M31.14,86.08c.05.18.16,0,.22,0-.1-.12-.12-.15-.22,0" id="el_yNyt3nvESlj"/>
          <path d="M31.14,78.4l.26,0c0-.14-.1,0-.26,0" id="el_nw7TajdRVn8"/>
          <polygon points="29.82 76.94 29.66 77.07 29.9 77.14 29.82 76.94" id="el_6RSi-WtlVC8"/>
          <polygon points="31.64 76.07 31.68 76.13 31.59 75.89 31.64 76.07" id="el_DEp4MKVkmGr"/>
          <path d="M31.55,63.18l-.31,0c.05.09.41.11.31,0" id="el_N4hwzD5hY2O"/>
          <path d="M31.23,57.61c.16-.06.26-.22.11-.31,0,.12-.15.25-.11.31" id="el_ArcCjO_P4xP"/>
          <polygon points="31.75 40.91 31.85 41.03 31.76 40.82 31.75 40.91" id="el_N2Th_R_VASM"/>
          <path d="M23.84,100.43c.08,0,.28,0,.24-.09l-.33-.07Z" id="el_e4Cfy2lAT71"/>
          <path d="M24.45,99.71a.87.87,0,0,0-.75-.18c.32.12.19.15.57.28,0,.11-.11.19-.23.17.08,0-.07.17.13.22.26-.13.27-.31.06-.49.07,0,.16,0,.22,0" id="el_ash5nDoeSZP"/>
          <path d="M25,89.3l0,.07a.09.09,0,0,0,0-.07" id="el_GdH0AZj2Kr-"/>
          <path d="M25.15,82.85a.07.07,0,0,0,.07.07s0-.08-.07-.07" id="el_HWL1gFXPDt-"/>
          <path d="M25.51,81.75a.64.64,0,0,0,0,.07s.05,0,0-.07" id="el_YKCA0QmfnZz"/>
          <path d="M25,89.3l.11-.17c-.11,0-.08.09-.11.17" id="el_QihX82MWa0b"/>
          <path d="M23.65,98.28a.38.38,0,0,0,.09.09.36.36,0,0,1,0-.09h-.05" id="el_DwI-e3NlyKv"/>
          <path d="M25.23,92.15v0l.14,0Z" id="el_cMOF6cwoqGJ"/>
          <path d="M25.28,94.33s-.27-.07-.39-.09a.32.32,0,0,1,.2.11.72.72,0,0,0,.19,0" id="el_EgoxDNdJmno"/>
          <path d="M24.79,97.79l0,.06,0-.06" id="el_R58ENr31-Hs"/>
          <path d="M25.29,90.58a.22.22,0,0,0,.1,0l-.1,0" id="el_fq2YmiBY409"/>
          <path d="M23.18,29.54h0" id="el_VfSaQwSmqs2"/>
          <path d="M24.57,27l0,0h.16Z" id="el_z3OYJ-LJCI7"/>
          <path d="M25.87,79.73h0c0,.06,0,0,0,0" id="el_ALHqDioXXav"/>
          <path d="M25.66,61.23c-.25.21-.32-.34-.6,0,.11,0,.44.29.6,0" id="el_frlUSjxAjt9"/>
          <path d="M23.69,98.22a.28.28,0,0,1,0-.09.13.13,0,0,0,0,.09" id="el_3V18R74GpCt"/>
          <path d="M25.06,61.2h0l0,0,0,0" id="el_9eIqCsoJUN8"/>
          <path d="M25.7,75.09a.33.33,0,0,0-.12,0,.21.21,0,0,0,.12,0" id="el_4S3RdarZFAZ"/>
          <path d="M25.3,78.55l0-.09a.31.31,0,0,0,0,.09" id="el_efm5IzcSVTi"/>
          <path d="M25.31,73.29s.06-.06,0-.12a.05.05,0,0,0,0,0s.06,0,0,.1" id="el_uq-DYfwMSoC"/>
          <path d="M25.3,71.42l-.05,0s0,0,0,.06Z" id="el_iql_5DfQP7V"/>
          <path d="M23.32,35.22a1,1,0,0,1,.25-.08c-.2,0-.27-.25-.25.08" id="el_Evd0djMCN-u"/>
          <path d="M23.81,98.28q-.11,0-.12-.06s0,0,0,.06a.2.2,0,0,0,.11,0" id="el_v1WHxsWZFGY"/>
          <path d="M23.09,73.22l0-.3a.91.91,0,0,0,0,.3" id="el_kLuSus8DF-H"/>
          <path d="M23.36,48.64l0-.07a.08.08,0,0,0,0,.07" id="el_TvwBpr-Q9x3"/>
          <path d="M23.09,72a.46.46,0,0,0,.19-.17l-.07,0Z" id="el_my8q78mL4PR"/>
          <polyline points="23.57 35.14 23.57 35.14 23.57 35.14" id="el_B6YrjEJg30K"/>
          <path d="M22.9,33.18c0,.28.37.13.58.19.1.34-.27.16-.46.28.09.21.43.37.42.53s-.08,0-.16,0c.29.23,0,.66.38.92l-.09,0a1.9,1.9,0,0,1,.51,0c0,.13.23.23,0,.28,0-.08-.09-.08-.17-.12l.11.13c-.35.12-.12-.18-.38-.18.12.26.4.56.3.76-.33,0-.11-.46-.41-.2l.13-.3c-.54.23,0-.19-.54,0-.1.41.18.46.08.86.19.09.28,0,.46.06.34.58-.85.45-.4.87.23.11.66.16.43.46l-.38-.11c0,.4.55.23.29.64-.15-.08-.12-.31-.17-.25-.3.27.22.19.22.39l-.34,0c.05.42.3.88.36,1.34-.1,0-.21-.1-.31,0a3,3,0,0,1-.25,1.8l.3.22a.13.13,0,0,1-.19,0c-.11.22.18,0,.3.12s-.17.17-.26.09c.25.38.54,1.1.22,1.5l-.08-.07c-.12.31.6.35.32.65l-.05-.06c-.13.69.14,1.45-.3,2,.42.1-.19.68.4.73-.29.39-.4.28-.59.83,0,.15.37.22.43.41h-.31l.32.25-.37.13.08.17a.24.24,0,0,1,.23-.13c.14.26-.21.65-.37.66l.26.63c-.13,0-.17-.12-.25-.2.32.33-.32.06,0,.37.07,0,.18,0,.24,0a.77.77,0,0,0-.11.76l-.21,0c0,.47.1,1,.1,1.52.1-.19.47-.15.5,0l-.33.06c.21.1.13-.16.38,0,0,.2-.38.14-.48,0l.11.24c-.1,0-.15,0-.27-.05.2.09-.33.41,0,.55H23c0,.53.11.77.12,1.2.28,0,.22.18.45.3a3.26,3.26,0,0,0-.29,1.05c.14.27.24.08.41.2-.26,0-.23.4-.42.2a3.37,3.37,0,0,0,.26,1.16c.1-.06.15-.13.24-.1s-.11.24-.23.23l0,0c.38.65-.75,1.49-.21,2l0,0,.28.54c-.05.24-.19-.15-.35,0,.43.58-.06.91.22,1.39-.76.36,0,1.3-.43,1.8l.18,0c.17.13-.1.15-.14.25.13,0,.16-.14.25-.06.22,1.09-.26,2.24-.42,3.36,0,.4.92.23.5.74l-.33-.14c.39.82,0,1.68.32,2.48-.07,0-.17,0-.17-.13-.24.17,0,.63.18.64,0,.12-.18,0-.28.1s.31.43.07.52c0,0-.08,0-.09-.08s0,.52.24.41c-.13.31.13.58,0,.82.31.16-.15.52.29.57-.45,0-.36.53-.15.72-.14-.06-.14.17-.33.09,0,.22.09.42.32.38-.54.4.44.81-.26,1a10.45,10.45,0,0,1,.52,1.83c-.45,0-.05-.64-.52-.62.18.56.57.88.46,1.42-.06.15-.19-.08-.27-.12.18.55,0,1.06.2,1.56,0,0-.08-.06-.12-.11s-.07.23.14.21l-.06-.09c.3-.15.63.38.78.4-.58-.16-.14.49-.89.23a.31.31,0,0,0,.28.13c0,.09-.12.12-.28,0,.11.35.33.23.33.54-.1,0-.14-.06-.26-.09.19.15.39.31.3.58-.06,0-.13,0-.13-.06,0,.45.51.77.33,1.27-.44-.15-.15.17-.52.2l.11.27.18-.11c0,.24.27.44.15.65l-.16-.18.07.44.14-.25c.2.24.48,0,.37.29,0-.06,0,.24-.22.36h0c.12.12.24.24.15.41s-.41,0-.49,0c.31.12.08.56.42.7a.53.53,0,0,0-.32,0l.26.09a.23.23,0,0,1-.28.11c-.05.33.47-.1.27.29,0,0-.06,0-.1-.08-.1.39.16.75,0,1.11-.38.11-.1-.31-.41-.19.07.52.45,1.07.36,1.57l0-.09c.53.07-.26.37,0,.63,0-.06-.29-.08-.24-.07-.08.35.13.71.3,1.23L23.93,89c-.12.21-.06.54-.13.75.14.07.12.19.32.12-.78.67.41,1.29-.23,1.88,0-.07-.12-.17-.12-.11l.12.51c.23,0,.14-.07.32-.17a.39.39,0,0,1,.24.33c-.15-.23-.37,0-.5.1.07,0,.15,0,.22,0-.41.27.47,0,.19.41l-.12,0c.06.14.22.26.19.41-.27.06-.12-.15-.35-.16,0,.21.51.41.24.6-.07-.09-.07-.22-.15-.3-.31.2-.23.22-.28.37h0l-.14.35.08-.09c.7.26.13.52.58.87-.43-.34-.25,0-.55-.08-.08.09-.18.22-.26.19.24.16-.19.27.16.5-.09,0,0,.18-.25.14.08.21.17,0,.29,0,.33.33-.4.77.05,1.24.19.41.52.49.69.87-.16.12-.36-.11-.36-.11a.47.47,0,0,0,0,.56c-.08,0-.15,0-.26.06s.35.1.21.31a1.61,1.61,0,0,1-.39-.16c.09.19.27.37.36.56-.17,0-.26-.12-.37-.18.08.21.15.55.42.62l.1-.14c0,.08-.23,0-.28,0-.21-.18.09-.26.19-.27l.06.13c.57-.14-.09-.54-.06-.81l.42.11-.35-.28c.11-.06.34-.1.41,0,.2-.19-.15-.17.08-.34a0,0,0,0,1,.07,0l-.13-.19c.09,0,.3,0,.24.08.24-.34-.31-.55,0-.68l0,0c-.14-.47-.31,0-.67-.4l.76-.24-.31,0s0-.15.16-.13c-.21-.18-.14,0-.33-.07.28-.24-.13-.65.35-.71-.23-.08-.17.23-.34,0,.53-.08-.09-.3.15-.51.28.07.13.27.37,0-.45-.13.1-.42,0-.6-.36,0-.15-.39-.27-.7.12,0,.2-.58.33-.86h.06c-.36-.06-.29-.35-.37-.56.22,0,.31,0,.4.16v-.2A.35.35,0,0,1,25,92l.28.05c0-.27-.33-.54-.14-.88-.26,0-.72.27-.89-.09.14,0,.38,0,.43.07s-.11-.12-.05-.18l.23.15c.1-.16-.19-.08-.17-.21.2,0,.14-.09.3-.07s-.09.1,0,.15a.58.58,0,0,1,.3-.37c-.11,0-.26,0-.29-.1,0-.27.24-.09.34-.25-.14-.06,0-.23-.29-.24,0-.07.14-.09.22-.12-.13-.14,0-.64-.35-.49l0,0v0h0c-.3-.46.16-1,0-1.4H25c-.11-.26-.06-.59-.27-.78,0-.08.18-.19.29-.16-.07-.2-.18-.23,0-.52.17.2.15-.07.13.21.08-.27.24-.33,0-.61.25.09.32-.2.24-.33l-.18.19a1.07,1.07,0,0,1,0-.4l.33.07c.41-.55-.69-1,0-1.4-.23-.14-.16.3-.43.17,0-.25.52-.51.52-.59.18-.35-.49-.32-.36-.68-.12,0-.44.09-.55-.18,0-.25.5-.31.59-.15s0,.09-.06.08.09.19.22.09l-.12,0c.12-.12.11-.47.3-.39-.11-.19-.19-.08-.25.06.17-.32,0-.5.12-.83-.07.05-.21.1-.21,0,.15-.48-.22-.21-.27-.54.18-.19.43.07.28-.26.12-.21.31,0,.41,0-.23-.3.15-.56.19-.73l.1.16a.45.45,0,0,1-.06-.26l-.23.09c0-.09,0-.17.14-.17-.16-.09-.4.08-.61-.11.12-.13-.13-.38.18-.43-.1.4.32,0,.37.29a.24.24,0,0,1,0-.23s.06,0,.08,0c.28-.38-.36-.18-.35-.57.18,0,.34-.09.3-.15,0,.16-.3.08-.43-.07.14-.25-.1-.27-.09-.4l-.06.15c-.18,0-.16-.18-.21-.35.13,0,.09.16.15.1-.31-.2.33-.44.12-.71.12-.12.33,0,.41-.12-.23-.3.24-.33.05-.64-.24.09-.18.1-.41-.12l.17.52-.35-.33c0,.15.15.33.11.42-.19-.16-.13-.14-.33-.06.36-.22-.21-.43,0-.68h.59c.27-.38-.3-.67-.15-1.15l-.11.16c-.23-.07,0-.3-.12-.46.2,0,.27-.09.39-.15-.15,0,0-.36-.38-.4l.26-.22c.1-.39-.56-.45-.5-.82.22.11.36-.06.51.19,0-.12,0-.24-.1-.24.13-.07-.26-.35-.08-.46-.08-.06-.29-.07-.27-.21a.12.12,0,0,1,.09,0c-.09,0-.13-.22-.35-.1.62-.39,0-1.08.49-1.42a5.76,5.76,0,0,1-.15-.86c.06,0,.1,0,.08.05.18-.34-.57-.21-.36-.6.32-.2.17.21.29.08.65,0-.09-.47.29-.73l0,.06c.22-.2-.25-.49-.2-.82a.16.16,0,0,0,.1,0,1.63,1.63,0,0,1-.53-1c.25.1.13.14.39.08,0-.14-.42,0-.49-.24.14-.09.26-.3.54-.32v.26c.36-.13,0-.34,0-.48h.16c0-.4-.44-.41-.41-.85l-.12,0c-.39-.24.21-.2-.07-.45l.39-.07a3.44,3.44,0,0,1-.45-.84c.29.16.44.5.61.7,0-.15,0-.53-.22-.61,0,.06.13.14.07.2a.85.85,0,0,1-.46-.76c.77.06.2-.81.79-1-.28-.55.12-1.1.08-1.74-.6.22,0-.19-.63-.15,0-.15,0-.21,0-.22l.36-.46c.18-.11.14.14.28.13,0-.33.26-.14.42-.36-.22,0-.31-.11-.23-.3l-.28.27c-.33-.46.51-.4.19-.87l.19.15c-.11-.24,0-.88-.49-1.11.07,0,.24-.1.28,0,.08-.57-.52-1.27-.22-1.71l.15,0c0-.1-.28-.18-.13-.31s.15,0,.16,0-.26-.28-.17-.42l.16.12c.2-.56-.41-.85-.51-1.32.44,0,.59-.43.66-.65h.06c0-.65-.37-1.1-.54-1.7.48-.37.2-1.26.47-1.85-.08.09-.34,0-.39-.12s-.3-.39.1-.37v0c.4-.1.29-.39.31-.62l-.53,0c.76-.59-.29-1.54.4-1.86-.13-.15-.13-.32-.26-.46h.28a2.56,2.56,0,0,0,0-1.08l.21.1c0-.27-.82-.35-.84-.6l.42-.07c0-.48.37-1,0-1.44.06,0,.18,0,.2.1,0-.22.28-.87-.3-.79.38,0,0-.49-.13-.75l.28,0c-.35-.22-.45-.22-.55-.53,0-.07.22-.06.15,0,.15-.25-.26-.19-.11-.48l.18.11c0-.25-.08-.23-.29-.37s.07-.47.33-.5c-.16,0-.36-.17-.29-.32a.22.22,0,0,1,.18.06c.19-.41-.32-.61,0-.9a.3.3,0,0,0,.17,0,2.37,2.37,0,0,1,0,.56c.25,0,.3-.26.65,0-.19-.21-.61-.58-.49-.84l.09,0,0,0a.18.18,0,0,0,0-.17.44.44,0,0,0,.07-.21c.22,0,.12-.31.13-.44-.28,0-.24-.16-.47,0,0,0,0,0,.05.12a.08.08,0,0,0,0,0h0c0,.09,0,.2,0,.33-.14-.1-.26-.21-.11-.36l-.45-.18c.39-.18.6-.53.84-.58-.15-.41-.1-1-.63-1.21-.07-.11.15-.13.24-.17s0,.14.12.18c-.14-.23-.06-.68-.43-.74.17-.28.34.17.29-.23l.11,0c.59-.78-.94-1.27-.19-2.14,0,.06-.07.1-.13.11.34-1-.31-2,.22-3,.11-.28-.13-.31-.31-.48l.3-.06-.34-.29c-.26-.41.74-.71.25-1.23l-.2.07c0-.19-.12-.59.11-.56,0,0-.21-.06-.1-.14h.16L24.84,28c.11-.36.62.05.65-.46-.06-.2-.46-.55-.56-.48a.26.26,0,0,1-.26.2l-.08-.17c-.47,0-.94-.17-1.27.26l.28.3-.22.1v-.25c-.22.14,0,.23.1.34a.39.39,0,0,0-.25.12l.45.3c-.19,0-.36-.14-.47.06.21.14.41-.13.55.1-.21.14-.39.1-.2.27a.23.23,0,0,1-.25-.08c.14.15.06.4.3.48-.26.15.07.51-.37.49a.82.82,0,0,1,.37.41c-.53-.26,0,.51-.6.45.47.18.21.67.47,1,0,0-.11,0-.09-.08,0,.19-.18.24-.27.36.39,0,.48.32.72.47-.37.23-.46-.14-.82-.06.32,0,.32.39.58.31-.23.18-.11.16-.44.25.49,0,.09.16.39.3-.24.26-.46.07-.31.35-.15.13-.33-.12-.33-.12m.85,6.61h0a.83.83,0,0,1,0-.13s0,.06,0,.13m0,.56a1.77,1.77,0,0,0,0-.24c.09,0,.19,0,.19.06s-.12.1-.2.18m1.94-1.18c0,.09,0,.12-.07.13a.49.49,0,0,0,0-.15h0l.14,0" id="el_3-gBNzoXvwO"/>
          <path d="M25.34,39l0,0-.06.05.09,0V39" id="el_cfKxQ_Keljj"/>
          <path d="M24.92,89.38h0l0,0,0,0" id="el__owTPd71ZBz"/>
          <polygon points="23.22 48.02 23.29 48.02 23.23 47.97 23.22 48.02" id="el_i0DLiXmuSzL"/>
          <path d="M24,92.44l-.07,0a.13.13,0,0,0,.07,0" id="el_8N4DZs-AI9Q"/>
          <path d="M23.89,93.76l-.1.19a.7.7,0,0,0,.1-.19" id="el_IwXqfObzUJy"/>
          <path d="M23.75,94.78l.12,0h0Z" id="el_as9n4E2srAX"/>
          <path d="M23.42,78.62a.06.06,0,0,0,0,0c-.06-.09,0,0,0,0" id="el_5ILwHGkqk8D"/>
          <path d="M24.08,83.43l-.14-.15c0,.08,0,.15.14.15" id="el_XSsHBH5rLAK"/>
          <path d="M23.08,73.25h0v0Z" id="el_nvat-Updil3"/>
          <path d="M24,83.05a.19.19,0,0,0,0,.23c0-.08,0-.16,0-.23" id="el_XOwL7z4siKy"/>
          <path d="M23.62,99.18v0h.05Z" id="el_Vq4oqLSUsYf"/>
          <path d="M23.66,99.24l0,.05s0,0,0-.05" id="el_s6X_AG-CdbF"/>
          <path d="M23.76,99.41l-.07-.12s0,.09.07.12" id="el_ZEYOU0vA6vM"/>
          <path d="M23.75,97.84l-.1,0,.1,0" id="el_ELJ8i_M3ate"/>
          <path d="M23.72,97.43c0,.1-.21.24-.15.38h.08c-.15-.06.25-.3.07-.39" id="el_JTA6OHYK5pT"/>
          <path d="M25,95.72l-.08.35c.11-.06.26-.14.28,0,.33-.43-.24.09-.2-.36" id="el_m-H6OzLEVI9"/>
          <path d="M25.14,94.66c.05.19.16,0,.22,0-.1-.12-.12-.15-.22,0" id="el_cFaDsBUOdV0"/>
          <path d="M25.14,87l.26,0c0-.14-.1,0-.26,0" id="el_0MQjemu3kms"/>
          <polygon points="23.82 85.52 23.66 85.66 23.9 85.72 23.82 85.52" id="el_HKicWYai-hS"/>
          <polygon points="25.64 84.65 25.68 84.71 25.59 84.48 25.64 84.65" id="el_k73fbiqs1fD"/>
          <path d="M25.55,71.76l-.31,0c.05.1.41.12.31,0" id="el_J5gOFnaUWEy"/>
          <path d="M25.23,66.19c.16-.06.26-.22.11-.31,0,.12-.15.25-.11.31" id="el_L3YwKLytE7o"/>
          <polygon points="25.75 49.5 25.85 49.61 25.76 49.4 25.75 49.5" id="el_Sb0b3TvVzPH"/>
          <path d="M11.84,100.43c.08,0,.28,0,.24-.09l-.33-.07Z" id="el_Yxpox_G-OxB"/>
          <path d="M12.45,99.71a.87.87,0,0,0-.75-.18c.32.12.19.15.57.28,0,.11-.11.19-.23.17.08,0-.07.17.13.22.26-.13.27-.31.06-.49.07,0,.16,0,.22,0" id="el_tLk0r1nOeIj"/>
          <path d="M13,89.3l0,.07a.09.09,0,0,0,0-.07" id="el_QH2QURKni55"/>
          <path d="M13.15,82.85a.07.07,0,0,0,.07.07s-.05-.08-.07-.07" id="el_Blpiz5fGDIX"/>
          <path d="M13.51,81.75a.64.64,0,0,0,0,.07s0,0,0-.07" id="el_6cqfkW53Co7"/>
          <path d="M13,89.3l.11-.17c-.11,0-.08.09-.11.17" id="el_tsfk0ILhvq2"/>
          <path d="M11.65,98.28a.38.38,0,0,0,.09.09.36.36,0,0,1,0-.09h0" id="el_64fHvniHfDq"/>
          <path d="M13.23,92.15v0l.14,0Z" id="el_i_QhA8YSBP2"/>
          <path d="M13.28,94.33s-.27-.07-.39-.09a.32.32,0,0,1,.2.11.72.72,0,0,0,.19,0" id="el_SF293Q8MPNz"/>
          <path d="M12.79,97.79l0,.06,0-.06" id="el_siWaejY2mIU"/>
          <path d="M13.29,90.58a.22.22,0,0,0,.1,0l-.1,0" id="el_C3tTCcDYE6Z"/>
          <path d="M11.18,29.54h0" id="el_fILjkf_DmK6"/>
          <path d="M12.57,27l0,0h.16Z" id="el_RQUuyKI1k2x"/>
          <path d="M13.87,79.73h0c0,.06,0,0,0,0" id="el_-uPnYLE7VYP"/>
          <path d="M13.66,61.23c-.25.21-.32-.34-.6,0,.11,0,.44.29.6,0" id="el_C-GbottAqug"/>
          <path d="M11.69,98.22a.28.28,0,0,1,0-.09.13.13,0,0,0,0,.09" id="el_FQCca5OR30b"/>
          <path d="M13.06,61.2h0l0,0,0,0" id="el_UE4jnbXL-Yh"/>
          <path d="M13.7,75.09a.33.33,0,0,0-.12,0,.21.21,0,0,0,.12,0" id="el_7j08-xl0EzN"/>
          <path d="M13.3,78.55l0-.09a.31.31,0,0,0,0,.09" id="el_HGUpI1eiwhR"/>
          <path d="M13.31,73.29s.06-.06,0-.12l0,0s.06,0,0,.1" id="el_R53_zriEk82"/>
          <path d="M13.3,71.42l-.05,0s0,0,0,.06Z" id="el_X-PjrY_h8eC"/>
          <path d="M11.32,35.22a1,1,0,0,1,.25-.08c-.2,0-.27-.25-.25.08" id="el_NcD8DPjlRhI"/>
          <path d="M11.81,98.28q-.11,0-.12-.06s0,0,0,.06a.2.2,0,0,0,.11,0" id="el_4Nf36qUD0OP"/>
          <path d="M11.09,73.22l0-.3a.91.91,0,0,0,0,.3" id="el_vZVDn31-WBr"/>
          <path d="M11.36,48.64l0-.07a.08.08,0,0,0,0,.07" id="el_kNf31yrUjiu"/>
          <path d="M11.09,72a.46.46,0,0,0,.19-.17l-.07,0Z" id="el_z1raBnkUIQL"/>
          <polyline points="11.57 35.14 11.57 35.14 11.57 35.14" id="el_8mdkI4S70lP"/>
          <path d="M10.9,33.18c0,.28.37.13.58.19.1.34-.27.16-.46.28.1.21.43.37.42.53s-.08,0-.16,0c.29.23,0,.66.38.92l-.09,0a1.92,1.92,0,0,1,.51,0c0,.13.23.23,0,.28,0-.08-.09-.08-.16-.12l.1.13c-.35.12-.12-.18-.38-.18.12.26.4.56.31.76-.34,0-.12-.46-.42-.2l.13-.3c-.54.23,0-.19-.54,0-.09.41.18.46.08.86.19.09.28,0,.47.06.33.58-.86.45-.41.87.23.11.66.16.43.46l-.38-.11c0,.4.55.23.29.64-.15-.08-.12-.31-.17-.25-.3.27.22.19.22.39l-.34,0c0,.42.3.88.36,1.34-.1,0-.21-.1-.31,0a3,3,0,0,1-.25,1.8l.3.22a.13.13,0,0,1-.19,0c-.11.22.18,0,.3.12s-.17.17-.26.09c.25.38.54,1.1.22,1.5l-.08-.07c-.12.31.6.35.32.65l-.05-.06c-.12.69.14,1.45-.3,2,.42.1-.19.68.4.73-.29.39-.4.28-.59.83,0,.15.37.22.43.41h-.31l.32.25-.37.13.08.17a.24.24,0,0,1,.23-.13c.14.26-.21.65-.37.66l.26.63c-.13,0-.17-.12-.25-.2.32.33-.32.06,0,.37.07,0,.18,0,.24,0a.77.77,0,0,0-.11.76l-.21,0c-.05.47.1,1,.1,1.52.1-.19.47-.15.5,0l-.32.06c.2.1.12-.16.37,0,0,.2-.38.14-.48,0l.11.24c-.1,0-.15,0-.27-.05.2.09-.33.41,0,.55H11c0,.53.11.77.12,1.2.28,0,.22.18.45.3a3.26,3.26,0,0,0-.29,1.05c.14.27.24.08.41.2-.26,0-.23.4-.42.2a3.37,3.37,0,0,0,.26,1.16c.1-.06.15-.13.24-.1s-.11.24-.23.23l0,0c.38.65-.75,1.49-.21,2l0,0,.28.54c0,.24-.19-.15-.35,0,.43.58-.06.91.22,1.39-.75.36.05,1.3-.43,1.8l.18,0c.17.13-.1.15-.14.25.14,0,.16-.14.25-.06.22,1.09-.26,2.24-.42,3.36,0,.4.92.23.5.74l-.33-.14c.39.82,0,1.68.32,2.48-.07,0-.17,0-.17-.13-.24.17,0,.63.18.64,0,.12-.18,0-.28.1s.31.43.07.52c0,0-.07,0-.09-.08s0,.52.24.41c-.13.31.13.58,0,.82.31.16-.15.52.29.57-.45,0-.36.53-.15.72-.14-.06-.14.17-.33.09,0,.22.09.42.32.38-.54.4.44.81-.26,1a10.45,10.45,0,0,1,.52,1.83c-.45,0-.05-.64-.52-.62.18.56.57.88.46,1.42-.06.15-.19-.08-.27-.12.19.55,0,1.06.2,1.56,0,0-.08-.06-.12-.11s-.06.23.14.21l-.05-.09c.29-.15.62.38.77.4-.58-.16-.14.49-.89.23a.31.31,0,0,0,.28.13c0,.09-.12.12-.28,0,.11.35.33.23.33.54-.1,0-.14-.06-.26-.09.19.15.39.31.3.58-.06,0-.13,0-.13-.06,0,.45.51.77.33,1.27-.43-.15-.15.17-.52.2l.11.27.18-.11c0,.24.27.44.15.65l-.16-.18.07.44.15-.25c.19.24.47,0,.36.29,0-.06,0,.24-.22.36h0c.12.12.24.24.15.41s-.41,0-.49,0c.31.12.08.56.42.7a.53.53,0,0,0-.32,0l.26.09c-.08.11-.12.13-.28.11-.05.33.47-.1.27.29,0,0-.06,0-.1-.08-.1.39.16.75,0,1.11-.38.11-.09-.31-.41-.19.07.52.45,1.07.36,1.57l0-.09c.53.07-.26.37,0,.63,0-.06-.29-.08-.23-.07-.09.35.13.71.29,1.23L11.94,89c-.13.21-.07.54-.14.75.14.07.12.19.32.12-.78.67.41,1.29-.23,1.88,0-.07-.12-.17-.12-.11l.12.51c.23,0,.14-.07.32-.17a.39.39,0,0,1,.24.33c-.15-.23-.37,0-.5.1.08,0,.15,0,.23,0-.42.27.46,0,.18.41l-.12,0c.06.14.22.26.19.41-.27.06-.12-.15-.34-.16,0,.21.5.41.24.6-.08-.09-.08-.22-.15-.3-.32.2-.24.22-.29.37h0l-.14.35.08-.09c.7.26.13.52.59.87-.44-.34-.25,0-.56-.08-.08.09-.18.22-.26.19.24.16-.19.27.16.5-.09,0,0,.18-.25.14.08.21.17,0,.29,0,.33.33-.4.77,0,1.24.19.41.52.49.69.87-.16.12-.36-.11-.36-.11a.47.47,0,0,0,0,.56c-.08,0-.15,0-.26.06s.35.1.21.31a1.61,1.61,0,0,1-.39-.16c.09.19.27.37.36.56-.17,0-.26-.12-.37-.18.08.21.15.55.42.62l.1-.14c0,.08-.23,0-.28,0-.21-.18.09-.26.19-.27l.06.13c.57-.14-.09-.54-.06-.81l.42.11-.35-.28c.11-.06.34-.1.41,0,.2-.19-.15-.17.08-.34a0,0,0,0,1,.07,0l-.12-.19c.08,0,.29,0,.23.08.24-.34-.31-.55,0-.68l0,0c-.14-.47-.31,0-.67-.4l.76-.24-.31,0s0-.15.16-.13c-.21-.18-.13,0-.33-.07.28-.24-.13-.65.35-.71-.23-.08-.17.23-.34,0,.53-.08-.09-.3.15-.51.28.07.13.27.37,0-.45-.13.1-.42,0-.6-.37,0-.16-.39-.28-.7.12,0,.2-.58.33-.86h.06c-.36-.06-.29-.35-.37-.56.22,0,.31,0,.41.16v-.2A.35.35,0,0,1,13,92l.28.05c0-.27-.33-.54-.14-.88-.26,0-.72.27-.89-.09.14,0,.38,0,.43.07s-.11-.12,0-.18l.23.15c.1-.16-.19-.08-.17-.21.2,0,.14-.09.3-.07s-.09.1,0,.15a.58.58,0,0,1,.3-.37c-.11,0-.26,0-.29-.1,0-.27.24-.09.34-.25-.14-.06,0-.23-.29-.24,0-.07.14-.09.22-.12-.13-.14,0-.64-.35-.49l0,0v0h0c-.3-.46.16-1,0-1.4H13c-.12-.26-.07-.59-.28-.78,0-.08.18-.19.29-.16-.07-.2-.18-.23,0-.52.17.2.15-.07.13.21.08-.27.24-.33,0-.61.25.09.32-.2.24-.33l-.18.19a1.07,1.07,0,0,1,0-.4l.33.07c.41-.55-.69-1,0-1.4-.23-.14-.16.3-.43.17,0-.25.52-.51.52-.59.18-.35-.49-.32-.36-.68-.12,0-.44.09-.55-.18a.39.39,0,0,1,.6-.15c0,.06,0,.09-.07.08s.09.19.22.09l-.12,0c.12-.12.11-.47.3-.39-.11-.19-.19-.08-.25.06.17-.32,0-.5.12-.83-.07.05-.21.1-.2,0,.14-.48-.23-.21-.28-.54.18-.19.43.07.28-.26.12-.21.31,0,.41,0-.23-.3.15-.56.19-.73l.1.16a.45.45,0,0,1-.06-.26l-.23.09c0-.09,0-.17.14-.17-.16-.09-.4.08-.61-.11.12-.13-.13-.38.19-.43-.11.4.31,0,.36.29a.27.27,0,0,1,0-.23s.06,0,.08,0c.28-.38-.35-.18-.35-.57.18,0,.34-.09.3-.15,0,.16-.29.08-.43-.07.14-.25-.1-.27-.09-.4l-.06.15c-.18,0-.16-.18-.21-.35.14,0,.09.16.15.1-.31-.2.33-.44.12-.71.12-.12.33,0,.41-.12-.23-.3.24-.33,0-.64-.23.09-.18.1-.41-.12l.17.52-.35-.33c0,.15.15.33.11.42-.19-.16-.13-.14-.33-.06.36-.22-.21-.43,0-.68h.59c.27-.38-.3-.67-.15-1.15l-.1.16c-.24-.07,0-.3-.13-.46.2,0,.27-.09.39-.15-.15,0,0-.36-.38-.4l.26-.22c.1-.39-.56-.45-.5-.82.22.11.36-.06.51.19,0-.12,0-.24-.1-.24.13-.07-.26-.35-.08-.46-.08-.06-.29-.07-.27-.21a.12.12,0,0,1,.09,0c-.09,0-.13-.22-.35-.1.62-.39,0-1.08.49-1.42a5.76,5.76,0,0,1-.15-.86c.06,0,.1,0,.08.05.18-.34-.57-.21-.36-.6.32-.2.17.21.29.08.65,0-.09-.47.29-.73l0,.06c.22-.2-.24-.49-.2-.82a.16.16,0,0,0,.1,0,1.63,1.63,0,0,1-.53-1c.25.1.13.14.39.08,0-.14-.41,0-.49-.24.14-.09.26-.3.54-.32v.26c.36-.13,0-.34.05-.48h.16c-.05-.4-.44-.41-.41-.85l-.12,0c-.39-.24.22-.2-.07-.45l.39-.07a3.82,3.82,0,0,1-.45-.84c.29.16.44.5.61.7,0-.15,0-.53-.22-.61,0,.06.13.14.07.2a.82.82,0,0,1-.45-.76c.76.06.19-.81.78-1-.28-.55.12-1.1.08-1.74-.6.22,0-.19-.63-.15,0-.15,0-.21,0-.22l.37-.46c.17-.11.13.14.27.13,0-.33.26-.14.42-.36-.22,0-.31-.11-.23-.3l-.28.27c-.33-.46.51-.4.19-.87l.19.15c-.11-.24,0-.88-.49-1.11.07,0,.24-.1.29,0,.07-.57-.53-1.27-.23-1.71l.15,0c0-.1-.28-.18-.13-.31s.15,0,.16,0-.26-.28-.17-.42l.17.12c.19-.56-.41-.85-.52-1.32.44,0,.59-.43.66-.65h.06c.05-.65-.36-1.1-.54-1.7.48-.37.2-1.26.47-1.85-.08.09-.34,0-.39-.12s-.3-.39.1-.37v0c.4-.1.29-.39.31-.62l-.53,0c.77-.59-.29-1.54.4-1.86-.13-.15-.13-.32-.26-.46h.28a2.56,2.56,0,0,0,0-1.08l.21.1c0-.27-.82-.35-.84-.6l.43-.07c0-.48.36-1,0-1.44.06,0,.18,0,.2.1,0-.22.28-.87-.3-.79.38,0,0-.49-.13-.75l.28,0c-.35-.22-.45-.22-.55-.53,0-.07.22-.06.15,0,.15-.25-.26-.19-.11-.48l.18.11c0-.25-.08-.23-.29-.37s.08-.47.33-.5c-.16,0-.36-.17-.29-.32a.2.2,0,0,1,.18.06c.19-.41-.32-.61-.05-.9a.27.27,0,0,0,.17,0,2.37,2.37,0,0,1,0,.56c.25,0,.3-.26.65,0-.19-.21-.61-.58-.49-.84l.09,0,0,0a.18.18,0,0,0,0-.17.44.44,0,0,0,.07-.21c.22,0,.12-.31.13-.44-.28,0-.24-.16-.47,0,0,0,0,0,.05.12a.08.08,0,0,0,0,0h0c0,.09,0,.2,0,.33-.14-.1-.26-.21-.11-.36l-.45-.18c.39-.18.6-.53.84-.58-.15-.41-.1-1-.63-1.21-.07-.11.15-.13.24-.17s0,.14.12.18c-.14-.23-.06-.68-.42-.74.16-.28.34.17.28-.23l.11,0c.59-.78-.94-1.27-.19-2.14,0,.06-.06.1-.13.11.34-1-.31-2,.22-3,.11-.28-.13-.31-.31-.48l.3-.06-.34-.29c-.26-.41.74-.71.25-1.23l-.2.07c0-.19-.12-.59.11-.56,0,0-.21-.06-.1-.14h.16L12.84,28c.11-.36.62.05.65-.46-.06-.2-.46-.55-.56-.48a.26.26,0,0,1-.26.2l-.08-.17c-.47,0-.94-.17-1.27.26l.29.3-.23.1v-.25c-.22.14,0,.23.1.34a.39.39,0,0,0-.25.12l.45.3c-.19,0-.36-.14-.47.06.21.14.41-.13.55.1-.21.14-.39.1-.2.27a.23.23,0,0,1-.25-.08c.14.15.06.4.3.48-.26.15.07.51-.37.49a.82.82,0,0,1,.37.41c-.53-.26,0,.51-.6.45.47.18.21.67.47,1,0,0-.11,0-.09-.08,0,.19-.18.24-.27.36.39,0,.48.32.72.47-.37.23-.46-.14-.82-.06.32,0,.32.39.58.31-.23.18-.11.16-.44.25.49,0,.09.16.39.3-.24.26-.46.07-.31.35-.15.13-.33-.12-.33-.12m.85,6.61h0a.83.83,0,0,1,0-.13s0,.06,0,.13m0,.56a1.77,1.77,0,0,0,0-.24c.09,0,.19,0,.19.06s-.12.1-.2.18m1.94-1.18c0,.09,0,.12-.07.13a.49.49,0,0,0,0-.15h0l.14,0" id="el_QsbR273QopP"/>
          <path d="M13.34,39l0,0-.06.05.09,0V39" id="el_emGbHmneJo8"/>
          <path d="M12.92,89.38h0l0,0,0,0" id="el_YCBS5wCy6_V"/>
          <polygon points="11.22 48.02 11.29 48.02 11.23 47.97 11.22 48.02" id="el_8WtTMcFuXqx"/>
          <path d="M12,92.44l-.07,0a.13.13,0,0,0,.07,0" id="el_FHqloX06nWJ"/>
          <path d="M11.89,93.76l-.1.19a.7.7,0,0,0,.1-.19" id="el_PDZF9TBbnNL"/>
          <path d="M11.75,94.78l.12,0h0Z" id="el_2JjpSBS9G4K"/>
          <path d="M11.42,78.62a.06.06,0,0,0,0,0c-.06-.09,0,0,0,0" id="el_ggfC0H9jy7S"/>
          <path d="M12.08,83.43a.87.87,0,0,1-.13-.15c0,.08,0,.15.13.15" id="el_-UClJwqsn1v"/>
          <path d="M11.08,73.25h0v0Z" id="el_c4CaSNVrOzd"/>
          <path d="M12,83.05a.19.19,0,0,0,0,.23c0-.08,0-.16,0-.23" id="el_J7K_E7ZSrw4"/>
          <path d="M11.62,99.18v0h.05Z" id="el_tFLqgzdXWlE"/>
          <path d="M11.66,99.24l0,.05s0,0,0-.05" id="el_60vu0Gpd2J-"/>
          <path d="M11.76,99.41l-.07-.12s0,.09.07.12" id="el_Te_KpDxFve1"/>
          <path d="M11.75,97.84l-.1,0,.1,0" id="el_KWjrboace_O"/>
          <path d="M11.72,97.43c0,.1-.21.24-.15.38h.08c-.15-.06.25-.3.07-.39" id="el_pZVVp5Mq0JB"/>
          <path d="M13,95.72l-.08.35c.11-.06.26-.14.28,0,.33-.43-.24.09-.2-.36" id="el_xfCgjVIE1Oh"/>
          <path d="M13.14,94.66c0,.19.16,0,.22,0-.1-.12-.12-.15-.22,0" id="el_QybHsIQeFc0"/>
          <path d="M13.14,87l.26,0c0-.14-.1,0-.26,0" id="el_KJwAprD7oDj"/>
          <polygon points="11.82 85.52 11.66 85.66 11.9 85.72 11.82 85.52" id="el_XN-EDuqA1mP"/>
          <polygon points="13.64 84.65 13.68 84.71 13.59 84.48 13.64 84.65" id="el_NLXDXXyEJP2"/>
          <path d="M13.55,71.76l-.31,0c0,.1.41.12.31,0" id="el_UaqW3KwslvY"/>
          <path d="M13.23,66.19c.16-.06.26-.22.11-.31,0,.12-.15.25-.11.31" id="el_U0l5vpeNtFZ"/>
          <polygon points="13.74 49.5 13.85 49.61 13.76 49.4 13.74 49.5" id="el_d_Dgkyd3hiv"/>
          <path d="M5.84,91.85c.08,0,.28,0,.24-.09l-.33-.08Z" id="el_-sdxZUGqqjL"/>
          <path d="M6.45,91.13A.87.87,0,0,0,5.7,91c.32.12.19.15.57.28,0,.11-.11.19-.23.17.08,0-.07.17.13.22.26-.13.27-.31.06-.49a.33.33,0,0,1,.22,0" id="el_ncAXOHevhS-"/>
          <path d="M7,80.72l0,.07a.08.08,0,0,0,0-.07" id="el_BqCCaEUd2MA"/>
          <path d="M7.15,74.27a.07.07,0,0,0,.07.07s0-.08-.07-.07" id="el_3xP7s1WEWfr"/>
          <path d="M7.51,73.17s0,0,0,.06,0,0,0-.06" id="el_0mgaSk920zV"/>
          <path d="M7,80.72l.11-.17c-.11,0-.08.09-.11.17" id="el_Tl2BO99MaqO"/>
          <path d="M5.65,89.7a.38.38,0,0,0,.09.09.36.36,0,0,1,0-.09h0" id="el_tnQpfdUdN-B"/>
          <path d="M7.23,83.56v.06l.14,0Z" id="el_41oURR3UF1p"/>
          <path d="M7.28,85.75s-.27-.07-.39-.09c.12,0,.17.07.19.11l.2,0" id="el_gfaOXR0R1Gs"/>
          <path d="M6.79,89.21l0,.06,0-.06" id="el_a_ZCFO286YK"/>
          <path d="M7.29,82l.1,0-.1,0" id="el_253954iP_tx"/>
          <path d="M5.18,21h.05s-.05,0-.05,0" id="el_ekJQjIogt7J"/>
          <path d="M6.57,18.43l0,0h.16Z" id="el_Fon6QmPzHcL"/>
          <path d="M7.87,71.15h0c0,.06,0,0,0,0" id="el_sYhAfjAkco6"/>
          <path d="M7.66,52.65c-.25.21-.32-.34-.6,0,.11,0,.44.29.6,0" id="el_sjKdh5dCd_K"/>
          <path d="M5.69,89.64a.28.28,0,0,1,0-.09.13.13,0,0,0,0,.09" id="el_1T1n8JpycRZ"/>
          <path d="M7.06,52.62h0l0,0,0,0" id="el_wgf-b3r6mvn"/>
          <path d="M7.7,66.51a.43.43,0,0,0-.12,0,.33.33,0,0,0,.12,0" id="el_aovoFkAZKl2"/>
          <path d="M7.3,70l0-.09a.31.31,0,0,0,0,.09" id="el_yxJQ0Sj4bmi"/>
          <path d="M7.31,64.71s.06-.06,0-.12a.05.05,0,0,0,0,0s.06,0,0,.1" id="el_8UiYnEn-8wZ"/>
          <path d="M7.3,62.84l0,0s0,0,0,.06Z" id="el_tkYwKWwMKN3"/>
          <path d="M5.32,26.64a1,1,0,0,1,.25-.08c-.2,0-.27-.25-.25.08" id="el_XnBCQQt5z-C"/>
          <path d="M5.81,89.7q-.1,0-.12-.06s0,0,0,.06h.11" id="el_So9rBb7SQN8"/>
          <path d="M5.09,64.64l0-.3a.91.91,0,0,0,0,.3" id="el_CuracqJEklc"/>
          <path d="M5.36,40.06l0-.07a.06.06,0,0,0,0,.07" id="el_EEaUgi3ul-J"/>
          <path d="M5.09,63.46a.54.54,0,0,0,.19-.17.15.15,0,0,0-.07,0Z" id="el_R3orYANiCwV"/>
          <polyline points="5.57 26.56 5.57 26.56 5.57 26.56" id="el_rPm9a8zj4E5"/>
          <path d="M4.91,24.6c0,.28.36.13.57.19.1.34-.27.16-.46.27.1.22.43.38.42.53s-.08.05-.16,0c.29.22,0,.66.38.92l-.09,0a1.58,1.58,0,0,1,.51,0c0,.12.23.23,0,.28,0-.08-.09-.08-.16-.12l.1.13c-.35.12-.12-.18-.38-.18.12.26.4.56.31.76-.34,0-.12-.46-.42-.2l.13-.31c-.54.24,0-.18-.54,0-.09.41.18.46.08.86.19.09.28,0,.47.06.33.57-.86.45-.41.87.23.11.66.15.43.45l-.38-.1c0,.39.55.23.29.64-.15-.08-.12-.31-.17-.25-.3.26.22.19.22.39l-.34,0c0,.42.3.88.36,1.34-.1,0-.21-.1-.31,0A3,3,0,0,1,5.1,33l.3.21c0,.05-.14.1-.19,0-.11.22.18,0,.3.12s-.17.16-.26.08c.25.39.54,1.11.22,1.51l-.08-.08c-.12.32.6.36.32.65l0,0c-.12.69.14,1.45-.3,2,.42.1-.19.68.4.73-.29.39-.4.28-.59.83,0,.15.37.22.43.4H5.29l.32.25-.37.13.08.17a.23.23,0,0,1,.23-.13c.14.26-.21.65-.37.65l.26.64c-.13,0-.17-.12-.25-.21.32.34-.32.07,0,.37.07,0,.18,0,.24,0a.79.79,0,0,0-.11.77l-.21,0c0,.47.1,1,.1,1.52.1-.19.47-.15.5,0l-.32.06c.2.1.12-.16.37,0,0,.2-.38.13-.48,0l.11.24c-.1,0-.15,0-.27-.06.2.1-.33.42,0,.56H5c0,.53.11.77.12,1.2.28,0,.22.17.45.3a3.26,3.26,0,0,0-.29,1c.14.26.24.08.41.2-.26,0-.24.4-.42.2a3.42,3.42,0,0,0,.26,1.16c.1-.06.15-.14.24-.1s-.11.24-.23.22l0,0c.38.64-.75,1.49-.21,2l0,0,.28.53c0,.25-.19-.14-.35,0,.43.57-.06.91.22,1.38-.75.37,0,1.31-.43,1.81l.18,0c.17.13-.1.15-.14.25.14,0,.16-.14.25-.06.22,1.08-.26,2.24-.42,3.35,0,.41.92.24.5.75l-.33-.15c.4.83,0,1.69.32,2.49-.07,0-.17,0-.17-.13-.24.17,0,.63.18.63,0,.13-.18,0-.28.11s.31.43.07.52c0,0-.08,0-.09-.08s0,.52.24.41c-.13.3.13.58,0,.82.31.16-.15.52.29.57-.45,0-.36.53-.15.72-.14-.07-.14.16-.33.09,0,.22.09.42.32.38-.54.4.44.81-.26,1a10.45,10.45,0,0,1,.52,1.83c-.45,0,0-.64-.52-.62.18.56.57.88.46,1.42-.06.14-.19-.08-.27-.13.19.56,0,1.07.2,1.56,0,0-.08,0-.12-.1s-.06.22.14.21l0-.09c.29-.16.62.38.77.4-.58-.16-.14.49-.89.22a.28.28,0,0,0,.28.13c0,.1-.12.13-.28,0,.11.35.33.23.33.54-.1,0-.14-.06-.26-.1.19.16.39.32.3.59-.06,0-.13,0-.13-.07,0,.46.51.78.33,1.28-.43-.15-.15.17-.52.2l.11.27.18-.11c0,.23.27.44.15.65L5.72,74l.07.44.15-.25c.19.24.47,0,.36.29,0-.06,0,.24-.22.36h0c.12.11.24.23.15.41s-.41,0-.49,0c.31.12.08.55.42.7a.64.64,0,0,0-.32,0l.26.1c-.08.11-.12.13-.28.11-.05.33.47-.11.27.28,0,0-.06,0-.1-.08-.1.4.16.76,0,1.12-.38.11-.09-.31-.41-.19.07.52.45,1.07.36,1.57l0-.09c.53.07-.26.37,0,.63,0-.07-.29-.09-.23-.07-.09.35.13.7.29,1.22l-.13-.06c-.13.2-.07.53-.14.75.14.07.12.19.32.12-.78.67.41,1.28-.23,1.88,0-.07-.12-.17-.12-.11l.12.51c.23,0,.14-.07.32-.18a.41.41,0,0,1,.24.34c-.15-.23-.37,0-.5.1.08,0,.15,0,.23,0-.42.27.46,0,.18.41l-.12,0c.06.13.22.26.19.41-.27.06-.12-.15-.34-.16,0,.21.5.41.24.6-.08-.09-.08-.22-.15-.31-.32.21-.24.23-.29.38h0l-.14.35.08-.09c.7.25.13.52.59.87-.44-.34-.25-.06-.56-.08-.08.09-.18.22-.26.18.24.17-.19.28.16.51-.09,0,0,.18-.25.14.08.21.17,0,.29,0,.33.32-.4.77.05,1.24.19.41.52.49.69.87-.16.12-.36-.11-.36-.11a.47.47,0,0,0,0,.56c-.08,0-.15,0-.26.06s.35.1.21.31a1.61,1.61,0,0,1-.39-.16c.09.18.27.37.36.56-.17.05-.26-.12-.37-.19.08.22.15.56.42.62l.1-.13c0,.08-.23,0-.28,0-.21-.18.09-.26.19-.27l.06.13c.57-.14-.09-.54-.06-.82l.42.12-.35-.28c.11-.06.34-.1.41,0,.2-.19-.15-.17.08-.34a0,0,0,0,1,.07,0L6.67,89c.08,0,.29,0,.23.08.24-.34-.31-.55,0-.68l0,0c-.14-.48-.31,0-.67-.4L7,87.81l-.31,0c0-.05,0-.15.16-.13-.21-.18-.13,0-.33-.07.28-.24-.13-.66.35-.71-.23-.08-.17.23-.34,0,.53-.07-.09-.29.15-.5.27.06.13.27.37.05-.45-.13.1-.42,0-.6-.37,0-.16-.4-.28-.7.12,0,.2-.58.33-.86H7.2c-.36-.06-.29-.35-.37-.56a.44.44,0,0,1,.41.16v-.2A.35.35,0,0,1,7,83.38l.28.05c0-.27-.33-.54-.14-.88-.26,0-.72.27-.89-.09.14,0,.38,0,.43.06s-.11-.11-.05-.17l.23.15c.1-.16-.19-.09-.17-.21.2,0,.14-.09.3-.08s-.09.11,0,.16a.58.58,0,0,1,.3-.37C7.18,82,7,82,7,81.9c0-.27.24-.09.34-.25-.14-.06,0-.23-.29-.24,0-.08.14-.09.22-.12-.13-.14,0-.65-.35-.49l0,0a0,0,0,0,1,0,0h0c-.3-.45.16-.94,0-1.39H7c-.12-.27-.07-.59-.28-.79,0-.08.18-.18.29-.15-.07-.2-.18-.23,0-.52.17.2.15-.08.13.21.08-.27.24-.33,0-.62.25.1.32-.2.24-.32l-.18.18a1,1,0,0,1,0-.39l.33.07c.41-.55-.69-1,0-1.4-.23-.14-.16.3-.43.17,0-.25.52-.52.52-.59.18-.35-.49-.33-.36-.68-.12,0-.44.08-.55-.18a.38.38,0,0,1,.6-.15c0,.06,0,.08-.07.08s.09.19.22.09l-.12,0c.12-.13.11-.47.3-.39-.11-.19-.19-.08-.25.06.17-.32,0-.5.12-.84-.07.06-.21.11-.2,0,.14-.48-.23-.21-.28-.54.18-.19.43.07.28-.27.12-.2.31,0,.41,0-.23-.3.15-.56.19-.74l.1.16a.4.4,0,0,1-.06-.25l-.23.09c0-.09,0-.17.14-.17-.16-.09-.4.07-.61-.12.12-.12-.13-.38.19-.42-.11.39.31,0,.36.29a.29.29,0,0,1,0-.24s.06,0,.08,0c.28-.37-.35-.17-.35-.56.18,0,.34-.09.3-.15,0,.15-.29.07-.43-.07.14-.25-.1-.27-.09-.4l-.06.15c-.18-.05-.16-.18-.21-.35.14,0,.09.16.15.09-.31-.19.33-.43.12-.7.12-.12.33,0,.41-.12-.23-.3.24-.33,0-.64-.23.09-.18.1-.41-.12l.17.52-.35-.33c0,.15.15.33.11.42-.19-.16-.13-.14-.33-.07.36-.21-.21-.42,0-.67h.59c.27-.38-.3-.67-.15-1.15l-.1.15c-.24-.06,0-.3-.13-.45.2,0,.27-.09.39-.15-.15,0,0-.36-.38-.4l.26-.22c.11-.39-.56-.45-.5-.82.22.11.36-.06.51.19,0-.13,0-.24-.1-.24.13-.07-.26-.35-.08-.46-.08-.06-.29-.07-.27-.22a.24.24,0,0,1,.09,0c-.09,0-.13-.22-.35-.09.62-.39,0-1.09.49-1.42A5.76,5.76,0,0,1,7.1,62c.06,0,.1,0,.08,0,.19-.34-.57-.21-.36-.6.32-.2.17.21.29.08.65,0-.09-.47.29-.73l0,.06c.22-.2-.24-.49-.2-.82a.16.16,0,0,0,.1,0,1.63,1.63,0,0,1-.53-1c.25.09.13.14.39.08,0-.14-.41,0-.49-.24.14-.09.26-.3.54-.33v.27c.36-.14,0-.34,0-.48h.16c0-.41-.44-.41-.42-.85l-.11,0c-.39-.24.22-.2-.07-.44l.39-.07a3.82,3.82,0,0,1-.45-.84c.29.16.44.5.61.7,0-.16,0-.53-.22-.61,0,.06.13.14.07.2a.83.83,0,0,1-.45-.76c.76.06.19-.81.78-1-.28-.56.12-1.1.08-1.75-.6.23,0-.18-.63-.15,0-.15,0-.2,0-.22l.37-.45c.17-.11.13.14.27.13,0-.33.26-.14.42-.36-.22.05-.31-.11-.23-.3l-.28.26c-.33-.46.51-.39.19-.86l.19.15c-.11-.24,0-.88-.49-1.11.07,0,.24-.1.29,0,.07-.57-.53-1.27-.22-1.71l.14,0c0-.1-.28-.18-.13-.32s.15,0,.16,0-.26-.28-.17-.43l.17.13c.19-.56-.41-.86-.52-1.32.44,0,.59-.44.66-.65h.06c0-.64-.36-1.09-.54-1.69.48-.37.2-1.26.47-1.85-.08.09-.34,0-.39-.13s-.3-.38.1-.36v.05c.4-.11.29-.39.31-.62l-.53,0c.77-.58-.28-1.54.4-1.86-.13-.14-.13-.31-.26-.45h.28a2.51,2.51,0,0,0,0-1.07l.21.1c0-.28-.82-.35-.84-.6l.43-.08c0-.47.36-1,0-1.43.06,0,.18,0,.2.1,0-.23.28-.87-.3-.79.38,0,0-.49-.12-.75l.27,0c-.35-.22-.45-.23-.55-.53,0-.07.22-.06.15,0,.15-.24-.26-.18-.11-.48l.18.11c0-.24-.08-.22-.29-.36s.07-.47.33-.51c-.16,0-.36-.16-.29-.31a.18.18,0,0,1,.18.06c.19-.41-.32-.61,0-.9a.21.21,0,0,0,.17-.05,2.42,2.42,0,0,1,0,.57c.25,0,.3-.26.65-.05-.19-.22-.61-.58-.49-.84l.09,0,0,0a.16.16,0,0,0,0-.16.44.44,0,0,0,.07-.21c.22,0,.12-.31.13-.44-.28,0-.24-.16-.47,0,0,0,0,0,0,.11a.07.07,0,0,0,0,.06h0c0,.09,0,.2,0,.33-.14-.1-.26-.21-.11-.36a4.71,4.71,0,0,1-.45-.19c.39-.18.6-.52.84-.57-.15-.41-.1-1-.63-1.21-.07-.11.15-.13.24-.17s0,.14.12.18c-.14-.23-.06-.68-.42-.74.16-.29.34.17.28-.23l.11.05c.59-.78-.94-1.27-.19-2.14a.2.2,0,0,1-.13.11c.34-1-.31-2,.22-3,.11-.27-.13-.3-.31-.47l.3-.06-.34-.29c-.26-.41.74-.71.25-1.23l-.2.06c0-.18-.12-.59.11-.56,0,0-.21-.06-.1-.13h.16l-.27-.46c.11-.36.62.05.65-.47-.06-.19-.46-.54-.56-.47a.26.26,0,0,1-.26.2l-.08-.17c-.47,0-.94-.17-1.27.26l.29.3-.23.1v-.25c-.22.14,0,.23.1.33a.45.45,0,0,0-.25.13l.45.3c-.19,0-.36-.14-.47.06.21.14.41-.13.55.1-.21.14-.39.1-.2.27A.23.23,0,0,1,5.3,20c.14.15.06.4.3.48-.26.15.07.51-.37.49a.84.84,0,0,1,.37.4c-.53-.25,0,.52-.6.46.47.18.21.67.47,1,0,0-.11-.05-.09-.08,0,.18-.18.24-.27.36.39,0,.48.31.72.47-.37.23-.46-.14-.82-.07.32,0,.32.4.58.32-.23.18-.11.15-.44.24.49,0,.09.17.39.31-.24.25-.46.07-.31.34-.15.14-.32-.11-.32-.11m.84,6.61h0a.93.93,0,0,1,0-.14s0,.07,0,.14m0,.56a1.85,1.85,0,0,0,0-.24c.09,0,.19,0,.19,0s-.12.1-.2.19M7.7,30.59c0,.09,0,.12-.07.13a.49.49,0,0,0,0-.15h0a.42.42,0,0,1,.14,0" id="el_oXzCJ21MTCD"/>
          <path d="M7.34,30.43l0,0-.06.05.09,0v-.05" id="el_psL91x5RFnL"/>
          <path d="M6.92,80.8h0a.05.05,0,0,1,0,0h0" id="el_EjTakl7OYDX"/>
          <polygon points="5.22 39.44 5.29 39.44 5.23 39.39 5.22 39.44" id="el_Gd2DMtNq_MN"/>
          <path d="M6,83.86l-.07,0a.13.13,0,0,0,.07,0" id="el_DGjdS8rFlSV"/>
          <path d="M5.89,85.18l-.1.19a.5.5,0,0,0,.1-.19" id="el_H4VQ1jdj6GS"/>
          <path d="M5.75,86.2l.12,0h0Z" id="el_yy9TmUjW8gt"/>
          <path d="M5.42,70a.06.06,0,0,0,0,0c-.06-.09,0,0,0,0" id="el_7ZvgX9WJ5KN"/>
          <path d="M6.08,74.85A.65.65,0,0,1,6,74.69c0,.09,0,.15.13.16" id="el_vsnnIWHVZiw"/>
          <path d="M5.08,64.67h0v0Z" id="el_0r1cCeIolEq"/>
          <path d="M6,74.47a.18.18,0,0,0,0,.22.33.33,0,0,0,0-.22" id="el_kt7PhmdZ73c"/>
          <path d="M5.62,90.6v.05h0Z" id="el_GpiLrVU8NvV"/>
          <path d="M5.66,90.66l0,0s0,0,0,0" id="el_ZikKejQBvlg"/>
          <path d="M5.76,90.83l-.07-.12s0,.09.07.12" id="el_rb7n3ICFgfp"/>
          <path d="M5.75,89.26l-.1,0,.1,0" id="el_o0zYFYiyAW-"/>
          <path d="M5.72,88.85c0,.1-.21.24-.15.38h.08c-.15-.06.25-.3.07-.39" id="el_3OJ4GO0ABQr"/>
          <path d="M7,87.14l-.08.35c.11-.07.26-.14.28,0,.33-.43-.24.09-.2-.36" id="el_R_rXyqjFOf7"/>
          <path d="M7.14,86.08c.05.18.16,0,.22,0-.1-.12-.12-.15-.22,0" id="el__6IeMVJ1-5M"/>
          <path d="M7.14,78.4l.26,0c0-.14-.1,0-.26,0" id="el_FAFcXH7rdSI"/>
          <polygon points="5.82 76.94 5.66 77.07 5.9 77.14 5.82 76.94" id="el_0JWhWDt7WE9"/>
          <polygon points="7.64 76.07 7.68 76.13 7.59 75.89 7.64 76.07" id="el_ml0jFziH2-x"/>
          <path d="M7.55,63.18l-.31,0c0,.09.41.11.31,0" id="el_4YiRau4dhX2"/>
          <path d="M7.23,57.61c.16-.06.26-.22.11-.31,0,.12-.15.25-.11.31" id="el_Jiq6wMvWTAQ"/>
          <polygon points="7.75 40.91 7.85 41.03 7.76 40.82 7.75 40.91" id="el_CRUOlNrvFJA"/>
        </g>
      </g>
    </g>
  </g>
  <g id="el_bfMLlkt7Hoh_N5sXy0zuP" data-animator-group="true" data-animator-type="2"><g id="el_bfMLlkt7Hoh">
    <g id="el_QrEPUjwNVD6" data-name="cover">
      <g id="el_wMc1772gYWO">
        <g id="el_fDHYRvhD9pV">
          <path d="M19.5,96h-2A13.46,13.46,0,0,1,4,82.57V23.9A13.46,13.46,0,0,1,17.5,10.47h2A13.46,13.46,0,0,1,33,23.9V82.57A13.46,13.46,0,0,1,19.5,96" id="el_8L5A8FZoDOO"/>
        </g>
      </g>
    </g>
  </g></g>
  <g id="el_wzoGn5qnFIh_EITkmkqTp" data-animator-group="true" data-animator-type="0"><g id="el_wzoGn5qnFIh">
    <g id="el_YVD9FPOSIl5" data-name="paw">
      <g id="el_S4aEqFgvZQv">
        <g id="el_QSNY2QUXxJa">
          <path d="M28.88,77.73c.81-3.71-3.21-4.51-5-4a31.3,31.3,0,0,1-5.39.56,31.3,31.3,0,0,1-5.4-.56c-1.77-.49-5.8.32-5,4s4.35,3.54,5.32,8.54,5.08,4.67,5.08,4.67,4.1.32,5.07-4.67,4.5-4.84,5.3-8.54M22.23,91.26c2.18-.63,4.59,1.1,5.38,3.85s-.33,5.49-2.51,6.12-4.59-1.09-5.38-3.84.33-5.5,2.51-6.13m9,1c-2.1.85-4.68-.6-5.77-3.25s-.25-5.5,1.85-6.36,4.68.6,5.76,3.25.26,5.5-1.84,6.36m-16.5-1c2.18.63,3.3,3.38,2.51,6.13s-3.21,4.47-5.38,3.84-3.31-3.37-2.51-6.12,3.2-4.48,5.38-3.85m-5.12-8.6c2.11.86,2.93,3.71,1.85,6.36s-3.67,4.1-5.77,3.25-2.92-3.71-1.84-6.36,3.66-4.1,5.76-3.25" id="el_nTLMaqSBmiR"/>
        </g>
      </g>
    </g>
  </g></g>
  <g id="el_nMpDgDzZdka">
    <g id="el_qv8bxoynAvZ" data-name="outline">
      <g id="el_FxGx_-7z3hg">
        <g id="el_nEYY0VqvTcI">
          <path d="M20.5,2A14.52,14.52,0,0,1,35,16.5v73A14.52,14.52,0,0,1,20.5,104h-4A14.52,14.52,0,0,1,2,89.5v-73A14.52,14.52,0,0,1,16.5,2h4m0-2h-4A16.5,16.5,0,0,0,0,16.5v73A16.5,16.5,0,0,0,16.5,106h4A16.5,16.5,0,0,0,37,89.5v-73A16.5,16.5,0,0,0,20.5,0" id="el_EAyPHagacWt"/>
        </g>
      </g>
    </g>
  </g>
</svg>