<svg xmlns="http://www.w3.org/2000/svg" viewBox="0 0 37 106"><g fill="#2069a2"><path d="M28.9 24.6c0 .28.37.13.58.19.1.34-.27.16-.46.27.09.22.43.38.42.53s-.08.05-.16 0c.29.22 0 .66.38.92h-.09a1.56 1.56 0 0 1 .51 0c0 .12.23.23 0 .28 0-.08-.09-.08-.17-.12l.11.13c-.35.12-.12-.18-.38-.18.12.26.4.56.3.76-.33 0-.11-.46-.41-.2l.13-.31c-.54.24 0-.18-.54 0-.1.41.18.46.08.86.19.09.28 0 .46.06.34.57-.85.45-.4.87.23.11.66.15.43.45l-.38-.1c0 .39.55.23.29.64-.15-.08-.12-.31-.17-.25-.3.26.22.19.22.39h-.34c.05.42.3.88.36 1.34-.1 0-.21-.1-.31 0A3 3 0 0 1 29.1 33l.3.21c0 .05-.14.1-.19 0-.11.22.18 0 .3.12s-.17.16-.26.08c.25.39.54 1.11.22 1.51l-.08-.08c-.12.32.6.36.32.65h-.05c-.13.69.14 1.45-.3 2 .42.1-.19.68.4.73-.29.39-.4.28-.59.83 0 .15.37.22.43.4h-.31l.32.25-.37.13.08.17a.23.23 0 0 1 .23-.13c.14.26-.21.65-.37.65l.26.64c-.13 0-.17-.12-.25-.21.32.34-.32.07 0 .37h.24a.79.79 0 0 0-.11.77h-.21c0 .47.1 1 .1 1.52.1-.19.47-.15.5 0l-.33.06c.21.1.13-.16.38 0 0 .2-.38.13-.48 0l.11.24c-.1 0-.15 0-.27-.06.2.1-.33.42 0 .56H29c0 .53.11.77.12 1.2.28 0 .22.17.45.3a3.26 3.26 0 0 0-.29 1c.14.26.24.08.41.2-.26 0-.23.4-.42.2a3.42 3.42 0 0 0 .26 1.16c.1-.06.15-.14.24-.1s-.11.24-.23.22c.38.64-.75 1.49-.21 2l.28.53c-.05.25-.19-.14-.35 0 .43.57-.06.91.22 1.38-.76.37 0 1.31-.43 1.81h.18c.17.13-.1.15-.14.25.13 0 .16-.14.25-.06.22 1.08-.26 2.24-.42 3.35 0 .41.92.24.5.75l-.33-.15c.39.83 0 1.69.32 2.49-.07 0-.17 0-.17-.13-.24.17 0 .63.18.63 0 .13-.18 0-.28.11s.31.43.07.52c0 0-.08 0-.09-.08s0 .52.24.41c-.13.3.13.58 0 .82.31.16-.15.52.29.57-.45 0-.36.53-.15.72-.14-.07-.14.16-.33.09 0 .22.09.42.32.38-.54.4.44.81-.26 1a10.45 10.45 0 0 1 .52 1.83c-.45 0-.05-.64-.52-.62.18.56.57.88.46 1.42-.06.14-.19-.08-.27-.13.18.56 0 1.07.2 1.56 0 0-.08 0-.12-.1s-.07.22.14.21l-.06-.09c.3-.16.63.38.78.4-.58-.16-.14.49-.89.22a.28.28 0 0 0 .28.13c0 .1-.12.13-.28 0 .11.35.33.23.33.54-.1 0-.14-.06-.26-.1.19.16.39.32.3.59-.06 0-.13 0-.13-.07 0 .46.51.78.33 1.28-.44-.15-.15.17-.52.2l.11.27.18-.11c0 .23.27.44.15.65l-.24-.06.07.44.14-.25c.2.24.48 0 .37.29 0-.06 0 .24-.22.36.12.11.24.23.15.41s-.41 0-.49 0c.31.12.08.55.42.7a.64.64 0 0 0-.32 0l.26.1a.23.23 0 0 1-.28.11c-.05.33.47-.11.27.28 0 0-.06 0-.1-.08-.1.4.16.76 0 1.12-.38.11-.1-.31-.41-.19.07.52.45 1.07.36 1.57v-.09c.53.07-.26.37 0 .63 0-.07-.29-.09-.24-.07-.08.35.13.7.3 1.22l-.14-.06c-.12.2-.06.53-.13.75.14.07.12.19.32.12-.78.67.41 1.28-.23 1.88 0-.07-.12-.17-.12-.11l.12.51c.23 0 .14-.07.32-.18a.41.41 0 0 1 .24.34c-.15-.23-.37 0-.5.1h.22c-.41.27.47 0 .19.41h-.12c.06.13.22.26.19.41-.27.06-.12-.15-.35-.16 0 .21.51.41.24.6-.07-.09-.07-.22-.15-.31-.31.21-.23.23-.28.38l-.14.35.08-.09c.7.25.13.52.58.87-.43-.34-.25-.06-.55-.08-.08.09-.18.22-.26.18.24.17-.19.28.16.51-.09 0 0 .18-.25.14.08.21.17 0 .29 0 .33.32-.4.77.05 1.24.19.41.52.49.69.87-.16.12-.36-.11-.36-.11a.47.47 0 0 0 0 .56c-.08 0-.15 0-.26.06s.35.1.21.31a1.61 1.61 0 0 1-.39-.16c.09.18.27.37.36.56-.17.05-.26-.12-.37-.19.08.22.15.56.42.62l.1-.13c0 .08-.23 0-.28 0-.21-.18.09-.26.19-.27l.06.13c.57-.14-.09-.54-.06-.82l.42.12-.35-.28c.11-.06.34-.1.41 0 .2-.19-.15-.17.08-.34h.07l-.06-.28c.09 0 .3 0 .24.08.24-.34-.31-.55 0-.68-.14-.48-.31 0-.67-.4l.76-.24h-.31c0-.05 0-.15.16-.13-.21-.18-.14 0-.33-.07.28-.24-.13-.66.35-.71-.23-.08-.17.23-.34 0 .53-.07-.09-.29.15-.5.28.06.13.27.37.05-.45-.13.1-.42 0-.6-.36 0-.15-.4-.27-.7.12 0 .2-.58.33-.86h.06c-.36-.06-.29-.35-.37-.56.22 0 .31 0 .4.16v-.2a.35.35 0 0 1-.22-.24l.28.05c0-.27-.33-.54-.14-.88-.26 0-.72.27-.89-.09.14 0 .38 0 .43.06s-.11-.11-.05-.17l.23.15c.1-.16-.19-.09-.17-.21.2 0 .14-.09.3-.08s-.09.11 0 .16a.58.58 0 0 1 .3-.37c-.11 0-.26 0-.29-.1 0-.27.24-.09.34-.25-.14-.06 0-.23-.29-.24 0-.08.14-.09.22-.12-.13-.14 0-.65-.35-.49-.3-.45.16-.94 0-1.39H31c-.11-.27-.06-.59-.27-.79 0-.08.18-.18.29-.15-.07-.2-.18-.23 0-.52.17.2.15-.08.13.21.08-.27.24-.33 0-.62.25.1.32-.2.24-.32l-.18.18a1 1 0 0 1 0-.39l.33.07c.41-.55-.69-1 0-1.4-.23-.14-.16.3-.43.17 0-.25.52-.52.52-.59.18-.35-.49-.33-.36-.68-.12 0-.44.08-.55-.18 0-.26.5-.31.59-.15s0 .08-.06.08.09.19.22.09h-.12c.12-.13.11-.47.3-.39-.11-.19-.19-.08-.25.06.17-.32 0-.5.12-.84-.07.06-.21.11-.21 0 .15-.48-.22-.21-.27-.54.18-.19.43.07.28-.27.12-.2.31 0 .41 0-.23-.3.15-.56.19-.74l.1.16a.4.4 0 0 1-.06-.25l-.23.09c0-.09 0-.17.14-.17-.16-.09-.4.07-.61-.12.12-.12-.13-.38.18-.42-.1.39.32 0 .37.29a.26.26 0 0 1 0-.24h.08c.28-.37-.36-.17-.35-.56.18 0 .34-.09.3-.15 0 .15-.3.07-.43-.07.14-.25-.1-.27-.09-.4l-.06.15c-.18-.05-.16-.18-.21-.35.13 0 .09.16.15.09-.31-.19.33-.43.12-.7.12-.12.33 0 .41-.12-.23-.3.24-.33.05-.64-.24.09-.18.1-.41-.12l.17.52-.35-.33c0 .15.15.33.11.42-.19-.16-.13-.14-.33-.07.36-.21-.21-.42 0-.67h.59c.27-.38-.3-.67-.15-1.15l-.11.15c-.23-.06 0-.3-.12-.45.2 0 .27-.09.39-.15-.15 0 0-.36-.38-.4l.26-.22c.1-.39-.56-.45-.5-.82.22.11.36-.06.51.19 0-.13 0-.24-.1-.24.13-.07-.26-.35-.08-.46-.08-.06-.29-.07-.27-.22a.24.24 0 0 1 .09 0c-.09 0-.13-.22-.35-.09.62-.39 0-1.09.49-1.42a5.76 5.76 0 0 1-.14-.78h.08c.18-.34-.57-.21-.36-.6.32-.2.17.21.29.08.65 0-.09-.47.29-.73v.06c.22-.2-.25-.49-.2-.82a.16.16 0 0 0 .1 0 1.63 1.63 0 0 1-.53-1c.25.09.13.14.39.08 0-.14-.42 0-.49-.24.14-.09.26-.3.54-.33v.27c.36-.14 0-.34 0-.48h.16c0-.41-.44-.41-.41-.85h-.12c-.39-.24.21-.2-.07-.44l.39-.07a3.44 3.44 0 0 1-.45-.84c.29.16.44.5.61.7 0-.16 0-.53-.22-.61 0 .06.13.14.07.2a.86.86 0 0 1-.46-.76c.77.06.2-.81.79-1-.28-.56.12-1.1.08-1.75-.6.23 0-.18-.63-.15v-.22l.36-.45c.18-.11.14.14.28.13 0-.33.26-.14.42-.36-.22.05-.31-.11-.23-.3l-.28.26c-.33-.46.51-.39.19-.86l.19.15c-.11-.24 0-.88-.49-1.11.07 0 .24-.1.28 0 .08-.57-.52-1.27-.22-1.71h.15c0-.1-.28-.18-.13-.32s.15 0 .16 0-.26-.28-.17-.43l.16.13c.2-.56-.41-.86-.51-1.32.44 0 .59-.44.66-.65h.06c0-.64-.37-1.09-.54-1.69.48-.37.2-1.26.47-1.85-.08.09-.34 0-.39-.13s-.3-.38.1-.36v.05c.4-.11.29-.39.31-.62h-.53c.76-.58-.29-1.54.4-1.86-.13-.14-.13-.31-.26-.45h.28a2.51 2.51 0 0 0 0-1.07l.21.1c0-.28-.82-.35-.84-.6l.42-.08c0-.47.37-1 0-1.43.06 0 .18 0 .2.1 0-.23.28-.87-.3-.79.38 0 0-.49-.13-.75h.28c-.35-.22-.45-.23-.55-.53 0-.07.22-.06.15 0 .15-.24-.26-.18-.11-.48l.18.11c0-.24-.08-.22-.29-.36s.07-.47.33-.51c-.16 0-.36-.16-.29-.31a.19.19 0 0 1 .18.06c.19-.41-.32-.61 0-.9a.23.23 0 0 0 .17-.05 2.42 2.42 0 0 1 0 .57c.25 0 .3-.26.65-.05-.19-.22-.61-.58-.49-.84h.09a.16.16 0 0 0 0-.16.44.44 0 0 0 .07-.21c.22 0 .12-.31.13-.44-.28 0-.24-.16-.47 0l.05.11a.11.11 0 0 0 0 .06v.33c-.14-.1-.26-.21-.11-.36a4.71 4.71 0 0 1-.45-.19c.39-.18.6-.52.84-.57-.15-.41-.1-1-.63-1.21-.07-.11.15-.13.24-.17s0 .14.12.18c-.14-.23-.06-.68-.43-.74.17-.29.34.17.29-.23l.11.05c.59-.78-.94-1.27-.19-2.14a.23.23 0 0 1-.13.11c.34-1-.31-2 .22-3 .11-.27-.13-.3-.31-.47l.3-.06-.34-.29c-.26-.41.74-.71.25-1.23l-.2.06c0-.18-.12-.59.11-.56 0 0-.21-.06-.1-.13h.16l-.27-.46c.11-.36.62.05.65-.47-.06-.19-.46-.54-.56-.47a.26.26 0 0 1-.26.2l-.08-.17c-.47 0-.94-.17-1.27.26l.28.3-.22.1v-.25c-.22.14 0 .23.1.33a.45.45 0 0 0-.25.13l.45.3c-.19 0-.36-.14-.47.06.21.14.41-.13.55.1-.21.14-.39.1-.2.27a.23.23 0 0 1-.21.09c.14.15.06.4.3.48-.26.15.07.51-.37.49a.84.84 0 0 1 .37.4c-.53-.25 0 .52-.6.46.47.18.21.67.47 1 0 0-.11-.05-.09-.08 0 .18-.18.24-.27.36.39 0 .48.31.72.47-.37.23-.46-.14-.82-.07.32 0 .32.4.58.32-.23.18-.11.15-.44.24.49 0 .09.17.39.31-.24.25-.46.07-.31.34-.15.14-.33-.11-.33-.11m.85 6.61a.93.93 0 0 1 0-.14v.14m0 .56a1.85 1.85 0 0 0 0-.24h.19s-.12.1-.2.19m1.94-1.18c0 .09 0 .12-.07.13a.49.49 0 0 0 0-.15.42.42 0 0 1 .14 0M22.9 33.18c0 .28.37.13.58.19.1.34-.27.16-.46.28.09.21.43.37.42.53s-.08 0-.16 0c.29.23 0 .66.38.92h-.09a1.9 1.9 0 0 1 .51 0c0 .13.23.23 0 .28 0-.08-.09-.08-.17-.12l.11.13c-.35.12-.12-.18-.38-.18.12.26.4.56.3.76-.33 0-.11-.46-.41-.2l.13-.3c-.54.23 0-.19-.54 0-.1.41.18.46.08.86.19.09.28 0 .46.06.34.58-.85.45-.4.87.23.11.66.16.43.46l-.38-.11c0 .4.55.23.29.64-.15-.08-.12-.31-.17-.25-.3.27.22.19.22.39h-.34c.05.42.3.88.36 1.34-.1 0-.21-.1-.31 0a3 3 0 0 1-.25 1.8l.3.22a.13.13 0 0 1-.19 0c-.11.22.18 0 .3.12s-.17.17-.26.09c.25.38.54 1.1.22 1.5l-.08-.07c-.12.31.6.35.32.65l-.05-.06c-.13.69.14 1.45-.3 2 .42.1-.19.68.4.73-.29.39-.4.28-.59.83 0 .15.37.22.43.41h-.31l.32.25-.37.13.08.17a.24.24 0 0 1 .23-.13c.14.26-.21.65-.37.66l.26.63c-.13 0-.17-.12-.25-.2.32.33-.32.06 0 .37h.24a.77.77 0 0 0-.11.76h-.21c0 .47.1 1 .1 1.52.1-.19.47-.15.5 0l-.33.06c.21.1.13-.16.38 0 0 .2-.38.14-.48 0l.11.24c-.1 0-.15 0-.27-.05.2.09-.33.41 0 .55H23c0 .53.11.77.12 1.2.28 0 .22.18.45.3a3.26 3.26 0 0 0-.29 1.05c.14.27.24.08.41.2-.26 0-.23.4-.42.2a3.37 3.37 0 0 0 .26 1.16c.1-.06.15-.13.24-.1s-.11.24-.23.23c.38.65-.75 1.49-.21 2l.28.54c-.05.24-.19-.15-.35 0 .43.58-.06.91.22 1.39-.76.36 0 1.3-.43 1.8h.18c.17.13-.1.15-.14.25.13 0 .16-.14.25-.06.22 1.09-.26 2.24-.42 3.36 0 .4.92.23.5.74l-.33-.14c.39.82 0 1.68.32 2.48-.07 0-.17 0-.17-.13-.24.17 0 .63.18.64 0 .12-.18 0-.28.1s.31.43.07.52c0 0-.08 0-.09-.08s0 .52.24.41c-.13.31.13.58 0 .82.31.16-.15.52.29.57-.45 0-.36.53-.15.72-.14-.06-.14.17-.33.09 0 .22.09.42.32.38-.54.4.44.81-.26 1a10.45 10.45 0 0 1 .52 1.83c-.45 0-.05-.64-.52-.62.18.56.57.88.46 1.42-.06.15-.19-.08-.27-.12.18.55 0 1.06.2 1.56 0 0-.08-.06-.12-.11s-.07.23.14.21l-.06-.09c.3-.15.63.38.78.4-.58-.16-.14.49-.89.23a.31.31 0 0 0 .28.13c0 .09-.12.12-.28 0 .11.35.33.23.33.54-.1 0-.14-.06-.26-.09.19.15.39.31.3.58-.06 0-.13 0-.13-.06 0 .45.51.77.33 1.27-.44-.15-.15.17-.52.2l.11.27.18-.11c0 .24.27.44.15.65l-.16-.18.07.44.14-.25c.2.24.48 0 .37.29 0-.06 0 .24-.22.36.12.12.24.24.15.41s-.41 0-.49 0c.31.12.08.56.42.7a.53.53 0 0 0-.32 0l.26.09a.23.23 0 0 1-.28.11c-.05.33.47-.1.27.29 0 0-.06 0-.1-.08-.1.39.16.75 0 1.11-.38.11-.1-.31-.41-.19.07.52.45 1.07.36 1.57v-.09c.53.07-.26.37 0 .63 0-.06-.29-.08-.24-.07-.08.35.13.71.3 1.23l-.15-.01c-.12.21-.06.54-.13.75.14.07.12.19.32.12-.78.67.41 1.29-.23 1.88 0-.07-.12-.17-.12-.11l.12.51c.23 0 .14-.07.32-.17a.39.39 0 0 1 .24.33c-.15-.23-.37 0-.5.1h.22c-.41.27.47 0 .19.41h-.12c.06.14.22.26.19.41-.27.06-.12-.15-.35-.16 0 .21.51.41.24.6-.07-.09-.07-.22-.15-.3-.31.2-.23.22-.28.37l-.14.35.08-.09c.7.26.13.52.58.87-.43-.34-.25 0-.55-.08-.08.09-.18.22-.26.19.24.16-.19.27.16.5-.09 0 0 .18-.25.14.08.21.17 0 .29 0 .33.33-.4.77.05 1.24.19.41.52.49.69.87-.16.12-.36-.11-.36-.11a.47.47 0 0 0 0 .56c-.08 0-.15 0-.26.06s.35.1.21.31a1.61 1.61 0 0 1-.39-.16c.09.19.27.37.36.56-.17 0-.26-.12-.37-.18.08.21.15.55.42.62l.1-.14c0 .08-.23 0-.28 0-.21-.18.09-.26.19-.27l.06.13c.57-.14-.09-.54-.06-.81l.42.11-.35-.28c.11-.06.34-.1.41 0 .2-.19-.15-.17.08-.34h.07l-.13-.19c.09 0 .3 0 .24.08.24-.34-.31-.55 0-.68-.14-.47-.31 0-.67-.4l.76-.24h-.31s0-.15.16-.13c-.21-.18-.14 0-.33-.07.28-.24-.13-.65.35-.71-.23-.08-.17.23-.34 0 .53-.08-.09-.3.15-.51.28.07.13.27.37 0-.45-.13.1-.42 0-.6-.36 0-.15-.39-.27-.7.12 0 .2-.58.33-.86h.06c-.36-.06-.29-.35-.37-.56.22 0 .31 0 .4.16v-.2A.35.35 0 0 1 25 92l.28.05c0-.27-.33-.54-.14-.88-.26 0-.72.27-.89-.09.14 0 .38 0 .43.07s-.11-.12-.05-.18l.23.15c.1-.16-.19-.08-.17-.21.2 0 .14-.09.3-.07s-.09.1 0 .15a.58.58 0 0 1 .3-.37c-.11 0-.26 0-.29-.1 0-.27.24-.09.34-.25-.14-.06 0-.23-.29-.24 0-.07.14-.09.22-.12-.13-.14 0-.64-.35-.49-.3-.46.16-1 0-1.4H25c-.11-.26-.06-.59-.27-.78 0-.08.18-.19.29-.16-.07-.2-.18-.23 0-.52.17.2.15-.07.13.21.08-.27.24-.33 0-.61.25.09.32-.2.24-.33l-.18.19a1.07 1.07 0 0 1 0-.4l.33.07c.41-.55-.69-1 0-1.4-.23-.14-.16.3-.43.17 0-.25.52-.51.52-.59.18-.35-.49-.32-.36-.68-.12 0-.44.09-.55-.18 0-.25.5-.31.59-.15s0 .09-.06.08.09.19.22.09h-.12c.12-.12.11-.47.3-.39-.11-.19-.19-.08-.25.06.17-.32 0-.5.12-.83-.07.05-.21.1-.21 0 .15-.48-.22-.21-.27-.54.18-.19.43.07.28-.26.12-.21.31 0 .41 0-.23-.3.15-.56.19-.73l.1.16a.45.45 0 0 1-.06-.26l-.23.09c0-.09 0-.17.14-.17-.16-.09-.4.08-.61-.11.12-.13-.13-.38.18-.43-.1.4.32 0 .37.29a.24.24 0 0 1 0-.23h.08c.28-.38-.36-.18-.35-.57.18 0 .34-.09.3-.15 0 .16-.3.08-.43-.07.14-.25-.1-.27-.09-.4l-.06.15c-.18 0-.16-.18-.21-.35.13 0 .09.16.15.1-.31-.2.33-.44.12-.71.12-.12.33 0 .41-.12-.23-.3.24-.33.05-.64-.24.09-.18.1-.41-.12l.17.52-.35-.33c0 .15.15.33.11.42-.19-.16-.13-.14-.33-.06.36-.22-.21-.43 0-.68h.59c.27-.38-.3-.67-.15-1.15l-.11.16c-.23-.07 0-.3-.12-.46.2 0 .27-.09.39-.15-.15 0 0-.36-.38-.4l.26-.22c.1-.39-.56-.45-.5-.82.22.11.36-.06.51.19 0-.12 0-.24-.1-.24.13-.07-.26-.35-.08-.46-.08-.06-.29-.07-.27-.21a.12.12 0 0 1 .09 0c-.09 0-.13-.22-.35-.1.62-.39 0-1.08.49-1.42a5.76 5.76 0 0 1-.15-.86c.06 0 .1 0 .08.05.18-.34-.57-.21-.36-.6.32-.2.17.21.29.08.65 0-.09-.47.29-.73v.06c.22-.2-.25-.49-.2-.82a.16.16 0 0 0 .1 0 1.63 1.63 0 0 1-.53-1c.25.1.13.14.39.08 0-.14-.42 0-.49-.24.14-.09.26-.3.54-.32v.26c.36-.13 0-.34 0-.48h.16c0-.4-.44-.41-.41-.85h-.12c-.39-.24.21-.2-.07-.45l.39-.07a3.44 3.44 0 0 1-.45-.84c.29.16.44.5.61.7 0-.15 0-.53-.22-.61 0 .06.13.14.07.2a.85.85 0 0 1-.46-.76c.77.06.2-.81.79-1-.28-.55.12-1.1.08-1.74-.6.22 0-.19-.63-.15v-.22l.36-.46c.18-.11.14.14.28.13 0-.33.26-.14.42-.36-.22 0-.31-.11-.23-.3l-.28.27c-.33-.46.51-.4.19-.87l.19.15c-.11-.24 0-.88-.49-1.11.07 0 .24-.1.28 0 .08-.57-.52-1.27-.22-1.71h.15c0-.1-.28-.18-.13-.31s.15 0 .16 0-.26-.28-.17-.42l.16.12c.2-.56-.41-.85-.51-1.32.44 0 .59-.43.66-.65h.06c0-.65-.37-1.1-.54-1.7.48-.37.2-1.26.47-1.85-.08.09-.34 0-.39-.12s-.3-.39.1-.37c.4-.1.29-.39.31-.62h-.53c.76-.59-.29-1.54.4-1.86-.13-.15-.13-.32-.26-.46h.28a2.56 2.56 0 0 0 0-1.08l.21.1c0-.27-.82-.35-.84-.6l.42-.07c0-.48.37-1 0-1.44.06 0 .18 0 .2.1 0-.22.28-.87-.3-.79.38 0 0-.49-.13-.75h.28c-.35-.22-.45-.22-.55-.53 0-.07.22-.06.15 0 .15-.25-.26-.19-.11-.48l.18.11c0-.25-.08-.23-.29-.37s.07-.47.33-.5c-.16 0-.36-.17-.29-.32a.22.22 0 0 1 .18.06c.19-.41-.32-.61 0-.9a.3.3 0 0 0 .17 0 2.37 2.37 0 0 1 0 .56c.25 0 .3-.26.65 0-.19-.21-.61-.58-.49-.84h.09a.18.18 0 0 0 0-.17.44.44 0 0 0 .07-.21c.22 0 .12-.31.13-.44-.28 0-.24-.16-.47 0l.05.12v.33c-.14-.1-.26-.21-.11-.36l-.45-.18c.39-.18.6-.53.84-.58-.15-.41-.1-1-.63-1.21-.07-.11.15-.13.24-.17s0 .14.12.18c-.14-.23-.06-.68-.43-.74.17-.28.34.17.29-.23h.11c.59-.78-.94-1.27-.19-2.14 0 .06-.07.1-.13.11.34-1-.31-2 .22-3 .11-.28-.13-.31-.31-.48l.3-.06-.34-.29c-.26-.41.74-.71.25-1.23l-.2.07c0-.19-.12-.59.11-.56 0 0-.21-.06-.1-.14h.16l-.21-.14c.11-.36.62.05.65-.46-.06-.2-.46-.55-.56-.48a.26.26 0 0 1-.26.2l-.08-.17c-.47 0-.94-.17-1.27.26l.28.3-.22.1v-.25c-.22.14 0 .23.1.34a.39.39 0 0 0-.25.12l.45.3c-.19 0-.36-.14-.47.06.21.14.41-.13.55.1-.21.14-.39.1-.2.27a.23.23 0 0 1-.25-.08c.14.15.06.4.3.48-.26.15.07.51-.37.49a.82.82 0 0 1 .37.41c-.53-.26 0 .51-.6.45.47.18.21.67.47 1 0 0-.11 0-.09-.08 0 .19-.18.24-.27.36.39 0 .48.32.72.47-.37.23-.46-.14-.82-.06.32 0 .32.39.58.31-.23.18-.11.16-.44.25.49 0 .09.16.39.3-.24.26-.46.07-.31.35-.15.13-.33-.12-.33-.12m.85 6.61a.83.83 0 0 1 0-.13v.13m0 .56a1.77 1.77 0 0 0 0-.24c.09 0 .19 0 .19.06s-.12.1-.2.18m1.94-1.18c0 .09 0 .12-.07.13a.49.49 0 0 0 0-.15h.14M10.9 33.18c0 .28.37.13.58.19.1.34-.27.16-.46.28.1.21.43.37.42.53s-.08 0-.16 0c.29.23 0 .66.38.92h-.09a1.92 1.92 0 0 1 .51 0c0 .13.23.23 0 .28 0-.08-.09-.08-.16-.12l.1.13c-.35.12-.12-.18-.38-.18.12.26.4.56.31.76-.34 0-.12-.46-.42-.2l.13-.3c-.54.23 0-.19-.54 0-.09.41.18.46.08.86.19.09.28 0 .47.06.33.58-.86.45-.41.87.23.11.66.16.43.46l-.38-.11c0 .4.55.23.29.64-.15-.08-.12-.31-.17-.25-.3.27.22.19.22.39h-.34c0 .42.3.88.36 1.34-.1 0-.21-.1-.31 0a3 3 0 0 1-.25 1.8l.3.22a.13.13 0 0 1-.19 0c-.11.22.18 0 .3.12s-.17.17-.26.09c.25.38.54 1.1.22 1.5l-.08-.07c-.12.31.6.35.32.65l-.05-.06c-.12.69.14 1.45-.3 2 .42.1-.19.68.4.73-.29.39-.4.28-.59.83 0 .15.37.22.43.41h-.31l.32.25-.37.13.08.17a.24.24 0 0 1 .23-.13c.14.26-.21.65-.37.66l.26.63c-.13 0-.17-.12-.25-.2.32.33-.32.06 0 .37h.24a.77.77 0 0 0-.11.76h-.21c-.05.47.1 1 .1 1.52.1-.19.47-.15.5 0l-.32.06c.2.1.12-.16.37 0 0 .2-.38.14-.48 0l.11.24c-.1 0-.15 0-.27-.05.2.09-.33.41 0 .55H11c0 .53.11.77.12 1.2.28 0 .22.18.45.3a3.26 3.26 0 0 0-.29 1.05c.14.27.24.08.41.2-.26 0-.23.4-.42.2a3.37 3.37 0 0 0 .26 1.16c.1-.06.15-.13.24-.1s-.11.24-.23.23c.38.65-.75 1.49-.21 2l.28.54c0 .24-.19-.15-.35 0 .43.58-.06.91.22 1.39-.75.36.05 1.3-.43 1.8h.18c.17.13-.1.15-.14.25.14 0 .16-.14.25-.06.22 1.09-.26 2.24-.42 3.36 0 .4.92.23.5.74l-.33-.14c.39.82 0 1.68.32 2.48-.07 0-.17 0-.17-.13-.24.17 0 .63.18.64 0 .12-.18 0-.28.1s.31.43.07.52c0 0-.07 0-.09-.08s0 .52.24.41c-.13.31.13.58 0 .82.31.16-.15.52.29.57-.45 0-.36.53-.15.72-.14-.06-.14.17-.33.09 0 .22.09.42.32.38-.54.4.44.81-.26 1a10.45 10.45 0 0 1 .52 1.83c-.45 0-.05-.64-.52-.62.18.56.57.88.46 1.42-.06.15-.19-.08-.27-.12.19.55 0 1.06.2 1.56 0 0-.08-.06-.12-.11s-.06.23.14.21l-.05-.09c.29-.15.62.38.77.4-.58-.16-.14.49-.89.23a.31.31 0 0 0 .28.13c0 .09-.12.12-.28 0 .11.35.33.23.33.54-.1 0-.14-.06-.26-.09.19.15.39.31.3.58-.06 0-.13 0-.13-.06 0 .45.51.77.33 1.27-.43-.15-.15.17-.52.2l.11.27.18-.11c0 .24.27.44.15.65l-.16-.18.07.44.15-.25c.19.24.47 0 .36.29 0-.06 0 .24-.22.36.12.12.24.24.15.41s-.41 0-.49 0c.31.12.08.56.42.7a.53.53 0 0 0-.32 0l.26.09c-.08.11-.12.13-.28.11-.05.33.47-.1.27.29 0 0-.06 0-.1-.08-.1.39.16.75 0 1.11-.38.11-.09-.31-.41-.19.07.52.45 1.07.36 1.57v-.09c.53.07-.26.37 0 .63 0-.06-.29-.08-.23-.07-.09.35.13.71.29 1.23l-.14-.01c-.13.21-.07.54-.14.75.14.07.12.19.32.12-.78.67.41 1.29-.23 1.88 0-.07-.12-.17-.12-.11l.12.51c.23 0 .14-.07.32-.17a.39.39 0 0 1 .24.33c-.15-.23-.37 0-.5.1h.23c-.42.27.46 0 .18.41h-.12c.06.14.22.26.19.41-.27.06-.12-.15-.34-.16 0 .21.5.41.24.6-.08-.09-.08-.22-.15-.3-.32.2-.24.22-.29.37l-.14.35.08-.09c.7.26.13.52.59.87-.44-.34-.25 0-.56-.08-.08.09-.18.22-.26.19.24.16-.19.27.16.5-.09 0 0 .18-.25.14.08.21.17 0 .29 0 .33.33-.4.77 0 1.24.19.41.52.49.69.87-.16.12-.36-.11-.36-.11a.47.47 0 0 0 0 .56c-.08 0-.15 0-.26.06s.35.1.21.31a1.61 1.61 0 0 1-.39-.16c.09.19.27.37.36.56-.17 0-.26-.12-.37-.18.08.21.15.55.42.62l.1-.14c0 .08-.23 0-.28 0-.21-.18.09-.26.19-.27l.06.13c.57-.14-.09-.54-.06-.81l.42.11-.35-.28c.11-.06.34-.1.41 0 .2-.19-.15-.17.08-.34h.07l-.12-.19c.08 0 .29 0 .23.08.24-.34-.31-.55 0-.68-.14-.47-.31 0-.67-.4l.76-.24h-.31s0-.15.16-.13c-.21-.18-.13 0-.33-.07.28-.24-.13-.65.35-.71-.23-.08-.17.23-.34 0 .53-.08-.09-.3.15-.51.28.07.13.27.37 0-.45-.13.1-.42 0-.6-.37 0-.16-.39-.28-.7.12 0 .2-.58.33-.86h.06c-.36-.06-.29-.35-.37-.56.22 0 .31 0 .41.16v-.2A.35.35 0 0 1 13 92l.28.05c0-.27-.33-.54-.14-.88-.26 0-.72.27-.89-.09.14 0 .38 0 .43.07s-.11-.12 0-.18l.23.15c.1-.16-.19-.08-.17-.21.2 0 .14-.09.3-.07s-.09.1 0 .15a.58.58 0 0 1 .3-.37c-.11 0-.26 0-.29-.1 0-.27.24-.09.34-.25-.14-.06 0-.23-.29-.24 0-.07.14-.09.22-.12-.13-.14 0-.64-.35-.49-.3-.46.16-1 0-1.4H13c-.12-.26-.07-.59-.28-.78 0-.08.18-.19.29-.16-.07-.2-.18-.23 0-.52.17.2.15-.07.13.21.08-.27.24-.33 0-.61.25.09.32-.2.24-.33l-.18.19a1.07 1.07 0 0 1 0-.4l.33.07c.41-.55-.69-1 0-1.4-.23-.14-.16.3-.43.17 0-.25.52-.51.52-.59.18-.35-.49-.32-.36-.68-.12 0-.44.09-.55-.18a.39.39 0 0 1 .6-.15c0 .06 0 .09-.07.08s.09.19.22.09h-.12c.12-.12.11-.47.3-.39-.11-.19-.19-.08-.25.06.17-.32 0-.5.12-.83-.07.05-.21.1-.2 0 .14-.48-.23-.21-.28-.54.18-.19.43.07.28-.26.12-.21.31 0 .41 0-.23-.3.15-.56.19-.73l.1.16a.45.45 0 0 1-.06-.26l-.23.09c0-.09 0-.17.14-.17-.16-.09-.4.08-.61-.11.12-.13-.13-.38.19-.43-.11.4.31 0 .36.29a.27.27 0 0 1 0-.23h.08c.28-.38-.35-.18-.35-.57.18 0 .34-.09.3-.15 0 .16-.29.08-.43-.07.14-.25-.1-.27-.09-.4l-.06.15c-.18 0-.16-.18-.21-.35.14 0 .09.16.15.1-.31-.2.33-.44.12-.71.12-.12.33 0 .41-.12-.23-.3.24-.33 0-.64-.23.09-.18.1-.41-.12l.17.52-.35-.33c0 .15.15.33.11.42-.19-.16-.13-.14-.33-.06.36-.22-.21-.43 0-.68h.59c.27-.38-.3-.67-.15-1.15l-.1.16c-.24-.07 0-.3-.13-.46.2 0 .27-.09.39-.15-.15 0 0-.36-.38-.4l.26-.22c.1-.39-.56-.45-.5-.82.22.11.36-.06.51.19 0-.12 0-.24-.1-.24.13-.07-.26-.35-.08-.46-.08-.06-.29-.07-.27-.21a.12.12 0 0 1 .09 0c-.09 0-.13-.22-.35-.1.62-.39 0-1.08.49-1.42a5.76 5.76 0 0 1-.15-.86c.06 0 .1 0 .08.05.18-.34-.57-.21-.36-.6.32-.2.17.21.29.08.65 0-.09-.47.29-.73v.06c.22-.2-.24-.49-.2-.82a.16.16 0 0 0 .1 0 1.63 1.63 0 0 1-.53-1c.25.1.13.14.39.08 0-.14-.41 0-.49-.24.14-.09.26-.3.54-.32v.26c.36-.13 0-.34.05-.48h.16c-.05-.4-.44-.41-.41-.85h-.12c-.39-.24.22-.2-.07-.45l.39-.07a3.82 3.82 0 0 1-.45-.84c.29.16.44.5.61.7 0-.15 0-.53-.22-.61 0 .06.13.14.07.2a.82.82 0 0 1-.45-.76c.76.06.19-.81.78-1-.28-.55.12-1.1.08-1.74-.6.22 0-.19-.63-.15v-.22l.37-.46c.17-.11.13.14.27.13 0-.33.26-.14.42-.36-.22 0-.31-.11-.23-.3l-.28.27c-.33-.46.51-.4.19-.87l.19.15c-.11-.24 0-.88-.49-1.11.07 0 .24-.1.29 0 .07-.57-.53-1.27-.23-1.71h.15c0-.1-.28-.18-.13-.31s.15 0 .16 0-.26-.28-.17-.42l.17.12c.19-.56-.41-.85-.52-1.32.44 0 .59-.43.66-.65h.06c.05-.65-.36-1.1-.54-1.7.48-.37.2-1.26.47-1.85-.08.09-.34 0-.39-.12s-.3-.39.1-.37c.4-.1.29-.39.31-.62h-.53c.77-.59-.29-1.54.4-1.86-.13-.15-.13-.32-.26-.46h.28a2.56 2.56 0 0 0 0-1.08l.21.1c0-.27-.82-.35-.84-.6l.43-.07c0-.48.36-1 0-1.44.06 0 .18 0 .2.1 0-.22.28-.87-.3-.79.38 0 0-.49-.13-.75h.28c-.35-.22-.45-.22-.55-.53 0-.07.22-.06.15 0 .15-.25-.26-.19-.11-.48l.18.11c0-.25-.08-.23-.29-.37s.08-.47.33-.5c-.16 0-.36-.17-.29-.32a.2.2 0 0 1 .18.06c.19-.41-.32-.61-.05-.9a.27.27 0 0 0 .17 0 2.37 2.37 0 0 1 0 .56c.25 0 .3-.26.65 0-.19-.21-.61-.58-.49-.84h.09a.18.18 0 0 0 0-.17.44.44 0 0 0 .07-.21c.22 0 .12-.31.13-.44-.28 0-.24-.16-.47 0l.05.12v.33c-.14-.1-.26-.21-.11-.36l-.45-.18c.39-.18.6-.53.84-.58-.15-.41-.1-1-.63-1.21-.07-.11.15-.13.24-.17s0 .14.12.18c-.14-.23-.06-.68-.42-.74.16-.28.34.17.28-.23h.11c.59-.78-.94-1.27-.19-2.14 0 .06-.06.1-.13.11.34-1-.31-2 .22-3 .11-.28-.13-.31-.31-.48l.3-.06-.34-.29c-.26-.41.74-.71.25-1.23l-.2.07c0-.19-.12-.59.11-.56 0 0-.21-.06-.1-.14H13l-.16-.14c.11-.36.62.05.65-.46-.06-.2-.46-.55-.56-.48a.26.26 0 0 1-.26.2l-.08-.17c-.47 0-.94-.17-1.27.26l.29.3-.23.1v-.25c-.22.14 0 .23.1.34a.39.39 0 0 0-.25.12l.45.3c-.19 0-.36-.14-.47.06.21.14.41-.13.55.1-.21.14-.39.1-.2.27a.23.23 0 0 1-.25-.08c.14.15.06.4.3.48-.26.15.07.51-.37.49a.82.82 0 0 1 .37.41c-.53-.26 0 .51-.6.45.47.18.21.67.47 1 0 0-.11 0-.09-.08 0 .19-.18.24-.27.36.39 0 .48.32.72.47-.37.23-.46-.14-.82-.06.32 0 .32.39.58.31-.23.18-.11.16-.44.25.49 0 .09.16.39.3-.24.26-.46.07-.31.35-.15.13-.33-.12-.33-.12m.85 6.61a.83.83 0 0 1 0-.13v.13m0 .56a1.77 1.77 0 0 0 0-.24c.09 0 .19 0 .19.06s-.12.1-.2.18m1.94-1.18c0 .09 0 .12-.07.13a.49.49 0 0 0 0-.15h.14M4.91 24.6c0 .28.36.13.57.19.1.34-.27.16-.46.27.1.22.43.38.42.53s-.08.05-.16 0c.29.22 0 .66.38.92h-.09a1.58 1.58 0 0 1 .51 0c0 .12.23.23 0 .28 0-.08-.09-.08-.16-.12l.1.13c-.35.12-.12-.18-.38-.18.12.26.4.56.31.76-.34 0-.12-.46-.42-.2l.13-.31c-.54.24 0-.18-.54 0-.09.41.18.46.08.86.19.09.28 0 .47.06.33.57-.86.45-.41.87.23.11.66.15.43.45l-.38-.1c0 .39.55.23.29.64-.15-.08-.12-.31-.17-.25-.3.26.22.19.22.39h-.34c0 .42.3.88.36 1.34-.1 0-.21-.1-.31 0A3 3 0 0 1 5.1 33l.3.21c0 .05-.14.1-.19 0-.11.22.18 0 .3.12s-.17.16-.26.08c.25.39.54 1.11.22 1.51l-.08-.08c-.12.32.6.36.32.65-.12.69.14 1.45-.3 2 .42.1-.19.68.4.73-.29.39-.4.28-.59.83 0 .15.37.22.43.4h-.36l.32.25-.37.13.08.17a.23.23 0 0 1 .23-.13c.14.26-.21.65-.37.65l.26.64c-.13 0-.17-.12-.25-.21.32.34-.32.07 0 .37h.24a.79.79 0 0 0-.11.77h-.21c0 .47.1 1 .1 1.52.1-.19.47-.15.5 0l-.32.06c.2.1.12-.16.37 0 0 .2-.38.13-.48 0l.11.24c-.1 0-.15 0-.27-.06.2.1-.33.42 0 .56H5c0 .53.11.77.12 1.2.28 0 .22.17.45.3a3.26 3.26 0 0 0-.29 1c.14.26.24.08.41.2-.26 0-.24.4-.42.2a3.42 3.42 0 0 0 .26 1.16c.1-.06.15-.14.24-.1s-.11.24-.23.22c.38.64-.75 1.49-.21 2l.28.53c0 .25-.19-.14-.35 0 .43.57-.06.91.22 1.38-.75.37 0 1.31-.43 1.81h.18c.17.13-.1.15-.14.25.14 0 .16-.14.25-.06.22 1.08-.26 2.24-.42 3.35 0 .41.92.24.5.75l-.33-.15c.4.83 0 1.69.32 2.49-.07 0-.17 0-.17-.13-.24.17 0 .63.18.63 0 .13-.18 0-.28.11s.31.43.07.52c0 0-.08 0-.09-.08s0 .52.24.41c-.13.3.13.58 0 .82.31.16-.15.52.29.57-.45 0-.36.53-.15.72-.14-.07-.14.16-.33.09 0 .22.09.42.32.38-.54.4.44.81-.26 1a10.45 10.45 0 0 1 .52 1.83c-.45 0 0-.64-.52-.62.18.56.57.88.46 1.42-.06.14-.19-.08-.27-.13.19.56 0 1.07.2 1.56 0 0-.08 0-.12-.1s-.06.22.14.21v-.09c.29-.16.62.38.77.4-.58-.16-.14.49-.89.22a.28.28 0 0 0 .28.13c0 .1-.12.13-.28 0 .11.35.33.23.33.54-.1 0-.14-.06-.26-.1.19.16.39.32.3.59-.06 0-.13 0-.13-.07 0 .46.51.78.33 1.28-.43-.15-.15.17-.52.2l.11.27.18-.11c0 .23.27.44.15.65L5.72 74l.07.44.15-.25c.19.24.47 0 .36.29 0-.06 0 .24-.22.36.12.11.24.23.15.41s-.41 0-.49 0c.31.12.08.55.42.7a.64.64 0 0 0-.32 0l.26.1c-.08.11-.12.13-.28.11-.05.33.47-.11.27.28 0 0-.06 0-.1-.08-.1.4.16.76 0 1.12-.38.11-.09-.31-.41-.19.07.52.45 1.07.36 1.57v-.09c.53.07-.26.37 0 .63 0-.07-.29-.09-.23-.07-.09.35.13.7.29 1.22l-.13-.06c-.13.2-.07.53-.14.75.14.07.12.19.32.12-.78.67.41 1.28-.23 1.88 0-.07-.12-.17-.12-.11l.12.51c.23 0 .14-.07.32-.18a.41.41 0 0 1 .24.34c-.15-.23-.37 0-.5.1h.23c-.42.27.46 0 .18.41h-.12c.06.13.22.26.19.41-.27.06-.12-.15-.34-.16 0 .21.5.41.24.6-.08-.09-.08-.22-.15-.31-.32.21-.24.23-.29.38l-.14.35.08-.09c.7.25.13.52.59.87-.44-.34-.25-.06-.56-.08-.08.09-.18.22-.26.18.24.17-.19.28.16.51-.09 0 0 .18-.25.14.08.21.17 0 .29 0 .33.32-.4.77.05 1.24.19.41.52.49.69.87-.16.12-.36-.11-.36-.11a.47.47 0 0 0 0 .56c-.08 0-.15 0-.26.06s.35.1.21.31a1.61 1.61 0 0 1-.39-.16c.09.18.27.37.36.56-.17.05-.26-.12-.37-.19.08.22.15.56.42.62l.1-.13c0 .08-.23 0-.28 0-.21-.18.09-.26.19-.27l.06.13c.57-.14-.09-.54-.06-.82l.42.12-.35-.28c.11-.06.34-.1.41 0 .2-.19-.15-.17.08-.34h.07L6.67 89c.08 0 .29 0 .23.08.24-.34-.31-.55 0-.68-.14-.48-.31 0-.67-.4l.77-.19h-.31c0-.05 0-.15.16-.13-.21-.18-.13 0-.33-.07.28-.24-.13-.66.35-.71-.23-.08-.17.23-.34 0 .53-.07-.09-.29.15-.5.27.06.13.27.37.05-.45-.13.1-.42 0-.6-.37 0-.16-.4-.28-.7.12 0 .2-.58.33-.86h.1c-.36-.06-.29-.35-.37-.56a.44.44 0 0 1 .41.16v-.2a.35.35 0 0 1-.24-.31l.28.05c0-.27-.33-.54-.14-.88-.26 0-.72.27-.89-.09.14 0 .38 0 .43.06s-.11-.11-.05-.17l.23.15c.1-.16-.19-.09-.17-.21.2 0 .14-.09.3-.08s-.09.11 0 .16a.58.58 0 0 1 .3-.37c-.11 0-.29 0-.29-.1 0-.27.24-.09.34-.25-.14-.06 0-.23-.29-.24 0-.08.14-.09.22-.12-.13-.14 0-.65-.35-.49-.3-.45.16-.94 0-1.39H7c-.12-.27-.07-.59-.28-.79 0-.08.18-.18.29-.15-.07-.2-.18-.23 0-.52.17.2.15-.08.13.21.08-.27.24-.33 0-.62.25.1.32-.2.24-.32l-.18.18a1 1 0 0 1 0-.39l.33.07c.41-.55-.69-1 0-1.4-.23-.14-.16.3-.43.17 0-.25.52-.52.52-.59.18-.35-.49-.33-.36-.68-.12 0-.44.08-.55-.18a.38.38 0 0 1 .6-.15c0 .06 0 .08-.07.08s.09.19.22.09h-.12c.12-.13.11-.47.3-.39-.11-.19-.19-.08-.25.06.17-.32 0-.5.12-.84-.07.06-.21.11-.2 0 .14-.48-.23-.21-.28-.54.18-.19.43.07.28-.27.12-.2.31 0 .41 0-.23-.3.15-.56.19-.74l.1.16a.4.4 0 0 1-.06-.25l-.23.09c0-.09 0-.17.14-.17-.16-.09-.4.07-.61-.12.12-.12-.13-.38.19-.42-.11.39.31 0 .36.29a.29.29 0 0 1 0-.24h.08c.28-.37-.35-.17-.35-.56.18 0 .34-.09.3-.15 0 .15-.29.07-.43-.07.14-.25-.1-.27-.09-.4l-.06.15c-.18-.05-.16-.18-.21-.35.14 0 .09.16.15.09-.31-.19.33-.43.12-.7.12-.12.33 0 .41-.12-.23-.3.24-.33 0-.64-.23.09-.18.1-.41-.12l.17.52-.35-.33c0 .15.15.33.11.42-.19-.16-.13-.14-.33-.07.36-.21-.21-.42 0-.67h.59c.27-.38-.3-.67-.15-1.15l-.1.15c-.24-.06 0-.3-.13-.45.2 0 .27-.09.39-.15-.15 0 0-.36-.38-.4l.26-.22c.11-.39-.56-.45-.5-.82.22.11.36-.06.51.19 0-.13 0-.24-.1-.24.13-.07-.26-.35-.08-.46-.08-.06-.29-.07-.27-.22a.24.24 0 0 1 .09 0c-.09 0-.13-.22-.35-.09.62-.39 0-1.09.49-1.42A5.76 5.76 0 0 1 7.1 62h.08c.19-.34-.57-.21-.36-.6.32-.2.17.21.29.08.65 0-.09-.47.29-.73v.06c.22-.2-.24-.49-.2-.82a.16.16 0 0 0 .1 0 1.63 1.63 0 0 1-.53-1c.25.09.13.14.39.08 0-.14-.41 0-.49-.24.14-.09.26-.3.54-.33v.27c.36-.14 0-.34 0-.48h.16c0-.41-.44-.41-.42-.85h-.11c-.39-.24.22-.2-.07-.44l.39-.07a3.82 3.82 0 0 1-.45-.84c.29.16.44.5.61.7 0-.16 0-.53-.22-.61 0 .06.13.14.07.2a.83.83 0 0 1-.45-.76c.76.06.19-.81.78-1-.28-.56.12-1.1.08-1.75-.6.23 0-.18-.63-.15v-.22l.37-.45c.17-.11.13.14.27.13 0-.33.26-.14.42-.36-.22.05-.31-.11-.23-.3l-.28.26c-.33-.46.51-.39.19-.86l.19.15c-.11-.24 0-.88-.49-1.11.07 0 .24-.1.29 0 .07-.57-.53-1.27-.22-1.71h.14c0-.1-.28-.18-.13-.32s.15 0 .16 0-.26-.28-.17-.43l.17.13c.19-.56-.41-.86-.52-1.32.44 0 .59-.44.66-.65h.06c0-.64-.36-1.09-.54-1.69.48-.37.2-1.26.47-1.85-.08.09-.34 0-.39-.13s-.3-.38.1-.36v.05c.4-.11.29-.39.31-.62h-.53c.77-.58-.28-1.54.4-1.86-.13-.14-.13-.31-.26-.45h.28a2.51 2.51 0 0 0 0-1.07l.21.1c0-.28-.82-.35-.84-.6l.43-.08c0-.47.36-1 0-1.43.06 0 .18 0 .2.1 0-.23.28-.87-.3-.79.38 0 0-.49-.12-.75h.27c-.35-.22-.45-.23-.55-.53 0-.07.22-.06.15 0 .15-.24-.26-.18-.11-.48l.18.11c0-.24-.08-.22-.29-.36s.07-.47.33-.51c-.16 0-.36-.16-.29-.31a.18.18 0 0 1 .18.06c.19-.41-.32-.61 0-.9a.21.21 0 0 0 .17-.05 2.42 2.42 0 0 1 0 .57c.25 0 .3-.26.65-.05-.19-.22-.61-.58-.49-.84h.09a.16.16 0 0 0 0-.16.44.44 0 0 0 .07-.21c.22 0 .12-.31.13-.44-.28 0-.24-.16-.47 0v.11a.07.07 0 0 0 0 .06v.33c-.14-.1-.26-.21-.11-.36a4.71 4.71 0 0 1-.45-.19c.39-.18.6-.52.84-.57-.15-.41-.1-1-.63-1.21-.07-.11.15-.13.24-.17s0 .14.12.18c-.14-.23-.06-.68-.42-.74.16-.29.34.17.28-.23l.11.05c.59-.78-.94-1.27-.19-2.14a.2.2 0 0 1-.13.11c.34-1-.31-2 .22-3 .11-.27-.13-.3-.31-.47l.3-.06-.34-.29c-.26-.41.74-.71.25-1.23l-.2.06c0-.18-.12-.59.11-.56 0 0-.21-.06-.1-.13h.16l-.27-.46c.11-.36.62.05.65-.47-.06-.19-.46-.54-.56-.47a.26.26 0 0 1-.26.2l-.08-.17c-.47 0-.94-.17-1.27.26l.29.3-.23.1v-.25c-.22.14 0 .23.1.33a.45.45 0 0 0-.25.13l.45.3c-.19 0-.36-.14-.47.06.21.14.41-.13.55.1-.21.14-.39.1-.2.27a.23.23 0 0 1-.17.09c.14.15.06.4.3.48-.26.15.07.51-.37.49a.84.84 0 0 1 .37.4c-.53-.25 0 .52-.6.46.47.18.21.67.47 1 0 0-.11-.05-.09-.08 0 .18-.18.24-.27.36.39 0 .48.31.72.47-.37.23-.46-.14-.82-.07.32 0 .32.4.58.32-.23.18-.11.15-.44.24.49 0 .09.17.39.31-.24.25-.46.07-.31.34-.15.14-.32-.11-.32-.11m.84 6.61a.93.93 0 0 1 0-.14v.14m0 .56a1.85 1.85 0 0 0 0-.24h.19s-.12.1-.2.19m1.96-1.14c0 .09 0 .12-.07.13a.49.49 0 0 0 0-.15.42.42 0 0 1 .14 0"/></g><path d="M19.5 96h-2A13.46 13.46 0 0 1 4 82.57V23.9a13.46 13.46 0 0 1 13.5-13.43h2A13.46 13.46 0 0 1 33 23.9v58.67A13.46 13.46 0 0 1 19.5 96" fill="#fff"/><path d="M28.88 77.73c.81-3.71-3.21-4.51-5-4a31.3 31.3 0 0 1-5.39.56 31.3 31.3 0 0 1-5.4-.56c-1.77-.49-5.8.32-5 4s4.35 3.54 5.32 8.54 5.08 4.67 5.08 4.67 4.1.32 5.07-4.67 4.5-4.84 5.3-8.54m-6.63 13.53c2.18-.63 4.59 1.1 5.38 3.85s-.33 5.49-2.51 6.12-4.59-1.09-5.38-3.84.33-5.5 2.51-6.13m9 1c-2.1.85-4.68-.6-5.77-3.25s-.25-5.5 1.85-6.36 4.68.6 5.76 3.25.26 5.5-1.84 6.36m-16.5-1c2.18.63 3.3 3.38 2.51 6.13s-3.21 4.47-5.38 3.84-3.31-3.37-2.51-6.12 3.2-4.48 5.38-3.85m-5.12-8.6c2.11.86 2.93 3.71 1.85 6.36s-3.67 4.1-5.77 3.25-2.92-3.71-1.84-6.36 3.66-4.1 5.76-3.25" fill="#005394"/><path d="M20.5 2A14.52 14.52 0 0 1 35 16.5v73A14.52 14.52 0 0 1 20.5 104h-4A14.52 14.52 0 0 1 2 89.5v-73A14.52 14.52 0 0 1 16.5 2h4m0-2h-4A16.5 16.5 0 0 0 0 16.5v73A16.5 16.5 0 0 0 16.5 106h4A16.5 16.5 0 0 0 37 89.5v-73A16.5 16.5 0 0 0 20.5 0" fill="#005394"/></svg>