<svg xmlns="http://www.w3.org/2000/svg" width="480pt" height="290pt" viewBox="0 0 480 290" version="1.1" xmlns:xlink="http://www.w3.org/1999/xlink">
  <g id="surface2" transform="matrix(1,0,0,1,-151,55)" data-tpl_matrix="1,0,0,1,-0.5,-0.5">
    <path style="stroke:none;fill-rule:evenodd;fill:rgb(34.509804%,56.078431%,79.607843%);fill-opacity:1" d="M 256.500000 129.199219 C 256.398438 129.765625 256.285156 130.332031 256.148438 130.898438 L 253.351562 129.500000 L 253.648438 126.250000 L 257.199219 124.148438 C 257.066406 125.816406 256.832031 127.500000 256.500000 129.199219 "/>
    <path style="stroke:none;fill-rule:evenodd;fill:rgb(7.058824%,61.568627%,28.627451%);fill-opacity:1" d="M 251.398438 143.101562 C 251.035156 143.699219 250.683594 144.300781 250.351562 144.898438 C 250.285156 144.933594 250.234375 145.000000 250.199219 145.101562 C 249.867188 145.601562 249.535156 146.101562 249.199219 146.601562 C 249.132812 146.699219 249.066406 146.800781 249.000000 146.898438 C 248.667969 147.367188 248.332031 147.832031 248.000000 148.300781 C 247.964844 148.332031 247.933594 148.367188 247.898438 148.398438 L 242.101562 152.101562 L 236.398438 150.398438 L 239.148438 145.199219 L 237.500000 138.800781 L 237.000000 134.101562 L 237.851562 129.949219 L 232.949219 128.398438 L 229.351562 132.000000 L 223.398438 128.550781 L 225.250000 119.398438 L 228.500000 114.601562 L 228.351562 109.351562 L 232.550781 105.601562 L 229.449219 99.500000 L 226.500000 104.101562 L 222.550781 95.000000 L 228.398438 94.699219 L 226.148438 86.750000 L 219.898438 86.699219 L 218.250000 81.148438 L 213.699219 78.550781 L 209.250000 79.398438 L 204.601562 81.050781 L 209.351562 84.601562 L 204.699219 90.000000 L 207.699219 92.898438 L 206.949219 98.250000 L 200.250000 94.300781 L 199.601562 101.949219 L 203.148438 97.800781 L 210.351562 107.250000 L 207.699219 107.601562 L 202.449219 108.000000 L 197.300781 113.601562 L 195.398438 111.500000 L 190.000000 111.300781 L 187.550781 116.300781 L 191.351562 118.898438 L 193.648438 121.800781 L 196.199219 124.898438 L 204.199219 128.199219 L 204.949219 133.250000 L 209.648438 134.199219 L 213.300781 138.949219 L 209.300781 143.300781 L 205.699219 144.898438 L 205.101562 147.949219 L 201.800781 150.500000 L 201.398438 150.648438 L 197.449219 152.199219 L 195.351562 155.550781 L 195.851562 160.250000 C 195.417969 159.785156 194.566406 159.234375 193.300781 158.601562 C 192.867188 158.367188 192.464844 157.667969 192.101562 156.500000 C 191.734375 155.332031 191.550781 154.667969 191.550781 154.500000 L 190.000000 147.601562 L 193.398438 145.101562 L 194.500000 139.550781 L 191.500000 137.199219 L 188.449219 132.300781 L 191.699219 130.351562 L 192.750000 125.101562 L 191.351562 124.800781 L 188.800781 118.851562 L 183.898438 114.398438 L 185.449219 111.000000 L 183.148438 106.500000 L 185.050781 96.800781 L 191.699219 93.800781 L 197.101562 89.101562 L 197.851562 85.199219 L 195.648438 82.500000 L 201.550781 80.449219 L 207.949219 74.250000 L 207.250000 73.398438 C 208.351562 73.332031 209.464844 73.300781 210.601562 73.300781 C 213.566406 73.300781 216.582031 73.601562 219.648438 74.199219 C 220.617188 74.398438 221.566406 74.617188 222.500000 74.851562 C 222.800781 74.917969 223.082031 75.000000 223.351562 75.101562 C 224.050781 75.300781 224.765625 75.515625 225.500000 75.750000 C 225.734375 75.816406 225.964844 75.898438 226.199219 76.000000 C 227.101562 76.300781 227.984375 76.632812 228.851562 77.000000 C 229.015625 77.101562 229.183594 77.183594 229.351562 77.250000 C 230.082031 77.550781 230.800781 77.882812 231.500000 78.250000 C 231.734375 78.351562 231.984375 78.464844 232.250000 78.601562 C 232.949219 78.964844 233.632812 79.351562 234.300781 79.750000 C 234.464844 79.851562 234.617188 79.933594 234.750000 80.000000 C 235.550781 80.500000 236.332031 81.015625 237.101562 81.550781 C 237.300781 81.648438 237.484375 81.785156 237.648438 81.949219 C 238.250000 82.351562 238.832031 82.785156 239.398438 83.250000 C 239.632812 83.417969 239.851562 83.566406 240.050781 83.699219 C 241.484375 84.898438 242.851562 86.167969 244.148438 87.500000 C 244.316406 87.667969 244.484375 87.851562 244.648438 88.050781 C 245.183594 88.582031 245.683594 89.132812 246.148438 89.699219 C 246.285156 89.867188 246.417969 90.035156 246.550781 90.199219 C 247.148438 90.898438 247.734375 91.617188 248.300781 92.351562 C 248.367188 92.484375 248.449219 92.617188 248.550781 92.750000 C 249.015625 93.382812 249.464844 94.035156 249.898438 94.699219 C 250.000000 94.898438 250.132812 95.101562 250.300781 95.300781 C 250.699219 96.000000 251.101562 96.714844 251.500000 97.449219 C 251.566406 97.550781 251.632812 97.648438 251.699219 97.750000 C 252.132812 98.550781 252.550781 99.382812 252.949219 100.250000 C 253.050781 100.449219 253.132812 100.632812 253.199219 100.800781 C 253.535156 101.500000 253.832031 102.199219 254.101562 102.898438 C 254.199219 103.132812 254.285156 103.351562 254.351562 103.550781 C 254.683594 104.417969 255.000000 105.300781 255.300781 106.199219 L 249.449219 113.250000 L 247.148438 107.601562 L 242.000000 106.000000 L 235.148438 108.398438 L 234.000000 112.800781 L 238.199219 116.500000 L 243.101562 112.000000 L 248.550781 117.949219 L 252.699219 117.351562 L 256.449219 114.351562 L 257.351562 118.148438 C 257.351562 118.148438 257.351562 118.148438 257.351562 118.148438 C 257.417969 119.214844 257.433594 120.285156 257.398438 121.351562 L 251.500000 124.851562 L 250.898438 130.800781 L 255.550781 133.199219 C 254.515625 136.734375 253.132812 140.035156 251.398438 143.101562 "/>
    <path style="stroke:none;fill-rule:evenodd;fill:rgb(34.509804%,56.078431%,79.607843%);fill-opacity:1" d="M 227.250000 107.250000 L 228.449219 105.351562 L 229.199219 104.148438 L 229.699219 105.050781 L 227.250000 107.250000 "/>
    <path style="stroke:none;fill-rule:evenodd;fill:rgb(34.509804%,56.078431%,79.607843%);fill-opacity:1" d="M 256.550781 111.250000 L 255.000000 112.500000 L 251.699219 115.101562 L 250.750000 115.250000 L 251.199219 114.699219 L 256.000000 108.898438 C 256.199219 109.667969 256.382812 110.449219 256.550781 111.250000 "/>
    <path style="stroke:none;fill-rule:evenodd;fill:rgb(34.509804%,56.078431%,79.607843%);fill-opacity:1" d="M 246.601562 112.449219 L 244.800781 110.449219 L 243.351562 108.851562 L 245.398438 109.500000 L 246.601562 112.449219 "/>
    <path style="stroke:none;fill-rule:evenodd;fill:rgb(34.509804%,56.078431%,79.607843%);fill-opacity:1" d="M 243.148438 108.750000 L 241.550781 110.250000 L 238.148438 113.351562 L 236.601562 111.949219 L 237.101562 110.148438 L 242.000000 108.398438 L 243.148438 108.750000 "/>
    <path style="stroke:none;fill-rule:evenodd;fill:rgb(34.509804%,56.078431%,79.607843%);fill-opacity:1" d="M 164.648438 111.000000 C 166.851562 100.765625 171.566406 92.332031 178.800781 85.699219 C 186.000000 79.066406 194.550781 75.050781 204.449219 73.648438 L 204.800781 74.050781 L 200.300781 78.398438 L 194.898438 80.250000 L 191.800781 81.300781 L 193.851562 83.898438 L 195.398438 85.800781 L 195.000000 87.851562 L 190.449219 91.800781 L 184.101562 94.648438 L 183.050781 95.148438 L 182.800781 96.300781 L 180.898438 106.000000 L 180.750000 106.800781 L 181.101562 107.500000 L 182.898438 111.000000 L 181.800781 113.449219 L 181.101562 114.949219 L 182.351562 116.101562 L 186.851562 120.148438 L 189.250000 125.699219 L 189.699219 126.800781 L 190.050781 126.851562 L 189.648438 128.851562 L 187.250000 130.250000 L 185.250000 131.500000 L 186.500000 133.449219 L 189.550781 138.398438 L 189.750000 138.750000 L 190.101562 139.000000 L 191.949219 140.449219 L 191.300781 143.699219 L 188.648438 145.699219 L 187.449219 146.601562 L 187.750000 148.050781 L 189.300781 154.949219 L 189.300781 155.000000 C 190.433594 159.101562 191.582031 161.035156 192.750000 160.800781 C 193.183594 161.000000 193.714844 161.382812 194.351562 161.949219 L 198.148438 165.199219 C 186.183594 161.632812 177.066406 154.832031 170.800781 144.800781 C 164.535156 134.734375 162.484375 123.464844 164.648438 111.000000 "/>
    <path style="stroke:none;fill-rule:evenodd;fill:rgb(34.509804%,56.078431%,79.607843%);fill-opacity:1" d="M 201.500000 166.050781 C 200.566406 165.851562 199.648438 165.632812 198.750000 165.398438 L 198.148438 159.949219 L 197.750000 156.050781 L 199.000000 154.050781 L 202.250000 152.800781 L 202.699219 152.601562 L 203.000000 152.500000 L 203.250000 152.300781 L 206.500000 149.750000 L 207.199219 149.250000 L 207.351562 148.398438 L 207.699219 146.500000 L 210.199219 145.398438 L 210.648438 145.199219 L 211.000000 144.851562 L 215.000000 140.449219 L 216.351562 139.050781 L 215.148438 137.500000 L 211.500000 132.750000 L 210.949219 132.050781 L 210.101562 131.898438 L 207.000000 131.250000 L 206.500000 127.851562 L 206.300781 126.550781 L 205.101562 126.050781 L 197.648438 122.949219 L 195.449219 120.300781 L 193.148438 117.449219 L 192.949219 117.199219 L 192.648438 117.000000 L 190.500000 115.500000 L 191.398438 113.648438 L 194.351562 113.750000 L 195.601562 115.101562 L 197.300781 117.000000 L 199.000000 115.148438 L 203.500000 110.199219 L 207.851562 109.851562 L 208.000000 109.851562 L 210.648438 109.500000 L 214.601562 109.000000 L 212.199219 105.851562 L 208.851562 101.398438 L 209.250000 98.550781 L 210.000000 93.199219 L 210.148438 92.050781 L 209.300781 91.199219 L 207.851562 89.851562 L 211.101562 86.101562 L 212.750000 84.199219 L 210.750000 82.699219 L 209.398438 81.750000 L 209.851562 81.601562 L 213.300781 80.949219 L 216.300781 82.648438 L 217.648438 87.300781 L 218.148438 88.949219 L 219.851562 88.949219 L 224.398438 89.050781 L 225.398438 92.500000 L 222.449219 92.648438 L 219.101562 92.800781 L 220.449219 95.851562 L 224.398438 105.000000 L 226.050781 108.800781 L 226.050781 109.398438 L 226.148438 113.851562 L 223.300781 118.101562 L 223.050781 118.449219 L 222.949219 118.949219 L 221.148438 128.050781 L 220.851562 129.699219 L 222.250000 130.500000 L 228.199219 134.000000 L 229.750000 134.898438 L 231.000000 133.601562 L 233.601562 131.000000 L 235.148438 131.500000 L 234.750000 133.648438 L 234.699219 134.000000 L 234.699219 134.351562 L 235.250000 139.050781 L 235.250000 139.199219 L 235.300781 139.351562 L 236.699219 144.851562 L 234.351562 149.300781 L 233.050781 151.750000 L 235.750000 152.601562 L 241.449219 154.300781 L 242.300781 154.550781 C 233.464844 162.582031 222.917969 166.714844 210.648438 166.949219 C 207.617188 166.949219 204.566406 166.648438 201.500000 166.050781 "/>
    <path style="stroke:none;fill-rule:evenodd;fill:rgb(0.392157%,0.392157%,0.392157%);fill-opacity:1" d="M 201.500000 166.050781 C 200.566406 165.882812 199.648438 165.667969 198.750000 165.398438 L 198.148438 160.000000 L 197.750000 156.101562 L 199.000000 154.050781 L 202.250000 152.800781 L 202.648438 152.601562 L 202.949219 152.500000 L 203.250000 152.300781 L 206.500000 149.800781 L 207.148438 149.250000 L 207.351562 148.398438 L 207.699219 146.550781 L 210.199219 145.398438 L 210.648438 145.250000 L 210.949219 144.851562 L 215.000000 140.500000 L 216.300781 139.050781 L 215.148438 137.500000 L 211.449219 132.750000 L 210.949219 132.050781 L 210.101562 131.898438 L 206.949219 131.300781 L 206.500000 127.851562 L 206.300781 126.550781 L 205.050781 126.050781 L 197.601562 123.000000 L 195.449219 120.351562 L 193.148438 117.449219 L 192.949219 117.199219 L 192.648438 117.000000 L 190.500000 115.500000 L 191.398438 113.648438 L 194.351562 113.750000 L 195.550781 115.148438 L 197.250000 117.050781 L 199.000000 115.148438 L 203.500000 110.199219 L 207.851562 109.898438 L 207.898438 109.898438 L 207.949219 109.851562 L 210.648438 109.550781 L 214.601562 109.050781 L 212.199219 105.851562 L 208.800781 101.398438 L 209.199219 98.550781 L 210.000000 93.250000 L 210.148438 92.050781 L 209.300781 91.250000 L 207.851562 89.851562 L 211.101562 86.101562 L 212.699219 84.199219 L 210.699219 82.750000 L 209.398438 81.750000 L 209.800781 81.601562 L 213.300781 80.949219 L 216.300781 82.699219 L 217.648438 87.300781 L 218.148438 88.949219 L 219.851562 89.000000 L 224.398438 89.050781 L 225.351562 92.500000 L 222.449219 92.648438 L 219.101562 92.851562 L 220.449219 95.898438 L 224.398438 105.000000 L 226.000000 108.800781 L 226.050781 109.398438 L 226.148438 113.898438 L 223.300781 118.101562 L 223.050781 118.500000 L 222.949219 118.949219 L 221.148438 128.101562 L 220.851562 129.699219 L 222.250000 130.550781 L 228.199219 134.000000 L 229.750000 134.898438 L 231.000000 133.648438 L 233.601562 131.050781 L 235.148438 131.500000 L 234.750000 133.648438 L 234.648438 134.000000 L 234.699219 134.351562 L 235.199219 139.050781 L 235.250000 139.199219 L 235.250000 139.351562 L 236.699219 144.898438 L 234.351562 149.300781 L 233.000000 151.800781 L 235.699219 152.601562 L 241.449219 154.300781 L 242.300781 154.550781 C 233.464844 162.582031 222.898438 166.714844 210.601562 166.949219 C 207.601562 166.949219 204.566406 166.648438 201.500000 166.050781 M 164.601562 111.050781 C 166.800781 100.816406 171.515625 92.382812 178.750000 85.750000 C 185.984375 79.117188 194.535156 75.101562 204.398438 73.699219 L 204.750000 74.101562 L 200.300781 78.449219 L 194.898438 80.300781 L 191.800781 81.351562 L 193.851562 83.898438 L 195.351562 85.800781 L 194.949219 87.851562 L 190.449219 91.800781 L 184.101562 94.699219 L 183.000000 95.199219 L 182.800781 96.351562 L 180.851562 106.050781 L 180.699219 106.800781 L 181.101562 107.550781 L 182.851562 111.050781 L 181.750000 113.449219 L 181.101562 115.000000 L 182.351562 116.101562 L 186.851562 120.199219 L 189.199219 125.699219 L 189.699219 126.851562 L 190.000000 126.898438 L 189.601562 128.898438 L 187.250000 130.300781 L 185.199219 131.500000 L 186.449219 133.500000 L 189.500000 138.449219 L 189.750000 138.800781 L 190.050781 139.050781 L 191.949219 140.500000 L 191.300781 143.750000 L 188.648438 145.699219 L 187.449219 146.601562 L 187.750000 148.050781 L 189.250000 155.000000 L 189.300781 155.050781 C 190.398438 159.117188 191.550781 161.050781 192.750000 160.851562 C 193.148438 161.050781 193.683594 161.433594 194.351562 162.000000 L 198.101562 165.250000 C 186.167969 161.683594 177.066406 154.867188 170.800781 144.800781 C 164.535156 134.765625 162.464844 123.515625 164.601562 111.050781 M 243.148438 108.800781 L 241.550781 110.250000 L 238.148438 113.351562 L 236.601562 112.000000 L 237.101562 110.148438 L 242.000000 108.449219 L 243.148438 108.800781 M 246.648438 112.449219 L 244.800781 110.398438 L 243.351562 108.851562 L 245.398438 109.500000 L 246.648438 112.449219 M 256.550781 111.300781 L 255.000000 112.500000 L 251.750000 115.148438 L 250.750000 115.300781 L 251.250000 114.699219 L 256.050781 108.898438 C 256.214844 109.699219 256.382812 110.500000 256.550781 111.300781 M 227.250000 107.250000 L 228.449219 105.351562 L 229.199219 104.148438 L 229.699219 105.050781 L 227.250000 107.250000 M 251.351562 143.101562 C 251.015625 143.699219 250.667969 144.285156 250.300781 144.851562 C 250.265625 144.917969 250.234375 144.984375 250.199219 145.050781 C 249.867188 145.582031 249.535156 146.101562 249.199219 146.601562 C 249.132812 146.699219 249.066406 146.800781 249.000000 146.898438 C 248.667969 147.367188 248.332031 147.816406 248.000000 148.250000 C 247.964844 148.316406 247.933594 148.367188 247.898438 148.398438 L 242.101562 152.101562 L 236.398438 150.398438 L 239.148438 145.148438 L 237.500000 138.800781 L 237.000000 134.101562 L 237.800781 129.949219 L 232.949219 128.398438 L 229.351562 132.000000 L 223.398438 128.550781 L 225.199219 119.398438 L 228.449219 114.550781 L 228.351562 109.351562 L 232.550781 105.601562 L 229.449219 99.500000 L 226.500000 104.101562 L 222.550781 94.949219 L 228.351562 94.699219 L 226.148438 86.750000 L 219.851562 86.648438 L 218.250000 81.148438 L 213.699219 78.550781 L 209.199219 79.351562 L 204.550781 81.050781 L 209.351562 84.601562 L 204.648438 90.000000 L 207.699219 92.898438 L 206.949219 98.199219 L 200.199219 94.300781 L 199.601562 101.949219 L 203.148438 97.750000 L 210.351562 107.250000 L 207.699219 107.601562 L 202.398438 108.000000 L 197.300781 113.601562 L 195.398438 111.500000 L 189.949219 111.300781 L 187.550781 116.300781 L 191.351562 118.898438 L 193.648438 121.800781 L 196.199219 124.898438 L 204.199219 128.199219 L 204.898438 133.250000 L 209.648438 134.148438 L 213.300781 138.898438 L 209.250000 143.300781 L 205.648438 144.898438 L 205.050781 147.949219 L 201.800781 150.500000 L 201.398438 150.648438 L 197.449219 152.199219 L 195.351562 155.550781 L 195.851562 160.250000 C 195.417969 159.785156 194.566406 159.234375 193.300781 158.601562 C 192.867188 158.367188 192.464844 157.667969 192.101562 156.500000 C 191.734375 155.332031 191.535156 154.667969 191.500000 154.500000 L 190.000000 147.550781 L 193.398438 145.050781 L 194.449219 139.550781 L 191.449219 137.199219 L 188.398438 132.300781 L 191.699219 130.351562 L 192.699219 125.050781 L 191.351562 124.800781 L 188.750000 118.800781 L 183.898438 114.398438 L 185.398438 110.949219 L 183.148438 106.500000 L 185.050781 96.800781 L 191.699219 93.800781 L 197.101562 89.101562 L 197.851562 85.199219 L 195.648438 82.449219 L 201.500000 80.449219 L 207.898438 74.250000 L 207.199219 73.398438 C 208.332031 73.332031 209.449219 73.300781 210.550781 73.300781 C 213.550781 73.300781 216.566406 73.582031 219.601562 74.148438 C 220.601562 74.351562 221.566406 74.582031 222.500000 74.851562 C 222.765625 74.917969 223.035156 74.984375 223.300781 75.050781 C 224.035156 75.285156 224.765625 75.515625 225.500000 75.750000 C 225.734375 75.816406 225.964844 75.882812 226.199219 75.949219 C 227.101562 76.285156 227.984375 76.632812 228.851562 77.000000 C 229.015625 77.066406 229.183594 77.132812 229.351562 77.199219 C 230.082031 77.535156 230.800781 77.867188 231.500000 78.199219 C 231.734375 78.332031 231.984375 78.464844 232.250000 78.601562 C 232.917969 78.964844 233.601562 79.351562 234.300781 79.750000 C 234.433594 79.816406 234.582031 79.898438 234.750000 80.000000 C 235.515625 80.464844 236.300781 80.964844 237.101562 81.500000 C 237.265625 81.632812 237.449219 81.765625 237.648438 81.898438 C 238.250000 82.332031 238.832031 82.785156 239.398438 83.250000 C 239.601562 83.382812 239.800781 83.535156 240.000000 83.699219 C 241.464844 84.898438 242.851562 86.167969 244.148438 87.500000 C 244.316406 87.667969 244.484375 87.851562 244.648438 88.050781 C 245.148438 88.582031 245.648438 89.132812 246.148438 89.699219 C 246.285156 89.832031 246.417969 89.984375 246.550781 90.148438 C 247.148438 90.882812 247.714844 91.617188 248.250000 92.351562 C 248.351562 92.484375 248.433594 92.601562 248.500000 92.699219 C 249.000000 93.367188 249.449219 94.035156 249.851562 94.699219 C 249.984375 94.898438 250.117188 95.101562 250.250000 95.300781 C 250.683594 96.000000 251.101562 96.699219 251.500000 97.398438 C 251.566406 97.500000 251.632812 97.617188 251.699219 97.750000 C 252.132812 98.550781 252.550781 99.382812 252.949219 100.250000 C 253.050781 100.417969 253.132812 100.601562 253.199219 100.800781 C 253.535156 101.500000 253.832031 102.199219 254.101562 102.898438 C 254.199219 103.101562 254.285156 103.316406 254.351562 103.550781 C 254.683594 104.417969 255.000000 105.300781 255.300781 106.199219 L 249.449219 113.250000 L 247.101562 107.601562 L 241.949219 106.000000 L 235.148438 108.398438 L 234.000000 112.800781 L 238.148438 116.500000 L 243.101562 112.000000 L 248.550781 117.949219 L 252.699219 117.351562 L 256.449219 114.300781 L 257.351562 118.148438 C 257.351562 118.148438 257.351562 118.148438 257.351562 118.148438 C 257.382812 119.214844 257.382812 120.285156 257.351562 121.351562 L 251.500000 124.851562 L 250.898438 130.800781 L 255.500000 133.199219 C 254.500000 136.699219 253.117188 140.000000 251.351562 143.101562 M 256.500000 129.199219 C 256.398438 129.765625 256.265625 130.332031 256.101562 130.898438 L 253.351562 129.449219 L 253.648438 126.250000 L 257.199219 124.148438 C 257.066406 125.816406 256.832031 127.500000 256.500000 129.199219 M 220.199219 71.148438 C 217.000000 70.515625 213.765625 70.199219 210.500000 70.199219 C 198.367188 70.433594 187.832031 74.234375 178.898438 81.601562 C 169.933594 88.964844 164.167969 98.582031 161.601562 110.449219 C 159.234375 124.382812 161.750000 136.867188 169.148438 147.898438 C 176.550781 158.933594 187.132812 166.000000 200.898438 169.101562 C 204.132812 169.699219 207.367188 170.015625 210.601562 170.050781 C 222.734375 169.816406 233.285156 166.015625 242.250000 158.648438 C 251.214844 151.285156 256.984375 141.648438 259.550781 129.750000 C 261.917969 115.851562 259.398438 103.382812 252.000000 92.351562 C 244.601562 81.316406 234.000000 74.250000 220.199219 71.148438 "/>
    <path style="stroke:none;fill-rule:evenodd;fill:rgb(0.392157%,0.392157%,0.392157%);fill-opacity:1" d="M 247.398438 99.000000 L 242.898438 95.500000 L 237.398438 97.000000 L 239.648438 100.351562 L 247.398438 99.000000 "/>
    <path style="stroke:none;fill-rule:evenodd;fill:rgb(0.392157%,0.392157%,0.392157%);fill-opacity:1" d="M 196.050781 106.750000 L 199.699219 107.449219 L 196.699219 103.351562 L 196.050781 106.750000 "/>
    <path style="stroke:none;fill-rule:evenodd;fill:rgb(0.392157%,0.392157%,0.392157%);fill-opacity:1" d="M 245.398438 130.851562 C 246.898438 132.285156 248.035156 133.367188 248.800781 134.101562 L 246.000000 127.800781 L 245.398438 130.851562 "/>
    <path style="stroke:none;fill-rule:evenodd;fill:rgb(34.509804%,56.078431%,79.607843%);fill-opacity:1" d="M 235.300781 14.648438 C 235.933594 14.648438 236.550781 14.714844 237.148438 14.851562 C 240.882812 15.949219 243.449219 19.050781 244.851562 24.148438 C 246.250000 29.250000 246.183594 35.199219 244.648438 42.000000 C 240.882812 55.066406 235.148438 62.066406 227.449219 63.000000 C 226.816406 63.000000 226.199219 62.917969 225.601562 62.750000 C 221.898438 61.683594 219.332031 58.601562 217.898438 53.500000 C 216.500000 48.398438 216.566406 42.433594 218.101562 35.601562 C 221.867188 22.566406 227.601562 15.582031 235.300781 14.648438 "/>
    <path style="stroke:none;fill-rule:evenodd;fill:rgb(0.392157%,0.392157%,0.392157%);fill-opacity:1" d="M 244.648438 42.050781 C 240.882812 55.117188 235.148438 62.101562 227.449219 63.000000 C 226.816406 63.000000 226.199219 62.933594 225.601562 62.800781 C 221.867188 61.734375 219.300781 58.632812 217.898438 53.500000 C 216.500000 48.398438 216.566406 42.449219 218.101562 35.648438 C 221.832031 22.582031 227.566406 15.601562 235.300781 14.699219 C 235.898438 14.667969 236.515625 14.734375 237.148438 14.898438 C 240.851562 15.964844 243.417969 19.050781 244.851562 24.148438 C 246.250000 29.285156 246.183594 35.250000 244.648438 42.050781 M 237.851562 11.898438 C 237.015625 11.699219 236.167969 11.601562 235.300781 11.601562 C 225.964844 12.632812 219.234375 20.417969 215.101562 34.949219 C 213.332031 42.683594 213.367188 49.433594 215.199219 55.199219 C 217.035156 60.964844 220.265625 64.500000 224.898438 65.800781 C 225.734375 66.000000 226.582031 66.101562 227.449219 66.101562 C 236.785156 65.066406 243.515625 57.285156 247.648438 42.750000 C 249.382812 34.984375 249.351562 28.234375 247.550781 22.500000 C 245.714844 16.734375 242.484375 13.199219 237.851562 11.898438 "/>
    <path style="stroke:none;fill-rule:evenodd;fill:rgb(0.392157%,0.392157%,0.392157%);fill-opacity:1" d="M 176.500000 15.648438 C 174.898438 15.648438 173.398438 15.964844 172.000000 16.601562 C 167.667969 18.699219 165.117188 22.750000 164.351562 28.750000 C 163.582031 34.750000 164.765625 41.398438 167.898438 48.699219 C 173.832031 61.035156 181.167969 67.535156 189.898438 68.199219 C 191.500000 68.199219 193.015625 67.882812 194.449219 67.250000 C 198.750000 65.148438 201.285156 61.101562 202.050781 55.101562 C 202.816406 49.101562 201.632812 42.449219 198.500000 35.148438 C 192.601562 22.816406 185.265625 16.316406 176.500000 15.648438 M 176.500000 18.750000 C 183.832031 19.316406 190.234375 25.199219 195.699219 36.398438 C 198.433594 42.800781 199.566406 48.648438 199.101562 53.949219 C 198.632812 59.214844 196.667969 62.714844 193.199219 64.449219 C 192.167969 64.917969 191.066406 65.132812 189.898438 65.101562 C 182.601562 64.535156 176.199219 58.648438 170.699219 47.449219 C 167.964844 41.050781 166.832031 35.199219 167.300781 29.898438 C 167.800781 24.632812 169.785156 21.132812 173.250000 19.398438 C 174.285156 18.964844 175.367188 18.750000 176.500000 18.750000 "/>
    <path style="stroke:none;fill-rule:evenodd;fill:rgb(34.509804%,56.078431%,79.607843%);fill-opacity:1" d="M 176.550781 18.699219 C 183.851562 19.300781 190.250000 25.183594 195.750000 36.351562 C 198.484375 42.785156 199.617188 48.632812 199.148438 53.898438 C 198.648438 59.199219 196.667969 62.699219 193.199219 64.398438 C 192.167969 64.867188 191.082031 65.101562 189.949219 65.101562 C 182.617188 64.500000 176.214844 58.617188 170.750000 47.449219 C 168.015625 41.015625 166.882812 35.167969 167.351562 29.898438 C 167.816406 24.601562 169.785156 21.082031 173.250000 19.351562 C 174.285156 18.917969 175.382812 18.699219 176.550781 18.699219 "/>
    <path style="stroke:none;fill-rule:evenodd;fill:rgb(0.392157%,0.392157%,0.392157%);fill-opacity:1" d="M 284.000000 41.199219 C 276.566406 41.433594 269.132812 45.035156 261.699219 52.000000 C 256.464844 57.101562 252.949219 62.535156 251.148438 68.300781 C 249.285156 74.667969 250.035156 79.667969 253.398438 83.300781 C 255.734375 85.632812 258.832031 86.816406 262.699219 86.851562 C 270.101562 86.617188 277.515625 83.015625 284.949219 76.050781 C 290.183594 70.949219 293.699219 65.515625 295.500000 59.750000 C 297.367188 53.382812 296.617188 48.382812 293.250000 44.750000 C 290.949219 42.417969 287.867188 41.234375 284.000000 41.199219 M 284.000000 44.300781 C 286.933594 44.265625 289.285156 45.132812 291.050781 46.898438 C 293.617188 49.800781 294.117188 53.785156 292.550781 58.851562 C 291.015625 63.917969 287.785156 68.917969 282.851562 73.851562 C 275.785156 80.351562 269.066406 83.648438 262.699219 83.750000 C 259.765625 83.785156 257.417969 82.917969 255.648438 81.148438 C 253.082031 78.250000 252.566406 74.265625 254.101562 69.199219 C 255.632812 64.132812 258.882812 59.132812 263.851562 54.199219 C 270.882812 47.699219 277.601562 44.398438 284.000000 44.300781 "/>
    <path style="stroke:none;fill-rule:evenodd;fill:rgb(34.509804%,56.078431%,79.607843%);fill-opacity:1" d="M 284.000000 44.250000 C 286.933594 44.250000 289.285156 45.117188 291.050781 46.851562 C 293.617188 49.750000 294.132812 53.734375 292.601562 58.800781 C 291.035156 63.898438 287.785156 68.898438 282.851562 73.800781 C 275.785156 80.300781 269.066406 83.617188 262.699219 83.750000 C 259.765625 83.750000 257.417969 82.867188 255.648438 81.101562 C 253.082031 78.199219 252.566406 74.214844 254.101562 69.148438 C 255.632812 64.082031 258.882812 59.101562 263.851562 54.199219 C 270.882812 47.699219 277.601562 44.382812 284.000000 44.250000 "/>
    <path style="stroke:none;fill-rule:evenodd;fill:rgb(0.392157%,0.392157%,0.392157%);fill-opacity:1" d="M 292.601562 122.199219 C 292.566406 122.199219 292.535156 122.199219 292.500000 122.199219 C 285.535156 122.101562 279.750000 120.765625 275.148438 118.199219 C 270.515625 115.667969 268.117188 112.464844 267.949219 108.601562 C 268.117188 104.734375 270.515625 101.500000 275.148438 98.898438 C 279.750000 96.332031 285.550781 95.000000 292.550781 94.898438 C 292.582031 94.867188 292.617188 94.867188 292.648438 94.898438 C 299.582031 95.000000 305.367188 96.316406 310.000000 98.851562 C 314.601562 101.417969 317.000000 104.632812 317.199219 108.500000 C 317.035156 112.367188 314.632812 115.582031 310.000000 118.148438 C 305.367188 120.750000 299.566406 122.101562 292.601562 122.199219 M 292.648438 91.800781 L 292.550781 91.800781 C 284.582031 91.933594 278.015625 93.566406 272.851562 96.699219 C 267.683594 99.832031 265.015625 103.800781 264.851562 108.601562 C 265.050781 113.398438 267.714844 117.351562 272.851562 120.449219 C 278.015625 123.550781 284.566406 125.167969 292.500000 125.300781 L 292.601562 125.300781 C 300.566406 125.167969 307.117188 123.535156 312.250000 120.398438 C 317.417969 117.265625 320.082031 113.300781 320.250000 108.500000 C 320.082031 103.699219 317.417969 99.750000 312.250000 96.648438 C 307.082031 93.515625 300.550781 91.898438 292.648438 91.800781 "/>
    <path style="stroke:none;fill-rule:evenodd;fill:rgb(34.509804%,56.078431%,79.607843%);fill-opacity:1" d="M 292.601562 122.199219 C 292.566406 122.234375 292.535156 122.234375 292.500000 122.199219 C 285.566406 122.101562 279.785156 120.785156 275.148438 118.250000 C 270.550781 115.683594 268.148438 112.464844 267.949219 108.601562 C 268.117188 104.734375 270.515625 101.515625 275.148438 98.949219 C 279.785156 96.351562 285.582031 95.000000 292.550781 94.898438 C 292.582031 94.898438 292.617188 94.898438 292.648438 94.898438 C 299.617188 95.000000 305.398438 96.332031 310.000000 98.898438 C 314.632812 101.433594 317.035156 104.632812 317.199219 108.500000 C 317.035156 112.367188 314.632812 115.601562 310.000000 118.199219 C 305.398438 120.765625 299.601562 122.101562 292.601562 122.199219 "/>
  </g>
  <g id="surface4">
    <text style="fill:rgb(0,42,70)" font-family="Comfortaa" font-size="50" transform="matrix(1,0,0,1,179,135)" xml:space="preserve"><![CDATA[Project Pawz]]></text>
    <text style="fill:rgb(0,42,70)" font-family="Satisfy" font-size="36" transform="matrix(1,0,0,1,179,190)" xml:space="preserve"><![CDATA[Rescue. Love. Repeat.]]></text>
  </g>
</svg>